<?xml version="1.0" standalone="no"?>
<!DOCTYPE svg PUBLIC "-//W3C//DTD SVG 20010904//EN"
 "http://www.w3.org/TR/2001/REC-SVG-20010904/DTD/svg10.dtd">
<svg version="1.0" xmlns="http://www.w3.org/2000/svg"
 width="1332.000000pt" height="850.000000pt" viewBox="0 0 1332.000000 850.000000"
 preserveAspectRatio="xMidYMid meet">
<metadata>
Created by potrace 1.16, written by Peter Selinger 2001-2019
</metadata>
<g transform="translate(0.000000,850.000000) scale(0.100000,-0.100000)"
fill="#000000" stroke="none">
<path d="M0 4250 l0 -4250 2181 0 2180 0 27 32 c15 17 32 41 37 52 6 12 42 34
85 52 41 18 86 37 99 43 14 6 31 11 38 11 20 0 15 -34 -6 -47 -17 -11 -91
-124 -91 -139 0 -3 21 -4 46 -2 l47 3 39 73 c35 66 42 102 17 87 -13 -9 -11 9
4 24 10 11 9 12 -3 6 -10 -6 -8 -1 4 13 23 26 45 30 25 5 -13 -16 -12 -17 4
-4 9 8 15 16 12 19 -6 6 24 42 36 42 4 0 5 -10 3 -22 -3 -14 2 -9 12 12 16 34
17 34 25 13 5 -13 11 -23 13 -23 3 0 3 6 0 13 -3 8 9 18 31 26 l35 12 -17 32
c-9 18 -18 26 -20 20 -3 -7 -9 -13 -15 -13 -6 0 -8 6 -5 14 3 8 -4 22 -15 33
-45 40 -44 94 2 118 15 8 51 16 81 20 l54 5 -65 -17 c-60 -17 -66 -21 -76 -53
-15 -44 -8 -60 27 -67 16 -3 27 -9 24 -13 -5 -8 20 -45 32 -45 4 -1 17 -6 29
-12 17 -10 30 -7 72 12 99 46 193 75 242 75 27 0 52 5 55 11 4 6 0 9 -10 7
-11 -2 -24 8 -35 27 -22 39 -38 41 -98 11 -27 -14 -52 -23 -54 -20 -3 2 -42
-11 -87 -31 -97 -41 -103 -42 -99 -12 3 22 48 39 48 18 0 -13 26 0 89 47 25
18 55 35 68 38 12 4 20 10 17 15 -6 11 44 32 56 24 5 -3 8 -11 6 -18 -1 -7 -1
-9 1 -4 3 4 12 7 20 7 9 0 14 3 10 6 -9 9 20 64 51 97 26 27 52 36 52 17 0 -5
-4 -10 -8 -10 -11 0 -72 -60 -72 -70 0 -19 39 4 44 26 4 14 10 22 15 20 12 -8
19 -76 9 -82 -15 -9 -8 -22 15 -28 34 -9 130 15 150 38 23 26 7 32 -32 11 -36
-18 -40 -10 -9 22 12 13 16 23 10 23 -7 0 -12 9 -12 21 0 11 -4 17 -10 14 -6
-3 -10 3 -10 13 0 22 -26 37 -35 22 -4 -6 -3 -15 1 -22 4 -7 3 -8 -4 -4 -7 4
-12 13 -12 21 0 23 -33 22 -71 -1 -23 -14 -45 -20 -62 -17 -27 5 -48 23 -27
23 6 0 9 4 5 9 -3 6 3 14 12 20 17 10 17 10 -1 11 -13 0 -16 3 -8 13 5 6 13
32 16 57 10 64 30 920 22 927 -3 4 -12 1 -18 -5 -7 -7 -17 -12 -23 -12 -5 1 1
10 15 21 22 19 26 32 32 113 3 50 7 195 9 321 3 211 4 219 9 100 4 -97 6 -111
8 -55 4 130 15 240 23 234 13 -8 8 110 -5 118 -8 6 -7 8 2 8 15 0 16 32 0 48
-9 9 -9 12 0 12 8 0 12 20 12 62 0 34 3 59 6 56 3 -3 5 -324 5 -714 0 -389 3
-713 8 -718 5 -6 11 -84 15 -174 4 -99 13 -179 22 -204 20 -57 30 -148 16
-148 -6 0 -9 -7 -5 -16 3 -9 12 -13 22 -9 9 4 27 8 41 10 14 2 38 7 54 11 26
6 27 5 17 -15 -7 -11 -9 -21 -5 -21 3 0 1 -7 -6 -15 -9 -11 -9 -15 -1 -15 9 0
9 -5 1 -20 -8 -15 -8 -20 2 -20 9 0 9 -3 1 -11 -8 -8 -6 -19 6 -40 17 -31 26
-35 36 -19 3 5 11 10 18 10 6 0 1 -7 -11 -16 -12 -8 -19 -20 -16 -26 4 -6 3
-8 -3 -5 -6 4 -19 0 -29 -8 -18 -13 -17 -13 9 -11 23 3 27 0 21 -13 -16 -39
-16 -51 0 -51 9 0 16 7 16 16 0 11 5 14 16 10 9 -3 19 -6 22 -6 4 0 -5 -8 -18
-17 -14 -10 -29 -17 -35 -15 -5 1 -2 -4 7 -11 10 -8 15 -17 11 -20 -12 -13 12
-6 31 8 17 13 18 15 3 15 -9 0 -17 5 -17 10 0 14 7 13 63 -7 l48 -17 56 29
c38 21 49 31 36 34 -10 2 -24 8 -32 15 -8 6 -30 17 -50 23 l-36 13 40 -5 c22
-2 58 -7 79 -11 28 -5 37 -4 32 4 -4 7 -2 12 3 12 6 0 11 7 11 15 0 8 4 15 9
15 5 0 13 9 16 21 5 16 9 18 21 8 8 -6 12 -14 9 -17 -3 -3 -1 -10 4 -16 6 -7
12 -24 15 -39 4 -22 1 -27 -15 -27 -26 0 -103 -40 -214 -110 -49 -31 -98 -59
-107 -63 -22 -8 -22 -16 0 -42 19 -23 72 -30 72 -10 0 7 7 18 15 25 9 7 13 15
11 18 -3 3 14 17 38 32 56 36 96 49 96 33 0 -5 -5 -8 -11 -8 -6 0 -19 -11 -28
-25 -15 -24 -15 -25 4 -10 19 14 19 14 6 -2 -9 -12 -21 -16 -37 -12 -20 5 -24
2 -24 -18 0 -29 17 -48 36 -41 7 3 29 -1 49 -7 44 -14 77 -7 106 23 12 12 19
16 15 10 -10 -18 4 -16 41 7 29 17 32 23 26 52 -7 40 0 35 15 -9 l11 -32 -62
-32 c-34 -18 -72 -37 -84 -43 -26 -13 -30 -26 -8 -26 8 0 15 -8 15 -17 0 -10
5 -25 11 -33 8 -11 9 -6 5 22 -2 21 -1 38 5 38 5 0 9 -8 10 -17 0 -12 2 -13 6
-5 3 7 0 19 -6 26 -9 10 -8 15 3 19 11 4 13 1 9 -10 -5 -13 -1 -15 20 -11 15
3 24 1 21 -3 -3 -5 -12 -9 -20 -9 -8 0 -14 -4 -14 -9 0 -15 43 0 68 23 25 22
50 64 63 106 7 23 7 23 8 3 1 -12 -4 -34 -9 -49 -14 -36 -9 -38 23 -8 24 22
27 23 27 6 0 -11 -29 -50 -65 -88 -36 -38 -65 -70 -65 -71 0 0 9 1 19 4 11 3
50 -3 86 -12 37 -9 79 -17 94 -17 29 -1 140 67 142 86 1 13 17 -24 18 -41 1
-14 -136 -58 -214 -69 -27 -4 -64 -13 -82 -20 -18 -8 -45 -14 -60 -14 -15 0
-45 -5 -66 -11 -36 -10 -38 -11 -20 -24 15 -12 139 -14 746 -15 511 0 734 3
749 11 15 8 19 8 14 0 -5 -8 803 -11 2953 -11 l2961 0 0 4250 0 4250 -6660 0
-6660 0 0 -4250z m4399 4113 c-26 -30 -230 -193 -243 -193 -8 0 -19 -7 -26
-15 -7 -9 -19 -14 -27 -11 -8 3 -12 2 -9 -3 4 -5 -11 -23 -32 -41 l-37 -31 40
19 c47 23 102 41 142 46 41 6 301 46 353 56 44 7 44 8 10 10 -31 2 -28 4 25
15 80 17 330 45 391 44 l49 -2 -60 -7 c-33 -5 -172 -44 -310 -88 -284 -91
-531 -162 -560 -161 -17 0 132 48 403 129 40 12 72 24 70 26 -2 2 -82 -19
-178 -46 -95 -28 -181 -50 -189 -50 -28 0 -205 -41 -226 -52 -11 -6 -31 -18
-45 -27 -32 -19 -26 -12 28 33 24 20 41 36 37 36 -13 0 -105 -71 -102 -79 1
-5 -9 -18 -23 -30 -14 -13 -19 -20 -13 -16 7 3 21 8 30 10 10 2 38 12 63 21
25 9 68 17 95 19 149 10 498 81 633 130 100 36 102 26 4 -13 -105 -41 -231
-77 -361 -103 -178 -35 -349 -79 -488 -125 -39 -13 -84 -24 -100 -25 l-28 -1
30 -9 c18 -5 44 -5 65 1 60 17 159 11 297 -17 73 -16 133 -30 133 -34 0 -3
-39 0 -87 7 -49 7 -167 13 -264 13 -153 1 -183 -2 -235 -20 -32 -11 -95 -29
-139 -39 l-80 -18 125 5 c69 2 161 11 206 19 97 17 198 18 404 3 163 -12 160
-12 430 41 25 4 56 6 70 3 20 -4 22 -2 10 6 -17 12 -7 13 103 11 38 -1 67 3
67 9 0 5 30 12 68 15 37 4 84 9 105 12 21 2 36 1 33 -4 -2 -4 20 -12 50 -18
43 -8 54 -7 54 3 0 7 -5 13 -11 13 -5 0 -7 5 -4 10 3 6 -2 10 -12 11 -10 0
-13 3 -6 5 6 3 28 -2 48 -10 58 -25 65 -18 12 10 -67 35 -256 83 -352 90 -85
7 -287 -23 -349 -50 -17 -8 -44 -18 -61 -22 l-30 -7 38 -7 c56 -10 57 -20 0
-20 -130 0 -265 13 -270 27 -3 8 -2 17 1 20 4 4 68 10 144 15 142 8 446 58
465 77 14 14 30 14 22 1 -12 -19 73 -11 87 8 7 10 20 22 28 27 8 4 2 -6 -14
-23 l-30 -32 60 0 c89 0 190 -25 245 -61 l49 -31 141 1 c78 1 146 4 151 7 5 3
169 6 366 7 196 1 335 0 307 -3 -44 -4 -36 -7 69 -19 65 -7 141 -20 170 -27
l51 -13 -45 5 c-439 52 -632 46 -1082 -37 -59 -11 -177 -28 -263 -39 -86 -11
-222 -33 -303 -50 -81 -17 -214 -39 -297 -50 -82 -11 -163 -24 -180 -29 -16
-6 -106 -19 -200 -31 -93 -12 -206 -28 -250 -36 -105 -19 -211 -38 -365 -64
-171 -29 -337 -69 -382 -91 -37 -19 -52 -34 -23 -23 11 4 13 2 9 -9 -3 -8 -17
-18 -32 -22 -37 -9 -36 -9 -44 17 -5 20 -6 18 -7 -9 l-1 -33 -34 18 c-31 15
-34 22 -38 70 -3 29 -10 58 -16 64 -7 7 -8 0 -2 -26 9 -40 6 -42 -30 -21 -14
8 -38 14 -55 15 -29 0 -29 -1 15 -27 25 -14 47 -28 50 -30 8 -7 -23 -22 -33
-16 -5 3 -4 -4 2 -15 6 -11 16 -23 23 -26 10 -5 10 -7 1 -12 -22 -10 -14 -22
15 -27 25 -4 24 -4 -6 -6 -18 0 -40 6 -48 14 -9 8 -23 15 -32 14 -13 0 -11 -3
6 -11 46 -23 19 -25 -65 -6 -57 13 -102 17 -128 13 -22 -4 -48 -7 -57 -8 -10
-1 -18 -5 -18 -10 0 -4 -4 -6 -9 -3 -5 4 -30 -10 -56 -30 -26 -19 -44 -31 -40
-25 15 26 -20 8 -53 -26 -32 -35 -34 -35 -18 -8 10 17 39 49 63 72 l45 41 -38
21 -39 20 35 -6 c41 -7 33 7 -13 24 -24 8 -27 12 -11 12 26 1 44 19 37 37 -3
8 -2 14 1 14 9 0 56 -29 79 -49 18 -15 18 -16 -5 -22 -22 -6 -22 -7 -4 -14 13
-6 21 -4 24 3 2 7 10 12 17 12 7 0 -3 16 -22 35 -19 19 -38 35 -42 35 -15 0
-91 72 -91 86 0 19 29 18 52 -3 17 -15 18 -15 18 3 0 11 -9 25 -20 31 -27 18
-101 121 -116 163 -15 41 -18 84 -5 76 4 -3 18 -32 29 -64 12 -32 33 -69 47
-82 28 -26 30 -24 15 16 -9 23 -5 21 28 -16 l39 -44 0 34 c0 19 5 36 12 38 9
3 9 7 0 18 -22 26 9 15 44 -16 19 -16 37 -30 41 -30 3 0 6 39 6 88 0 92 13 98
25 10 8 -57 25 -64 25 -10 0 24 15 68 39 118 36 75 42 82 87 101 60 26 122 43
149 42 11 -1 -2 -7 -30 -14 -71 -17 -108 -38 -148 -86 -40 -46 -87 -163 -87
-215 0 -53 17 -40 24 19 16 121 82 196 211 241 44 16 89 32 101 38 11 5 38 8
60 6 l39 -3 -58 -20 c-32 -11 -58 -24 -57 -29 1 -5 -22 -22 -52 -38 -55 -30
-112 -79 -130 -112 -6 -11 11 -1 38 22 31 26 67 45 99 53 28 7 70 26 95 43 44
30 44 30 20 38 l-25 7 25 -1 c53 -3 119 50 205 165 31 42 59 77 62 77 6 0 -33
-65 -64 -107 -12 -17 -23 -42 -23 -55 -1 -13 -7 -34 -15 -48 -27 -47 -15 -44
40 10 30 30 55 50 55 44 0 -5 -20 -28 -45 -51 -24 -24 -51 -57 -60 -75 -8 -18
-10 -24 -3 -13 37 58 117 123 188 152 83 34 134 48 127 36 -3 -5 3 -9 13 -9
14 0 16 3 8 13 -8 10 -7 12 4 8 8 -3 46 6 83 20 67 25 185 56 208 54 7 0 -25
-11 -71 -23 -79 -22 -186 -65 -178 -73 1 -2 45 8 97 21 52 14 171 39 264 56
187 35 241 50 237 69 -1 7 2 10 7 7 5 -3 53 30 107 73 105 84 115 91 93 64z
m6251 -252 l115 -6 -160 -8 c-88 -4 -203 -14 -255 -22 -55 -9 -120 -12 -155
-9 -71 7 -196 -12 -410 -61 -201 -47 -202 -47 -187 -37 31 21 -496 30 -679 12
-239 -24 -476 -73 -797 -166 -59 -17 -89 -21 -100 -14 -10 5 -14 10 -11 10 18
1 232 57 344 90 72 21 139 41 150 44 20 5 -76 -2 -119 -9 -11 -2 -57 -9 -101
-15 -108 -15 -206 -42 -290 -80 -38 -18 -138 -56 -220 -85 -170 -59 -355 -134
-370 -148 -6 -6 -3 -7 10 -3 24 7 240 63 275 71 38 9 -169 -66 -300 -109 -63
-21 -150 -56 -192 -77 -43 -21 -80 -39 -83 -39 -16 0 33 53 70 77 24 15 42 30
39 34 -9 14 33 48 86 69 30 13 69 28 85 36 17 7 79 24 138 38 103 25 184 53
367 130 211 87 555 140 1092 167 174 9 289 9 453 1 l220 -11 140 34 c144 35
256 55 405 74 47 6 96 13 110 15 39 5 204 4 330 -3z m-3329 -178 c-31 -58
-338 -363 -365 -363 -4 0 -12 -5 -19 -10 -24 -21 -122 -92 -141 -102 -13 -7
-16 -7 -12 1 11 18 -7 13 -85 -23 -77 -35 -215 -71 -309 -81 -68 -6 -69 -7
173 77 109 37 210 75 225 82 l27 15 -35 -5 c-260 -33 -531 -46 -543 -26 -3 4
14 5 38 4 28 -3 73 6 136 27 51 17 125 34 164 38 59 6 65 8 35 13 -19 3 42 7
135 8 94 1 177 3 185 4 48 4 218 150 326 280 65 77 84 95 65 61z m468 -397
c-16 -16 -435 -129 -594 -161 -68 -13 -240 -30 -220 -21 6 3 78 19 160 36 335
71 385 82 505 114 121 32 158 40 149 32z m-3739 -85 c69 -16 150 -39 180 -49
30 -11 90 -25 132 -32 97 -14 424 -8 440 8 13 13 32 16 25 5 -10 -17 241 -20
838 -10 298 4 309 4 95 -3 -251 -8 -472 -34 -567 -66 -50 -17 -151 -29 -363
-44 -74 -5 -145 -12 -157 -16 -31 -9 -29 2 5 21 15 9 18 13 7 9 -110 -40 -164
-47 -320 -47 -141 0 -166 2 -213 21 -94 39 -70 23 93 -61 149 -77 325 -182
325 -194 0 -3 -12 3 -27 13 -213 139 -462 245 -683 289 -117 24 -322 80 -359
99 -30 16 -31 16 -45 -11 -18 -35 -176 -123 -176 -99 0 23 37 54 114 94 38 21
81 44 95 52 36 21 180 17 355 -9 153 -23 211 -37 348 -82 116 -38 272 -57 403
-50 127 8 96 20 -70 27 -106 5 -136 11 -256 50 -164 52 -258 70 -460 84 -183
13 -217 18 -198 32 8 5 77 7 164 4 121 -4 174 -10 275 -35z m4420 -72 l-22
-54 28 25 c15 14 -14 -25 -65 -87 -76 -93 -107 -122 -189 -176 -53 -36 -116
-74 -139 -86 -47 -23 -99 -29 -87 -9 4 6 -8 3 -27 -9 -28 -17 -278 -106 -354
-127 -11 -3 5 -4 36 -2 31 3 65 9 75 15 11 5 43 17 72 25 48 13 52 13 40 -2
-11 -13 -10 -15 4 -9 29 10 160 36 218 41 30 4 73 8 95 11 48 6 30 -1 -84 -35
-76 -22 -95 -40 -21 -20 23 6 44 9 47 7 7 -7 -102 -37 -159 -44 -57 -7 -53
-13 24 -36 31 -10 67 -26 80 -36 22 -19 22 -19 -34 0 -149 50 -356 64 -588 39
-52 -5 -167 -9 -255 -8 -151 2 -154 2 -55 7 l105 6 -96 7 c-107 8 -129 14
-129 34 0 18 52 50 104 66 37 11 38 13 15 19 -20 5 -12 10 46 28 69 22 186 41
383 62 57 6 102 13 100 15 -2 1 -84 -1 -183 -6 -99 -5 -202 -9 -230 -9 -89 2
107 27 216 28 142 1 396 28 544 57 174 34 307 96 398 187 40 39 71 80 83 110
10 26 20 41 22 34 2 -8 -7 -38 -18 -68z m520 -88 c0 -16 -131 -96 -225 -138
-90 -41 -282 -103 -317 -103 -32 0 -19 17 28 35 25 9 43 19 40 22 -2 2 -15 0
-28 -7 -22 -10 -22 -10 -4 4 12 10 29 13 44 9 17 -4 23 -2 18 6 -4 6 -1 11 9
11 15 0 140 44 220 78 21 9 40 16 42 15 1 -1 35 16 75 37 74 40 98 47 98 31z
m-6229 -70 c-7 -5 -10 -14 -7 -20 5 -8 -10 -11 -46 -11 -29 0 -64 -3 -77 -7
-18 -5 -22 -3 -16 6 6 10 2 11 -16 5 -154 -49 -394 -114 -419 -113 -8 0 -10 2
-5 4 6 2 69 22 142 44 72 23 160 55 195 71 57 27 73 30 163 30 61 0 95 -4 86
-9z m-216 -101 c-18 -20 -18 -20 19 -5 21 9 42 15 48 13 15 -5 -28 -54 -92
-103 -32 -24 -71 -65 -88 -91 -68 -102 -94 -256 -59 -354 12 -34 13 -40 2 -26
-32 42 -54 234 -35 306 6 25 12 52 12 60 1 8 16 32 35 53 19 21 43 58 53 82
19 45 32 57 64 62 10 2 26 8 35 13 24 14 26 12 6 -10z m717 -121 c58 2 73 -2
108 -25 25 -17 43 -38 49 -58 5 -17 10 -23 10 -13 1 20 18 22 58 6 43 -16 44
-29 7 -64 -34 -32 -34 -32 -7 -27 15 3 24 1 20 -5 -3 -5 7 -14 24 -20 22 -8
29 -8 29 0 1 7 15 -4 33 -24 18 -20 48 -46 68 -58 39 -23 160 -146 180 -182 6
-12 -17 6 -52 39 -60 59 -188 137 -211 130 -5 -2 7 -15 28 -29 22 -15 55 -41
74 -59 35 -33 173 -130 185 -130 6 0 228 -176 345 -275 129 -108 240 -286 239
-380 l-1 -40 -12 50 c-24 100 -72 183 -149 259 -39 40 -98 92 -129 115 -81 61
-345 201 -366 195 -11 -4 -13 -3 -6 3 8 5 -11 21 -53 45 -36 21 -59 31 -52 22
7 -8 30 -24 51 -35 21 -11 38 -21 38 -24 0 -7 -53 18 -79 37 -13 10 -31 18
-40 18 -9 0 -27 12 -40 26 -13 13 -33 30 -45 36 -20 11 -20 10 -6 -8 8 -10 29
-36 48 -57 18 -21 30 -42 27 -47 -4 -6 2 -22 13 -38 56 -81 41 -68 -38 33 -35
44 -76 95 -93 113 -17 17 -26 32 -19 32 6 0 9 7 6 15 -4 10 -19 -3 -48 -43
-23 -31 -56 -70 -74 -86 -17 -17 -29 -33 -27 -37 6 -9 -28 -108 -50 -145 -9
-16 -14 -22 -11 -13 2 9 14 47 25 84 12 38 20 70 18 72 -2 2 -17 -27 -33 -64
-58 -136 -138 -277 -179 -317 -66 -65 -94 -83 -91 -60 1 9 16 22 33 29 33 14
52 38 103 130 18 33 43 73 56 88 13 16 22 33 19 37 -7 11 23 89 43 113 20 22
10 22 -38 -3 -59 -30 -62 -24 -5 9 36 21 54 38 63 63 6 19 20 43 31 55 30 31
11 51 -25 26 -16 -10 -49 -28 -74 -38 -60 -26 -120 -63 -120 -75 0 -13 8 -13
63 4 26 8 47 12 47 10 0 -2 -22 -15 -48 -28 -61 -31 -158 -50 -222 -44 -56 6
-59 0 -8 -12 l33 -7 -29 -12 c-36 -14 -142 -19 -180 -7 -22 7 -27 6 -22 -3 9
-14 -73 -6 -146 14 -26 8 -57 11 -69 8 -15 -4 -20 -3 -15 5 4 7 17 12 29 12
15 0 26 10 35 30 18 40 40 39 44 -2 2 -27 7 -32 23 -30 11 2 52 4 90 5 49 1
69 6 68 14 -2 9 4 10 23 3 31 -12 44 -13 25 -1 -10 7 -5 11 18 16 17 3 33 11
36 16 10 15 25 10 19 -6 -7 -18 48 -11 121 17 57 21 74 34 93 67 13 23 13 24
-10 18 -23 -6 -23 -6 -3 10 20 15 20 15 -2 8 -19 -5 -22 -3 -17 12 5 13 2 12
-10 -4 -21 -28 -94 -79 -133 -93 l-28 -10 25 20 c14 11 28 20 33 20 4 0 7 5 7
12 0 6 8 20 18 31 16 19 16 20 -5 8 -30 -15 -36 -14 -31 7 5 17 1 17 -44 -5
-27 -13 -51 -30 -54 -38 -4 -8 -10 -15 -15 -15 -5 0 3 19 17 43 21 32 22 38 7
25 -11 -10 -30 -18 -44 -18 -20 0 -21 2 -9 11 12 9 10 10 -8 6 -23 -5 -24 -1
-5 51 9 21 -12 13 -61 -25 -46 -36 -49 -42 -31 -85 6 -14 2 -18 -15 -18 -20 0
-22 3 -15 33 3 17 7 37 9 43 1 7 8 20 16 30 14 16 13 16 -7 5 -19 -10 -22 -9
-16 5 4 10 13 14 26 10 28 -7 94 22 100 44 4 16 -2 21 -32 26 -62 10 -110 24
-115 33 -3 5 13 12 37 16 l42 7 -40 12 c-36 12 -37 13 -15 17 14 3 24 10 22
17 -1 6 2 12 6 12 5 0 14 11 20 25 6 14 20 25 30 25 26 0 34 11 21 27 -18 20
-66 15 -116 -12 -25 -14 -47 -24 -50 -22 -7 8 84 82 135 110 28 15 70 31 94
37 99 21 173 42 197 56 18 10 40 12 71 8 25 -4 75 -6 112 -5z m5292 -434 c175
-26 367 -71 469 -109 65 -24 167 -73 167 -80 0 -2 -33 9 -74 24 -149 58 -354
105 -601 140 -77 11 -165 26 -195 34 l-55 14 62 1 c34 1 136 -10 227 -24z
m-198 -85 c40 -16 201 -48 270 -54 67 -6 225 -41 369 -82 177 -50 573 -186
611 -210 38 -24 38 -24 9 -19 -16 2 -55 12 -85 20 -163 46 -286 75 -316 75
-19 0 -78 7 -132 16 -53 8 -173 24 -266 33 -92 10 -171 23 -175 28 -3 6 -40
17 -81 25 -41 9 -62 16 -47 17 16 1 26 5 22 11 -5 8 8 15 18 8 1 -1 13 4 26
11 19 10 21 15 10 22 -11 7 -11 11 -1 17 8 5 -22 16 -80 30 -94 21 -213 60
-191 61 6 1 24 -4 39 -9z m-3256 -141 c80 -49 262 -99 361 -99 56 0 112 20
146 52 13 12 23 17 23 11 0 -18 -35 -42 -98 -68 -88 -36 -180 -34 -290 4 -90
32 -192 88 -192 107 0 7 -12 22 -27 34 l-28 22 30 -18 c17 -10 50 -30 75 -45z
m2455 17 c72 -8 133 -12 137 -10 20 13 171 -37 213 -70 18 -15 16 -15 -24 -1
-24 8 -46 15 -48 15 -2 0 11 -19 30 -42 41 -51 69 -104 73 -137 4 -32 -14 -13
-20 23 -8 43 -32 63 -131 114 -62 32 -136 58 -235 83 -80 21 -140 38 -135 38
6 0 69 -6 140 -13z m-4615 -114 c-19 -15 -42 -34 -50 -42 -26 -25 -99 -70
-114 -70 -19 0 -221 -109 -294 -159 -63 -43 -96 -76 -136 -136 -14 -22 -26
-35 -26 -29 0 14 53 89 93 131 l30 32 -59 -24 c-98 -41 -105 -27 -9 15 104 46
176 102 265 208 64 75 85 92 55 45 -18 -28 -18 -28 2 -11 10 10 36 20 57 23
21 2 57 14 80 25 48 23 70 26 43 6 -16 -12 -16 -14 -2 -20 9 -3 32 5 53 19 47
32 57 22 12 -13z m3614 -42 c35 -22 108 -60 162 -84 55 -24 129 -58 167 -76
65 -31 69 -31 120 -20 28 7 73 23 100 35 26 12 43 17 37 10 -10 -12 -49 -30
-124 -58 l-39 -14 75 -51 c86 -58 156 -132 187 -197 31 -66 26 -66 -23 2 -51
69 -100 112 -190 164 -33 19 -61 42 -61 50 0 12 -24 14 -140 12 -261 -4 -522
35 -615 93 -14 8 -17 13 -7 10 9 -3 17 -1 17 3 0 5 24 0 53 -11 55 -21 232
-59 270 -57 21 1 21 1 -3 9 -14 5 -81 25 -150 45 -141 42 -281 96 -262 103 7
2 41 -8 76 -23 63 -27 79 -28 158 -9 17 4 45 0 70 -11 l43 -17 -22 24 c-13 13
-23 34 -23 46 0 20 35 62 52 62 5 0 37 -18 72 -40z m-3203 -112 c1 -16 4 -38
13 -104 10 -68 -2 -78 -81 -67 -71 10 -81 32 -33 78 16 16 30 35 30 42 0 16
44 63 60 63 5 0 10 -6 11 -12z m-370 -36 c-17 -32 -13 -35 17 -12 23 19 27 20
30 6 4 -19 13 -20 31 -3 8 6 3 -3 -10 -22 -41 -59 -51 -69 -65 -64 -11 4 -10
10 3 29 9 14 13 27 11 30 -3 2 -13 -7 -22 -21 -14 -21 -15 -29 -5 -41 6 -7 9
-23 6 -34 -3 -11 -1 -20 4 -20 14 0 10 -22 -8 -42 -16 -17 -14 -20 20 -52 33
-30 54 -37 25 -8 -9 9 -9 15 0 24 7 7 12 20 12 30 0 12 7 17 22 15 18 -2 25 6
37 41 9 23 21 42 28 42 17 0 16 -5 -3 -24 -12 -12 -12 -16 -2 -16 10 0 9 -3
-2 -10 -13 -9 -13 -11 0 -20 13 -8 12 -15 -4 -57 -19 -49 -20 -53 -14 -113 5
-58 -13 -66 -75 -32 -48 27 -85 33 -71 11 8 -13 3 -12 -78 20 -40 16 -79 30
-86 32 -8 3 0 21 23 53 l35 50 1 -60 c1 -32 3 -48 5 -34 11 71 37 150 50 150
10 0 14 12 14 38 0 26 7 45 20 57 11 10 20 26 20 36 0 18 29 54 37 45 3 -2 0
-13 -6 -24z m-200 -200 c-14 -27 -15 -53 -1 -32 20 32 9 -3 -21 -62 -34 -68
-59 -141 -59 -175 0 -13 14 -45 30 -72 17 -27 36 -72 43 -100 6 -28 15 -51 20
-51 18 0 86 34 153 76 40 24 76 44 80 44 13 0 -38 -33 -141 -91 l-90 -51 0
-57 c-1 -47 -6 -65 -34 -109 -19 -28 -35 -52 -37 -52 -3 0 6 183 10 188 7 6
-25 92 -34 92 -14 0 -116 247 -106 257 2 2 9 -10 16 -27 16 -37 28 -39 23 -2
-3 26 -3 26 14 -5 21 -42 29 -41 36 2 11 67 57 202 78 229 24 30 36 29 20 -2z
m1845 -278 c2 -5 -20 -27 -48 -49 -62 -49 -83 -62 -74 -46 17 26 -20 7 -85
-45 -69 -55 -72 -56 -140 -58 -55 -2 -76 -7 -102 -26 l-32 -24 16 24 c9 14 28
26 43 28 17 2 35 15 48 35 11 18 18 24 14 15 -6 -21 2 -22 39 -8 14 5 24 14
20 20 -3 5 7 16 22 24 40 21 17 19 -51 -4 -32 -12 -61 -19 -63 -16 -6 6 -6 6
207 84 165 60 181 64 186 46z m526 -71 c9 -10 28 -44 41 -75 27 -60 43 -75
172 -153 36 -22 68 -48 71 -58 6 -19 -11 -47 -29 -47 -7 0 -7 4 1 12 7 7 12
17 12 24 0 12 -83 64 -103 64 -6 0 -22 10 -36 23 l-25 22 19 -30 c10 -16 24
-39 32 -50 20 -30 17 -52 -4 -27 -15 16 -23 18 -50 11 -36 -10 -42 -34 -23
-83 6 -18 5 -33 -4 -50 -12 -24 -13 -23 -30 31 -9 31 -31 74 -48 97 -36 47
-55 67 -44 49 18 -32 65 -176 60 -184 -3 -5 -17 -9 -31 -9 -38 0 -93 -22 -93
-36 0 -7 -5 -16 -10 -19 -7 -4 -9 2 -5 17 3 12 1 30 -5 38 -8 12 -13 13 -30 2
-28 -17 -64 1 -57 29 4 14 -5 27 -29 46 -19 14 -37 23 -41 20 -3 -4 4 -34 16
-68 14 -36 20 -71 17 -85 -6 -23 -9 -21 -34 28 -16 29 -36 54 -46 56 -15 3
-17 -2 -12 -45 5 -41 4 -44 -5 -21 l-11 28 -25 -30 c-13 -17 -32 -30 -40 -30
-12 0 -14 -8 -10 -36 6 -34 2 -31 -43 39 -37 57 -57 78 -77 83 -45 10 -50 12
-21 13 23 1 26 5 23 29 -2 15 -4 39 -4 53 -1 32 -19 41 -60 29 -18 -5 -31 -5
-31 0 0 6 -11 5 -26 -1 -32 -11 -42 -5 -24 16 8 9 9 15 2 15 -6 0 -16 -8 -22
-17 -10 -15 -10 -14 -6 8 11 51 36 97 71 127 19 17 35 36 35 42 0 5 5 10 11
10 5 0 8 4 5 9 -4 5 20 17 51 26 32 9 69 21 83 26 14 5 36 9 50 8 29 -2 141
14 280 40 98 18 113 16 142 -16z m-2309 -440 c-18 -9 -33 -21 -33 -26 0 -18
122 -128 136 -123 7 3 16 0 20 -6 5 -7 2 -8 -6 -3 -9 6 -11 4 -6 -4 5 -7 15
-10 23 -7 8 3 12 2 9 -2 -5 -8 116 -94 146 -105 10 -3 9 -9 -4 -24 -10 -11
-18 -25 -18 -31 0 -12 -13 -16 -39 -13 -8 2 -10 -2 -5 -10 4 -7 3 -10 -4 -5
-6 3 -18 -1 -26 -10 -19 -18 -22 -4 -3 15 10 11 8 11 -10 2 -13 -6 -23 -18
-23 -26 0 -7 -8 -14 -17 -14 -41 -1 -58 -5 -82 -17 -21 -11 -28 -11 -41 0 -15
13 -50 11 -50 -3 0 -4 -13 -6 -30 -3 -23 3 -30 0 -30 -12 0 -9 -4 -16 -10 -16
-5 0 -10 8 -10 19 0 10 -16 33 -36 52 -21 19 -50 46 -65 61 -64 59 -19 150
109 220 39 22 72 41 72 43 0 3 -30 -9 -66 -25 -36 -17 -68 -30 -70 -30 -3 0 4
17 15 37 16 33 27 40 87 59 82 26 111 29 67 7z m-177 -80 c-7 -24 -22 -43 -44
-56 -19 -11 -45 -38 -59 -60 -18 -29 -27 -36 -33 -27 -5 7 -21 19 -37 25 l-28
12 45 43 c66 63 120 100 145 100 21 0 21 -2 11 -37z m7880 -708 c4 -14 4 -28
1 -32 -3 -3 -64 -9 -134 -14 -521 -35 -720 -58 -505 -59 164 0 98 -17 -95 -24
-104 -4 -208 -9 -232 -12 -34 -5 -42 -4 -36 6 10 17 -314 8 -580 -15 -99 -9
-220 -18 -269 -20 -306 -14 -799 -61 -946 -90 -41 -8 -93 -14 -115 -15 -22 0
-46 -4 -54 -9 -19 -12 -54 -2 -42 13 11 13 -78 12 -254 -4 -143 -13 -457 -31
-462 -26 -8 7 119 18 587 51 314 22 463 35 469 40 2 3 -5 5 -16 5 -30 0 -576
-38 -778 -55 -248 -20 -401 -28 -395 -22 3 3 109 13 235 22 127 9 343 28 480
41 138 14 318 29 400 34 226 14 671 48 840 65 83 8 213 19 290 25 253 18 889
70 920 75 17 3 109 10 205 16 96 6 211 14 255 18 44 5 113 9 152 9 70 2 73 1
79 -23z m-5808 -306 c-33 -96 34 -188 185 -249 l57 -24 -27 -29 c-54 -57 -174
-146 -271 -201 -91 -51 -271 -130 -278 -123 -2 2 24 16 59 32 34 16 72 38 85
49 21 19 30 45 15 47 -55 5 -84 3 -113 -12 -37 -17 -206 -73 -252 -83 -32 -7
-35 2 -13 44 19 37 29 39 21 5 -9 -34 12 -33 124 5 133 44 385 176 418 218 19
25 14 53 -15 86 l-28 29 32 -22 c18 -12 36 -34 39 -48 6 -22 0 -33 -37 -67
-24 -23 -44 -45 -44 -51 0 -5 -10 -10 -22 -11 -12 -1 -37 -11 -55 -23 l-33
-21 35 6 c19 3 42 8 50 12 8 3 19 6 25 6 5 1 11 9 13 20 2 10 23 37 47 60 23
22 44 47 46 54 4 10 12 10 40 -2 34 -14 38 -14 52 2 20 22 12 34 -38 60 -51
26 -135 114 -136 144 -3 44 3 93 13 106 16 19 18 14 6 -19z m1366 6 c21 -14
59 -36 84 -50 26 -13 61 -34 77 -45 28 -20 28 -21 5 -14 -14 4 -35 8 -47 10
-12 1 -27 5 -33 9 -11 7 -70 -15 -70 -26 0 -7 33 -39 65 -64 11 -9 -4 -4 -32
10 -29 14 -53 29 -53 33 0 4 -21 16 -48 26 -26 11 -65 31 -87 46 -22 15 -55
35 -74 45 -25 12 -30 19 -21 25 9 5 28 -2 54 -19 86 -59 144 -77 173 -56 17
12 16 16 -15 54 -38 47 -31 52 22 16z m483 -44 c23 -11 59 -31 80 -45 36 -25
37 -26 12 -26 -15 0 -38 -9 -52 -20 -22 -18 -25 -25 -17 -46 14 -35 13 -36
-11 -23 -28 15 -47 -10 -22 -28 10 -8 12 -13 4 -13 -7 0 -9 -4 -6 -10 3 -5 25
-10 48 -10 24 0 51 -6 62 -14 28 -18 79 -30 70 -16 -9 14 74 5 120 -13 l30
-12 -30 -5 c-16 -3 9 -6 58 -6 78 -1 87 1 82 16 -5 15 0 17 32 14 42 -4 123
14 123 27 0 5 -9 9 -19 9 -11 0 -23 5 -26 10 -7 11 -3 10 67 -5 15 -3 36 -1
45 4 41 23 103 51 103 47 0 -3 -20 -19 -45 -37 -25 -18 -43 -35 -40 -37 3 -3
-2 -13 -11 -23 -10 -11 -14 -26 -10 -36 5 -16 5 -16 -9 1 -15 20 -19 20 -105
-13 -30 -12 -61 -19 -70 -16 -8 2 -38 -4 -67 -14 -29 -10 -50 -15 -48 -11 2 4
-30 13 -73 20 -71 12 -128 14 -240 8 -24 -1 -46 3 -50 9 -4 6 -21 15 -37 19
-17 4 -36 11 -43 17 -9 7 -20 3 -40 -16 -16 -15 -33 -27 -40 -27 -6 0 -15 -7
-20 -16 -5 -9 -14 -14 -21 -10 -7 5 -1 16 19 33 28 23 40 53 21 53 -5 0 -8 18
-7 41 1 33 4 39 18 35 22 -5 24 12 3 20 -8 4 -13 10 -10 14 3 5 22 2 41 -6 20
-8 37 -14 38 -12 36 48 36 50 13 80 -66 87 -62 83 -93 69 -19 -8 -25 -9 -18
-1 17 17 84 39 119 39 17 0 49 -8 72 -18z m-1371 -8 c15 -9 44 -34 65 -55 21
-21 48 -38 61 -38 13 -1 37 -7 53 -15 l30 -15 -35 6 -35 5 43 -23 c37 -19 56
-22 118 -20 41 2 74 7 74 12 0 4 -16 15 -36 25 -20 9 -33 19 -31 22 10 9 47
-8 74 -36 22 -21 47 -31 115 -44 115 -23 139 -22 182 8 36 24 36 24 36 3 l0
-22 21 22 c11 12 25 20 30 16 15 -9 70 6 63 18 -3 5 3 4 15 -4 16 -10 25 -10
39 -2 14 9 22 9 35 -1 21 -15 21 -24 2 -45 -14 -16 -13 -17 12 -14 15 1 32 -1
38 -5 5 -5 22 -11 38 -15 26 -6 27 -9 26 -64 -1 -60 8 -102 22 -102 4 0 19 4
33 9 17 7 26 7 28 -1 3 -7 10 -8 17 -4 11 7 11 10 0 17 -23 14 14 11 52 -5 32
-13 32 -14 8 -21 -40 -12 -107 -44 -114 -54 -3 -5 15 -20 40 -32 36 -18 42
-25 30 -32 -9 -5 -21 -5 -28 0 -11 9 -18 9 -54 5 -7 -1 -13 -9 -13 -17 0 -10
9 -14 30 -11 17 2 30 0 30 -4 0 -4 12 -11 28 -15 18 -5 22 -9 12 -13 -10 -3
-3 -10 20 -18 31 -11 32 -13 10 -13 -14 -1 -34 5 -45 12 -22 15 -63 17 -83 4
-16 -11 -3 -24 58 -60 25 -15 59 -38 75 -52 17 -14 -10 -1 -58 30 -49 30 -92
53 -97 50 -4 -2 -14 2 -21 11 -20 25 -120 86 -156 96 -18 5 -33 14 -33 20 0 5
6 8 13 5 12 -5 41 27 42 46 0 4 7 12 15 17 13 8 13 10 -2 10 -9 0 -24 7 -33
16 -9 10 -26 14 -40 12 -13 -3 -26 0 -28 5 -6 19 -112 -11 -154 -43 -21 -16
-59 -45 -86 -66 -56 -43 -54 -22 5 43 44 49 51 69 10 30 -33 -32 -47 -35 -32
-7 8 15 8 20 -1 20 -7 0 -9 9 -6 21 4 15 2 19 -9 15 -18 -7 -11 8 18 40 l20
22 -49 15 c-26 8 -57 17 -68 20 -11 3 -29 8 -39 13 -15 6 -17 4 -11 -7 7 -11
6 -12 -6 -3 -28 23 -107 63 -194 99 -107 44 -127 56 -121 72 3 8 -1 10 -11 6
-11 -4 -14 -2 -9 5 4 6 -3 16 -16 23 -13 7 -25 15 -28 18 -3 4 -18 17 -34 29
-35 27 -9 31 30 5z m-1173 -177 c123 -132 114 -277 -28 -424 -38 -40 -77 -74
-85 -75 -28 -4 -61 -34 -55 -49 10 -24 110 -71 201 -94 13 -3 24 -74 24 -156
0 -52 -2 -59 -16 -54 -89 34 -359 112 -487 141 -83 18 -199 19 -291 1 -67 -13
-70 -13 -88 8 -9 11 -17 24 -18 29 0 4 26 33 58 64 31 31 56 61 54 66 -1 5 2
6 7 3 16 -10 61 34 61 60 0 13 -5 24 -11 24 -6 0 -9 6 -6 14 3 7 1 18 -5 24
-7 7 -4 10 8 9 11 -1 22 -6 26 -12 16 -21 17 75 2 110 -12 28 -24 105 -17 105
6 0 24 -52 27 -79 2 -14 9 -39 15 -54 6 -16 10 -32 8 -35 -2 -4 4 -15 14 -24
15 -14 18 -14 23 -1 3 8 -1 21 -9 29 -17 18 -19 33 -5 54 10 16 13 8 10 -27
-1 -13 2 -23 7 -23 17 0 31 22 25 39 -5 14 -4 14 11 2 15 -12 22 -8 56 30 32
37 37 47 28 64 -10 19 -10 19 -17 0 -5 -14 -9 -15 -15 -6 -4 8 -3 16 4 21 8 5
-1 21 -28 51 -22 24 -41 47 -41 50 0 4 -12 15 -27 24 l-28 18 25 -29 25 -28
-35 25 c-60 43 -60 43 -44 -6 21 -59 13 -78 -10 -26 -11 22 -22 41 -25 41 -11
0 -11 -44 1 -57 8 -10 7 -12 -6 -7 -10 4 -16 17 -16 35 0 16 -4 29 -10 29 -15
0 -12 33 4 66 16 30 13 46 -8 38 -8 -3 -11 -16 -9 -32 4 -21 2 -24 -6 -12 -11
16 -10 17 -39 -31 -24 -40 -27 -49 -13 -49 5 0 15 16 21 35 11 34 30 48 30 23
0 -26 -13 -58 -20 -53 -5 3 -12 0 -16 -6 -3 -6 0 -15 7 -20 9 -6 10 -9 2 -9
-6 0 -15 5 -19 11 -3 6 -14 9 -24 6 -14 -4 -17 -1 -12 12 5 14 4 14 -11 2 -31
-25 -18 0 29 55 26 30 43 54 38 54 -5 0 -9 16 -10 35 0 23 4 35 13 35 7 0 13
-4 13 -10 0 -5 11 -10 25 -10 15 0 25 -6 25 -14 0 -9 20 -19 51 -27 28 -7 55
-21 60 -31 5 -10 15 -18 21 -18 6 0 8 3 5 7 -9 9 13 34 24 27 5 -3 25 8 45 25
34 30 61 33 50 5 -3 -8 0 -11 10 -7 7 3 14 1 15 -3 1 -12 7 -45 12 -69 2 -11
-1 -31 -8 -45 -6 -14 -11 -38 -10 -55 1 -16 3 -38 4 -47 0 -10 8 -18 17 -18 8
0 13 -4 10 -9 -4 -5 3 -7 13 -4 12 3 18 12 16 22 -4 22 32 22 46 0 7 -11 9
-11 9 -1 0 7 4 11 10 7 5 -3 7 -12 3 -20 -4 -11 -1 -13 11 -9 9 3 16 2 16 -4
0 -6 3 -18 7 -28 4 -12 3 -15 -5 -10 -7 4 -12 2 -12 -3 0 -6 6 -11 13 -11 9 0
8 -3 -2 -9 -9 -6 -10 -11 -2 -15 7 -4 7 -15 1 -31 -8 -21 -6 -24 21 -30 16 -4
29 -11 29 -16 0 -6 4 -7 10 -4 10 6 53 -18 82 -47 21 -21 32 -22 46 -5 8 9 2
38 -23 107 -42 116 -45 143 -4 40 53 -136 47 -126 69 -104 10 10 32 44 48 75
27 51 28 61 21 114 -4 32 -6 63 -3 67 3 5 -2 34 -11 64 -12 41 -30 72 -68 113
-29 30 -43 49 -32 42 11 -8 41 -37 68 -65z m1038 -124 c36 -20 88 -50 114 -66
26 -16 72 -38 102 -47 29 -10 68 -29 85 -42 18 -14 49 -33 68 -42 19 -10 37
-21 40 -24 3 -4 16 -11 30 -17 23 -11 22 -12 -25 -18 -131 -18 -400 86 -464
180 -23 33 -41 114 -25 114 5 -1 39 -17 75 -38z m2112 -150 c76 -117 127 -175
142 -162 7 6 15 7 17 3 5 -12 69 -57 102 -71 l29 -13 -16 23 c-41 56 -145 215
-157 238 -21 42 4 10 79 -101 79 -117 303 -355 323 -343 6 4 8 3 5 -2 -10 -17
77 -93 179 -153 69 -42 101 -56 106 -48 5 8 8 4 8 -10 0 -21 -1 -20 -52 8 -29
17 -84 50 -123 74 -38 24 -74 41 -79 38 -5 -3 -2 -11 7 -18 19 -14 21 -33 6
-55 -9 -12 -10 -10 -6 8 3 14 0 25 -8 28 -7 3 -11 18 -10 33 2 22 -7 37 -36
65 -22 20 -39 32 -39 26 0 -12 -55 14 -65 31 -13 20 2 19 28 -1 44 -35 43 -22
-3 25 -33 34 -50 44 -68 40 -28 -5 -54 4 -47 16 3 4 17 4 30 -1 32 -12 31 -9
-2 21 -14 13 -23 18 -19 11 6 -10 1 -11 -20 -6 -25 6 -27 5 -21 -16 4 -17 3
-20 -6 -11 -23 23 -30 10 -7 -14 13 -14 32 -25 42 -25 13 0 18 -6 16 -18 -4
-23 19 -52 41 -53 11 0 12 -2 3 -6 -8 -3 -32 12 -54 33 -23 22 -37 33 -33 25
5 -9 1 -9 -16 3 -28 18 -109 110 -109 123 0 5 -7 18 -16 29 -14 17 -15 17 -10
1 4 -11 2 -16 -5 -12 -6 4 -8 13 -5 20 2 7 -20 44 -50 82 -30 37 -62 81 -72
97 -9 16 -36 58 -59 93 -24 35 -43 66 -43 69 0 11 39 -42 93 -124z m-2316 -11
c23 -26 29 -28 62 -20 49 12 83 11 76 -1 -3 -5 -17 -10 -31 -10 -13 0 -24 -3
-24 -6 0 -8 58 -56 94 -78 42 -25 42 -26 27 -35 -21 -13 127 -70 231 -88 118
-21 197 -20 273 2 93 27 129 58 127 107 0 10 3 20 9 23 13 9 11 -49 -3 -80 -6
-14 -30 -39 -52 -55 -22 -17 -36 -30 -32 -30 5 0 3 -6 -3 -14 -8 -10 -6 -19 9
-39 20 -25 54 -32 76 -15 8 6 13 0 16 -16 5 -25 -17 -46 -24 -24 -2 6 -16 3
-35 -9 l-32 -19 51 -45 c28 -24 58 -49 66 -55 17 -12 9 -69 -8 -59 -6 4 -8 11
-5 16 10 16 -76 10 -155 -11 -41 -11 -83 -20 -92 -20 -9 0 -42 33 -73 73 -31
39 -64 72 -73 72 -11 0 -17 9 -19 27 -2 36 -20 68 -38 68 -8 0 -15 5 -15 11 0
5 5 7 10 4 6 -3 10 -1 10 4 0 6 -18 11 -40 11 -22 0 -40 -3 -40 -7 0 -5 -14
-16 -32 -26 -33 -19 -48 -12 -48 24 0 10 -15 20 -39 27 -54 17 -75 15 -96 -8
-18 -19 -17 -20 1 -20 11 0 25 -5 32 -12 7 -7 12 -9 12 -5 0 4 17 0 37 -8 29
-12 38 -13 45 -3 6 10 8 10 8 1 0 -7 17 -21 38 -31 33 -16 37 -22 34 -50 -2
-36 -48 -112 -66 -112 -6 0 -76 22 -156 50 -162 56 -172 58 -163 33 5 -14 3
-16 -7 -6 -10 9 -7 19 17 50 35 43 73 104 73 116 0 4 -9 7 -19 7 -11 0 -22 6
-25 13 -4 7 -8 8 -11 2 -20 -38 -22 -39 -55 -19 -18 10 -33 24 -33 29 0 6 21
21 46 35 54 29 61 45 15 34 -18 -4 -45 -7 -60 -6 -18 1 -28 -4 -28 -13 0 -17
-52 -32 -143 -40 -57 -6 -67 -9 -63 -23 3 -10 -1 -28 -9 -42 -14 -24 -15 -23
-9 17 6 38 2 48 -30 93 -43 60 -45 67 -8 42 58 -40 72 -39 27 2 l-25 24 71 16
c99 22 113 21 144 -15 25 -30 26 -31 40 -13 8 11 18 30 21 44 10 38 14 42 30
29 11 -9 14 -7 14 11 0 22 0 22 31 -4 17 -14 35 -26 40 -26 14 0 11 16 -6 30
-8 7 -15 18 -15 25 0 7 -8 19 -17 26 -15 12 -16 12 -9 -6 5 -14 4 -17 -4 -9
-13 13 3 64 21 64 6 0 22 -13 36 -29z m993 -236 c-29 -31 -15 -33 19 -3 14 13
20 16 14 8 -19 -21 -16 -30 10 -30 21 -1 22 -1 3 -15 -11 -8 -28 -15 -39 -15
-10 0 -15 -4 -12 -10 8 -13 60 -13 102 -1 20 6 35 6 38 0 4 -5 -1 -9 -9 -9 -9
0 -16 -4 -16 -10 0 -5 8 -10 18 -10 14 0 15 -2 2 -10 -13 -9 -13 -10 1 -10 8
0 19 4 25 9 5 4 22 11 38 15 l29 7 -25 -29 c-19 -23 -27 -47 -32 -97 -4 -40
-3 -72 3 -79 5 -6 6 -17 2 -24 -6 -9 -32 -4 -107 23 -54 20 -103 41 -109 46
-5 5 35 -7 89 -26 54 -19 99 -35 100 -35 0 0 2 35 4 79 l3 79 -85 31 c-47 17
-97 33 -111 37 -14 3 -25 10 -25 15 0 8 81 88 89 89 3 0 -6 -11 -19 -25z
m2685 -120 c61 -18 173 -50 250 -71 123 -33 158 -40 213 -43 7 -1 11 -5 8 -9
-3 -5 119 -44 272 -87 152 -43 278 -79 279 -80 2 -1 -3 -13 -10 -28 -7 -16
-18 -25 -27 -22 -18 6 -311 90 -500 145 -74 21 -216 62 -315 91 -99 28 -195
61 -214 72 -19 12 -31 15 -27 9 13 -21 -8 -13 -39 16 -16 15 -41 33 -55 39
-46 21 46 3 165 -32z m-2099 -80 c41 -19 74 -32 74 -30 0 1 -15 13 -32 25 -41
27 -24 22 69 -21 l72 -32 -24 -46 c-38 -71 -62 -96 -80 -81 -8 6 -13 15 -12
19 7 21 -135 116 -245 164 -34 14 -34 18 -2 56 l25 30 40 -25 c22 -14 74 -40
115 -59z m536 4 c16 -12 32 -19 35 -15 7 7 236 -109 371 -189 56 -33 130 -74
164 -91 33 -17 56 -34 50 -38 -6 -4 -28 3 -49 14 -21 11 -42 20 -47 20 -21 0
-236 106 -363 179 -73 42 -153 88 -178 102 -25 14 -42 28 -38 32 11 11 23 8
55 -14z m-6797 -143 c8 -7 13 -15 12 -17 -1 -3 4 3 12 11 12 13 13 13 8 -1 -7
-21 27 -41 58 -33 20 5 23 9 14 20 -8 9 -8 14 -1 14 11 0 29 -21 134 -155 91
-117 161 -204 207 -255 22 -25 53 -63 68 -85 33 -48 111 -139 217 -254 43 -46
131 -148 197 -225 140 -166 180 -202 209 -186 25 13 221 72 226 68 1 -2 -23
-32 -54 -66 -37 -41 -62 -62 -72 -58 -14 5 -58 -20 -49 -28 2 -2 18 -11 34
-20 l30 -17 -45 7 c-25 4 -51 7 -57 7 -10 0 -10 3 0 15 10 13 8 14 -13 7 -31
-10 -170 -12 -164 -3 3 4 27 14 55 22 27 8 54 18 59 21 13 8 -11 34 -26 28
-16 -6 -27 14 -13 23 8 5 9 3 4 -6 -5 -9 -4 -11 4 -6 16 11 -25 60 -187 224
-184 185 -313 303 -324 296 -13 -8 -157 141 -201 208 -20 31 -47 60 -59 64
-28 9 -116 91 -134 125 -7 15 -22 30 -33 34 -27 8 -141 195 -141 230 0 9 11 5
25 -9z m6672 -97 c26 -14 32 -16 18 -4 -20 17 -20 17 5 10 57 -16 174 -69 192
-87 10 -10 24 -18 32 -18 15 0 196 -92 236 -120 14 -10 85 -48 158 -85 72 -37
132 -69 132 -71 0 -7 -47 14 -180 81 -72 36 -135 64 -137 61 -6 -5 314 -166
330 -166 4 0 5 5 1 11 -4 8 1 9 17 3 13 -4 32 -8 41 -8 9 0 14 -4 12 -8 -3 -4
0 -9 5 -9 20 -3 26 -4 73 -24 41 -17 48 -24 48 -47 0 -32 1 -32 -36 -18 -24 9
-25 9 -14 -5 19 -23 -3 -18 -44 10 -51 34 -261 145 -275 145 -7 0 -10 -4 -7
-9 4 -5 -3 -7 -14 -4 -11 3 -23 10 -26 15 -4 6 2 7 17 3 22 -7 23 -6 9 9 -16
21 -142 85 -250 128 -41 16 -97 40 -125 52 -27 13 -61 27 -75 31 -14 4 -50 22
-80 39 -61 34 -116 56 -134 52 -6 -2 -8 -1 -3 1 4 3 5 8 2 13 -5 7 20 40 30
40 2 0 21 -9 42 -21z m-3516 -37 c55 -27 71 -31 93 -23 39 15 216 -8 216 -28
0 -25 -31 -33 -100 -24 -67 9 -94 2 -47 -13 28 -9 359 -183 372 -196 6 -5 -69
31 -165 80 -253 128 -470 243 -470 247 0 5 15 -1 101 -43z m6527 -323 c6 -5
12 -7 12 -4 0 3 5 3 11 -1 7 -4 28 -8 48 -10 20 -2 47 -6 59 -9 16 -4 21 -2
17 5 -4 7 3 9 22 5 17 -4 6 5 -30 23 -32 16 -61 33 -65 37 -4 4 29 5 74 1 47
-4 91 -3 107 3 20 8 36 6 72 -10 29 -13 54 -18 68 -13 18 6 20 5 10 -8 -7 -8
-29 -23 -48 -34 -19 -10 -35 -24 -35 -30 0 -19 -16 -21 -99 -12 -242 25 -250
27 -297 103 l-19 30 40 -33 c22 -18 46 -37 53 -43z m-1769 12 c11 -11 29 -25
41 -31 31 -17 17 -24 -21 -11 l-32 11 6 -33 c3 -17 9 -41 13 -51 6 -15 4 -17
-6 -11 -11 6 -12 -4 -7 -56 4 -35 11 -127 17 -204 6 -76 13 -142 18 -146 4 -3
59 -23 121 -43 63 -21 132 -47 154 -58 21 -10 40 -18 42 -16 2 2 -17 35 -42
73 -41 65 -42 68 -11 35 18 -19 33 -39 33 -44 0 -18 25 -18 32 0 6 16 9 14 20
-11 l14 -30 -5 33 c-24 145 -48 323 -48 352 0 24 -6 41 -21 53 l-22 18 22 -10
c41 -20 51 -40 58 -108 3 -38 17 -124 30 -193 13 -69 27 -152 30 -185 8 -65
19 -95 37 -95 7 0 9 15 5 44 -5 31 -2 47 7 55 10 9 15 8 20 -4 3 -9 2 -13 -4
-10 -6 3 -10 -3 -10 -15 0 -11 7 -23 15 -26 8 -4 15 -14 15 -24 0 -11 5 -22
11 -26 6 -3 9 -18 6 -33 -6 -28 8 -61 29 -74 8 -4 14 -13 14 -18 0 -23 112
-149 155 -174 10 -6 18 -22 18 -38 0 -18 10 -36 29 -52 16 -14 26 -29 23 -35
-3 -5 0 -10 8 -10 8 0 25 -13 38 -30 25 -32 45 -40 35 -15 -3 8 0 14 7 12 7
-1 13 11 14 28 2 29 2 29 -7 5 -4 -14 -9 -18 -9 -10 -1 8 -13 26 -27 39 -17
16 -23 29 -18 40 4 9 7 28 7 44 0 15 5 27 10 27 7 0 7 4 0 11 -14 14 -5 41 11
33 6 -3 3 1 -8 10 -10 8 -15 19 -12 25 9 14 -26 119 -60 181 -15 28 -23 54
-19 61 5 8 4 10 -3 5 -8 -5 -12 0 -12 12 0 11 -6 22 -14 25 -9 3 -12 14 -9 25
3 12 -1 22 -11 25 -9 4 -16 1 -16 -6 0 -7 -9 1 -19 17 -18 28 -19 31 -3 42 15
11 15 19 -11 98 -16 47 -33 89 -39 92 -7 4 -8 2 -4 -4 4 -7 3 -12 -1 -12 -5 0
-22 20 -37 45 -17 27 -52 59 -87 82 -32 21 -59 41 -59 46 0 11 8 9 48 -16 20
-13 63 -34 95 -47 33 -13 60 -28 62 -34 46 -181 172 -444 324 -681 14 -22 30
-49 36 -60 118 -217 327 -525 409 -603 36 -35 66 -70 66 -77 0 -7 27 -68 60
-136 107 -223 184 -449 152 -449 -6 0 -9 6 -6 13 14 37 -227 607 -257 607 -6
0 -7 -6 -3 -12 4 -8 3 -10 -2 -5 -5 5 -9 12 -9 15 0 17 -141 173 -166 184 -30
13 -34 20 -22 31 3 4 15 -1 26 -10 24 -21 26 -26 -57 102 -36 55 -66 96 -66
92 0 -13 79 -145 90 -152 6 -3 10 -11 10 -17 0 -6 -7 -5 -17 3 -16 13 -17 12
-5 -3 8 -9 9 -17 3 -20 -6 -2 -3 -17 7 -38 15 -32 17 -33 20 -12 l4 23 24 -26
c25 -28 27 -47 6 -51 -7 -1 -8 0 -2 3 14 7 13 20 -3 26 -8 3 -14 -3 -14 -16
-1 -11 -7 -23 -14 -27 -8 -6 -8 -9 0 -14 6 -4 11 -1 11 6 0 34 33 -41 35 -81
3 -38 2 -42 -6 -21 -6 13 -15 28 -22 32 -9 6 -9 8 0 8 6 0 9 9 6 20 -8 30 -21
15 -17 -20 2 -17 0 -28 -5 -25 -12 7 -26 -15 -15 -24 12 -8 37 -41 32 -41 -2
0 -22 18 -43 41 -22 22 -32 37 -23 34 13 -5 15 -2 11 14 -4 17 -2 20 11 15 12
-5 15 -2 10 10 -3 9 -10 13 -15 10 -5 -3 -9 0 -9 5 0 6 -7 11 -16 11 -8 0 -12
5 -9 10 3 6 2 10 -3 10 -18 0 -20 -28 -4 -51 15 -23 15 -23 -2 -9 -27 21 -126
158 -124 169 2 5 -16 31 -38 58 -75 88 -96 109 -86 88 6 -11 20 -29 32 -40 12
-11 29 -33 36 -50 15 -30 15 -30 -16 5 -42 46 -194 249 -209 278 -6 12 -48 68
-92 125 -91 114 -141 182 -214 287 -50 73 -95 107 -152 114 -48 6 -112 26
-119 37 -4 8 0 8 14 0 11 -6 27 -11 34 -10 23 1 -68 37 -151 59 -45 12 -81 26
-81 31 0 5 -7 9 -16 9 -15 0 -16 14 -12 123 5 118 -10 294 -30 347 -7 20 -9
76 -3 88 4 9 34 -1 50 -17z m726 -216 l60 -32 36 -137 c20 -76 48 -170 62
-209 14 -39 24 -73 23 -75 -10 -10 -82 206 -119 358 l-14 55 -31 -67 c-37 -78
-37 -79 -16 -119 8 -17 13 -33 10 -36 -7 -8 -56 105 -56 131 0 11 15 38 34 58
29 31 32 39 20 49 -12 10 -13 9 -8 -5 3 -9 1 -16 -4 -16 -6 0 -14 9 -17 20 -3
11 -9 20 -13 20 -4 0 -20 11 -37 25 -37 31 -15 24 70 -20z m2175 -117 c16 -35
45 -90 63 -123 19 -33 44 -89 57 -125 13 -36 35 -91 50 -122 15 -31 25 -60 22
-63 -4 -3 1 -3 10 0 13 5 15 2 11 -17 -3 -13 -4 -21 -2 -18 2 3 18 20 34 39
17 19 24 31 18 27 -9 -5 -13 0 -13 15 0 12 -3 19 -7 16 -11 -12 -32 27 -22 40
7 8 5 26 -4 55 -8 24 -12 45 -9 48 9 7 12 40 3 40 -3 0 -7 20 -8 45 -2 52 -19
89 -38 81 -7 -2 -16 2 -19 10 -3 8 -16 19 -28 24 -13 5 -17 9 -10 9 7 1 10 6
6 12 -7 12 16 7 72 -16 29 -12 32 -19 63 -146 60 -242 92 -383 106 -469 15
-87 33 -155 34 -132 1 7 -12 118 -29 245 -40 310 -43 338 -30 309 5 -13 14
-60 20 -105 23 -197 40 -315 51 -352 10 -34 13 -37 20 -20 6 16 8 17 8 3 1 -9
10 -20 21 -23 23 -7 26 -21 8 -29 -7 -3 -1 -3 15 0 18 4 27 2 27 -7 0 -7 3 -9
6 -6 10 9 94 -54 87 -66 -3 -5 3 -6 16 -2 15 4 21 3 19 -6 -2 -7 13 -22 33
-33 49 -29 98 -69 76 -62 -11 3 -16 2 -12 -4 3 -6 17 -10 29 -10 13 0 35 -9
48 -20 14 -10 29 -16 33 -12 5 4 4 1 0 -7 -6 -10 -4 -13 6 -9 8 3 25 9 39 13
22 6 21 4 -8 -18 -20 -15 -29 -28 -23 -32 6 -3 11 -1 11 4 0 6 5 11 11 11 6 0
9 -7 5 -15 -3 -8 -4 -15 -2 -15 3 0 13 -3 23 -6 13 -4 15 -3 4 4 -10 7 -10 11
-1 17 7 4 14 -1 17 -15 4 -14 11 -19 22 -15 8 3 12 3 9 -1 -4 -4 18 -22 50
-41 31 -19 75 -49 97 -67 64 -52 132 -96 149 -96 13 0 286 -176 286 -185 0 -2
-12 0 -27 5 -16 5 -62 19 -103 31 -41 12 -97 32 -125 45 -27 12 -124 46 -215
74 -91 28 -185 58 -210 66 -25 9 -90 32 -145 51 -68 24 -128 37 -188 42 l-88
7 6 -46 c3 -25 2 -56 -4 -70 -9 -24 -10 -23 -10 10 -1 19 -4 59 -8 88 -6 51
-8 54 -56 82 -28 16 -80 34 -116 40 -36 6 -103 24 -148 40 -70 25 -81 27 -79
12 2 -15 138 -122 155 -122 4 0 5 16 3 35 -3 21 0 35 7 35 6 0 11 -18 11 -42
0 -42 2 -44 108 -129 59 -47 133 -105 165 -128 69 -50 76 -65 10 -20 -53 36
-245 179 -253 189 -14 16 -62 40 -70 35 -5 -3 -16 5 -24 17 -9 12 -18 19 -22
15 -4 -3 -15 -2 -25 4 -14 7 -25 6 -40 -5 -11 -7 -16 -17 -11 -20 6 -3 9 -14
8 -24 -2 -9 2 -20 8 -24 8 -6 6 -11 -4 -19 -13 -9 -13 -10 0 -7 8 3 25 -6 38
-19 12 -13 28 -23 34 -23 6 0 9 -3 5 -6 -3 -3 -47 8 -97 26 -50 17 -98 29
-106 26 -10 -4 -12 -2 -8 6 5 7 0 9 -14 6 -14 -4 -20 -2 -15 5 4 6 0 8 -10 4
-18 -7 -50 3 -267 78 -127 44 -275 115 -393 188 -29 18 -77 44 -107 59 -30 14
-81 38 -113 53 -32 15 -56 29 -54 31 10 10 190 -70 317 -141 36 -20 56 -29 46
-21 -11 9 -23 16 -28 16 -4 0 -8 4 -8 8 0 4 9 8 20 8 11 0 20 -4 20 -9 0 -4 5
-5 10 -2 6 3 10 2 10 -3 0 -5 15 -9 33 -9 17 0 60 -1 95 -3 44 -3 66 0 71 9 6
9 30 11 87 8 93 -6 107 -9 116 -22 4 -5 10 -6 15 -2 34 35 -294 159 -412 156
-119 -3 -139 -1 -125 16 17 20 4 35 -32 35 -23 0 -29 -4 -24 -15 3 -9 0 -15
-9 -15 -20 0 -29 19 -16 34 21 25 -31 139 -69 151 -11 4 -46 32 -79 63 -112
108 -151 137 -219 162 -52 20 -68 31 -70 48 -2 12 -1 22 2 22 27 0 302 -184
334 -223 10 -12 30 -14 97 -10 83 5 86 5 137 -28 28 -18 58 -34 65 -35 8 -1
25 -9 38 -18 13 -9 31 -16 40 -16 9 0 14 -3 12 -7 -3 -5 6 -9 20 -10 25 -1 25
-1 -4 17 -45 27 -143 153 -143 184 0 3 20 -4 45 -16 29 -14 44 -27 40 -36 -2
-7 0 -10 5 -7 6 3 10 3 10 -2 0 -4 15 -14 33 -22 17 -7 50 -31 72 -52 28 -27
67 -48 124 -69 46 -17 97 -38 114 -47 36 -18 199 -74 204 -70 3 3 -205 104
-384 187 -51 24 -93 47 -93 53 0 5 24 8 58 5 45 -4 85 -19 187 -69 148 -74
256 -121 262 -116 4 4 -329 192 -389 219 -20 9 -87 27 -150 38 -62 12 -140 33
-173 47 -33 14 -98 43 -145 63 -47 21 -95 41 -107 44 -31 10 -29 19 8 33 25
10 38 9 63 -1 17 -7 67 -21 111 -31 44 -10 89 -24 100 -32 27 -16 248 -104
252 -99 5 5 -67 46 -177 100 -176 87 -283 146 -276 153 3 3 52 -20 110 -50 57
-30 107 -53 110 -50 3 3 17 -2 31 -11 30 -20 55 -15 55 11 0 16 -1 16 -12 0
-12 -16 -16 -15 -55 9 -24 14 -43 30 -43 35 0 6 4 8 8 5 5 -3 22 8 38 25 16
17 38 35 49 41 13 7 9 -1 -11 -22 -29 -30 -30 -34 -15 -49 15 -15 18 -14 45
17 21 24 34 31 48 26 30 -9 107 68 100 101 -2 14 -8 22 -13 19 -5 -3 -9 -1 -9
4 0 14 62 68 66 57 2 -6 27 -10 54 -9 28 0 50 0 50 -1 0 -1 -26 -20 -57 -42
-59 -42 -146 -127 -177 -174 -27 -42 -13 -74 48 -108 56 -32 155 -61 209 -61
20 0 39 -5 43 -11 7 -11 94 -69 104 -69 13 0 -1 175 -26 310 -2 14 5 3 15 -25
11 -27 20 -61 21 -75 0 -20 2 -22 10 -9 5 9 5 31 0 55 -5 21 -9 53 -9 69 1 23
5 17 15 -25 17 -70 23 -113 31 -227 3 -51 10 -93 14 -93 10 0 12 11 10 55 -2
28 -1 29 13 11 13 -16 15 -11 12 57 -2 41 -7 81 -12 89 -6 11 -5 10 9 -1 21
-16 21 -13 3 41 -8 24 -17 57 -20 73 l-6 30 16 -30 c9 -16 26 -40 37 -52 11
-13 15 -23 9 -23 -6 0 -9 -6 -6 -13 3 -8 11 -14 19 -14 10 0 6 21 -17 81 -76
203 -67 221 13 26 50 -122 78 -196 154 -408 21 -57 39 -101 42 -98 5 4 -88
292 -117 366 -10 25 -33 86 -51 135 -17 50 -40 109 -50 132 -20 44 -22 53 -14
53 3 0 19 -28 35 -62z m-1439 -281 c0 -12 5 -31 10 -42 7 -15 8 -9 4 22 -3 23
-1 45 5 48 5 3 10 1 10 -6 0 -7 6 -71 14 -143 18 -157 39 -456 33 -462 -3 -4
-36 151 -42 201 -7 57 -38 201 -45 215 -5 10 -5 21 0 26 4 5 4 31 0 59 -12 70
-12 117 0 110 6 -3 10 -16 11 -28z m-630 -60 c11 -21 24 -35 28 -32 10 6 55
-65 46 -73 -3 -3 -5 0 -5 7 0 7 -4 10 -10 6 -6 -3 -5 -15 2 -30 6 -14 13 -23
16 -21 9 9 33 -24 26 -35 -5 -8 -3 -9 6 -4 9 6 10 2 5 -15 -4 -14 -3 -20 3
-16 5 3 25 -25 45 -62 19 -37 51 -91 71 -121 20 -29 36 -58 36 -64 0 -6 2 -8
5 -5 3 3 -2 22 -10 43 -24 56 -12 52 20 -7 107 -200 220 -335 354 -425 52 -35
91 -63 88 -63 -3 0 -36 14 -72 32 -41 19 -85 51 -115 82 -26 28 -71 76 -100
106 -28 30 -47 46 -41 34 5 -11 12 -32 15 -46 2 -14 16 -45 31 -69 l26 -44
-25 30 c-14 17 -54 75 -87 130 -34 55 -81 129 -104 165 -97 148 -201 336 -256
464 -51 116 -50 131 2 33z m-880 -49 c-6 -29 -22 -76 -35 -104 l-24 -51 47
-36 c25 -19 96 -64 156 -100 113 -67 318 -208 330 -227 4 -6 -25 12 -65 40
-98 70 -207 139 -236 151 -14 5 -49 24 -78 43 -30 19 -93 54 -141 77 l-88 43
35 31 c38 32 68 85 88 153 18 58 24 46 11 -20z m1818 -562 c53 -29 113 -59
133 -65 20 -7 53 -25 73 -41 19 -15 166 -101 327 -191 160 -90 286 -165 281
-166 -5 -2 -63 13 -129 33 -65 20 -146 45 -179 54 -33 10 -166 55 -295 100
-129 45 -256 89 -282 98 -27 9 -48 19 -48 24 0 11 24 10 36 -1 14 -14 58 -25
50 -13 -7 12 29 26 44 17 5 -3 10 -3 10 2 0 4 -47 26 -105 47 -66 24 -105 44
-105 53 0 17 0 17 185 -53 77 -30 144 -54 150 -54 5 0 -17 15 -50 33 -33 19
-109 61 -170 95 -60 34 -114 62 -120 63 -18 2 39 17 69 18 17 1 66 -20 125
-53z m-8489 -911 c0 -11 12 -15 51 -15 30 0 49 -4 47 -10 -2 -6 -39 -24 -83
-39 -67 -24 -229 -87 -299 -116 -40 -17 -8 15 91 89 56 42 111 76 122 76 14 0
19 5 15 15 -5 11 1 15 25 15 21 0 31 -5 31 -15z"/>
<path d="M4862 5358 c-24 -11 -46 -27 -49 -35 -3 -9 9 -29 29 -49 30 -29 40
-33 67 -28 38 8 48 24 52 84 4 44 3 45 -26 47 -17 1 -50 -7 -73 -19z"/>
<path d="M5180 334 c-93 -24 -218 -90 -235 -125 -9 -16 -20 -27 -25 -24 -6 4
-10 1 -10 -5 0 -7 -7 -10 -15 -6 -9 3 -19 -3 -25 -14 -6 -11 -16 -20 -23 -20
-27 0 -97 -98 -97 -135 0 -3 210 -5 466 -5 372 0 464 3 456 13 -7 8 -3 28 13
67 14 30 24 66 25 80 0 19 3 21 9 11 11 -17 2 -83 -12 -92 -11 -8 -17 -79 -7
-79 9 0 40 108 40 137 0 12 12 31 26 42 l26 20 -29 36 c-35 43 -43 44 -44 3
-1 -31 -2 -31 -8 -8 -6 19 -9 12 -13 -35 -3 -33 -16 -82 -27 -109 -19 -44 -23
-47 -39 -35 -52 42 -62 43 -98 8 -19 -18 -34 -28 -34 -23 0 6 5 15 12 22 14
14 16 14 -96 12 -47 -1 -91 -7 -108 -16 -24 -13 -27 -12 -22 1 4 8 10 15 15
15 5 0 8 3 8 7 -3 19 2 27 9 17 8 -11 92 -7 92 6 0 4 -30 10 -67 13 -61 6 -70
4 -102 -19 l-36 -26 31 30 c22 21 45 31 82 36 28 4 58 13 66 21 21 21 29 19
16 -5 -9 -17 -8 -20 8 -20 26 0 47 66 39 122 -4 31 -14 51 -37 71 -27 24 -37
27 -103 26 -39 0 -97 -7 -127 -15z"/>
</g>
</svg>
