<?xml version="1.0" standalone="no"?>
<!DOCTYPE svg PUBLIC "-//W3C//DTD SVG 20010904//EN"
 "http://www.w3.org/TR/2001/REC-SVG-20010904/DTD/svg10.dtd">
<svg version="1.0" xmlns="http://www.w3.org/2000/svg"
 width="1920.000000pt" height="1080.000000pt" viewBox="0 0 1920.000000 1080.000000"
 preserveAspectRatio="xMidYMid meet">
<metadata>
Created by potrace 1.16, written by Peter Selinger 2001-2019
</metadata>
<g transform="translate(0.000000,1080.000000) scale(0.100000,-0.100000)"
fill="#000000" stroke="none">
<path d="M0 5400 l0 -5400 670 0 670 0 318 152 317 152 1065 651 c586 358
1233 754 1438 879 206 126 377 225 381 220 5 -5 21 -90 36 -190 l27 -181 -26
-105 c-15 -60 -27 -144 -30 -200 -2 -53 -6 -100 -9 -105 -2 -4 0 -42 5 -83 6
-41 11 -88 13 -105 2 -16 11 -50 20 -74 16 -44 13 -74 -11 -102 -17 -19 -8
-79 12 -79 34 0 4 -33 -79 -89 -26 -18 -132 -68 -235 -112 -103 -44 -207 -88
-232 -99 -25 -10 -162 -67 -305 -126 -143 -58 -323 -132 -400 -164 -77 -33
-241 -100 -365 -149 l-225 -91 2733 0 2732 0 -4 33 c-5 45 -32 103 -51 111 -9
3 -14 10 -11 15 8 12 -25 39 -65 52 -19 7 -40 17 -48 23 -17 13 -43 17 -35 5
3 -5 -2 -9 -10 -9 -9 0 -16 7 -16 15 0 8 -4 15 -10 15 -5 0 -10 -5 -10 -11 0
-5 -4 -7 -10 -4 -5 3 -10 2 -10 -4 0 -5 -8 -12 -17 -14 -17 -4 -17 -5 0 -6 36
-2 15 -19 -30 -23 -63 -6 -75 6 -113 106 -17 44 -40 104 -52 131 -27 65 -47
115 -119 315 -34 91 -74 194 -91 230 -16 36 -38 85 -48 110 -17 43 -52 119
-137 300 -22 47 -51 108 -63 135 -12 28 -40 87 -61 131 -56 116 -53 123 85
257 61 59 114 107 118 107 4 0 24 16 44 35 19 19 40 35 44 35 5 0 13 6 17 13
4 7 20 20 34 29 15 9 58 48 95 85 67 66 81 92 99 176 6 32 28 35 79 10 31 -14
37 -23 46 -67 5 -28 84 -433 175 -901 90 -467 190 -982 222 -1143 l57 -292
1912 0 1912 0 7 28 c8 34 146 387 263 677 160 394 382 939 408 999 13 32 23
60 21 63 -2 2 -25 -47 -52 -109 -26 -62 -67 -160 -92 -218 -24 -58 -55 -130
-69 -161 -13 -31 -24 -59 -24 -63 0 -3 -9 -25 -19 -49 -25 -52 -211 -506 -211
-512 0 -2 -14 -35 -31 -72 -17 -38 -39 -88 -49 -113 -31 -79 -66 -141 -75
-133 -4 5 -5 -2 -2 -15 3 -12 1 -20 -4 -16 -5 3 -9 -3 -9 -13 0 -15 -2 -16
-10 -3 -7 11 -10 6 -10 -21 0 -41 -17 -54 -54 -39 -22 8 -23 11 -15 56 5 26
12 50 17 53 8 6 11 26 13 81 1 19 5 40 9 45 4 6 10 29 13 52 3 24 30 96 60
160 98 211 127 275 127 279 0 6 100 176 121 206 10 15 19 32 19 37 0 11 48 93
100 171 76 112 240 477 240 533 0 18 -52 69 -88 88 -23 12 -105 69 -152 106
-8 7 -44 35 -80 62 -36 28 -69 54 -75 59 -5 4 -30 23 -55 42 -62 48 -150 132
-150 145 0 5 17 24 38 40 83 67 190 185 332 369 29 38 59 76 66 85 55 68 310
396 352 454 29 39 75 99 102 132 110 134 148 189 202 297 107 212 127 258 134
305 3 27 15 85 25 130 19 81 30 328 15 351 -3 6 -8 30 -11 53 -14 108 -116
429 -162 509 -49 85 -104 161 -113 155 -5 -3 -12 0 -16 6 -4 8 -3 9 4 5 18
-11 14 3 -9 35 -11 16 -24 27 -29 24 -5 -3 -12 0 -16 6 -4 8 -3 9 4 5 20 -12
13 7 -14 39 -19 22 -23 24 -15 8 19 -38 4 -26 -39 30 -39 53 -50 74 -30 62 16
-10 11 1 -7 16 -15 12 -16 12 -8 -1 6 -11 5 -12 -4 -4 -7 6 -13 19 -15 27 -1
9 -11 27 -22 39 -75 87 -71 86 69 -20 93 -71 105 -86 348 -405 l252 -332 108
-409 107 -409 -173 -471 c-95 -259 -188 -523 -208 -586 -19 -63 -119 -380
-220 -705 -218 -693 -233 -745 -209 -708 5 8 222 -124 682 -414 511 -322 712
-443 825 -498 83 -40 416 -196 741 -348 l591 -277 1492 0 1491 0 0 5400 0
5400 -9600 0 -9600 0 0 -5400z m9285 4955 l280 -46 312 11 313 12 147 -53
c245 -86 684 -261 567 -225 -12 4 -39 9 -59 11 -21 3 -72 14 -113 25 -77 19
-92 19 -92 -4 0 -17 -78 -43 -170 -56 -79 -11 -99 -18 -81 -29 13 -8 -108 -61
-139 -61 -17 0 -67 -56 -58 -65 7 -7 135 -23 288 -36 l145 -12 110 -59 c60
-32 116 -58 125 -57 8 1 23 -1 33 -6 31 -13 28 0 -5 19 -17 11 -28 14 -24 7 4
-6 3 -11 -2 -11 -10 0 -63 38 -73 53 -3 4 -10 7 -15 6 -14 -4 -61 19 -70 33
-6 10 -5 10 9 0 9 -8 20 -11 26 -8 5 3 11 1 13 -5 2 -6 12 -10 23 -8 18 4 18
5 -4 26 l-23 22 23 -6 c13 -3 -16 20 -64 50 -50 31 -84 58 -78 62 6 3 9 11 5
16 -7 13 22 6 169 -38 65 -19 121 -33 123 -31 2 3 -33 22 -79 44 -63 30 -77
40 -59 42 13 2 36 -1 50 -7 15 -6 45 -13 67 -16 39 -6 150 -30 212 -45 25 -6
30 -5 26 6 -3 8 -10 11 -16 7 -6 -3 -7 -1 -3 5 5 9 13 9 27 1 16 -8 106 -38
116 -39 1 0 0 7 -3 15 -4 8 -2 15 2 14 37 -3 121 -65 369 -274 l286 -240 201
-275 c111 -151 210 -286 220 -300 10 -14 47 -119 83 -233 63 -204 66 -209 124
-281 49 -60 83 -123 190 -351 l131 -278 0 -243 c0 -172 5 -273 15 -340 9 -53
14 -98 12 -101 -6 -5 -84 127 -92 157 -11 40 -137 290 -146 290 -7 0 10 -70
31 -125 5 -12 16 -53 25 -91 22 -89 52 -148 107 -209 56 -65 94 -123 106 -166
10 -36 0 -190 -17 -269 -6 -25 -10 -67 -10 -95 l0 -50 18 70 c10 39 28 131 41
205 20 114 28 142 54 179 38 53 39 56 65 109 19 40 20 42 3 42 -10 0 -51 -22
-91 -50 -40 -27 -74 -50 -76 -50 -1 0 -5 6 -8 14 -4 10 15 28 57 55 56 37 69
41 124 41 60 0 62 -1 62 -26 0 -14 -9 -44 -19 -67 -30 -66 -58 -193 -65 -293
-5 -81 -11 -101 -54 -195 -40 -84 -52 -125 -66 -214 -27 -173 -24 -168 -49
-111 -17 41 -19 53 -9 80 10 26 9 28 -2 14 -18 -25 -24 -23 -40 15 -13 30 -12
34 20 80 19 26 34 56 34 67 0 17 -3 18 -24 9 -20 -10 -29 -8 -52 10 -15 11
-33 21 -41 21 -40 0 -110 53 -151 114 -24 36 -76 105 -115 154 -40 49 -95 122
-124 163 -29 41 -88 121 -133 179 -44 57 -80 114 -80 126 0 11 -9 29 -20 39
-11 10 -20 25 -20 33 0 9 -59 73 -132 143 -110 106 -130 130 -119 142 14 18
-20 48 -185 160 -62 41 -138 94 -169 118 -130 98 -206 142 -397 224 -219 94
-382 188 -500 287 -31 26 -61 48 -67 48 -5 0 -13 9 -16 20 -3 11 -10 20 -14
20 -12 0 -47 29 -35 30 7 0 35 -16 63 -35 54 -37 77 -44 68 -21 -7 19 22 30
40 15 7 -7 16 -10 19 -7 7 8 -67 94 -93 109 -24 13 -32 35 -10 26 79 -29 74
-11 -14 55 -35 27 -68 52 -74 56 -20 15 -91 56 -135 79 l-45 22 36 1 c20 0 52
-6 71 -14 19 -8 53 -15 75 -14 23 0 47 -3 53 -7 13 -8 127 -40 199 -55 25 -6
87 -30 138 -55 105 -51 157 -66 148 -44 -3 8 -33 28 -66 44 -55 27 -95 57 -57
42 27 -10 30 6 6 24 -47 36 -5 31 81 -10 50 -23 105 -44 123 -47 32 -6 33 -6
11 10 -12 9 -44 27 -72 41 -28 14 -50 31 -48 37 3 17 -65 60 -202 130 -123 62
-137 78 -50 59 47 -11 59 -7 41 11 -21 21 -13 30 18 23 17 -4 30 -5 30 -2 0 2
-21 19 -47 37 -45 32 -46 35 -23 40 20 5 8 13 -73 55 -53 27 -95 50 -93 52 1
2 45 -9 97 -23 52 -14 112 -27 134 -29 36 -5 31 0 -50 40 -84 42 -87 45 -50
42 22 -2 47 -7 55 -11 12 -7 13 -7 2 5 -7 8 -49 32 -94 54 -89 44 -109 64 -56
58 30 -4 31 -3 16 10 -49 39 11 36 126 -7 50 -19 127 -39 171 -46 44 -7 127
-26 185 -42 125 -36 135 -37 135 -18 0 14 -27 31 -148 95 -26 14 -56 34 -67
45 -10 10 -97 58 -192 105 -204 101 -279 146 -273 162 2 6 -1 14 -8 17 -7 3
-6 5 4 5 8 1 44 -10 79 -24 35 -14 73 -25 84 -25 20 1 20 1 -3 20 l-23 20 22
0 22 0 -23 20 c-31 25 -13 25 53 0 64 -24 92 -26 64 -5 -11 8 -15 15 -8 15 9
0 109 -42 135 -57 4 -2 7 0 7 6 0 6 -12 14 -26 17 -14 4 -38 18 -52 31 -15 14
-69 50 -120 80 -89 54 -137 91 -73 59 17 -9 31 -14 31 -12 0 3 -39 25 -86 50
l-87 44 -191 1 c-200 1 -291 -11 -291 -40 0 -9 -17 -16 -51 -21 -28 -4 -61
-11 -74 -16 l-25 -9 33 -17 c39 -20 36 -27 -20 -50 -88 -36 -110 -51 -136 -90
-25 -37 -102 -93 -129 -95 -7 -1 -13 7 -13 17 0 19 21 80 34 101 5 8 10 32 12
55 2 22 11 55 20 74 10 22 12 37 6 45 -6 7 -13 29 -17 50 -9 45 -36 82 -78
104 -19 10 -27 18 -19 21 26 8 62 50 62 71 0 12 7 24 15 27 10 4 13 14 9 29
-3 13 -1 26 5 29 23 15 12 66 -22 100 -49 49 -216 84 -268 55 -13 -7 -66 -14
-119 -16 -297 -8 -286 -7 -485 -69 -127 -40 -247 -68 -540 -124 -55 -10 -118
-22 -140 -25 -51 -8 -212 -95 -270 -145 l-45 -39 28 -5 c27 -6 62 4 202 62 53
21 105 34 175 41 55 6 145 15 200 21 55 6 197 26 315 44 172 27 228 32 280 25
36 -4 160 -17 275 -28 232 -24 265 -29 265 -41 0 -18 -101 -20 -230 -6 -74 9
-200 19 -280 22 l-145 6 -86 -41 c-60 -29 -95 -53 -117 -81 -22 -27 -57 -50
-110 -75 -42 -20 -104 -49 -137 -65 -62 -29 -97 -40 -270 -84 -189 -48 -328
-88 -359 -102 -17 -7 -62 -25 -101 -40 -38 -15 -87 -41 -108 -57 -45 -37 -101
-121 -93 -142 3 -8 1 -15 -4 -15 -6 0 -10 -6 -10 -14 0 -7 -34 -45 -75 -82
-75 -68 -222 -233 -218 -244 1 -4 -40 -49 -90 -102 -133 -138 -146 -153 -122
-139 11 6 63 43 115 81 52 39 101 70 108 70 8 0 -1 -19 -22 -49 -20 -27 -36
-53 -36 -58 0 -5 -8 -16 -17 -24 -35 -31 -159 -165 -208 -224 -121 -145 -341
-368 -407 -412 -24 -16 -68 -71 -119 -146 -45 -67 -107 -153 -138 -192 -54
-66 -168 -220 -259 -349 -23 -33 -42 -66 -42 -74 0 -9 -2 -13 -5 -11 -5 6 6
74 94 578 l61 344 242 368 c134 202 351 536 483 744 132 207 247 382 255 389
8 7 227 126 485 263 l470 251 175 46 c177 48 640 128 690 120 14 -2 151 -24
305 -49z m1448 -2324 c5 -1 5 -6 1 -13 -4 -6 -3 -8 4 -4 16 10 416 -218 575
-328 349 -243 520 -380 691 -554 187 -189 252 -265 290 -337 15 -27 45 -75 67
-105 22 -30 80 -135 130 -232 86 -172 89 -180 89 -245 0 -38 -5 -75 -11 -83
-8 -12 -9 -10 -5 10 5 24 -22 129 -44 170 -7 12 -21 20 -37 20 -38 0 -111 -38
-135 -70 -22 -31 -54 -46 -168 -80 -82 -25 -131 -46 -203 -88 -40 -23 -58 -28
-94 -24 -35 3 -51 -1 -74 -17 -16 -12 -43 -24 -61 -27 -44 -7 -148 -45 -148
-53 0 -11 38 -40 44 -34 3 4 6 1 6 -5 0 -7 -34 -22 -74 -34 -41 -12 -73 -25
-70 -30 3 -4 -1 -5 -9 -2 -12 4 -121 -19 -201 -43 -11 -3 -16 -1 -12 5 11 18
-4 38 -37 51 -35 14 -87 77 -112 137 -17 42 -15 78 11 171 16 57 9 110 -20
138 -20 21 -73 30 -89 16 -17 -14 -27 -4 -27 26 0 13 -4 23 -10 23 -6 0 -10
-51 -10 -134 0 -150 -10 -253 -20 -201 -5 27 -10 19 -48 -73 -23 -56 -42 -111
-42 -122 0 -36 -19 -70 -40 -70 -11 0 -20 -5 -20 -10 0 -6 -13 3 -30 20 -17
17 -30 41 -30 55 0 18 -7 26 -25 31 -23 6 -36 34 -16 34 11 0 -8 69 -25 90 -7
8 -17 35 -24 60 -7 25 -16 54 -21 65 -4 11 -10 38 -13 60 -5 41 -33 187 -42
217 -3 10 -11 15 -20 11 -12 -4 -13 -17 -9 -62 4 -36 -1 -105 -14 -194 -12
-77 -21 -163 -21 -192 0 -48 -3 -56 -30 -75 -26 -19 -31 -19 -35 -6 -3 9 -7
23 -10 32 -4 11 -12 14 -33 10 -16 -4 -35 -1 -46 7 -17 12 -20 30 -22 140 -2
86 -7 135 -17 154 -56 108 -67 134 -78 178 -6 28 -23 88 -37 135 -31 103 -27
85 -37 145 -4 28 -12 55 -17 62 -17 21 -22 131 -8 149 18 20 105 10 133 -17
15 -14 24 -16 39 -8 11 6 29 8 41 5 12 -3 26 -1 33 5 13 10 77 14 133 6 31 -4
35 -1 53 39 10 24 23 46 28 49 12 7 2 35 -13 35 -11 0 -30 16 -87 74 -29 30
-39 49 -44 85 -7 56 1 106 20 122 8 6 14 15 14 20 0 4 11 20 26 36 22 24 28
25 45 15 17 -11 23 -10 39 10 10 13 22 43 26 68 4 25 9 54 11 65 3 11 5 30 5
42 0 12 6 24 14 27 7 3 11 12 8 21 -3 8 -2 15 4 15 5 0 13 11 16 25 4 14 10
25 15 25 5 0 6 26 4 58 -3 31 -6 69 -6 85 0 15 -3 27 -7 27 -9 0 -19 54 -24
122 -2 30 1 45 7 41 6 -4 8 2 5 14 -4 16 -1 20 11 18 9 -2 20 -4 24 -4z
m-4239 -473 c-15 -29 -42 -91 -60 -137 -44 -111 -75 -153 -147 -201 -110 -74
-115 -45 -19 97 132 195 168 246 207 297 39 49 40 50 43 24 2 -14 -9 -50 -24
-80z m-1231 -102 c10 11 68 -40 97 -86 17 -26 34 -70 40 -100 6 -32 41 -111
92 -207 l83 -155 143 -130 c78 -72 142 -133 142 -138 0 -4 12 -25 26 -46 15
-21 19 -32 9 -24 -9 7 -25 30 -35 49 -19 38 -130 143 -219 206 -41 30 -71 66
-129 154 -125 194 -269 371 -300 371 -8 0 -12 -6 -9 -13 2 -6 -2 -18 -9 -25
-11 -10 -16 -6 -28 22 -8 20 -18 55 -21 80 l-7 45 43 3 c24 2 51 0 60 -4 9 -4
19 -5 22 -2z m1797 -228 c-6 -34 -15 -68 -20 -77 -14 -26 -48 -122 -62 -176
-10 -35 -19 -50 -30 -49 -10 1 -14 -4 -11 -12 8 -21 44 -17 50 6 3 11 10 20
15 20 5 0 7 -8 4 -17 -2 -10 -12 -45 -21 -78 -48 -171 -77 -255 -100 -289 -14
-20 -25 -45 -25 -54 0 -9 -4 -23 -9 -30 -6 -10 -10 -10 -20 1 -13 16 -4 50 10
41 6 -3 7 5 4 19 -9 34 33 244 57 286 10 18 20 56 22 84 2 28 8 53 15 55 6 2
9 7 6 12 -3 4 2 27 10 50 8 23 15 56 15 72 0 16 7 45 16 66 9 20 17 45 19 55
2 9 11 24 19 33 9 8 16 21 16 28 0 6 6 18 12 24 19 19 22 -2 8 -70z m-369 -60
c2 -39 -1 -59 -38 -213 -41 -177 -62 -270 -109 -500 -19 -93 -44 -210 -55
-258 -17 -79 -19 -127 -19 -490 0 -304 5 -468 20 -672 65 -881 81 -1194 62
-1221 -4 -6 -17 -13 -28 -16 -21 -5 -22 -1 -28 106 -9 156 -32 685 -56 1271
-11 275 -27 635 -35 800 -14 299 -21 548 -17 657 l2 58 53 -21 c28 -12 57 -23
62 -25 9 -4 70 94 63 101 -4 4 -104 53 -155 76 -32 14 -33 15 -18 43 18 35 19
50 3 40 -7 -4 -4 4 8 17 11 13 40 51 62 83 60 85 139 167 170 176 44 13 52 11
53 -12z m-1281 -542 c0 -8 -62 -59 -137 -114 -258 -187 -276 -204 -415 -392
-112 -151 -171 -270 -187 -375 -35 -226 -31 -376 9 -455 22 -43 44 -151 42
-199 -3 -39 -35 -76 -58 -67 -9 3 -25 0 -37 -6 -22 -13 -28 -15 -58 -17 -9 0
-32 -12 -52 -25 -26 -18 -38 -21 -47 -13 -8 9 -10 8 -5 -5 5 -12 2 -18 -6 -18
-11 0 -13 -21 -11 -100 2 -66 0 -100 -7 -100 -7 0 -11 -23 -11 -55 0 -49 3
-57 24 -65 18 -6 25 -19 29 -47 17 -114 18 -135 8 -129 -15 10 -97 149 -103
176 -3 14 -20 92 -37 174 l-31 149 0 351 1 351 185 250 c102 138 193 258 202
268 9 10 132 105 273 213 167 125 284 206 331 228 82 39 98 42 98 22z m7360
-311 c17 10 28 -30 35 -129 7 -93 7 -98 -11 -93 -11 3 -45 9 -76 12 l-57 7 -7
55 c-8 69 1 164 17 174 7 4 30 -1 51 -12 21 -11 43 -17 48 -14z m-338 -237
c-5 -5 -53 -17 -108 -28 -54 -10 -122 -26 -150 -35 -47 -14 -103 -26 -189 -41
-16 -3 -48 -10 -70 -16 -22 -6 -47 -12 -55 -13 -8 -1 -22 -5 -31 -9 -9 -4 -27
-8 -41 -10 -13 -1 -29 -6 -36 -10 -7 -4 -16 -5 -21 -1 -5 3 -13 0 -16 -6 -4
-5 -13 -8 -21 -5 -7 3 -16 1 -18 -3 -3 -5 -17 -8 -31 -8 -28 0 -27 7 2 12 10
2 20 4 23 6 3 1 10 3 15 3 6 1 21 8 33 15 13 7 26 10 29 7 4 -3 12 -1 20 5 7
6 22 9 33 6 11 -3 18 -1 14 4 -3 5 3 10 13 11 17 1 27 3 48 8 6 2 15 4 20 5 6
1 17 5 25 8 44 17 90 25 83 14 -4 -8 -1 -7 9 1 9 7 24 15 34 17 11 2 51 11 89
20 150 33 171 38 215 44 63 9 91 8 82 -1z m-3457 -268 c28 -6 106 -22 175 -35
69 -13 149 -33 178 -44 29 -12 70 -21 92 -21 27 0 48 -8 67 -24 27 -24 27 -25
9 -45 -35 -39 -148 -66 -332 -78 -76 -5 -103 -2 -161 15 -126 39 -178 67 -217
118 -42 54 -44 69 -15 85 39 20 124 47 139 44 8 -2 38 -8 65 -15z m3084 -122
c17 -18 31 -38 31 -44 0 -6 -17 -35 -38 -65 -34 -49 -45 -57 -115 -83 -73 -28
-82 -29 -125 -17 -25 6 -79 16 -119 21 -96 12 -193 55 -193 86 0 26 17 34 71
34 22 0 79 11 127 24 143 40 286 74 309 75 13 1 35 -13 52 -31z m-6104 -293
c18 -22 60 -71 94 -108 34 -38 60 -72 57 -75 -10 -10 -115 69 -170 129 -57 61
-80 113 -91 204 l-6 50 42 -80 c23 -44 56 -98 74 -120z m6944 42 c1 -42 -15
-184 -34 -315 -20 -130 -63 -418 -95 -640 -72 -481 -199 -1204 -215 -1220 -5
-6 -8 63 -5 134 3 72 -16 57 -41 -30 -13 -47 -28 -86 -33 -88 -17 -6 -35 97
-35 197 -1 160 33 378 153 970 30 149 60 304 67 345 8 46 20 85 34 101 18 22
24 57 44 265 13 131 27 243 31 248 9 9 34 -30 27 -42 -3 -4 1 -13 9 -20 15
-14 15 -16 18 115 0 34 5 65 9 69 4 5 5 0 1 -10 -6 -15 -4 -17 6 -11 10 6 11
2 6 -19 -4 -15 -2 -26 4 -26 5 0 10 -10 11 -22 1 -22 1 -22 9 2 4 14 9 45 10
70 3 75 18 16 19 -73z m-1859 -57 c7 -47 14 -114 15 -149 1 -35 7 -66 12 -70
6 -3 20 -68 33 -144 19 -113 21 -142 11 -159 -16 -26 10 -100 53 -146 89 -97
172 -140 311 -162 98 -15 396 -16 475 -1 134 26 377 103 478 151 56 27 102 45
102 40 0 -5 -19 -58 -41 -117 -40 -102 -50 -119 -189 -293 -164 -206 -292
-413 -330 -535 -36 -116 -147 -392 -167 -416 -7 -9 -10 -19 -6 -22 3 -4 2 -7
-4 -7 -5 0 -18 -19 -28 -42 -9 -24 -21 -52 -26 -63 -4 -11 -27 -78 -50 -150
-112 -349 -171 -481 -299 -670 -170 -252 -302 -490 -405 -730 -66 -154 -205
-397 -220 -385 -7 6 -15 6 -20 2 -4 -4 -4 3 0 16 6 20 1 25 -32 38 -32 13 -39
21 -41 45 -1 16 2 29 8 29 5 0 10 9 10 19 0 11 6 26 14 34 8 8 16 29 18 48 4
44 -21 50 -70 15 -21 -14 -52 -28 -69 -32 -17 -3 -34 -12 -37 -20 -3 -9 -17
-11 -43 -8 -88 12 -83 7 -78 82 2 37 7 74 10 82 7 16 119 100 134 100 5 0 25
18 45 40 20 22 42 40 50 40 8 0 23 11 33 25 15 22 28 26 78 29 33 2 62 4 66 5
9 2 5 71 -4 71 -5 0 -7 9 -4 20 3 13 -1 24 -13 30 -20 11 -16 60 6 60 7 0 21
14 31 30 9 17 21 30 26 30 5 0 3 8 -4 17 -12 14 -12 15 0 9 16 -11 31 10 31
44 0 20 -2 22 -10 10 -8 -13 -10 -12 -10 3 0 9 4 17 10 17 15 0 52 92 41 103
-7 7 -15 6 -24 -1 -10 -9 -23 -6 -55 9 -23 12 -70 23 -104 26 -35 3 -76 13
-93 22 l-30 16 28 3 c19 2 31 12 38 28 13 37 12 44 -16 54 -15 6 -23 15 -19
23 9 25 49 35 115 30 55 -5 75 -1 129 21 57 22 66 24 76 11 10 -13 18 -13 65
4 141 50 154 58 159 87 l5 28 17 -26 c9 -14 21 -40 25 -59 l9 -33 25 35 c68
91 91 220 40 227 -15 2 -33 -6 -50 -22 l-27 -26 -14 36 c-18 46 -54 64 -126
64 -54 0 -72 6 -179 64 -16 9 -36 16 -43 16 -28 0 -72 31 -72 51 0 26 31 37
95 33 60 -3 146 12 170 30 16 11 16 15 2 42 -9 17 -22 36 -31 43 -8 7 -12 19
-9 27 7 18 -27 145 -44 162 -17 17 -17 32 1 32 17 0 29 27 14 32 -12 4 23 57
157 238 38 52 70 101 70 108 0 8 10 19 22 26 20 10 45 43 107 139 22 33 42
111 55 211 8 60 7 74 -12 116 -19 42 -25 48 -52 48 -16 0 -34 1 -40 3 -5 2
-27 -3 -48 -10 -21 -7 -52 -11 -68 -9 -15 3 -30 0 -33 -6 -2 -6 -18 19 -35 57
-30 65 -42 75 -83 68 -5 0 -8 5 -9 12 -1 6 -4 1 -8 -13 -4 -14 -13 -24 -20
-22 -7 1 -10 -6 -6 -20 2 -13 7 -34 9 -48 15 -93 20 -104 63 -144 38 -36 47
-52 69 -133 l27 -92 -59 -58 c-33 -32 -71 -79 -85 -104 -22 -38 -33 -48 -64
-53 -29 -6 -40 -4 -50 11 -10 13 -24 17 -54 14 -35 -2 -45 2 -72 31 -52 57
-62 83 -50 139 6 26 8 69 5 93 -5 37 -2 50 17 78 23 32 26 62 8 84 -5 7 -7 30
-3 51 3 22 -1 87 -10 144 -18 111 -38 384 -34 459 5 90 0 366 -7 400 -5 29 -3
39 14 54 22 20 28 51 11 61 -15 9 -12 48 6 84 16 32 34 33 34 1 0 -10 41 -59
90 -109 l90 -91 15 -82 c9 -46 21 -105 29 -132 11 -44 14 -47 20 -25 7 23 9
22 21 -16 16 -48 19 -20 5 53 -5 27 -10 69 -11 93 -1 24 -6 49 -9 54 -8 10
-25 130 -35 240 -9 94 19 50 35 -55z m2645 -464 c33 -107 95 -413 95 -465 0
-44 -15 -63 -23 -28 -3 12 -26 128 -52 257 -49 240 -61 320 -51 320 3 0 17
-38 31 -84z m-7528 -58 c28 -26 28 -38 2 -149 -23 -99 -41 -127 -34 -52 5 47
4 47 -6 13 -36 -115 -37 -117 -38 -85 -2 37 40 295 47 295 3 0 16 -10 29 -22z
m-1637 -632 c11 -61 59 -412 65 -476 10 -107 14 -184 10 -175 -6 14 -195 955
-194 969 1 23 110 -268 119 -318z m9222 -44 c-23 -76 -53 -143 -123 -269 -145
-263 -168 -296 -182 -258 -7 18 135 336 304 679 l24 49 3 -50 c2 -33 -7 -84
-26 -151z m-8132 -112 c9 -6 20 -5 30 3 13 10 13 10 3 -3 -9 -12 -5 -18 24
-33 22 -11 32 -13 27 -5 -10 16 1 8 141 -106 214 -175 296 -249 286 -259 -9
-9 -65 19 -94 47 -6 6 -30 25 -52 41 -22 16 -69 54 -105 85 -36 31 -103 86
-150 122 -120 95 -146 117 -135 117 6 1 17 -3 25 -9z"/>
<path d="M11109 6727 c-38 -25 -58 -70 -58 -132 -1 -47 6 -59 37 -62 20 -3 27
7 23 30 0 4 3 7 8 7 5 0 18 31 31 69 17 55 19 73 11 90 -14 26 -11 26 -52 -2z"/>
<path d="M11042 4886 c3 -4 -2 -28 -13 -53 -10 -24 -19 -57 -19 -71 0 -15 -11
-48 -25 -74 -26 -50 -31 -83 -15 -108 8 -12 10 -12 10 -1 0 8 3 11 8 7 4 -4 7
-18 7 -29 0 -16 5 -21 19 -19 14 3 17 -1 12 -13 -3 -9 -6 -24 -7 -33 -1 -10
-4 -7 -9 8 -8 24 -8 24 -9 2 -1 -33 28 -40 49 -11 29 37 31 80 8 113 -16 23
-19 37 -14 75 11 83 12 202 1 208 -5 4 -7 3 -3 -1z"/>
<path d="M13342 1445 c-25 -95 -36 -160 -57 -360 -9 -82 -27 -226 -40 -320
-53 -367 -105 -721 -110 -742 l-5 -23 1341 0 c738 0 1340 2 1338 5 -5 4 -292
117 -483 190 -49 19 -94 31 -100 28 -6 -3 -8 -2 -3 2 4 5 -116 57 -265 117
-1265 504 -1369 551 -1422 633 -15 25 -38 52 -50 61 -14 11 -17 18 -8 21 6 3
9 9 6 15 -4 6 -10 5 -15 -3 -7 -11 -12 -10 -26 5 -16 16 -16 18 -1 13 32 -11
12 22 -33 54 -53 39 -61 50 -47 66 7 9 7 13 -1 13 -14 0 -14 82 0 188 15 114
7 131 -19 37z"/>
</g>
</svg>
