<svg width="22" height="19" viewBox="0 0 22 19" fill="none" xmlns="http://www.w3.org/2000/svg">
<path d="M19.9475 2.03741L19.9493 2.03914C22.0159 4.06237 22.0185 7.38257 19.9475 9.43032L10.9804 18.2968L2.0393 9.45616C2.03872 9.45557 2.03813 9.45498 2.03754 9.45438C1.05163 8.45832 0.5 7.14158 0.5 5.74496C0.5 4.34306 1.03283 3.02898 2.03566 2.0374L2.03566 2.03741L2.03742 2.03565C4.08643 -0.0106297 7.45279 -0.0131432 9.52677 2.05787L9.52852 2.0596L10.6288 3.14754L10.9839 3.49868L11.3355 3.14397L12.4339 2.03566C14.5072 -0.0124666 17.875 -0.0118871 19.9475 2.03741ZM10.6288 17.2907L10.9808 17.6388L11.3324 17.2902L19.5932 9.09993C20.5212 8.20567 21.0236 7.0105 21.0236 5.72276C21.0236 4.42842 20.4941 3.23704 19.5964 2.34882C17.738 0.487735 14.6616 0.491524 12.7845 2.34764L10.9785 4.13331L9.17625 2.36984C9.17595 2.36954 9.17565 2.36924 9.17534 2.36894C8.22653 1.43125 6.99945 0.959831 5.77086 0.959831C4.54292 0.959831 3.3165 1.43075 2.36789 2.36745C1.43963 3.26175 0.937101 4.45705 0.937101 5.74496C0.937101 7.02006 1.46865 8.20876 2.36063 9.11523L2.3606 9.11526L2.36547 9.12008L10.6288 17.2907Z" fill="black"/>
<path d="M19.9475 2.03741L19.9493 2.03914C22.0159 4.06237 22.0185 7.38257 19.9475 9.43032L10.9804 18.2968L2.0393 9.45616C2.03872 9.45557 2.03813 9.45498 2.03754 9.45438C1.05163 8.45832 0.5 7.14158 0.5 5.74496C0.5 4.34306 1.03283 3.02898 2.03566 2.0374L2.03566 2.03741L2.03742 2.03565C4.08643 -0.0106297 7.45279 -0.0131432 9.52677 2.05787L9.52852 2.0596L10.6288 3.14754L10.9839 3.49868L11.3355 3.14397L12.4339 2.03566C14.5072 -0.0124666 17.875 -0.0118871 19.9475 2.03741ZM10.6288 17.2907L10.9808 17.6388L11.3324 17.2902L19.5932 9.09993C20.5212 8.20567 21.0236 7.0105 21.0236 5.72276C21.0236 4.42842 20.4941 3.23704 19.5964 2.34882C17.738 0.487735 14.6616 0.491524 12.7845 2.34764L10.9785 4.13331L9.17625 2.36984C9.17595 2.36954 9.17565 2.36924 9.17534 2.36894C8.22653 1.43125 6.99945 0.959831 5.77086 0.959831C4.54292 0.959831 3.3165 1.43075 2.36789 2.36745C1.43963 3.26175 0.937101 4.45705 0.937101 5.74496C0.937101 7.02006 1.46865 8.20876 2.36063 9.11523L2.3606 9.11526L2.36547 9.12008L10.6288 17.2907Z" stroke="black"/>
<path d="M19.9475 2.03741L19.9493 2.03914C22.0159 4.06237 22.0185 7.38257 19.9475 9.43032L10.9804 18.2968L2.0393 9.45616C2.03872 9.45557 2.03813 9.45498 2.03754 9.45438C1.05163 8.45832 0.5 7.14158 0.5 5.74496C0.5 4.34306 1.03283 3.02898 2.03566 2.0374L2.03566 2.03741L2.03742 2.03565C4.08643 -0.0106297 7.45279 -0.0131432 9.52677 2.05787L9.52852 2.0596L10.6288 3.14754L10.9839 3.49868L11.3355 3.14397L12.4339 2.03566C14.5072 -0.0124666 17.875 -0.0118871 19.9475 2.03741ZM10.6288 17.2907L10.9808 17.6388L11.3324 17.2902L19.5932 9.09993C20.5212 8.20567 21.0236 7.0105 21.0236 5.72276C21.0236 4.42842 20.4941 3.23704 19.5964 2.34882C17.738 0.487735 14.6616 0.491524 12.7845 2.34764L10.9785 4.13331L9.17625 2.36984C9.17595 2.36954 9.17565 2.36924 9.17534 2.36894C8.22653 1.43125 6.99945 0.959831 5.77086 0.959831C4.54292 0.959831 3.3165 1.43075 2.36789 2.36745C1.43963 3.26175 0.937101 4.45705 0.937101 5.74496C0.937101 7.02006 1.46865 8.20876 2.36063 9.11523L2.3606 9.11526L2.36547 9.12008L10.6288 17.2907Z" stroke="black" stroke-opacity="0.2"/>
</svg>
