<?xml version="1.0" standalone="no"?>
<!DOCTYPE svg PUBLIC "-//W3C//DTD SVG 20010904//EN"
 "http://www.w3.org/TR/2001/REC-SVG-20010904/DTD/svg10.dtd">
<svg version="1.0" xmlns="http://www.w3.org/2000/svg"
 width="1728.000000pt" height="1080.000000pt" viewBox="0 0 1728.000000 1080.000000"
 preserveAspectRatio="xMidYMid meet">
<metadata>
Created by potrace 1.16, written by Peter Selinger 2001-2019
</metadata>
<g transform="translate(0.000000,1080.000000) scale(0.100000,-0.100000)"
fill="#000000" stroke="none">
<path d="M0 5400 l0 -5400 8640 0 8640 0 0 5400 0 5401 -1577 -1 c-868 -1
-1571 -5 -1564 -9 8 -5 11 -14 7 -20 -5 -7 -1 -9 8 -5 9 3 16 10 16 16 0 5 5
6 10 3 8 -5 7 -12 -2 -23 -11 -13 -10 -15 5 -9 15 6 16 4 7 -13 -9 -16 -8 -18
5 -14 8 4 15 1 15 -5 0 -8 5 -9 19 -1 25 13 31 13 31 -1 0 -5 -5 -7 -12 -3 -8
5 -9 2 -5 -10 4 -10 7 -20 7 -23 0 -3 7 0 15 7 13 11 18 10 30 -6 11 -14 17
-16 23 -7 10 15 37 0 28 -16 -4 -6 -12 -8 -18 -5 -7 4 -8 2 -4 -4 4 -7 2 -12
-5 -12 -9 0 -10 -3 -2 -11 8 -8 16 -7 30 2 13 7 28 9 39 4 18 -8 17 -9 -3 -12
-28 -5 -31 -23 -4 -23 11 0 21 -4 23 -9 2 -5 15 -13 31 -16 21 -6 27 -4 27 9
0 24 16 19 40 -11 11 -14 28 -27 38 -28 25 -2 58 -22 50 -31 -4 -4 -14 -2 -21
4 -14 12 -27 7 -27 -10 0 -5 4 -7 9 -4 4 3 16 -3 26 -14 10 -11 23 -20 29 -20
6 0 4 4 -4 10 -8 5 -11 12 -7 16 3 4 13 1 22 -6 11 -9 15 -9 15 -1 0 7 5 9 10
6 6 -4 8 -14 6 -23 -8 -25 7 -43 35 -40 14 2 23 -2 22 -8 -1 -7 9 -15 23 -18
15 -4 37 -14 51 -23 43 -28 65 -24 113 22 42 40 133 95 155 95 5 0 -17 -16
-50 -35 -60 -34 -111 -82 -100 -93 3 -4 17 8 31 26 14 18 29 32 34 32 13 0 20
-29 8 -36 -7 -5 -8 -2 -3 6 5 8 3 11 -6 8 -9 -3 -13 -15 -11 -31 2 -15 -1 -27
-6 -27 -5 0 -12 -8 -15 -17 -4 -10 -13 -35 -20 -55 -8 -20 -11 -42 -7 -49 5
-7 16 11 30 48 16 44 38 77 82 122 33 35 62 60 64 58 3 -3 -18 -28 -45 -57
-28 -29 -51 -59 -51 -67 0 -7 -4 -13 -8 -13 -13 0 -32 -64 -36 -118 -3 -40 -1
-49 10 -45 8 3 14 0 14 -6 0 -6 -4 -11 -9 -11 -5 0 -12 -11 -15 -25 -4 -14
-13 -25 -21 -25 -8 0 -24 -11 -37 -24 -30 -31 -88 -51 -88 -30 0 20 -27 18
-39 -3 -10 -17 -11 -16 -12 2 -1 11 -2 26 -2 33 1 6 -3 12 -7 12 -4 0 -10 -21
-14 -46 -3 -26 -10 -52 -15 -58 -18 -23 -19 -55 -2 -70 10 -9 53 -25 97 -36
82 -21 87 -25 171 -124 16 -19 27 -26 32 -18 4 7 17 1 38 -18 21 -20 38 -28
50 -24 15 5 16 4 3 -5 -22 -16 -56 -13 -70 4 -10 12 -16 13 -24 5 -8 -8 -7
-13 4 -20 38 -24 210 -65 210 -50 0 4 11 7 25 6 14 0 23 -6 21 -12 -2 -6 0
-16 6 -22 14 -14 -1 -98 -23 -123 -23 -27 -24 -45 -4 -53 8 -3 15 -12 15 -20
0 -8 10 -18 22 -22 l22 -7 -24 -19 c-20 -16 -22 -21 -9 -30 11 -8 11 -9 -3 -4
-10 3 -20 1 -23 -4 -4 -6 -1 -10 4 -10 6 0 11 -10 11 -22 1 -30 26 -65 33 -46
3 7 11 -2 20 -22 23 -53 51 -76 96 -84 23 -3 44 -13 47 -21 4 -8 12 -15 19
-15 9 0 16 -20 20 -57 9 -83 9 -86 0 -108 -5 -11 -9 -39 -9 -62 -1 -24 -4 -43
-7 -43 -12 0 -3 -30 14 -51 10 -11 15 -24 12 -29 -4 -6 1 -10 9 -10 23 0 20
-28 -4 -35 -22 -7 -27 -31 -7 -38 9 -4 9 -6 -1 -6 -10 -1 -10 -6 -2 -21 6 -11
8 -20 4 -20 -3 0 -2 -6 3 -12 5 -7 10 -24 11 -37 1 -22 0 -22 -13 -5 -8 11
-15 24 -15 30 0 13 -40 27 -40 14 0 -5 5 -10 11 -12 11 -4 22 -70 20 -137 0
-37 -6 -51 -38 -83 -20 -21 -33 -38 -28 -38 6 0 10 -16 11 -36 0 -20 6 -39 13
-43 6 -4 9 -15 6 -23 -4 -9 -2 -19 4 -23 6 -3 11 -1 11 4 0 18 14 13 28 -10
12 -19 12 -20 -10 -14 -21 7 -20 6 7 -27 17 -19 32 -31 35 -26 8 11 42 -31 35
-43 -4 -5 0 -12 9 -15 8 -3 33 -23 56 -45 23 -22 49 -38 58 -37 13 2 16 -3 14
-21 -1 -14 1 -22 4 -18 4 4 13 2 21 -4 10 -9 13 -7 13 11 0 16 4 21 16 16 12
-5 15 -2 10 10 -5 14 -4 15 9 4 12 -10 15 -10 15 0 0 7 6 10 14 7 7 -3 17 -2
22 3 5 5 28 6 52 3 35 -5 45 -11 53 -32 5 -14 13 -34 19 -43 10 -18 -4 -66
-25 -80 -5 -4 4 -8 20 -8 l30 0 -29 -25 c-16 -14 -33 -25 -38 -25 -4 0 -8 -7
-8 -16 0 -25 -31 -43 -56 -33 -16 5 -26 4 -34 -7 -14 -15 -60 -19 -60 -5 0 5
-10 11 -22 13 -19 2 -22 8 -20 34 3 30 2 31 -45 37 -29 3 -53 1 -62 -6 -11
-10 -13 -8 -7 11 5 13 3 22 -3 22 -6 0 -11 15 -11 33 0 20 -8 41 -18 50 -21
20 -32 22 -32 6 0 -5 5 -7 12 -3 7 5 8 3 4 -5 -5 -7 0 -18 10 -26 16 -11 16
-15 5 -29 -8 -9 -20 -15 -27 -12 -7 3 -15 0 -17 -7 -2 -7 -8 -8 -13 -4 -5 4
-2 12 5 17 12 7 11 13 -5 37 -10 15 -17 32 -16 37 2 5 -3 4 -10 -1 -10 -8 -18
-8 -32 3 -15 11 -22 11 -35 1 -12 -10 -14 -9 -8 6 10 28 -1 20 -18 -13 -12
-24 -13 -35 -4 -53 12 -22 12 -22 -10 -3 -11 11 -24 16 -28 13 -3 -4 -1 -7 5
-7 7 0 12 -5 12 -11 0 -6 -8 -9 -18 -7 -27 8 -22 -48 6 -68 12 -8 22 -22 22
-30 0 -21 -7 -18 -41 19 -21 22 -27 25 -20 10 15 -29 14 -36 -4 -29 -12 4 -13
2 -7 -12 7 -14 9 -49 3 -87 -1 -5 -6 -3 -11 5 -7 11 -10 5 -11 -25 -6 -137 6
-248 27 -270 7 -7 10 -15 7 -19 -11 -11 19 -36 43 -36 13 0 24 -4 24 -10 0 -5
11 -10 24 -10 22 0 24 4 25 53 0 28 -7 76 -15 105 -17 58 -11 126 13 150 12
13 13 11 8 -10 -3 -13 -2 -35 4 -48 9 -24 10 -23 10 10 1 34 2 35 44 35 23 0
52 -6 64 -13 12 -6 31 -12 42 -12 12 0 21 -4 21 -10 0 -5 5 -10 12 -10 19 0
88 -33 88 -42 0 -5 12 -5 27 -2 21 6 25 4 20 -9 -4 -10 4 -25 23 -40 16 -14
27 -27 24 -30 -9 -9 27 -57 42 -57 8 0 14 -4 14 -10 0 -5 -3 -9 -7 -9 -19 3
-33 -2 -33 -12 0 -5 4 -8 9 -5 15 9 41 -5 41 -21 0 -9 6 -21 14 -27 19 -15 46
-134 46 -200 0 -50 -3 -59 -35 -90 -41 -41 -42 -47 -15 -71 28 -25 18 -31 -15
-9 -26 17 -28 17 -40 1 -7 -9 -20 -17 -29 -17 -13 0 -16 -5 -11 -20 4 -11 2
-20 -4 -20 -6 0 -11 6 -11 13 0 8 -4 7 -10 -3 -8 -13 -10 -13 -10 -1 0 11 -3
12 -11 4 -7 -7 -9 -20 -5 -30 6 -13 9 -15 15 -4 6 9 10 2 13 -20 3 -19 1 -37
-4 -40 -6 -4 -8 -13 -6 -20 3 -8 -2 -23 -11 -33 -9 -11 -11 -17 -6 -13 6 3 17
1 25 -4 13 -8 13 -10 0 -20 -11 -8 -12 -12 -2 -16 6 -2 12 -11 12 -19 0 -8 10
-34 21 -57 12 -23 20 -44 18 -47 -2 -3 6 -6 19 -8 24 -4 31 -22 7 -22 -8 0
-15 -4 -15 -10 0 -13 27 -13 35 0 11 17 35 -9 35 -36 0 -13 -4 -24 -9 -24 -4
0 -11 -46 -14 -102 -6 -118 -12 -138 -38 -138 -12 0 -23 -10 -29 -25 -5 -13
-21 -35 -36 -47 -14 -13 -37 -48 -51 -78 -13 -30 -35 -66 -48 -80 -27 -29 -45
-87 -45 -146 0 -33 -4 -43 -20 -47 -25 -6 -26 -24 -2 -29 9 -3 -2 -8 -25 -12
-24 -4 -43 -11 -43 -16 0 -4 -8 -6 -17 -4 -44 12 -158 -53 -175 -98 -4 -11
-12 -16 -18 -13 -6 3 -22 -3 -36 -14 -15 -12 -32 -21 -38 -21 -6 0 -29 -18
-51 -40 -22 -21 -44 -39 -48 -40 -17 -1 -37 -29 -31 -45 6 -14 8 -14 19 2 12
16 15 16 32 2 10 -9 25 -14 33 -11 8 2 5 -4 -7 -15 -29 -25 -29 -37 0 -64 l22
-21 -25 6 c-14 3 -19 3 -12 0 6 -3 12 -12 12 -20 0 -10 -7 -13 -24 -8 -17 4
-27 0 -36 -13 -10 -16 -10 -15 -4 6 6 23 -7 41 -31 41 -5 0 -3 -4 5 -10 21
-13 5 -23 -18 -11 -28 15 -42 14 -42 -4 0 -8 -7 -16 -15 -16 -8 -1 -19 -2 -25
-3 -5 -1 -9 4 -7 9 1 6 7 10 14 10 6 0 15 3 19 7 9 9 -15 38 -30 37 -7 0 -6
-2 2 -6 6 -2 12 -8 12 -13 0 -8 -41 -12 -107 -12 -38 1 -44 -12 -10 -23 14 -4
18 -8 9 -12 -8 -3 -19 0 -25 6 -6 6 -20 11 -30 11 -13 0 -17 5 -13 15 3 8 1
15 -5 15 -5 0 -9 8 -7 18 2 9 -2 16 -9 15 -7 -2 -10 4 -7 12 4 8 -1 18 -10 21
-12 4 -15 13 -10 28 7 21 6 21 -15 2 -16 -15 -18 -21 -9 -28 10 -6 9 -8 -3 -8
-9 0 -19 -6 -22 -14 -4 -10 0 -12 14 -9 10 3 19 0 19 -6 0 -6 -7 -11 -16 -11
-14 0 -14 -2 0 -15 8 -8 20 -15 26 -15 6 0 10 -6 7 -12 -2 -7 -9 -12 -15 -11
-5 1 -12 -11 -16 -27 -4 -22 -11 -30 -26 -30 -11 0 -20 -4 -20 -10 0 -5 7 -10
15 -10 8 0 15 -4 15 -10 0 -14 -19 -12 -35 4 -15 15 -2 36 22 36 22 0 15 41
-7 47 -19 5 -19 7 -5 23 21 24 9 51 -21 47 -26 -3 -29 -9 -20 -30 5 -9 7 -9
12 1 3 6 13 12 22 12 15 -1 14 -3 -3 -16 -11 -8 -25 -12 -32 -10 -16 6 -43 -3
-43 -14 0 -5 10 -10 22 -12 12 -2 23 -7 25 -13 2 -6 -18 -9 -52 -7 -35 3 -55
0 -55 -7 0 -6 -8 -11 -17 -12 -15 0 -15 -2 2 -9 15 -6 9 -9 -25 -9 -25 1 -39
3 -32 6 14 6 16 33 2 33 -20 0 -10 29 13 36 21 7 21 7 2 14 -13 5 -26 2 -38
-8 -9 -8 -17 -13 -18 -11 0 2 -2 14 -5 26 -2 15 1 22 9 20 7 -1 11 6 9 17 -2
10 1 15 7 11 7 -4 8 0 4 11 -4 11 -3 15 4 11 6 -4 13 -1 16 5 3 10 8 9 22 -2
11 -9 16 -10 11 -2 -5 8 -1 12 10 12 14 0 15 3 6 12 -10 10 -15 10 -22 -2 -5
-8 -10 -10 -10 -4 0 5 5 15 12 22 6 6 9 15 5 18 -9 9 -37 -15 -37 -32 0 -8 -5
-14 -10 -14 -16 0 -71 -57 -69 -72 3 -28 -1 -37 -17 -31 -13 5 -13 8 -2 15 9
7 8 8 -5 4 -10 -3 -20 -6 -22 -6 -2 0 -1 -8 2 -18 4 -16 0 -18 -24 -15 -27 4
-80 -27 -68 -39 3 -3 -13 -20 -35 -38 -22 -18 -39 -40 -38 -49 2 -11 -5 -16
-23 -16 -14 -1 -39 -9 -54 -19 -23 -15 -26 -23 -21 -48 3 -18 1 -37 -5 -45 -7
-7 -9 -17 -5 -20 4 -4 11 -1 17 7 7 12 10 11 15 -7 4 -13 9 -23 12 -23 7 0 50
48 62 70 12 22 40 27 40 8 -1 -7 -7 -31 -15 -53 -18 -49 -18 -45 0 -45 10 0
15 10 15 31 0 20 4 29 13 26 17 -6 12 -63 -7 -83 -9 -9 -23 -13 -31 -10 -8 3
-17 1 -20 -4 -4 -6 -1 -10 4 -10 6 0 11 -5 11 -11 0 -6 -7 -9 -15 -5 -21 8
-19 -6 5 -27 19 -16 28 -47 14 -47 -3 0 -27 20 -52 45 -43 43 -46 44 -64 28
-10 -9 -21 -14 -24 -10 -3 3 3 12 15 19 25 16 26 26 4 50 -11 13 -17 39 -18
91 -2 61 1 74 17 85 18 13 17 16 -22 58 -53 58 -51 69 3 16 23 -23 47 -42 53
-42 6 0 21 12 35 26 51 55 151 127 158 115 6 -9 11 -8 21 4 11 13 10 15 -6 9
-12 -3 -5 7 16 26 47 41 58 50 66 50 13 0 83 77 76 85 -4 4 0 6 8 4 24 -4 50
12 50 31 0 9 8 24 18 33 15 13 19 14 36 1 20 -14 20 -14 0 -29 -10 -8 -22 -15
-25 -15 -3 0 -11 -11 -17 -25 -13 -29 -16 -46 -4 -29 4 6 18 14 32 18 23 6 24
6 7 -7 -17 -14 -16 -15 4 -20 17 -5 19 -9 9 -27 -10 -19 -9 -20 14 -14 16 4
26 2 26 -5 0 -19 22 -12 27 9 4 15 9 18 18 10 8 -6 20 -6 38 3 27 12 36 27 17
27 -5 0 -20 12 -33 26 -16 17 -27 22 -31 15 -4 -6 -11 -11 -17 -11 -14 0 -11
28 3 32 9 3 2 18 -20 42 -30 34 -37 55 -33 99 1 9 -3 17 -8 17 -6 0 -11 -4
-11 -10 0 -5 -5 -10 -12 -10 -6 0 -2 10 9 23 15 15 20 30 16 50 -3 15 -9 27
-14 27 -5 0 -17 8 -28 19 -25 25 -48 12 -30 -17 11 -18 11 -24 0 -34 -12 -11
-13 -10 -8 4 4 10 2 18 -2 18 -5 0 -14 14 -20 30 -15 43 0 76 61 133 48 45 52
47 74 33 12 -9 25 -25 29 -36 3 -11 11 -20 16 -20 5 0 9 -8 9 -17 0 -10 11
-31 25 -47 15 -17 25 -42 25 -60 0 -44 19 -106 32 -106 6 0 9 -2 6 -5 -3 -3
-17 -1 -32 4 -17 7 -26 7 -26 1 0 -6 7 -10 16 -10 8 0 12 -4 9 -10 -3 -5 1
-10 9 -10 9 0 16 -7 16 -16 0 -10 6 -14 14 -11 18 7 52 -28 37 -38 -6 -3 -11
-13 -11 -21 0 -10 5 -9 20 6 11 11 20 29 20 39 0 13 8 21 22 23 15 2 24 13 30
35 5 18 18 37 29 44 12 6 18 17 15 25 -4 12 -1 14 14 9 11 -4 19 -3 18 2 -1 4
6 20 16 35 10 15 15 35 12 46 -4 12 1 25 15 38 16 14 19 26 15 54 -3 19 -3 29
0 23 12 -27 33 -13 31 20 -2 36 -27 63 -39 44 -5 -8 -8 -5 -8 7 0 33 -22 82
-41 94 -14 9 -25 9 -46 0 -25 -10 -26 -12 -8 -16 46 -10 46 -23 1 -53 -24 -16
-55 -41 -70 -55 -14 -15 -26 -23 -27 -18 0 5 -5 -2 -10 -15 -6 -16 -6 -28 1
-35 7 -7 10 -3 10 12 0 12 5 22 10 22 6 0 10 -7 10 -15 0 -8 5 -15 10 -15 6 0
10 -11 10 -23 0 -13 3 -27 7 -31 4 -4 9 -30 11 -59 2 -29 8 -53 13 -55 18 -7
8 -24 -11 -19 -13 3 -20 0 -20 -10 0 -27 -35 -9 -38 20 -2 16 -14 34 -28 43
-22 15 -36 43 -14 29 20 -12 9 25 -13 47 -22 21 -23 26 -11 48 8 14 14 19 14
12 0 -7 4 -10 10 -7 5 3 10 18 10 33 -1 24 -2 25 -11 9 -7 -12 -17 -16 -30
-12 -15 5 -19 2 -19 -14 0 -12 -4 -21 -10 -21 -22 0 -8 32 30 66 22 20 40 42
40 49 0 7 7 18 15 25 13 11 13 15 3 21 -18 12 -30 11 -23 -1 3 -6 -1 -7 -10
-4 -12 5 -13 9 -4 21 7 7 18 12 26 9 16 -7 17 6 1 23 -11 11 -10 14 0 18 6 3
10 9 7 13 -3 5 3 23 13 42 l18 33 -40 32 c-23 18 -46 37 -52 42 -5 4 -19 13
-30 19 -25 13 -54 -6 -55 -39 l-1 -24 -7 25 c-6 20 -3 28 16 38 31 17 29 26
-14 59 -20 15 -55 45 -78 65 -23 21 -45 35 -49 31 -4 -4 -4 1 0 12 6 15 4 17
-11 11 -11 -4 -22 -2 -27 6 -6 10 -10 10 -19 -2 -8 -12 -9 -10 -4 8 5 15 2 28
-8 35 -13 10 -13 22 -5 75 7 41 8 82 1 122 -5 34 -6 63 -2 66 4 2 17 -16 28
-40 19 -45 61 -99 61 -80 0 6 -4 14 -8 20 -5 5 -19 25 -30 45 l-22 37 25 0
c14 0 25 -5 25 -10 0 -5 -4 -6 -10 -3 -15 9 -12 -17 5 -39 13 -17 14 -17 12
10 -2 27 1 29 43 35 25 3 36 7 25 8 -11 1 -40 4 -65 7 -45 5 -80 31 -80 59 0
7 -6 16 -12 18 -10 4 -10 6 0 6 7 1 15 -5 18 -13 3 -8 19 -18 35 -21 16 -4 31
-11 34 -16 4 -5 12 -9 18 -9 7 0 6 4 -3 11 -11 8 -4 9 28 5 47 -7 92 14 92 43
0 9 5 22 11 28 7 7 -3 24 -35 59 -25 26 -46 52 -46 56 0 4 -7 4 -17 1 -11 -4
-14 -3 -9 5 4 7 2 12 -3 12 -6 0 -11 6 -11 14 0 8 -14 27 -31 43 -17 15 -43
41 -57 56 -14 15 -32 25 -39 23 -7 -3 -24 -1 -37 4 -22 8 -24 14 -21 49 l4 40
-22 -19 c-25 -24 -57 -26 -57 -5 0 9 -9 15 -22 15 -17 0 -19 3 -10 12 7 7 12
26 12 42 0 36 -30 137 -46 157 -6 8 -14 25 -17 39 -3 14 -12 49 -21 79 -8 30
-12 59 -9 64 4 6 5 32 4 58 -1 32 5 61 19 88 11 22 20 47 20 55 0 8 3 16 8 18
15 7 42 67 36 82 -3 9 -1 16 5 16 6 0 11 5 11 11 0 6 -9 8 -21 4 -13 -4 -19
-3 -15 3 3 5 19 12 36 15 21 5 31 14 36 32 3 14 14 26 23 26 9 1 29 2 44 3 31
2 49 22 41 47 -2 10 2 19 11 23 13 5 15 1 9 -17 -8 -25 -2 -22 15 10 10 20 9
21 -12 18 -20 -4 -23 -1 -22 28 0 22 -5 32 -15 32 -10 0 -15 -10 -15 -32 0
-42 -7 -41 -36 1 -16 24 -26 31 -31 23 -6 -9 -11 -8 -18 3 -6 9 -10 10 -10 3
0 -7 -17 -15 -37 -19 -21 -4 -50 -15 -65 -25 -14 -11 -31 -19 -38 -19 -6 0
-31 -20 -54 -45 -30 -31 -52 -45 -70 -45 -14 0 -26 5 -26 10 0 6 -7 10 -15 10
-20 0 -83 57 -91 83 -5 16 -8 17 -16 6 -6 -10 -8 -7 -6 13 3 29 -21 60 -96
121 -25 21 -44 42 -41 47 3 4 2 10 -3 12 -17 7 -72 109 -86 160 -16 54 -17
130 -3 121 4 -3 5 6 2 19 -5 19 -1 27 19 38 14 7 23 17 19 23 -3 5 3 6 16 2
17 -5 21 -2 21 15 0 19 4 21 25 16 18 -5 27 -1 35 15 15 28 4 38 -15 13 -13
-17 -14 -17 -15 -2 0 19 33 33 52 22 7 -4 5 2 -5 13 -15 18 -16 22 -2 33 9 7
26 10 42 6 23 -5 25 -4 10 5 -10 6 -31 8 -46 4 -21 -4 -30 -2 -34 9 -5 11 -20
16 -52 16 -25 0 -45 5 -45 10 0 6 -7 10 -16 10 -35 0 -148 135 -168 203 -3 10
-15 17 -28 16 l-23 0 23 -11 c12 -6 22 -15 22 -19 0 -5 -16 -1 -36 8 -19 10
-31 19 -24 21 6 2 -4 11 -22 21 -24 12 -37 28 -48 61 -8 25 -19 51 -23 58 -5
6 -5 17 -1 23 4 8 1 8 -12 1 -11 -5 -70 -8 -132 -6 -120 4 -166 18 -178 57 -3
10 -8 16 -12 13 -3 -4 4 -19 16 -36 l22 -29 -42 22 c-54 28 -122 97 -109 110
6 6 1 23 -12 46 l-21 36 24 -20 24 -20 -18 30 c-10 17 -33 48 -50 70 -35 44
-66 91 -66 100 0 19 24 -4 69 -66 29 -39 55 -69 58 -66 3 3 -4 18 -14 34 -11
15 -18 34 -16 41 3 6 -3 12 -12 12 -13 0 -16 6 -11 23 3 12 6 25 6 30 0 4 7 7
15 7 12 0 15 14 15 70 0 76 17 170 31 170 4 0 6 7 3 15 -4 9 6 33 20 55 23 35
24 40 8 40 -18 0 -52 -32 -52 -50 0 -6 -4 -10 -10 -10 -5 0 -7 -6 -4 -13 3 -8
-3 -20 -12 -28 -16 -12 -17 -12 -11 5 7 18 6 18 -17 2 -57 -37 -40 -4 40 77
49 49 54 57 29 45 -16 -7 -52 -13 -79 -13 -42 1 -53 6 -77 33 -23 25 -29 41
-27 73 1 24 -4 44 -12 49 -7 4 -10 15 -7 23 4 11 1 14 -8 11 -10 -4 -12 0 -8
15 4 17 2 20 -11 15 -11 -4 -15 -2 -11 7 3 8 -4 20 -16 27 -18 12 -23 12 -31
0 -8 -10 -9 -9 -5 4 7 21 -16 53 -31 44 -7 -4 -12 -13 -12 -21 0 -7 -9 -17
-20 -20 -11 -3 -20 -11 -20 -16 0 -5 -6 -9 -13 -9 -8 0 -26 -14 -40 -30 -15
-16 -31 -30 -36 -30 -5 0 -11 -9 -14 -19 -11 -43 -98 -27 -123 23 -9 17 -24
38 -33 46 -19 17 -46 99 -57 175 -6 41 -8 46 -15 27 -5 -12 -14 -19 -21 -17
-8 3 -24 -4 -36 -15 l-23 -21 7 28 c4 15 11 38 15 51 13 33 11 115 -1 107 -5
-3 -10 -1 -10 5 0 7 -7 10 -14 7 -9 -4 -13 -1 -11 6 2 7 -11 24 -30 40 -31 25
-42 28 -146 34 -68 4 -119 11 -126 18 -15 15 -7 25 21 26 12 0 16 3 9 5 -7 3
-10 11 -7 18 3 9 -7 18 -27 25 -23 8 -1609 11 -5930 11 l-5899 0 0 -5400z
m11210 5199 c0 -20 46 -79 62 -79 17 0 38 -52 38 -98 0 -20 -2 -21 -22 -10
-13 7 -25 16 -28 19 -3 4 -31 9 -62 13 -32 4 -58 12 -58 18 0 6 9 8 20 5 21
-5 25 2 33 72 4 31 3 32 -9 16 -22 -29 -26 -11 -8 28 16 33 34 41 34 16z m284
-68 c3 -4 21 -11 40 -14 20 -3 69 -27 111 -54 63 -41 76 -54 86 -87 5 -21 8
-41 5 -44 -3 -3 -6 0 -6 6 0 7 -6 12 -14 12 -16 0 -59 54 -50 62 2 3 -12 18
-31 33 -28 21 -50 28 -97 31 -60 4 -60 4 -54 -21 4 -14 2 -25 -4 -25 -5 0 -10
10 -10 23 0 19 -3 17 -17 -11 -11 -24 -21 -32 -34 -29 -10 3 -32 -6 -50 -19
-18 -13 -35 -21 -39 -19 -8 5 4 82 14 92 3 3 -4 14 -16 24 -24 22 -23 22 52
20 36 -2 62 3 75 13 23 18 32 19 39 7z m332 -288 c6 -23 34 -92 63 -153 4 -8
4 -28 0 -43 -15 -54 -20 -117 -9 -117 5 0 10 -5 10 -11 0 -6 -8 -8 -19 -4 -13
4 -23 0 -30 -12 -6 -10 -11 -12 -11 -5 0 6 -7 12 -15 12 -19 0 -20 53 -2 68 7
6 12 24 11 39 -4 42 -23 133 -31 146 -4 7 2 5 12 -3 17 -14 18 -13 11 14 -9
37 -36 77 -47 70 -5 -3 -6 2 -3 11 6 14 9 14 27 -2 19 -17 20 -17 9 2 -5 11
-20 29 -31 39 -12 11 -21 26 -21 34 0 24 68 -52 76 -85z m-254 59 c18 -11 52
-23 75 -27 24 -4 46 -12 50 -18 12 -19 13 -40 3 -52 -5 -6 -9 -48 -8 -93 l1
-82 29 0 c31 0 88 -25 88 -39 0 -4 -25 1 -56 11 -57 19 -84 14 -84 -17 0 -7
-6 -18 -14 -24 -11 -9 -16 -5 -27 21 -7 18 -15 35 -18 38 -13 11 -42 70 -35
70 5 0 3 5 -4 12 -14 14 -16 108 -3 108 15 0 41 -30 41 -46 0 -8 -4 -14 -10
-14 -5 0 -10 8 -10 17 0 12 -3 14 -11 6 -13 -13 5 -53 24 -53 43 0 48 59 10
95 -36 33 -64 29 -83 -13 l-16 -32 -16 27 c-9 16 -25 37 -35 48 -48 54 -54 65
-48 76 11 17 118 5 157 -19z m-1812 -9 c0 -15 -98 -41 -109 -30 -7 7 -11 7
-11 1 0 -5 4 -14 9 -19 9 -9 19 -72 20 -129 1 -11 4 -16 7 -13 11 10 45 -13
38 -25 -4 -6 -3 -9 2 -5 5 3 16 0 25 -6 15 -11 14 -19 -9 -90 -25 -78 -36 -92
-46 -59 -4 11 -18 25 -32 33 -22 11 -29 11 -52 -2 -23 -13 -27 -21 -27 -59 0
-41 2 -45 26 -48 30 -3 52 18 43 42 -8 20 -20 21 -28 1 -9 -23 -26 -18 -26 9
0 24 26 54 37 42 3 -3 1 -6 -5 -6 -7 0 -12 -4 -12 -10 0 -5 6 -7 14 -4 35 13
51 -72 32 -173 -7 -36 -12 -43 -32 -43 -47 0 -112 95 -113 167 -1 17 -11 48
-23 68 -17 31 -19 38 -7 46 8 5 19 9 25 9 5 0 23 14 40 31 16 17 45 42 65 54
l35 23 -4 68 c-3 50 -10 75 -23 90 -21 23 -25 39 -7 28 20 -13 50 -12 93 1 50
16 55 17 55 8z m-335 -176 c-14 -24 -25 -55 -25 -68 -1 -13 -7 -35 -15 -49
-17 -30 -19 -98 -4 -137 10 -27 11 -27 25 -9 8 11 14 31 15 45 0 14 3 20 6 13
3 -9 10 -7 24 9 15 17 19 19 19 6 0 -8 -6 -22 -13 -29 -22 -22 -31 -50 -33
-105 -2 -59 7 -65 60 -38 15 8 29 15 30 15 1 0 2 -18 2 -40 -1 -48 -15 -63
-50 -54 -26 6 -36 24 -13 24 17 1 52 28 44 36 -3 3 -21 -6 -40 -20 -19 -14
-39 -26 -46 -26 -7 0 -1 -20 14 -50 14 -27 21 -50 17 -50 -5 0 -14 12 -21 26
-6 15 -14 24 -17 21 -9 -8 27 -57 42 -57 9 0 11 -6 7 -17 -7 -17 -5 -17 17 -2
39 25 90 39 116 33 31 -8 31 -23 1 -17 -17 3 -40 -9 -85 -48 -34 -29 -62 -55
-62 -59 0 -11 -49 -30 -77 -30 -21 0 -23 3 -14 14 7 8 22 17 35 20 13 3 26 16
29 28 7 25 -10 51 -29 44 -24 -9 -58 65 -57 124 2 70 2 104 -1 210 -2 98 0
119 17 147 10 18 22 33 26 33 4 0 20 22 36 50 17 27 34 50 38 50 4 0 -4 -20
-18 -43z m-6477 -375 c79 -3 109 -33 77 -76 -9 -12 -11 -23 -5 -31 15 -18 31
-67 20 -60 -6 3 -10 13 -10 21 0 8 -4 14 -10 14 -14 0 -12 -12 6 -38 8 -12 24
-22 35 -22 10 0 19 -4 19 -9 0 -11 -49 -1 -57 12 -3 5 -14 0 -25 -14 -11 -13
-17 -19 -14 -12 4 6 -10 28 -29 48 -19 21 -40 52 -47 71 -6 19 -16 30 -22 27
-7 -5 -7 -2 0 8 17 21 23 55 13 70 -7 11 -9 11 -9 1 0 -7 -5 -10 -10 -7 -8 5
-7 12 2 22 11 13 13 13 21 -4 6 -14 19 -20 45 -21z m8635 -23 c4 -13 10 -18
18 -13 7 4 10 3 6 -4 -9 -13 2 -42 15 -42 5 0 6 5 3 10 -3 6 -2 10 3 10 6 0 8
9 5 20 -9 35 11 21 41 -28 16 -26 39 -63 52 -82 12 -19 32 -67 42 -106 26 -94
40 -118 109 -191 61 -64 102 -88 136 -77 12 4 17 2 13 -4 -3 -6 0 -13 6 -15 7
-3 1 -6 -13 -6 -14 -1 -51 12 -82 29 -45 24 -55 26 -50 12 17 -43 60 -81 138
-119 40 -19 57 -31 40 -28 -27 6 -28 5 -15 -9 21 -21 139 -86 156 -86 8 0 31
10 52 23 38 24 72 39 72 33 0 -2 -20 -17 -45 -33 -25 -15 -47 -33 -49 -40 -3
-7 14 -26 37 -43 23 -17 42 -34 42 -38 0 -15 49 -72 62 -72 7 0 34 -32 59 -72
25 -39 53 -78 60 -86 14 -13 44 -77 44 -91 0 -3 -9 9 -20 27 -12 19 -25 39
-31 45 -5 7 -32 47 -60 90 -28 42 -53 77 -57 77 -4 0 -38 25 -75 55 -61 49
-107 69 -107 47 0 -4 14 -20 30 -35 17 -16 27 -22 24 -13 -10 25 4 19 42 -20
22 -21 33 -41 30 -50 -3 -9 7 -34 23 -57 85 -124 149 -339 138 -462 -6 -60 6
-235 19 -287 4 -18 2 -28 -5 -28 -6 0 -11 7 -11 16 0 28 -18 5 -25 -33 -9 -49
-55 -193 -62 -193 -2 0 -2 15 2 33 5 25 4 29 -5 17 -10 -12 -11 -12 -5 5 31
87 33 191 4 297 -12 43 -25 78 -30 78 -12 0 -11 -13 2 -47 13 -32 18 -133 7
-126 -5 2 -8 -11 -8 -30 0 -31 -39 -128 -40 -99 0 7 5 22 11 33 18 35 21 155
4 195 -8 20 -12 40 -10 45 6 8 -31 89 -40 89 -3 0 1 -13 10 -30 17 -34 19 -44
5 -35 -5 3 0 -20 10 -51 22 -64 25 -148 7 -181 -10 -18 -12 -8 -12 65 0 80 -3
94 -37 165 -20 42 -38 77 -40 77 -2 0 -3 -29 -2 -65 1 -64 0 -67 -39 -105 -24
-24 -49 -40 -63 -40 -13 0 -24 -6 -24 -13 0 -28 -62 -134 -106 -182 -54 -59
-48 -43 14 39 45 58 89 168 70 175 -13 5 -20 -5 -23 -31 -5 -35 -35 -101 -56
-121 -10 -10 -19 -13 -19 -8 0 5 5 13 11 17 13 8 42 74 36 81 -3 2 -14 -13
-26 -33 -12 -20 -24 -34 -27 -32 -3 3 4 21 15 39 10 19 22 44 26 57 6 20 3 22
-33 22 -22 0 -56 7 -75 15 -20 8 -39 15 -41 15 -3 0 -11 -19 -17 -42 -6 -24
-14 -38 -16 -32 -2 6 3 30 11 53 13 40 13 42 -3 27 -21 -19 -38 -21 -22 -3 8
11 -6 25 -65 66 -41 29 -73 55 -70 58 3 3 24 -10 48 -29 52 -41 94 -68 107
-68 16 0 29 55 24 103 -3 25 -1 59 5 76 8 22 8 31 0 31 -5 0 -7 7 -4 15 11 31
-18 132 -59 205 -15 25 -15 25 -15 3 0 -13 4 -23 9 -23 12 0 18 -19 25 -76 4
-40 3 -43 -4 -19 -7 24 -8 18 -5 -27 3 -31 1 -58 -5 -60 -5 -2 -20 -23 -32
-47 -13 -24 -35 -51 -48 -59 l-25 -16 27 30 c27 30 52 100 41 117 -3 5 -1 12
6 16 6 4 13 36 16 72 l5 64 -15 -45 c-8 -25 -16 -61 -18 -80 -2 -20 -9 -45
-15 -56 -6 -12 -9 -24 -5 -27 3 -4 -2 -18 -11 -33 -22 -33 -27 -28 -17 19 12
52 0 46 -23 -11 -39 -95 -67 -152 -75 -152 -23 0 -18 -37 12 -93 40 -74 50
-100 37 -92 -6 3 -10 10 -10 15 0 12 -70 131 -86 148 -7 6 -16 21 -19 32 -3
11 -11 20 -16 20 -6 0 -6 -7 1 -19 5 -11 10 -26 9 -33 0 -7 -5 -3 -11 10 -6
12 -15 21 -19 20 -15 -6 -89 -113 -89 -130 0 -10 -4 -18 -10 -18 -19 0 -22
-77 -7 -208 16 -128 24 -163 34 -134 7 18 23 14 23 -6 0 -10 5 -23 12 -30 9
-9 6 -12 -15 -12 -15 0 -27 -4 -27 -10 0 -5 -6 -10 -14 -10 -7 0 -30 -13 -51
-30 -21 -16 -42 -30 -47 -30 -5 0 -14 -5 -21 -10 -7 -6 -23 -19 -37 -30 -20
-16 -22 -19 -7 -20 9 0 17 5 17 12 0 6 3 8 7 5 3 -4 12 -2 20 4 7 6 13 8 13 4
0 -5 8 -2 18 7 9 8 30 20 46 27 27 11 28 11 15 -5 -13 -16 -12 -16 9 -5 12 7
22 8 22 2 0 -8 -30 -23 -50 -26 -3 0 -23 -9 -45 -20 -22 -10 -45 -20 -52 -21
-6 -1 -19 -7 -30 -13 -17 -11 -17 -12 2 -7 72 16 74 16 69 4 -6 -17 -169 -87
-306 -132 -58 -20 -109 -36 -113 -36 -4 0 5 10 21 23 16 12 32 21 36 20 4 -2
5 4 2 12 -4 10 0 15 11 15 10 0 62 23 117 50 54 28 104 48 110 44 7 -4 8 -3 4
4 -4 7 -1 12 8 12 9 0 16 5 16 10 0 7 -6 7 -20 0 -18 -10 -19 -8 -10 14 5 13
6 27 3 30 -3 3 0 12 7 21 11 13 10 19 -5 35 -12 14 -16 28 -12 50 6 28 12 38
43 73 6 7 19 28 29 47 10 19 24 40 31 48 17 16 18 38 4 47 -14 8 -59 -21 -67
-43 -10 -24 -94 -106 -112 -109 -9 -1 -22 -11 -30 -22 -7 -12 -22 -21 -32 -21
-11 0 -19 -4 -19 -8 0 -5 -18 -15 -40 -22 -23 -7 -36 -16 -30 -20 6 -4 -23 -5
-65 -2 -42 2 -91 -2 -110 -8 -23 -8 -40 -8 -48 -2 -7 5 -32 12 -56 15 -24 3
-56 15 -70 26 -14 12 -35 25 -47 30 -11 5 -52 40 -90 78 -38 38 -88 80 -110
95 -23 15 -64 52 -90 84 -61 71 -95 103 -161 154 -41 31 -54 36 -62 26 -8 -10
-6 -18 9 -31 11 -10 20 -23 20 -29 0 -6 -8 -2 -16 9 -15 20 -15 20 -34 -3 -10
-12 -24 -20 -32 -18 -7 2 -25 7 -40 10 -18 4 -28 13 -28 24 0 24 -29 64 -30
41 0 -20 23 -69 33 -69 5 0 6 -4 3 -9 -8 -12 4 -42 13 -37 4 3 8 -13 8 -34 2
-37 31 -131 67 -212 9 -21 14 -38 11 -38 -12 0 -81 163 -115 273 -6 20 -15 37
-20 37 -4 0 -8 10 -8 23 0 42 -11 90 -26 106 -7 9 -23 37 -35 64 -25 55 -33
59 -28 14 5 -40 21 -73 55 -109 14 -16 20 -28 14 -28 -7 0 -12 5 -12 10 0 6
-5 10 -12 10 -6 0 -2 -10 9 -22 28 -32 37 -49 21 -43 -7 3 -22 18 -33 35 -11
16 -21 27 -24 25 -2 -3 2 -11 9 -20 7 -8 14 -32 17 -52 5 -32 44 -165 68 -228
5 -14 5 -17 -2 -10 -6 6 -16 27 -23 47 -12 39 -32 63 -23 29 3 -11 0 -27 -5
-37 -9 -16 -10 -15 -10 6 -2 109 -15 190 -31 190 -4 0 -6 21 -6 47 1 32 -5 61
-20 89 -12 23 -25 52 -28 65 -3 13 -9 20 -12 17 -5 -5 14 -84 33 -138 4 -11
-2 -9 -18 5 -23 19 -23 19 4 -27 31 -55 23 -63 -15 -15 -38 47 -45 63 -64 152
-23 106 -22 226 3 292 21 56 68 123 86 123 6 0 21 15 34 33 28 42 80 92 87 85
3 -3 -1 -13 -10 -22 -9 -9 -12 -16 -6 -16 6 0 15 9 21 19 5 11 23 22 40 26 16
4 30 10 30 15 0 4 15 8 34 7 19 0 33 -5 30 -9 -7 -11 8 -10 25 1 12 8 9 11
-11 16 -15 4 -32 4 -37 0 -6 -3 -11 -1 -11 5 0 17 24 22 53 11 18 -7 27 -18
27 -33 0 -13 9 -34 20 -48 11 -14 20 -30 20 -37 0 -6 5 -15 12 -19 7 -4 8 -3
4 4 -4 7 -2 12 3 12 6 0 11 -6 11 -14 0 -17 51 -71 83 -88 16 -8 22 -8 25 1 2
6 16 11 31 11 28 0 72 25 125 71 24 21 25 24 9 30 -15 6 -14 8 10 18 16 6 37
11 48 11 28 0 24 32 -8 72 -18 21 -21 28 -8 18 35 -27 115 -110 115 -120 0 -6
4 -10 9 -10 5 0 6 -15 1 -34 -11 -49 3 -67 29 -35 16 19 19 38 18 97 0 59 -3
72 -15 67 -8 -3 -25 6 -39 21 -22 24 -23 30 -12 51 11 20 9 26 -12 49 l-24 27
23 -12 c23 -12 23 -12 8 17 -23 44 -41 56 -64 41 -16 -10 -26 -10 -47 -1 -14
7 -41 12 -58 12 -18 0 -37 4 -42 9 -6 5 -28 14 -50 21 -22 7 -62 24 -90 37
-37 18 -42 23 -20 19 l30 -6 -27 15 c-31 18 -34 27 -14 44 8 7 12 21 9 31 -3
11 -2 28 2 37 7 15 10 13 16 -12 6 -21 7 -11 5 35 -2 36 -1 55 1 43 7 -35 19
-27 32 20 30 116 49 239 44 295 -4 43 -1 67 11 90 20 38 56 73 68 66 5 -3 1
-13 -9 -22 -53 -49 -76 -112 -42 -112 8 0 8 5 -2 16 -8 10 -9 18 -3 22 6 4 23
24 38 45 16 20 36 37 45 37 14 0 14 2 1 10 -12 8 -12 10 2 15 26 10 54 -10 89
-65 18 -27 36 -50 41 -50 5 0 6 5 3 10 -10 16 1 11 16 -7 10 -11 10 -14 2 -9
-34 20 -6 -17 55 -73 37 -35 67 -66 67 -69 1 -4 23 -29 51 -57 27 -27 56 -59
64 -71 23 -33 138 -117 225 -164 98 -53 94 -49 70 -62 -10 -6 -29 -22 -41 -35
-12 -12 -29 -23 -39 -23 -10 0 -27 -7 -37 -17 -13 -12 -18 -13 -18 -3 0 9 -6
8 -20 -5 -15 -13 -20 -15 -20 -4 0 9 -8 6 -22 -9 -20 -20 -23 -34 -24 -113 -1
-51 -7 -96 -13 -102 -6 -6 -11 -26 -11 -44 0 -26 6 -36 31 -48 38 -20 44 -15
43 38 -2 45 14 72 63 110 l28 22 -28 -36 c-42 -55 -37 -65 36 -75 62 -8 62 -8
22 -14 -22 -4 -34 -8 -27 -9 8 0 33 -15 56 -31 23 -17 58 -33 77 -36 51 -8
116 12 146 46 14 17 32 30 39 30 8 0 11 6 8 15 -4 11 1 15 17 15 l24 0 -22 18
c-15 11 -20 22 -14 30 7 11 11 11 24 -2 27 -27 42 -18 16 10 -23 25 -23 26 -2
13 31 -18 43 -1 15 21 -12 10 -18 21 -13 24 5 4 18 -4 28 -16 10 -13 26 -23
36 -24 9 0 26 -1 36 -2 19 -2 33 -26 38 -67 10 -92 18 -121 35 -133 10 -7 18
-20 18 -28 0 -29 33 16 36 49 8 78 5 73 41 50 l26 -17 -13 24 c-13 24 -12 24
6 11 25 -18 -28 33 -94 89 -51 44 -73 78 -29 46 12 -9 63 -37 112 -61 50 -25
98 -51 107 -58 22 -15 38 1 16 17 -15 11 -15 13 4 25 17 10 22 9 34 -6 14 -17
14 -17 5 3 -14 28 -3 37 22 19 14 -10 25 -11 39 -4 12 6 18 6 18 -1 0 -5 9
-10 19 -10 11 0 48 -13 83 -30 34 -16 69 -30 76 -30 6 0 12 -7 12 -16 0 -11 6
-14 22 -8 20 6 21 5 9 -10 -11 -14 -11 -16 1 -16 13 0 118 -95 118 -107 0 -2
19 -26 42 -53 29 -34 45 -45 50 -37 5 8 8 4 8 -10 0 -12 4 -24 8 -27 11 -7
-12 105 -32 155 -9 22 -27 57 -41 79 -14 22 -25 46 -25 54 0 8 -4 16 -8 18 -4
2 -23 23 -42 48 -19 24 -43 53 -52 64 -10 10 -15 23 -11 29 3 5 -5 4 -17 -3
-12 -6 -24 -9 -28 -6 -3 3 0 6 8 6 10 0 10 3 0 15 -10 12 -10 15 1 15 15 1
-21 34 -112 103 -30 24 -54 48 -52 54 2 6 -7 13 -21 17 -27 7 -159 86 -153 92
5 5 70 -27 77 -37 5 -7 94 -39 108 -39 4 0 -8 9 -26 20 -18 11 -30 25 -26 31
3 6 -9 25 -28 42 -57 53 -144 168 -177 235 -29 58 -31 78 -3 50 9 -9 12 -8 12
4 0 9 -3 18 -7 20 -22 9 -113 129 -107 139 4 8 3 9 -4 5 -7 -4 -14 4 -17 21
-4 15 -10 36 -16 45 -11 22 -11 28 0 28 5 0 11 -9 14 -21z m-1043 -19 c28 -19
52 -28 64 -24 13 4 16 3 11 -6 -5 -9 -4 -11 3 -6 15 9 142 -101 142 -123 0 -6
4 -11 9 -11 5 0 12 -12 16 -27 10 -45 46 -116 71 -143 59 -65 85 -90 93 -90 5
0 12 -7 15 -15 22 -59 -205 154 -270 253 -20 29 -44 58 -55 65 -10 6 -19 17
-19 24 0 6 -8 18 -18 25 -35 25 -124 108 -116 108 5 0 29 -14 54 -30z m-690
-129 c0 -6 -34 -52 -75 -103 -41 -51 -75 -100 -75 -108 0 -9 -4 -20 -9 -25 -6
-6 -29 -48 -52 -95 -23 -47 -53 -101 -66 -120 -23 -34 -32 -77 -14 -65 5 3 12
1 15 -4 4 -5 -3 -12 -14 -16 -12 -4 -20 -15 -20 -27 l0 -21 23 20 c40 36 50
37 30 3 -45 -79 -53 -97 -53 -120 0 -35 79 125 81 165 1 26 2 27 6 6 5 -23
-31 -145 -48 -167 -16 -20 -40 -146 -41 -222 -1 -51 -7 -82 -16 -91 -11 -11
-11 -15 0 -22 25 -17 -3 -9 -42 11 -23 12 -40 28 -40 38 0 13 5 11 25 -11 26
-27 45 -35 45 -18 0 5 -6 11 -14 14 -18 7 -24 108 -11 187 5 32 4 34 -9 16
-14 -17 -33 -119 -29 -153 0 -7 -3 -13 -8 -13 -5 0 -8 31 -6 69 l3 69 -23 -15
c-29 -19 -29 -26 0 -17 12 3 19 3 15 -1 -5 -5 -20 -9 -35 -10 -16 -1 -41 -6
-58 -10 l-30 -7 25 14 c70 40 110 70 110 83 0 8 3 15 8 15 9 0 32 49 32 70 0
9 4 20 10 26 10 10 20 66 23 124 1 19 5 37 8 40 11 8 59 99 58 107 -1 4 0 11
1 16 1 4 3 10 4 15 3 8 43 97 84 185 15 32 36 60 46 63 24 8 36 18 89 71 48
47 47 46 47 34z m1167 -83 c11 -13 24 -33 27 -45 6 -18 4 -20 -14 -16 -14 4
-20 1 -20 -11 0 -9 5 -16 11 -16 16 0 59 -52 59 -71 0 -8 8 -24 18 -35 9 -11
27 -39 39 -61 19 -35 20 -42 7 -47 -16 -6 -54 12 -67 32 -5 7 -16 20 -25 30
-26 25 -74 92 -67 92 3 0 16 -11 28 -24 16 -17 27 -22 37 -16 11 7 12 12 3 21
-6 6 -9 18 -6 25 3 8 -1 14 -9 14 -19 0 -52 57 -38 65 7 5 4 19 -10 41 -11 20
-20 37 -20 40 0 12 29 1 47 -18z m-4135 -47 c13 -5 37 -21 53 -37 17 -15 32
-27 35 -25 3 1 9 -11 14 -28 11 -37 26 -41 22 -6 -3 24 -35 69 -43 61 -3 -2
-16 5 -29 17 -30 26 -24 33 13 14 38 -20 77 -63 69 -76 -4 -6 -1 -9 7 -5 11 4
17 -5 22 -35 8 -50 -3 -72 -58 -110 -63 -44 -87 -69 -81 -86 4 -8 0 -23 -7
-32 -8 -9 -14 -23 -15 -32 -1 -9 -2 -26 -3 -38 -1 -16 -7 -23 -20 -23 -11 0
-23 -4 -26 -10 -14 -23 35 -8 65 20 39 36 47 32 33 -14 -6 -19 -7 -40 -2 -49
7 -11 -3 -26 -34 -56 -23 -23 -47 -39 -54 -37 -7 3 -10 0 -7 -7 2 -7 -6 -17
-18 -22 -19 -8 -23 -17 -22 -53 1 -24 -2 -38 -6 -32 -6 10 -13 9 -31 -4 -13
-9 -20 -16 -17 -16 4 0 -4 -11 -18 -25 -14 -14 -28 -23 -32 -21 -4 2 -7 -20
-7 -48 0 -46 -4 -56 -30 -80 -29 -28 -29 -28 -3 -12 15 9 38 16 50 15 23 0 23
0 2 -9 -12 -5 -25 -14 -30 -21 -5 -9 -2 -10 12 -4 40 16 61 17 67 1 8 -20 -8
-106 -21 -115 -5 -3 -12 -16 -16 -28 -6 -19 -2 -25 21 -35 24 -10 25 -12 9
-16 -24 -5 -49 26 -42 53 4 16 0 20 -20 21 -24 2 -24 1 -9 -22 18 -27 19 -34
5 -34 -5 0 -10 7 -10 15 0 8 -4 15 -10 15 -5 0 -10 6 -10 13 0 7 -9 13 -19 14
-18 2 -17 -2 7 -29 15 -16 44 -61 64 -100 27 -50 39 -66 44 -54 8 20 24 21 24
2 0 -7 9 -16 20 -19 13 -3 20 0 20 9 0 8 5 14 10 14 13 0 13 0 -10 -46 -16
-31 -20 -34 -18 -14 2 15 -2 25 -9 24 -46 -4 -45 -2 -40 -64 5 -62 -3 -111
-30 -167 -14 -30 -13 -34 8 -65 12 -18 32 -42 44 -53 20 -19 45 -57 45 -69 0
-16 -18 -3 -33 24 -10 17 -23 30 -29 30 -6 0 -3 -12 7 -26 11 -18 19 -54 21
-108 3 -44 9 -82 14 -84 6 -2 10 -11 10 -21 0 -10 9 -17 22 -18 25 -2 49 -28
43 -46 -8 -23 22 -50 49 -43 22 5 26 3 26 -14 0 -11 -4 -20 -9 -20 -5 0 -12
-11 -15 -25 -4 -14 -13 -25 -22 -25 -20 0 -14 -35 6 -36 8 0 24 6 35 13 23 15
45 17 45 3 0 -5 -7 -10 -16 -10 -8 0 -12 -4 -9 -10 4 -6 -10 -10 -34 -10 -22
0 -42 5 -45 13 -3 8 -9 6 -21 -8 -8 -11 -13 -26 -9 -35 3 -8 6 -21 5 -27 -1
-7 -2 -23 -3 -35 -1 -13 -7 -26 -12 -30 -13 -10 11 -28 37 -28 22 0 138 -39
153 -51 6 -5 14 -6 17 -2 4 3 7 1 7 -5 0 -7 6 -12 14 -12 7 0 39 -24 70 -54
31 -30 56 -51 56 -48 0 4 13 -17 28 -46 16 -29 41 -69 57 -88 24 -28 31 -32
44 -21 14 10 14 10 5 -3 -20 -27 -24 -60 -6 -60 8 0 13 -3 9 -6 -7 -8 -48 5
-43 14 2 4 0 16 -5 27 -5 14 -8 7 -8 -27 -1 -27 3 -48 9 -48 6 0 6 -9 0 -26
-14 -36 -12 -60 6 -78 8 -9 11 -16 5 -16 -6 0 -11 -10 -11 -21 0 -18 2 -20 16
-8 14 11 15 6 12 -47 -3 -53 -1 -59 15 -56 16 3 18 -1 12 -30 -4 -18 -12 -38
-17 -45 -5 -7 -8 -37 -6 -67 1 -30 0 -53 -3 -51 -3 2 -10 -14 -16 -36 -5 -21
-6 -39 -2 -39 5 0 9 7 9 16 0 8 5 12 10 9 13 -8 13 -75 0 -75 -5 0 -13 8 -19
17 -8 15 -11 12 -19 -17 -7 -26 -6 -41 4 -57 19 -30 18 -35 -6 -28 -15 5 -21
0 -26 -19 -3 -14 -11 -26 -16 -26 -5 0 -9 -15 -8 -32 4 -66 1 -80 -15 -74 -17
6 -19 -2 -6 -23 7 -11 13 -12 23 -4 22 17 66 21 72 7 3 -8 1 -14 -5 -14 -6 0
-7 -5 -4 -10 4 -6 11 -8 16 -5 5 4 9 2 9 -3 0 -9 -24 -24 -42 -26 -12 -2 -22
-16 -10 -16 6 0 14 -9 17 -20 4 -11 11 -17 17 -14 6 4 5 9 -3 15 -7 4 -10 11
-6 16 9 8 60 -20 65 -35 2 -6 -7 -8 -20 -4 -20 5 -21 4 -9 -11 7 -9 17 -14 22
-11 5 3 9 -5 9 -18 0 -23 16 -48 30 -48 4 0 7 7 7 15 0 9 -6 14 -13 11 -13 -5
-26 52 -13 60 4 2 19 -10 33 -28 16 -21 21 -35 14 -39 -6 -4 15 -16 46 -28 70
-26 101 -46 145 -91 67 -71 188 -259 175 -273 -6 -6 51 -123 63 -130 5 -2 20
-7 36 -11 21 -5 27 -3 27 9 0 12 -6 15 -20 10 -11 -4 -20 -2 -20 4 0 6 5 11
11 11 7 0 9 10 5 25 -5 19 -2 25 10 25 9 0 18 -9 21 -19 3 -12 11 -17 19 -14
8 3 12 9 9 13 -8 13 23 19 107 24 58 3 81 0 89 -10 9 -11 8 -14 -2 -15 -8 0
-4 -4 9 -9 24 -10 29 -39 11 -57 -9 -9 -7 -12 10 -10 11 1 21 7 21 14 0 7 5
22 12 32 9 15 8 22 -5 36 -11 10 -15 25 -11 39 6 25 -37 138 -63 168 -8 9 -12
22 -8 28 12 20 -4 60 -24 60 -11 0 -21 9 -25 23 -3 13 -17 36 -31 51 -14 15
-25 33 -25 41 0 16 -40 59 -65 69 -10 3 -15 14 -13 28 3 22 6 23 89 20 55 -3
89 0 93 7 5 7 -10 11 -46 12 -75 1 -102 11 -106 37 -2 12 -10 22 -18 22 -9 0
-12 5 -8 13 4 6 -1 4 -12 -5 -14 -14 -15 -20 -6 -30 15 -15 16 -54 2 -63 -5
-3 -10 -15 -10 -26 0 -10 5 -19 10 -19 6 0 10 -4 10 -9 0 -5 -11 -4 -25 2 -14
7 -25 17 -25 23 0 7 -7 14 -15 18 -9 3 -15 18 -15 35 0 23 -4 29 -15 25 -9 -4
-15 0 -15 9 0 8 -7 20 -16 28 -11 9 -14 22 -9 48 6 31 5 33 -9 22 -9 -8 -16
-20 -16 -27 0 -8 -6 -14 -14 -14 -10 0 -12 -7 -8 -22 5 -21 4 -22 -11 -9 -9 7
-17 22 -17 32 0 9 -7 24 -15 33 -8 8 -15 19 -15 25 0 6 -4 11 -10 11 -5 0 -9
-3 -9 -7 6 -35 -3 -63 -19 -63 -10 0 -24 -6 -31 -12 -11 -11 -13 -10 -9 1 10
33 -90 98 -107 70 -4 -5 -13 -2 -22 7 -13 13 -29 15 -82 10 -47 -5 -62 -4 -51
3 8 6 23 11 34 11 15 0 16 3 6 15 -7 8 -18 15 -24 15 -7 0 -22 11 -34 25 -12
14 -18 25 -13 25 5 0 14 -6 20 -13 6 -8 28 -19 48 -26 32 -10 46 -10 83 3 25
8 52 14 60 14 8 -1 31 0 50 2 l35 3 -35 6 c-28 5 -36 11 -38 32 -2 15 4 33 12
42 9 9 16 31 16 50 0 20 4 37 9 39 5 2 10 26 12 53 2 40 8 57 33 83 33 35 66
43 66 14 0 -10 17 -33 38 -52 l37 -33 6 29 c5 28 5 28 13 7 4 -13 15 -23 24
-23 10 -1 4 -7 -13 -14 l-30 -13 60 -11 c55 -9 62 -8 83 11 l22 20 0 -26 c0
-25 3 -27 40 -27 22 0 40 -4 40 -9 0 -5 14 -14 30 -21 17 -7 30 -18 30 -25 0
-16 23 -25 66 -25 30 0 34 3 34 25 0 16 -12 36 -32 55 l-33 29 32 1 c25 0 34
-6 45 -30 16 -37 51 -49 73 -26 9 9 31 16 48 15 18 0 26 -3 20 -6 -8 -2 -13
-22 -13 -45 0 -38 -1 -39 -31 -36 -23 2 -35 -2 -43 -16 -8 -14 -8 -20 2 -23 6
-3 12 -13 12 -24 0 -10 7 -19 15 -19 8 0 15 6 15 14 0 17 5 21 42 30 30 7 63
-17 54 -40 -3 -7 -1 -16 4 -19 6 -4 10 -19 10 -36 0 -19 5 -29 15 -29 8 0 15
9 15 20 0 11 7 20 15 20 8 0 15 -9 15 -20 0 -10 9 -24 20 -30 22 -12 27 -1 8
18 -16 16 5 39 43 47 39 9 37 25 -3 25 -25 0 -29 3 -18 10 19 12 70 13 70 1 0
-16 30 -21 55 -9 14 6 25 15 25 19 0 5 6 6 13 3 9 -3 18 10 26 38 7 24 23 61
36 83 13 23 33 69 45 104 34 102 97 219 127 237 16 10 57 36 93 60 57 37 80
45 180 64 63 11 145 27 181 35 85 19 153 19 168 1 7 -8 35 -26 64 -40 29 -14
84 -47 122 -74 59 -41 70 -53 68 -76 -1 -14 2 -26 8 -26 5 0 9 -10 8 -22 0
-22 -1 -22 -9 -3 -5 13 -7 -3 -3 -41 4 -45 1 -69 -9 -90 -24 -44 -37 -112 -24
-118 6 -2 3 -5 -6 -5 -10 -1 -19 -7 -19 -13 -1 -7 -4 0 -8 16 -7 36 -30 46
-38 16 -4 -13 -11 -19 -20 -16 -8 3 -21 -1 -29 -9 -18 -18 -60 -20 -70 -4 -3
6 0 15 7 20 11 7 9 10 -8 15 -13 4 -23 10 -23 14 0 4 -18 13 -40 20 -36 12
-44 20 -41 42 0 4 -13 2 -29 -4 -23 -7 -34 -7 -45 2 -13 11 -14 10 -9 -4 4
-11 1 -16 -11 -16 -22 0 -82 -28 -121 -57 -38 -28 -54 -29 -54 -3 0 11 7 20
15 20 8 0 15 6 15 14 0 8 5 18 12 22 8 5 9 2 5 -10 -5 -14 -3 -15 13 -6 26 14
29 21 20 46 -10 25 -50 40 -50 18 0 -10 -12 -14 -40 -14 -22 0 -40 -4 -40 -10
0 -5 5 -10 10 -10 6 0 5 -6 -2 -14 -7 -8 -16 -12 -20 -9 -12 6 -10 111 2 118
16 10 12 35 -6 35 -9 0 -18 9 -21 20 -6 21 -14 23 -49 14 -36 -10 -71 -176
-74 -347 0 -5 -6 -7 -12 -4 -23 8 -67 -26 -74 -56 -3 -15 -12 -31 -20 -34 -21
-8 -29 4 -14 22 26 31 -6 14 -35 -19 -23 -26 -29 -43 -28 -73 1 -21 -1 -28 -4
-15 -4 23 -5 23 -24 6 -29 -26 -24 -44 13 -41 33 2 103 55 103 79 1 7 6 12 13
10 7 -1 30 2 52 7 32 7 40 6 40 -5 0 -8 4 -14 10 -14 5 0 14 -18 20 -40 6 -22
17 -40 24 -40 13 0 31 -69 21 -79 -3 -2 -5 3 -5 11 0 15 -28 33 -37 24 -9 -9
-28 -95 -37 -169 -5 -44 -4 -43 -47 -66 -41 -22 -48 -41 -17 -42 22 -2 22 -2
1 -6 -12 -2 -27 -11 -33 -19 -7 -8 -21 -14 -31 -14 -11 0 -19 -4 -19 -10 0
-14 38 -12 43 3 2 6 8 8 13 4 5 -4 2 -12 -5 -16 -21 -13 -5 -28 44 -40 60 -15
61 -38 2 -31 -10 1 -35 11 -55 23 -29 17 -55 22 -114 23 -42 1 -81 4 -86 8
-12 7 -42 -3 -42 -14 0 -4 -12 -10 -27 -13 -22 -3 -175 -63 -192 -74 -2 -1 2
-10 9 -19 12 -13 11 -17 -1 -25 -20 -12 -24 -11 -41 9 -25 30 -40 78 -41 140
-2 82 -17 68 -17 -16 0 -47 6 -77 19 -102 11 -19 25 -45 32 -57 9 -16 9 -25 0
-35 -6 -7 -17 -20 -24 -28 -7 -8 -11 -13 -10 -11 2 2 -2 10 -7 16 -6 7 -21 34
-34 60 -22 43 -25 45 -35 27 -6 -11 -8 -22 -5 -24 2 -3 -7 -3 -21 -1 -28 6
-32 -4 -10 -33 11 -14 14 -15 15 -4 0 13 1 13 10 0 8 -13 10 -12 10 3 0 9 5
17 10 17 13 0 13 -3 -2 -34 -9 -20 -14 -23 -25 -14 -7 6 -16 8 -20 5 -3 -4 5
-16 18 -27 17 -15 33 -19 57 -16 17 3 32 3 32 2 0 -10 -33 -65 -50 -83 -21
-23 -25 -38 -12 -46 4 -2 2 -3 -5 -1 -12 3 -23 -27 -23 -61 0 -15 2 -17 9 -6
5 7 11 9 14 4 8 -12 -14 -73 -25 -73 -4 0 -8 -7 -8 -15 0 -8 -4 -15 -10 -15
-5 0 -10 -18 -10 -40 0 -22 -2 -40 -4 -40 -2 0 -12 -3 -22 -7 -13 -5 -15 -3
-9 8 4 8 -10 -2 -31 -22 -21 -20 -48 -41 -59 -47 -19 -10 -19 -11 8 -21 16 -6
36 -11 45 -11 14 0 15 2 2 10 -9 6 9 8 54 5 37 -2 70 -6 73 -8 2 -3 -19 -10
-49 -15 -48 -9 -43 -10 67 -11 l120 -2 -48 -24 c-27 -14 -60 -39 -74 -56 -21
-24 -31 -29 -52 -24 -25 6 -25 6 -6 -8 16 -13 20 -32 26 -133 9 -158 15 -184
53 -217 31 -28 30 -28 -39 7 -85 42 -145 67 -145 61 0 -3 21 -16 48 -29 26
-14 41 -25 35 -26 -7 0 -13 -4 -13 -10 0 -5 7 -6 17 -3 11 4 14 3 9 -5 -4 -7
-3 -12 3 -12 5 0 11 5 13 11 9 26 47 -16 59 -64 6 -26 33 -90 60 -142 26 -52
52 -111 58 -132 l10 -38 -29 34 c-16 18 -39 53 -52 77 -12 24 -29 46 -36 49
-7 3 -10 1 -7 -5 10 -16 -6 -61 -19 -53 -22 14 -38 12 -31 -5 3 -9 3 -13 -1
-10 -3 4 -21 0 -38 -9 -35 -19 -103 -26 -112 -12 -3 5 4 9 15 9 38 0 22 18
-21 25 -24 4 -55 16 -70 26 -33 24 -41 24 -33 -1 4 -13 2 -20 -7 -20 -8 0 -27
27 -43 60 -16 34 -35 65 -41 71 -7 5 -27 55 -45 109 -18 55 -35 100 -39 100
-4 0 -6 43 -4 95 2 61 0 95 -7 95 -6 0 -7 5 -4 10 3 6 -1 10 -9 10 -9 0 -25
-18 -36 -40 -11 -22 -16 -40 -12 -40 16 0 -2 -83 -31 -147 -22 -49 11 -286 46
-330 5 -7 6 -13 1 -13 -4 0 3 -11 16 -25 19 -21 21 -25 7 -25 -9 0 -17 -3 -18
-7 0 -5 -3 -20 -5 -35 -2 -14 0 -29 6 -33 5 -3 10 -17 10 -31 0 -24 17 -63 33
-75 5 -4 14 -16 20 -29 14 -26 129 -75 200 -85 26 -3 45 -9 43 -13 -2 -4 37
-7 87 -7 51 0 100 -4 110 -9 28 -13 21 19 -8 38 -49 32 -31 39 91 34 92 -4
118 -3 130 9 8 8 14 20 14 27 0 7 6 13 13 13 55 4 66 8 55 20 -8 10 2 13 48
12 57 0 158 -15 121 -18 -23 -1 -12 -21 12 -21 10 0 26 -9 36 -20 10 -11 26
-20 37 -20 21 0 23 -11 6 -29 -14 -14 5 -13 165 9 43 6 81 8 86 6 4 -3 6 -19
3 -36 -4 -26 -7 -29 -20 -18 -13 11 -14 10 -3 -9 10 -19 9 -23 -4 -23 -9 0
-14 -4 -11 -9 11 -17 -9 -49 -76 -121 -38 -39 -68 -76 -68 -81 0 -5 -3 -9 -8
-9 -7 0 -25 -37 -37 -78 -4 -14 -24 -32 -50 -44 -27 -13 -46 -30 -49 -44 -3
-12 -15 -26 -26 -29 -11 -3 -20 -10 -20 -14 0 -11 49 -1 56 10 3 5 15 9 27 9
15 0 29 11 41 31 23 40 41 32 40 -17 -1 -21 -4 -145 -8 -274 -8 -343 -19 -470
-37 -470 -5 0 -9 34 -8 76 1 41 -2 78 -5 81 -3 4 -6 -3 -6 -14 0 -20 -27 -39
-38 -28 -3 3 0 5 6 5 20 0 13 15 -10 25 -13 6 -25 21 -26 34 -3 19 -6 21 -13
10 -6 -10 -9 -4 -9 21 -1 32 -2 33 -14 17 -12 -16 -14 13 -12 200 1 121 6 224
10 231 13 21 -3 32 -31 21 -33 -12 -111 -1 -115 16 -2 10 -11 9 -38 -6 -19
-10 -55 -28 -80 -40 -25 -12 -87 -46 -138 -76 -76 -45 -92 -59 -87 -74 4 -11
1 -61 -4 -111 -6 -51 -16 -147 -21 -212 -7 -92 -13 -124 -28 -140 -10 -12 -26
-33 -35 -48 -9 -14 -26 -29 -37 -33 -11 -3 -20 -11 -20 -16 0 -26 -98 -129
-140 -147 -25 -11 -56 -32 -70 -46 -22 -24 -23 -30 -13 -66 10 -39 2 -57 -11
-24 -5 14 -9 14 -23 3 -15 -12 -16 -12 -10 4 3 9 2 17 -3 17 -16 0 -22 -21
-10 -35 8 -10 9 -15 2 -15 -6 0 -14 4 -17 10 -3 6 -11 10 -17 10 -6 0 -6 -6 2
-16 11 -13 10 -16 -9 -21 -14 -4 -32 -27 -52 -67 -17 -33 -43 -83 -60 -111
-16 -27 -34 -61 -40 -75 -28 -64 -29 -66 -24 -28 3 20 26 83 51 140 25 57 49
115 54 130 4 14 26 62 48 105 22 43 56 113 76 156 19 42 49 92 66 110 16 17
30 35 30 38 0 4 -43 26 -95 49 -67 31 -106 56 -134 86 -21 23 -42 40 -45 37
-5 -6 -7 4 -5 23 0 7 -36 30 -63 40 -10 3 -15 10 -12 15 3 5 -2 16 -10 25 -14
14 -18 28 -15 50 0 4 -3 10 -8 13 -5 3 -21 33 -35 66 -17 38 -36 65 -52 73
-14 7 -26 20 -26 28 0 11 -6 13 -20 9 -11 -4 -29 0 -42 9 -30 22 -55 20 -68
-4 -11 -21 -70 -29 -70 -10 0 6 -7 10 -16 10 -9 0 -38 16 -64 35 -52 38 -70
74 -70 136 0 49 -32 83 -72 75 -20 -4 -28 -1 -28 8 0 8 -4 16 -9 18 -16 5
-101 138 -101 157 0 10 -12 28 -26 42 -21 20 -36 24 -81 23 -40 0 -59 -5 -68
-17 -7 -9 -15 -17 -19 -17 -12 0 -6 16 13 37 24 25 17 35 -16 22 -30 -11 -33
-11 -33 1 0 5 11 12 25 16 14 3 25 12 25 19 0 8 9 10 25 7 15 -2 25 0 25 7 0
6 -9 11 -21 11 -11 0 -18 4 -14 10 3 5 12 7 19 4 8 -3 17 -1 21 5 3 6 24 11
46 11 24 0 38 -4 34 -10 -3 -5 1 -10 9 -10 21 0 20 12 -4 37 -16 18 -17 23 -5
33 9 7 26 9 45 5 40 -9 42 20 3 30 -26 7 -26 8 -8 15 16 7 11 9 -19 9 -28 1
-37 -2 -33 -13 6 -14 -20 -31 -63 -40 -14 -3 -19 -3 -12 0 24 11 11 24 -25 24
-24 0 -48 9 -71 27 -30 22 -44 26 -91 24 -35 -2 -65 -10 -82 -22 -54 -38 -155
-78 -214 -84 -56 -6 -63 -5 -103 25 -64 46 -102 82 -102 95 0 7 -12 34 -26 61
-23 44 -26 60 -27 176 -2 121 -1 127 17 122 16 -5 18 -3 11 12 -14 33 -17 91
-6 112 7 14 8 23 1 27 -5 3 -10 1 -10 -4 0 -24 -17 -9 -29 25 -10 27 -16 33
-22 23 -5 -8 -9 -24 -9 -36 0 -21 -15 -29 -44 -24 -5 1 -13 -4 -17 -11 -6 -10
-9 -10 -9 -1 0 7 -7 10 -17 7 -13 -4 -14 -3 -5 4 18 12 5 63 -14 55 -10 -4
-14 3 -14 24 0 16 -5 34 -10 39 -15 15 -1 44 22 44 16 0 19 6 16 33 -2 17 -6
31 -10 30 -11 -4 -51 37 -44 44 3 3 12 0 21 -7 12 -10 15 -10 15 0 0 19 -109
100 -136 100 -8 0 -19 12 -25 28 -15 38 -18 42 -74 116 -54 71 -84 93 -35 24
16 -22 30 -46 30 -52 0 -6 -12 6 -27 27 -14 20 -32 37 -39 37 -8 0 -11 6 -8
15 4 10 0 15 -15 15 -16 0 -21 6 -20 28 0 20 2 23 7 10 7 -17 8 -16 19 2 11
16 10 18 -1 14 -9 -3 -17 3 -21 15 -3 12 -14 21 -24 21 -12 0 -22 16 -34 53
-9 30 -17 60 -17 68 0 9 -12 14 -32 15 -31 1 -68 33 -68 58 0 6 5 3 11 -6 10
-18 39 -25 39 -10 0 5 -20 30 -45 56 -25 26 -48 60 -51 75 -3 16 -17 40 -30
54 -32 34 -45 70 -33 88 8 12 11 11 20 -3 5 -10 17 -18 26 -18 13 0 13 3 3 15
-11 13 -8 15 14 15 14 0 26 -5 26 -11 0 -6 7 -9 15 -6 18 8 45 -44 39 -75 -2
-13 -1 -16 2 -8 4 8 10 17 14 20 6 5 24 82 40 178 4 29 13 58 18 65 6 7 10 23
10 37 0 14 4 37 7 52 10 39 -3 98 -20 98 -8 0 -15 9 -15 19 0 10 -7 21 -15 25
-9 3 -15 0 -15 -9 0 -8 -9 -15 -20 -15 -27 0 -32 -2 -52 -19 -9 -8 -15 -18
-12 -23 9 -14 -37 -8 -52 7 -9 8 -11 15 -6 15 17 0 22 28 11 60 -6 16 -17 30
-25 30 -17 0 -19 16 -3 26 7 4 0 13 -17 25 -15 10 -32 15 -37 12 -6 -4 -7 5
-3 23 5 20 4 25 -3 15 -8 -12 -12 -10 -22 12 -6 14 -15 24 -20 22 -14 -10 -22
18 -30 104 -8 99 -39 184 -64 175 -9 -4 -15 0 -15 10 0 9 6 13 13 10 8 -3 20
2 27 11 7 8 19 15 26 15 8 0 14 5 14 10 0 6 7 10 15 10 17 0 20 17 4 22 -6 2
-19 28 -30 58 -18 52 -18 54 0 82 l18 29 18 -28 c46 -71 74 -87 171 -97 47 -4
54 -2 79 24 15 16 24 33 20 40 -4 6 -4 19 0 28 6 15 8 15 14 -2 7 -19 8 -19
13 2 4 13 2 20 -4 16 -6 -4 -8 2 -6 12 3 11 -10 37 -29 62 -38 46 -34 50 23
25 22 -9 45 -18 52 -19 21 -4 43 -38 29 -46 -20 -12 35 -47 65 -41 23 5 26 3
21 -16 -4 -15 -1 -21 10 -21 9 0 19 5 22 10 3 6 14 10 23 10 13 0 14 -2 4 -9
-10 -6 -8 -10 10 -16 12 -4 27 -7 31 -6 5 1 5 -8 2 -20 -5 -15 -4 -19 4 -14 7
4 18 2 25 -4 11 -9 10 -1 -1 36 -8 27 -17 54 -19 61 -2 6 -9 12 -15 12 -9 0
-9 -4 0 -14 20 -23 -3 -26 -37 -4 -18 11 -32 23 -33 26 0 4 -2 19 -4 35 -3 19
2 30 16 37 10 6 19 18 18 28 0 10 -3 12 -6 5 -8 -20 -23 -15 -23 8 0 16 4 19
23 14 21 -6 21 -5 4 9 -10 8 -18 17 -17 20 1 4 -1 12 -3 19 -4 9 -8 8 -17 -3
-8 -12 -9 -9 -4 13 4 18 0 49 -12 82 -14 44 -16 62 -7 99 7 31 7 46 0 46 -6 0
-2 9 8 20 10 11 15 23 12 27 -4 3 -9 4 -11 2 -2 -2 -20 -26 -40 -52 -41 -55
-50 -40 -11 18 15 20 24 40 20 43 -3 3 -5 0 -5 -7 0 -7 -6 -11 -13 -8 -8 3
-14 -1 -14 -8 0 -21 -25 -75 -34 -75 -5 0 -9 15 -9 33 0 18 -7 42 -15 54 -8
12 -11 23 -7 25 5 2 3 30 -4 63 -7 33 -13 85 -14 115 0 46 -2 52 -12 35 -6
-11 -14 -22 -18 -25 -10 -7 -30 -104 -30 -145 0 -38 -8 -65 -20 -65 -5 0 -7
17 -5 38 3 20 2 28 -1 17 -3 -11 -10 -24 -15 -29 -5 -6 -9 -18 -9 -27 0 -10
-13 -29 -30 -42 -24 -21 -30 -34 -30 -66 0 -32 -3 -39 -15 -35 -10 4 -15 0
-15 -14 0 -30 -16 -36 -25 -9 -4 12 -7 25 -7 28 1 3 4 30 7 60 4 30 6 62 6 71
0 10 4 20 10 23 5 4 9 15 9 26 0 11 18 51 40 88 49 83 54 126 11 87 -36 -32
-101 -19 -101 19 0 16 -7 25 -21 27 l-20 3 20 22 c12 12 21 29 21 38 0 8 5 15
10 15 6 0 10 9 10 20 0 11 -6 20 -14 20 -16 0 -10 40 8 52 8 6 8 8 0 8 -6 0
-28 -22 -50 -50 -21 -27 -47 -49 -57 -50 -10 0 -15 -4 -12 -10 3 -5 1 -10 -6
-10 -7 0 -22 -9 -33 -19 -12 -10 -37 -28 -56 -39 -19 -10 -52 -29 -72 -42 -57
-34 -65 -19 -11 20 26 19 53 37 58 39 23 10 105 78 175 145 92 90 111 101 189
113 18 3 43 15 54 26 17 17 18 23 8 39 -16 25 -7 35 15 17 14 -11 20 -9 48 22
17 19 49 48 71 64 22 16 45 34 50 40 6 6 35 26 65 45 49 31 55 39 55 68 -1 18
-5 36 -11 40 -12 8 -13 11 -15 102 -1 36 -7 68 -13 73 -8 5 -7 10 3 16 8 5 10
14 5 22 -4 7 -8 56 -8 109 -1 89 -2 95 -22 98 -12 2 -26 14 -33 28 -15 34 -13
53 3 31 18 -23 59 -14 79 16 8 12 25 34 38 48 13 14 33 42 43 63 18 33 54 70
129 133 15 13 27 29 27 35 0 10 -2 10 -8 0 -9 -14 -73 -35 -81 -26 -3 3 3 12
14 19 33 23 66 49 84 68 14 14 37 18 102 21 46 1 94 8 106 14 12 7 28 9 36 6
28 -10 156 14 211 40 30 14 59 26 64 26 5 0 9 6 8 14 0 8 4 14 9 13 6 -1 9 -5
8 -9 -2 -4 4 -5 13 -1 12 5 13 7 3 14 -8 4 -10 11 -7 15 4 3 14 -1 23 -10 20
-20 26 -20 19 -1 -4 8 -2 15 4 15 5 0 12 -6 15 -14 7 -17 -56 -69 -152 -125
-42 -24 -87 -55 -100 -68 l-24 -23 79 4 c43 2 95 11 114 20 l35 16 -41 -5
c-23 -3 -56 -2 -74 2 l-33 6 24 18 c17 13 27 15 36 7 9 -7 17 -7 28 2 8 7 25
10 40 6 38 -10 75 3 75 25 0 10 6 19 13 19 7 0 18 9 25 21 7 12 16 18 19 15 3
-3 0 -13 -8 -22 -12 -15 -12 -17 1 -12 8 2 16 17 18 31 2 15 10 27 18 27 8 0
14 6 14 13 0 8 9 22 20 32 27 24 25 47 -6 76 -34 32 -55 83 -47 119 3 17 8 30
12 30 10 0 33 -41 26 -48 -3 -4 -10 0 -15 8 -6 8 -10 11 -10 5 0 -23 19 -38
40 -32 16 4 20 2 16 -10 -4 -9 -1 -13 6 -10 7 2 24 -4 37 -14 29 -23 48 -25
31 -4 -10 12 -10 15 4 15 9 0 16 6 16 14 0 8 5 18 11 22 8 5 10 -1 7 -19 -4
-18 -1 -24 9 -20 7 3 13 9 13 14 0 5 12 6 27 3 25 -7 26 -5 20 22 -6 30 11 64
32 64 6 0 11 5 11 11 0 6 -9 9 -20 6 -10 -3 -22 0 -25 7 -3 8 -7 8 -11 -1 -9
-20 -35 -15 -56 10 -20 22 -20 22 1 25 12 2 21 11 21 21 0 10 10 29 23 42 l22
24 -57 0 c-31 0 -54 -4 -51 -8 3 -5 -2 -7 -11 -5 -29 5 -23 22 12 34 18 5 30
13 26 16 -3 4 4 4 15 1 17 -4 20 -2 15 11 -5 14 0 17 27 16 98 -3 160 3 174
17 10 9 15 10 15 2 0 -9 3 -9 14 0 21 18 8 48 -41 98 -34 33 -51 43 -70 41
-15 -2 -28 3 -30 10 -5 14 16 16 49 3z m6720 -739 c-4 -12 -1 -14 13 -9 15 6
17 3 11 -24 -3 -17 -6 -38 -6 -46 0 -8 -4 -11 -10 -8 -5 3 -10 -3 -10 -15 0
-12 -4 -19 -8 -16 -4 2 -8 -3 -8 -12 0 -9 -4 -27 -8 -39 -6 -18 -4 -22 8 -17
9 3 16 2 16 -4 0 -18 -27 -62 -33 -55 -4 3 -7 -3 -7 -15 0 -11 -4 -23 -9 -27
-5 -3 -12 -19 -16 -35 -4 -17 -13 -30 -21 -30 -15 0 -19 34 -14 120 2 46 33
154 41 145 3 -2 4 14 3 37 -2 33 3 46 24 65 26 24 46 16 34 -15z m-4512 -121
c0 -5 -8 -15 -19 -22 -15 -12 -17 -20 -9 -47 l9 -33 18 22 c17 21 18 21 50 5
27 -14 32 -22 27 -40 -5 -20 -1 -25 27 -31 17 -4 38 -7 44 -6 8 1 10 -5 7 -14
-7 -18 0 -19 27 -5 14 8 23 7 33 -2 18 -18 30 -58 18 -58 -21 0 -20 -31 4 -76
19 -36 22 -49 12 -55 -7 -4 -9 -11 -5 -16 5 -4 12 -1 16 6 5 7 14 10 20 6 16
-9 -5 -35 -30 -35 -20 0 -83 72 -93 108 -4 12 -12 22 -17 22 -5 0 -8 3 -7 8 4
20 -16 62 -34 68 -12 3 -43 -4 -76 -19 -66 -29 -109 -27 -147 9 -32 29 -31 33
4 72 17 17 27 32 25 32 -3 0 6 15 21 33 14 17 34 42 43 54 18 23 32 29 32 14z
m-3694 -391 c-7 -54 2 -63 32 -34 22 23 27 5 12 -54 -7 -33 -8 -56 -1 -74 5
-14 7 -29 4 -32 -4 -3 3 -15 15 -26 11 -11 24 -37 27 -57 3 -21 8 -51 10 -66
3 -16 -2 -44 -10 -63 -14 -34 -14 -35 6 -29 16 5 20 3 17 -6 -3 -8 -12 -15
-22 -17 -9 -2 -35 -22 -56 -45 -27 -27 -40 -36 -40 -25 0 9 8 19 18 23 9 3 25
16 34 29 17 23 17 25 -6 40 -23 15 -26 14 -55 -19 -42 -49 -50 -25 -11 37 l31
51 -21 29 c-18 24 -19 32 -9 44 8 10 9 18 2 22 -13 9 -34 72 -27 83 3 5 -2 9
-11 9 -26 0 -28 -28 -6 -66 12 -20 19 -39 16 -42 -8 -8 -9 -5 -57 93 -43 86
-61 165 -38 165 6 0 9 -12 8 -27 -2 -36 22 -101 40 -108 19 -7 32 3 32 25 0
10 8 24 18 30 13 8 11 9 -12 4 -22 -5 -28 -4 -24 7 3 8 14 15 26 17 12 2 22 8
22 13 0 6 -4 7 -10 4 -5 -3 -10 3 -10 15 0 12 5 18 10 15 6 -3 10 -1 10 4 0 6
-4 11 -10 11 -5 0 -10 5 -10 12 0 6 3 8 7 5 10 -11 33 13 33 34 0 11 5 19 11
19 8 0 10 -16 5 -50z m3519 -219 c21 5 45 -14 45 -37 0 -18 4 -22 18 -17 9 3
14 3 10 -2 -4 -4 3 -22 16 -39 13 -17 21 -36 19 -43 -3 -9 4 -10 29 -2 25 7
35 6 43 -4 40 -54 81 -97 92 -97 7 0 13 -7 13 -16 0 -9 14 -21 30 -27 17 -6
30 -17 30 -24 0 -7 7 -13 16 -13 14 0 16 -9 10 -62 -4 -35 -13 -69 -19 -77 -6
-7 -12 -44 -12 -82 0 -38 -3 -69 -7 -69 -5 0 -8 -18 -8 -40 0 -29 4 -40 15
-40 13 0 15 -10 10 -62 -4 -35 -8 -69 -11 -76 -2 -7 3 -15 11 -18 11 -5 12
-11 4 -25 -14 -27 59 -104 90 -94 17 5 21 2 21 -17 0 -27 34 -98 52 -109 7 -4
9 -11 5 -15 -3 -4 -12 -2 -19 3 -7 6 -26 13 -42 16 l-29 5 32 -25 c17 -13 31
-29 31 -34 0 -16 -41 14 -88 63 -29 31 -50 44 -60 41 -11 -5 -14 -2 -10 9 4
10 -11 32 -44 64 -79 78 -117 169 -134 319 -4 33 -10 65 -14 70 -7 10 -23 183
-21 235 1 38 -20 151 -36 188 -15 36 -30 34 -67 -7 -40 -44 -155 -50 -177 -10
-7 14 -5 25 7 44 9 14 20 23 24 20 4 -2 5 7 2 20 -3 19 0 25 12 25 10 0 14 5
11 10 -4 6 -11 8 -16 5 -5 -4 -9 0 -9 8 0 19 56 58 74 51 10 -4 16 -1 16 7 0
8 5 6 13 -5 7 -9 17 -16 22 -15z m1386 -133 c11 -11 19 -27 19 -35 0 -7 4 -13
9 -13 5 0 12 -15 16 -32 13 -70 31 -121 43 -125 6 -3 12 -9 12 -14 0 -6 6 -16
13 -25 21 -25 93 -98 122 -123 20 -19 25 -31 21 -51 -3 -18 5 -47 24 -86 19
-38 26 -60 19 -65 -7 -4 -8 -9 -1 -13 5 -3 15 1 22 9 16 19 34 19 26 0 -3 -8
-9 -22 -13 -32 -4 -11 -3 -14 5 -9 16 10 31 -31 27 -74 -4 -52 -4 -52 -15 -45
-5 3 -10 1 -10 -6 0 -13 -9 -2 -85 107 -41 58 -161 161 -227 195 -44 23 -61
44 -24 29 47 -17 107 -51 157 -87 27 -19 49 -30 49 -25 0 6 -6 12 -12 15 -7 2
-10 8 -6 12 10 11 40 -15 35 -29 -3 -7 4 -12 14 -12 23 0 23 -2 -2 27 -13 15
-31 23 -52 24 -28 0 -32 3 -30 25 2 20 -10 33 -62 70 -60 42 -65 48 -70 90 -4
39 -39 233 -53 298 -6 28 5 28 29 0z m-3070 -78 c5 0 9 7 9 16 0 8 4 13 10 9
5 -3 6 -13 3 -22 -4 -11 -3 -14 5 -9 7 4 12 15 12 24 1 15 2 15 11 -1 8 -13
18 -17 34 -13 17 4 24 1 27 -12 6 -20 35 -25 54 -10 8 5 13 1 17 -13 3 -12 10
-18 16 -14 6 3 9 10 6 15 -8 13 6 61 15 55 5 -3 6 -24 3 -47 -5 -35 -4 -40 10
-35 19 7 27 -12 26 -66 -1 -39 -2 -40 -8 -12 -4 17 -12 29 -19 28 -7 -2 -12 5
-12 15 0 14 -2 14 -9 3 -5 -8 -22 -19 -37 -26 l-29 -11 35 -14 c31 -12 32 -14
12 -17 -12 -3 -27 -13 -32 -24 -6 -10 -20 -19 -30 -19 -22 0 -27 -25 -7 -33 7
-3 5 -6 -5 -6 -11 -1 -18 -9 -18 -20 0 -14 -10 -20 -42 -24 -23 -3 -48 -14
-55 -23 -11 -15 -16 -16 -37 -4 -36 19 -95 5 -106 -25 -7 -17 -14 -22 -29 -18
-21 5 -25 13 -22 46 3 20 -14 23 -26 4 -5 -9 -17 -11 -33 -7 l-25 6 23 8 c12
4 22 12 22 17 0 6 10 9 23 8 31 -4 64 9 71 27 5 12 14 14 37 9 20 -5 29 -4 25
3 -3 5 11 13 32 17 20 4 43 11 49 17 7 6 19 8 26 5 7 -3 22 2 32 10 14 11 16
17 8 20 -9 3 -10 10 -3 23 15 29 -4 65 -62 119 -16 14 -27 35 -27 46 2 18 2
17 6 -2 2 -13 9 -23 14 -23z m4396 -336 c-14 -28 -14 -32 -2 -27 16 5 19 -5 9
-31 -5 -12 -20 -16 -60 -16 -30 0 -62 -4 -72 -8 -9 -5 -27 -14 -39 -20 -13 -7
-28 -12 -34 -12 -10 0 -313 -127 -373 -156 -34 -16 -46 -18 -46 -5 0 5 9 12
19 16 13 4 18 13 16 26 -3 16 0 19 14 14 11 -3 21 0 24 9 4 9 0 12 -13 9 -27
-7 -35 16 -8 26 18 8 19 10 5 10 -22 1 -13 21 9 21 9 0 22 7 30 15 9 8 21 15
27 15 7 0 6 -4 -3 -10 -8 -5 -11 -10 -7 -10 7 0 22 9 95 59 19 13 36 20 39 17
3 -3 12 1 20 9 20 21 39 19 22 -2 -12 -14 -12 -16 1 -11 8 2 24 23 35 46 20
42 73 82 84 63 4 -5 25 4 49 20 23 16 48 29 55 29 15 1 47 24 47 35 0 5 8 17
17 27 17 18 18 16 36 -52 18 -67 19 -74 4 -106z m-1395 2 c4 -6 8 -7 8 -2 0 5
7 3 15 -4 8 -7 13 -16 10 -20 -3 -5 3 -6 13 -3 19 4 131 -64 168 -103 12 -13
25 -20 30 -16 4 4 4 1 0 -6 -5 -7 -2 -21 6 -30 34 -40 28 -44 -11 -7 -22 21
-41 34 -41 27 0 -7 -4 -12 -10 -12 -5 0 -10 6 -10 14 0 19 -25 27 -39 13 -19
-19 -12 -34 20 -41 19 -4 46 -23 69 -48 35 -39 40 -42 60 -30 27 17 40 7 16
-11 -16 -12 -17 -16 -5 -38 8 -13 16 -26 19 -29 3 -3 22 -25 43 -49 38 -46 50
-75 20 -49 -21 17 -63 21 -63 6 0 -6 21 -47 46 -90 35 -60 51 -78 63 -73 14 5
14 4 1 -8 -22 -20 -279 -2 -303 22 -8 8 -4 11 13 11 14 0 21 4 15 8 -13 9
-125 157 -125 165 0 3 13 4 29 2 24 -3 28 0 23 17 -3 15 -7 16 -13 7 -4 -8
-11 -11 -14 -7 -13 12 6 45 55 98 65 69 67 84 14 88 -34 2 -53 13 -108 63 -38
33 -85 67 -106 77 -35 15 -38 19 -34 47 3 16 10 40 16 51 l10 21 47 -25 c25
-14 49 -31 53 -36z m-421 -39 c0 -12 3 -16 6 -9 7 18 24 15 21 -5 -2 -10 2
-18 7 -18 16 -1 75 -29 75 -36 0 -4 7 -10 16 -13 11 -4 9 2 -7 25 -20 28 -20
30 -3 21 27 -14 58 -51 51 -59 -4 -3 -2 -12 4 -20 6 -7 8 -13 4 -13 -5 0 0 -9
9 -19 15 -17 17 -35 15 -110 -2 -50 -1 -91 4 -91 4 0 6 -26 5 -57 l-1 -58 -7
45 -7 45 -2 -40 c-2 -22 -5 -51 -7 -65 -2 -14 -4 -37 -4 -52 0 -15 -4 -30 -10
-33 -6 -4 -8 -27 -4 -58 l6 -52 -46 -33 c-35 -24 -44 -27 -36 -13 5 11 15 23
20 26 6 3 10 15 10 26 0 10 5 19 10 19 6 0 8 11 4 28 -10 39 -13 43 -33 33
-10 -6 -23 -6 -31 -1 -12 7 -11 10 4 16 17 7 17 8 -5 25 -13 10 -30 19 -36 19
-7 0 -13 9 -13 20 0 11 -9 36 -20 56 -19 33 -21 52 -19 260 1 128 5 221 10
218 5 -3 9 -15 10 -27z m3151 -203 c108 -26 178 -57 228 -100 l49 -42 47 24
c26 13 55 24 63 24 9 0 3 -7 -14 -16 -16 -9 -43 -22 -58 -30 l-28 -15 27 -37
c15 -20 31 -39 34 -42 8 -7 50 -97 50 -108 0 -5 7 -23 16 -41 42 -85 52 -287
22 -486 -11 -75 -80 -296 -103 -332 -8 -12 -15 -31 -15 -43 0 -11 -4 -20 -9
-20 -5 0 -12 -8 -15 -17 -3 -10 -12 -28 -19 -40 -13 -21 -14 -21 -31 -5 -18
16 -18 16 -11 -13 3 -16 3 -26 -1 -22 -5 4 -11 29 -15 55 -6 39 -7 31 -8 -43
-1 -49 -4 -106 -6 -125 -3 -19 -8 -50 -11 -67 -3 -21 -11 -33 -20 -33 -8 0
-26 -12 -39 -26 -14 -15 -25 -25 -25 -23 0 2 9 33 20 69 15 48 20 96 21 180 1
131 -9 248 -22 256 -5 3 -7 10 -3 15 3 5 1 15 -4 22 -12 15 -25 73 -24 109 1
25 -1 26 -19 15 -11 -7 -23 -24 -26 -39 -8 -40 -23 -24 -18 20 2 25 8 37 18
36 10 -1 13 5 9 19 -4 14 -2 18 7 12 10 -5 11 -2 7 13 -5 14 -1 24 11 32 13 8
14 13 6 16 -7 3 -13 15 -14 27 -1 12 -5 2 -10 -22 -9 -44 -29 -75 -62 -93 -17
-9 -17 -8 -2 21 15 29 15 31 -4 31 -11 0 -21 -5 -23 -11 -2 -7 -26 4 -58 27
-30 21 -75 44 -100 51 -25 7 -65 19 -90 27 -139 44 -309 55 -386 24 -26 -11
-45 -13 -55 -7 -11 7 -11 9 3 9 10 0 32 9 50 20 18 11 47 20 63 21 17 1 22 3
13 6 -29 7 -20 22 18 29 36 7 177 0 224 -11 20 -4 21 -4 5 3 -19 9 -19 9 0 20
16 9 17 13 6 21 -9 6 -10 11 -2 15 6 4 10 20 9 36 -1 16 -4 27 -6 25 -2 -2
-11 3 -21 11 -14 13 -15 25 -7 99 8 71 7 91 -7 122 -9 21 -16 47 -14 57 3 25
-20 33 -26 9 -4 -16 -6 -15 -12 5 -5 14 -15 22 -31 22 -29 0 -95 -30 -111 -50
-9 -12 -10 -9 -5 15 4 26 3 28 -10 17 -16 -13 -76 -13 -84 0 -3 5 3 11 13 15
17 6 53 37 53 47 0 2 -9 2 -21 -1 -12 -4 -25 0 -31 8 -8 11 -9 10 -4 -4 4 -14
1 -16 -20 -11 -22 6 -50 -8 -114 -54 -2 -2 2 -8 10 -13 12 -9 11 -10 -4 -5
-12 4 -33 -6 -65 -32 -60 -49 -88 -66 -133 -81 -21 -7 -46 -23 -55 -35 -10
-12 -30 -26 -45 -29 -15 -4 -33 -14 -42 -22 -8 -8 -20 -15 -27 -15 -7 0 -21
-8 -32 -17 -12 -12 -37 -18 -68 -19 -28 -1 -53 -4 -56 -8 -3 -3 -1 -6 5 -6 7
0 12 -4 12 -10 0 -5 -7 -10 -16 -10 -10 0 -14 -6 -11 -14 12 -31 -54 -50 -82
-23 -11 10 -12 8 -6 -10 8 -28 -19 -32 -34 -5 -7 12 -10 13 -11 3 0 -11 -5
-10 -20 4 -14 13 -17 22 -10 30 11 13 -38 73 -78 94 -16 9 -21 18 -17 32 5 14
3 17 -9 13 -9 -3 -16 -1 -16 5 0 6 7 11 15 11 12 0 14 8 9 40 -4 27 -3 40 5
40 6 0 11 11 11 25 0 53 45 8 56 -55 6 -40 45 -143 51 -137 2 3 -6 29 -17 59
-19 52 -19 88 1 88 14 0 11 -18 -3 -23 -10 -3 -10 -7 -2 -18 7 -8 14 -23 18
-34 3 -11 3 -3 0 17 -2 20 0 39 5 43 6 3 7 13 4 22 -5 13 -1 15 23 9 17 -4 24
-3 16 2 -15 10 19 36 108 81 36 18 92 52 125 74 l60 42 185 3 c223 3 273 5
280 12 10 10 138 70 149 70 6 0 33 11 59 24 117 61 304 82 434 50z m-5527
-203 c3 -5 1 -12 -4 -16 -18 -10 -10 -96 10 -116 11 -11 19 -23 19 -29 0 -5 9
-10 20 -10 29 0 27 -45 -2 -54 l-23 -7 22 -9 c31 -13 20 -44 -13 -36 -14 4
-24 2 -24 -4 0 -7 -13 -4 -30 7 -22 13 -30 25 -30 46 0 15 -7 42 -16 58 -8 17
-14 43 -13 57 2 15 -1 33 -5 41 -7 10 -4 12 13 6 21 -6 53 14 50 32 -6 34 11
57 26 34z m3528 -29 c18 -20 67 -121 67 -139 0 -7 -9 -13 -19 -13 -11 0 -27
-7 -35 -16 -13 -12 -22 -13 -44 -5 -25 10 -25 11 -2 7 14 -3 34 2 44 10 11 8
15 14 10 14 -6 0 -16 -6 -23 -12 -10 -11 -18 -7 -39 18 -15 17 -36 34 -46 38
-10 3 -16 9 -13 13 4 3 2 12 -4 20 -9 10 -8 18 6 33 24 26 52 25 77 -2 l20
-23 -16 27 c-27 46 -16 66 17 30z m-119 -190 c-4 7 -14 21 -22 31 -8 9 -13 20
-10 23 3 2 27 -28 53 -68 27 -40 59 -86 72 -101 46 -56 19 -49 -43 11 -8 8
-54 40 -103 72 -90 59 -111 81 -111 119 0 18 12 12 86 -40 47 -33 82 -54 78
-47z m-699 48 c19 -7 24 -7 19 1 -7 11 32 10 196 -7 25 -2 95 -8 155 -14 61
-5 120 -12 133 -16 14 -4 22 -2 22 6 0 12 61 -21 88 -47 7 -7 18 -13 23 -13
10 0 52 -28 100 -66 21 -16 24 -24 15 -36 -9 -13 -16 -13 -46 -2 -19 7 -28 13
-20 14 10 1 9 4 -5 9 -12 5 -25 3 -33 -6 -10 -10 -29 -12 -61 -9 -44 6 -45 5
-12 -5 19 -6 45 -9 58 -6 12 2 20 0 17 -4 -3 -5 5 -9 18 -9 13 0 30 -5 38 -10
22 -14 -8 -13 -110 5 -47 8 -86 15 -87 15 -2 0 -3 7 -3 15 0 12 -14 15 -69 15
-38 0 -71 -4 -73 -9 -4 -11 -318 -1 -318 10 0 5 10 10 23 10 12 1 4 5 -18 8
-31 5 -45 3 -61 -11 -40 -35 -47 -17 -9 23 22 22 33 37 24 34 -10 -4 -20 -1
-25 6 -4 7 -3 10 4 6 16 -11 42 3 42 22 0 13 -2 13 -9 2 -7 -11 -10 -11 -17 0
-4 7 -3 14 4 17 20 6 14 16 -18 30 -50 23 -37 42 15 22z m5896 -79 c-9 -6 -10
-14 -5 -22 5 -8 14 -28 20 -46 9 -24 8 -30 -1 -27 -7 3 -15 -2 -18 -10 -5 -12
0 -16 17 -16 13 0 26 6 29 13 6 17 52 20 66 4 8 -10 1 -23 -29 -52 -22 -22
-40 -35 -40 -30 0 4 -9 0 -19 -9 -23 -21 -41 -14 -41 15 0 10 -4 19 -10 19 -5
0 -12 16 -16 35 -4 24 -12 35 -24 35 -10 0 -21 7 -24 16 -9 24 -7 34 8 34 18
0 29 42 13 52 -7 5 1 8 21 8 18 0 32 5 32 12 0 8 7 6 18 -5 14 -15 15 -19 3
-26z m-4052 -469 c57 -39 159 -139 167 -165 3 -12 20 -37 37 -54 56 -60 11
-34 -58 32 -37 36 -74 65 -83 65 -16 0 -106 94 -100 104 2 2 -6 13 -16 25 -29
31 1 28 53 -7z m-1425 -19 c-7 -33 -66 -93 -72 -75 -3 9 -8 8 -19 -3 -8 -9
-12 -22 -9 -31 3 -8 2 -13 -3 -10 -5 3 -15 -2 -22 -11 -12 -13 -12 -17 -1 -21
10 -3 8 -8 -7 -18 -11 -8 -28 -31 -37 -52 -10 -20 -27 -50 -39 -67 -12 -16
-21 -40 -20 -52 1 -18 -1 -20 -12 -11 -11 8 -12 7 -7 -5 3 -9 -1 -30 -9 -47
-21 -41 -6 -38 36 9 51 57 59 58 31 2 -16 -31 -27 -70 -29 -106 -2 -31 -8 -62
-13 -68 -5 -7 -12 -27 -15 -44 -5 -25 -3 -33 8 -33 10 0 15 -11 15 -35 0 -20
7 -51 15 -71 21 -51 22 -105 1 -137 -24 -36 -36 -34 -36 7 0 18 -4 46 -9 62
-34 111 -47 150 -52 154 -4 3 -19 46 -34 97 l-28 92 23 43 c12 24 39 61 60 84
45 49 104 140 113 174 9 38 117 162 134 156 8 -4 11 -1 8 5 -4 6 1 17 11 24
25 19 25 19 18 -12z m-900 -76 c11 -23 29 -53 40 -66 22 -24 134 -101 148
-101 4 0 7 -5 6 -11 -2 -7 12 -16 30 -21 48 -13 41 -31 -10 -23 -33 6 -40 5
-36 -7 7 -18 -58 -16 -92 2 -13 7 -35 16 -51 20 -23 7 -27 5 -22 -7 12 -32
-62 25 -85 65 -18 31 -5 130 22 164 12 15 23 27 26 27 3 1 14 -18 24 -42z
m2446 -130 c0 -5 8 -6 18 -3 12 4 25 -2 38 -17 39 -46 74 -96 74 -106 0 -6 5
-11 11 -11 5 0 9 -8 7 -17 -1 -10 1 -24 6 -31 26 -42 -38 -16 -88 36 -24 25
-45 38 -55 35 -13 -4 -14 -3 -2 5 12 9 11 16 -10 44 -14 18 -29 40 -34 48 -8
13 -6 13 7 2 14 -11 16 -10 11 7 -3 12 -9 21 -14 21 -5 0 -9 5 -9 10 0 6 8 5
20 -2 11 -7 20 -17 20 -21z m-151 -94 c-13 -17 -13 -17 13 -1 26 17 27 17 25
-1 0 -10 -6 -17 -13 -14 -16 6 -27 -28 -14 -41 8 -8 9 -6 5 7 -5 12 -2 17 9
17 9 0 16 -6 16 -13 0 -7 11 -23 25 -35 14 -12 25 -17 25 -12 0 12 27 14 32 2
2 -4 22 -23 45 -41 23 -19 41 -36 40 -40 -1 -3 1 -7 6 -8 10 -4 10 -2 -3 31
-15 41 -9 41 30 1 32 -33 34 -33 49 -16 20 23 52 33 69 22 21 -13 3 -37 -51
-67 -71 -39 -71 -39 -64 -15 3 11 1 21 -4 21 -5 0 -9 -9 -9 -21 0 -15 -13 -26
-47 -40 -27 -11 -116 -54 -199 -95 -83 -41 -159 -74 -168 -74 -10 0 -37 -12
-62 -26 -44 -26 -60 -24 -26 3 9 7 13 13 7 12 -20 -2 -55 14 -55 25 0 6 -5 4
-10 -4 -9 -13 -13 -12 -26 5 -16 19 -16 19 -9 -5 7 -23 7 -24 -10 -10 -10 8
-26 33 -36 55 -10 22 -19 32 -19 22 0 -27 19 -59 51 -86 16 -13 29 -28 29 -34
0 -5 -7 -4 -15 3 -8 7 -21 10 -29 7 -17 -7 -54 18 -43 29 4 4 7 2 7 -4 0 -7 6
-12 14 -12 10 0 4 16 -20 52 -19 29 -44 74 -57 100 -19 41 -26 47 -57 50 l-35
4 30 8 c37 11 67 35 58 49 -4 6 2 8 15 5 12 -4 20 -2 16 3 -3 5 1 9 10 9 8 0
16 3 18 8 2 4 29 15 61 25 31 10 55 22 52 27 -3 5 9 11 27 15 18 4 51 15 73
25 22 10 66 26 98 34 32 9 72 26 90 36 40 25 54 25 36 3z m-2407 -15 c3 -9 11
-9 34 0 18 8 40 9 59 4 17 -5 44 -7 61 -5 25 2 33 -2 37 -17 3 -11 12 -20 21
-20 9 0 16 -8 16 -20 0 -10 7 -23 15 -27 12 -7 13 -16 5 -43 -14 -50 -12 -90
5 -96 21 -8 19 -33 -2 -30 -9 2 -25 20 -34 42 l-18 39 0 -37 c-1 -40 -6 -45
-32 -25 -17 13 -204 14 -309 3 -71 -8 -137 22 -157 71 -12 30 -11 32 7 28 13
-2 20 2 20 11 0 8 6 13 13 12 7 -2 11 6 10 20 -2 12 2 22 7 22 6 0 10 -4 10
-8 0 -17 50 -33 68 -21 16 10 16 10 0 5 -28 -8 -48 4 -48 29 0 19 7 24 48 30
26 4 62 8 81 9 20 1 39 9 45 19 13 20 33 22 38 5z m960 -430 c5 -72 -3 -89
-25 -58 l-14 21 -7 -23 c-9 -34 -7 -50 4 -43 6 3 10 2 10 -3 0 -6 -6 -12 -14
-15 -8 -3 -16 -25 -19 -49 -16 -128 -28 -173 -54 -196 -18 -16 -22 -27 -15
-34 13 -13 52 -1 52 16 0 18 108 119 149 140 34 18 87 14 76 -4 -4 -6 -10 -8
-14 -6 -10 7 -51 -22 -51 -36 0 -7 6 -6 15 2 21 17 19 1 -7 -56 -14 -31 -23
-43 -26 -32 -2 10 -9 15 -18 11 -13 -5 -13 -8 -2 -15 10 -7 10 -11 1 -15 -7
-2 -13 -13 -13 -23 0 -10 -5 -22 -10 -25 -6 -4 -8 -11 -5 -16 6 -8 -9 -13 -29
-10 -22 4 -94 -138 -76 -149 8 -5 13 -53 16 -136 2 -71 6 -158 10 -194 5 -54
3 -68 -10 -79 -12 -10 -19 -11 -30 -2 -11 9 -15 9 -18 -1 -6 -17 -38 14 -38
36 0 8 -10 22 -21 30 -21 14 -22 19 -17 213 3 127 9 206 17 221 7 12 14 78 17
145 4 70 12 135 20 153 7 16 16 50 20 75 9 64 83 219 105 219 14 0 18 -11 21
-62z m4839 -53 c8 5 10 4 5 -3 -4 -7 -3 -12 3 -12 13 0 80 -43 81 -52 0 -3 -6
-8 -12 -11 -7 -2 -4 -3 8 -1 38 6 55 -17 59 -83 3 -45 0 -65 -11 -74 -8 -6
-14 -17 -14 -23 0 -6 -7 -24 -15 -40 -9 -16 -13 -38 -9 -49 4 -13 2 -17 -5
-13 -7 5 -11 -3 -11 -20 0 -21 -4 -25 -20 -21 -10 3 -18 2 -17 -2 3 -8 -40
-51 -51 -51 -4 0 -22 -13 -39 -29 -18 -16 -53 -39 -78 -52 -31 -16 -41 -25
-33 -31 10 -6 10 -10 -2 -17 -9 -6 -19 -6 -27 0 -7 6 -18 7 -24 3 -9 -5 -7
-11 5 -20 15 -11 16 -16 5 -36 l-13 -23 -10 27 c-6 19 -18 28 -40 31 -17 3
-36 1 -42 -4 -6 -5 -25 -4 -45 1 -42 12 -42 12 -34 0 3 -5 1 -10 -4 -10 -6 0
-11 -7 -11 -15 0 -8 -4 -15 -10 -15 -5 0 -10 9 -10 20 0 23 -8 25 -34 5 -10
-8 -22 -12 -26 -10 -28 17 -162 -78 -277 -197 -46 -47 -83 -82 -83 -77 0 4 5
11 10 14 6 4 8 15 5 25 -3 10 -1 21 4 25 7 4 8 -1 5 -12 -4 -10 17 7 45 37 50
55 63 80 39 80 -7 1 -2 10 11 21 13 11 21 22 18 25 -10 10 -46 -38 -40 -55 6
-14 4 -14 -14 2 -19 17 -21 17 -27 1 -4 -10 -2 -22 4 -28 8 -8 9 -6 5 7 -4 9
-3 17 3 17 14 0 22 -24 12 -40 -4 -7 -13 -10 -19 -6 -7 5 -8 1 -4 -10 4 -12 3
-15 -6 -10 -15 9 -54 -29 -56 -53 0 -9 -9 -28 -19 -41 l-18 -25 8 25 c4 14 7
31 7 38 0 6 5 12 10 12 5 0 7 7 3 15 -3 8 0 15 6 15 6 0 9 3 5 6 -14 15 95
260 138 310 6 6 22 26 37 45 14 19 40 52 58 74 47 59 170 120 170 84 0 -7 9
-9 21 -6 22 6 69 -11 69 -25 0 -13 -18 -9 -23 5 -2 6 -7 9 -11 5 -11 -9 22
-68 41 -75 10 -4 19 -1 21 7 3 9 9 5 18 -11 7 -13 13 -18 14 -11 0 26 19 10
23 -20 3 -25 4 -22 5 15 2 45 7 52 39 48 6 -1 14 3 18 9 3 5 1 10 -4 10 -6 0
-11 5 -11 10 0 6 17 11 38 11 36 1 36 2 7 8 l-30 7 23 13 c18 10 22 18 18 37
-5 17 -2 24 8 24 26 0 29 21 5 46 -25 27 -40 30 -69 12 -10 -7 -22 -9 -26 -5
-12 12 18 37 40 33 11 -2 15 -1 9 1 -25 9 -13 30 17 30 17 0 30 -4 30 -9 0 -5
-4 -6 -10 -3 -12 7 -12 3 -4 -20 6 -14 8 -14 31 1 18 11 28 13 36 5 16 -16 27
-13 27 7 0 10 16 24 40 35 l40 19 -27 33 c-16 19 -34 32 -40 30 -7 -3 -13 2
-13 10 0 8 5 15 11 15 5 0 7 5 3 11 -5 8 -9 8 -14 -1 -4 -6 -7 2 -6 19 l1 30
32 -31 c19 -18 36 -27 44 -23z m-5753 -752 c1 -65 -2 -112 -5 -104 -7 18 -92
101 -103 101 -5 0 -16 -34 -26 -75 -10 -41 -21 -80 -25 -86 -9 -15 -141 101
-134 119 5 14 -11 17 -19 3 -3 -5 -45 -8 -93 -6 -53 2 -80 0 -68 -5 23 -10 21
-11 -17 -14 -16 -1 -28 2 -28 6 0 4 -7 8 -16 8 -11 0 -14 -5 -10 -16 3 -9 6
-18 6 -20 0 -2 10 -5 23 -5 16 -1 18 -2 5 -6 -26 -6 -22 -20 7 -27 35 -9 70
10 54 30 -9 11 -8 14 9 14 12 0 24 -4 27 -10 3 -5 11 -10 16 -10 6 0 7 5 4 10
-3 6 -3 15 1 21 4 8 13 4 26 -12 11 -15 16 -18 12 -6 -3 9 -1 17 5 17 6 0 11
-7 11 -15 0 -8 3 -15 8 -15 13 0 75 -60 62 -60 -9 0 -7 -6 5 -20 10 -11 28
-20 39 -20 26 -1 54 -21 49 -37 -2 -6 1 -14 6 -18 6 -3 11 -1 11 6 0 7 2 10 5
7 3 -3 1 -17 -5 -32 -9 -24 -8 -27 7 -24 10 3 29 -1 43 -7 14 -7 55 -20 93
-30 37 -10 67 -22 67 -26 0 -5 7 -9 15 -9 8 0 15 -6 15 -12 0 -7 19 16 41 51
22 36 63 87 90 115 27 27 51 58 54 67 4 11 12 16 21 12 8 -3 14 1 14 8 0 10 3
10 12 1 8 -8 8 -15 -2 -27 -8 -10 -9 -15 -1 -15 6 0 11 5 11 11 0 8 5 8 15 -1
13 -10 15 -9 15 11 1 24 1 24 15 4 27 -38 36 -45 55 -45 11 0 29 9 40 20 l20
20 0 -35 c0 -20 -7 -52 -15 -72 l-15 -36 -29 27 c-21 21 -31 24 -37 15 -4 -7
-3 -14 4 -17 7 -2 12 -10 12 -17 0 -7 7 -15 15 -19 20 -7 19 -56 -1 -121 -19
-61 -52 -108 -61 -86 -4 9 -12 5 -29 -15 -13 -16 -23 -23 -22 -15 2 10 -10 17
-34 21 -21 4 -38 3 -38 -2 0 -4 -9 -8 -21 -8 -11 0 -17 -4 -14 -10 3 -5 1 -10
-4 -10 -6 0 -11 5 -11 10 0 6 -5 10 -11 10 -5 0 -8 -4 -5 -9 4 -5 -5 -4 -19 2
-14 7 -25 18 -25 24 0 19 -40 -18 -40 -37 0 -15 -39 -72 -40 -57 0 4 7 24 15
44 8 20 13 38 11 40 -6 7 -56 -100 -56 -120 0 -9 -4 -18 -9 -21 -19 -12 42
173 62 185 5 4 7 13 5 20 -3 10 -9 6 -17 -10 -32 -58 -121 -123 -121 -87 0 8
8 17 18 19 9 3 -2 4 -25 2 -40 -4 -46 -1 -100 53 -56 55 -107 99 -187 162 -21
16 -35 30 -31 30 4 0 2 7 -6 16 -15 18 -18 58 -8 97 10 37 4 34 -22 -13 -13
-22 -25 -40 -28 -40 -3 0 -17 16 -31 35 -14 19 -46 58 -73 87 -26 29 -46 57
-44 62 2 6 15 13 28 17 14 3 73 30 131 59 74 36 113 50 127 45 12 -3 21 -10
21 -15 0 -5 14 -7 30 -3 30 5 43 -10 18 -20 -8 -3 -6 -6 5 -6 23 -1 22 -18 -3
-33 -44 -28 -16 -26 39 2 36 18 67 27 77 23 12 -4 15 -3 10 5 -4 7 11 22 36
39 24 15 45 31 48 34 3 3 12 9 20 12 8 3 16 6 17 6 0 1 1 -52 1 -116z m-4536
-82 c-2 -9 3 -9 19 0 19 10 21 9 16 -5 -7 -16 8 -23 17 -8 4 7 31 8 55 3 2 -1
-2 -8 -9 -16 -7 -8 -9 -15 -5 -15 4 0 13 8 20 17 11 15 13 15 24 -6 7 -12 10
-29 7 -37 -3 -8 -2 -13 3 -10 10 6 61 -16 61 -26 0 -5 -5 -8 -11 -8 -5 0 -3
-10 5 -22 18 -26 20 -38 6 -38 -5 0 -10 6 -10 14 0 8 -4 18 -10 21 -6 3 -7 -1
-4 -9 3 -9 1 -16 -5 -16 -7 0 -9 -10 -5 -27 4 -21 3 -24 -5 -13 -6 8 -15 16
-21 16 -23 3 -24 5 -7 18 10 8 14 17 9 20 -6 3 -12 -1 -16 -9 -3 -8 -10 -15
-17 -15 -6 0 -9 6 -6 14 4 10 0 12 -15 8 -18 -4 -20 -2 -15 17 3 13 1 21 -6
20 -26 -4 -48 13 -41 33 5 17 3 19 -15 13 -15 -4 -21 -2 -21 8 0 8 -10 21 -22
29 -20 13 -21 17 -9 32 15 18 38 16 33 -3z m7121 -951 c-3 -10 0 -21 6 -24 16
-10 14 -26 -3 -26 -16 0 -46 -42 -46 -64 0 -8 6 -17 13 -19 6 -3 1 -6 -13 -6
-15 -1 -31 -6 -38 -13 -9 -9 -12 -9 -12 0 0 20 -20 13 -45 -15 -19 -22 -24
-39 -25 -80 0 -29 -4 -53 -10 -53 -5 0 -10 -5 -10 -12 0 -9 3 -9 12 0 17 17
38 15 38 -3 0 -9 -9 -15 -25 -15 -32 0 -33 -26 -2 -36 12 -4 36 -7 52 -7 47 1
65 -13 65 -52 0 -39 16 -48 23 -12 4 22 4 22 6 -1 1 -16 -6 -26 -19 -29 -24
-6 -27 -23 -4 -23 10 0 14 -6 10 -15 -3 -8 -1 -15 3 -15 5 0 7 -10 3 -22 -7
-26 12 -17 46 24 13 15 29 25 35 21 6 -4 8 0 4 10 -7 19 38 51 60 43 12 -5 -2
-24 -56 -74 -39 -38 -69 -71 -65 -74 19 -20 -116 -183 -181 -218 -28 -15 -48
-5 -25 13 8 7 16 18 17 25 2 6 20 30 41 51 47 48 106 157 91 167 -8 4 -7 10 2
16 11 8 10 9 -3 4 -22 -7 -48 2 -48 16 0 6 6 5 15 -2 12 -10 15 -10 15 3 0 8
-7 17 -15 21 -8 3 -15 1 -15 -4 0 -16 -27 -11 -34 5 -3 8 -3 21 0 29 3 8 0 17
-5 21 -6 3 -9 11 -6 16 4 5 -3 9 -14 9 -13 0 -19 5 -15 14 11 29 -19 29 -43 0
-13 -16 -33 -39 -43 -52 -11 -12 -17 -29 -13 -37 3 -9 -1 -15 -11 -15 -9 0
-16 8 -16 19 0 28 -16 34 -32 12 -7 -10 -30 -26 -51 -34 -31 -14 -37 -14 -37
-2 0 11 -9 9 -37 -8 -21 -12 -39 -25 -41 -29 -2 -4 -21 -8 -42 -8 -21 0 -40
-5 -42 -12 -3 -7 -7 -8 -10 -3 -3 6 -2 20 3 33 8 20 14 23 41 17 l33 -6 -32
17 c-32 16 -33 16 -53 -7 -17 -21 -19 -21 -14 -4 4 11 16 30 27 43 11 12 17
22 13 22 -5 0 -3 7 4 15 7 9 20 13 27 11 11 -4 13 0 8 15 -6 18 -4 20 16 14
17 -6 21 -4 17 7 -4 9 1 14 13 15 11 1 31 11 45 22 15 12 33 21 40 21 7 0 11
6 8 14 -4 10 7 16 38 21 42 7 78 35 78 62 0 7 5 13 10 13 6 0 10 7 10 15 0 8
9 20 20 27 11 7 20 19 20 27 0 8 26 40 57 70 90 88 178 136 166 91z m291 -16
c65 -7 214 -123 251 -194 13 -25 12 -29 -4 -44 -19 -17 -65 -14 -77 6 -16 25
-105 44 -134 28 -33 -18 -72 -58 -66 -68 3 -6 -1 -12 -9 -15 -10 -4 -12 -1 -9
11 4 10 -2 7 -14 -8 -12 -14 -24 -22 -28 -18 -9 9 22 57 42 65 8 3 14 14 14
24 0 11 8 23 18 26 9 4 23 13 30 20 11 11 11 13 -3 13 -9 0 -14 4 -10 9 3 5
21 7 40 4 21 -3 41 -1 50 7 11 9 22 9 45 2 16 -6 30 -9 30 -6 0 15 -5 19 -24
16 -13 -2 -16 0 -9 5 6 4 -16 9 -50 11 -67 2 -127 25 -127 46 0 8 -7 16 -15
20 -8 3 -15 12 -15 20 0 17 30 37 44 29 5 -4 19 -7 30 -9z m-3824 -544 c0 -14
-7 -20 -24 -20 -23 0 -25 -4 -32 -77 -6 -69 -8 -74 -16 -45 -9 33 -33 43 -54
22 -6 -6 -31 -12 -55 -13 -25 -1 -53 -9 -64 -19 -11 -9 -31 -26 -44 -37 -13
-12 -28 -21 -33 -21 -5 0 -4 -9 2 -19 7 -15 6 -23 -6 -36 -10 -9 -17 -36 -18
-68 -2 -28 -12 -85 -24 -124 -12 -40 -22 -83 -23 -95 0 -22 -1 -22 -10 2 -7
18 -5 65 7 161 10 89 13 143 7 155 -5 10 -7 33 -4 49 6 27 10 30 49 32 44 3
129 40 151 67 12 14 10 16 -7 16 -28 0 -37 17 -14 29 29 16 134 50 167 54 17
2 33 5 38 6 4 0 7 -8 7 -19z m2856 -136 c8 3 14 -1 14 -9 0 -11 11 -15 40 -15
22 0 40 5 40 10 0 6 5 10 12 10 9 0 9 -3 0 -12 -7 -7 -12 -20 -12 -30 0 -14
-8 -18 -37 -18 -21 0 -45 -5 -53 -10 -11 -7 -5 -10 23 -10 37 0 37 0 37 -40 0
-29 4 -40 15 -40 27 0 16 -18 -52 -84 -23 -23 -48 -56 -54 -75 -13 -37 -29
-26 -29 21 0 15 -5 30 -11 34 -8 4 -10 -3 -7 -22 3 -16 3 -23 1 -16 -3 6 -8
12 -13 12 -5 0 -10 -6 -13 -12 -3 -10 -7 -10 -19 -1 -22 19 -11 128 17 173 12
19 25 48 29 64 4 16 17 37 29 47 14 12 17 18 8 19 -11 0 -11 3 0 17 13 15 14
15 17 -1 2 -10 10 -15 18 -12z m2564 -63 c13 -26 13 -31 -4 -31 -13 0 -27 -28
-30 -60 -4 -43 -19 -80 -32 -80 -11 0 -12 4 -5 18 8 14 6 19 -5 19 -8 0 -13
-6 -10 -14 3 -7 0 -13 -7 -14 -8 0 -8 -2 1 -6 10 -4 9 -9 -4 -24 -10 -11 -12
-19 -6 -19 7 0 12 -4 12 -10 0 -5 -7 -10 -15 -10 -9 0 -15 -6 -14 -12 3 -29
-3 -39 -52 -78 -48 -38 -52 -39 -64 -23 -10 13 -10 20 -2 25 7 4 -1 8 -18 8
-16 0 -41 7 -54 14 -13 7 -32 11 -43 8 -10 -2 -18 1 -18 7 0 6 -7 11 -16 11
-8 0 -12 5 -8 11 4 8 9 8 17 0 19 -19 47 -12 59 14 6 14 16 25 22 25 6 0 4 4
-4 10 -12 8 -12 11 3 28 9 10 17 24 17 30 0 17 61 46 69 33 4 -6 22 6 45 29
21 21 35 44 31 50 -4 6 -1 9 7 8 8 -2 12 5 10 20 -5 32 14 27 32 -10 20 -38
20 -38 0 -38 -11 0 -14 -5 -9 -17 5 -14 4 -15 -6 -6 -10 10 -9 16 1 28 7 8 11
18 8 20 -6 6 -68 -71 -68 -84 0 -6 9 -2 21 10 11 11 27 18 34 15 8 -3 17 -1
20 5 4 5 11 6 17 3 6 -4 5 -9 -3 -15 -7 -4 -10 -11 -6 -16 13 -12 27 20 16 33
-7 9 -4 16 10 24 12 6 21 16 21 22 0 6 -6 5 -17 -3 -14 -12 -15 -12 -9 0 5 8
4 16 -4 21 -9 5 -9 9 -1 14 6 4 11 2 11 -5 0 -8 4 -8 15 1 12 10 15 10 15 0 0
-8 3 -10 6 -7 4 4 1 13 -6 22 -8 10 -9 15 -2 15 6 0 16 -9 22 -19z m-1030
-180 c0 -5 -20 -31 -45 -59 -50 -55 -60 -77 -18 -38 28 27 45 27 23 1 -8 -9
-8 -15 -2 -15 6 0 17 9 25 21 15 20 15 20 13 -4 0 -13 -6 -23 -12 -20 -5 2
-19 -6 -30 -18 l-19 -22 25 7 c21 6 22 5 7 -4 -10 -7 -25 -9 -33 -6 -17 7 -19
-10 -1 -17 9 -4 9 -7 -1 -15 -15 -10 -35 -85 -21 -76 15 9 10 -3 -7 -21 -15
-15 -15 -17 1 -35 24 -27 3 -54 -34 -45 -25 6 -25 6 -7 -14 18 -20 18 -20 -9
-27 -21 -5 -31 -2 -41 11 -12 16 -18 17 -40 6 -20 -9 -30 -9 -40 0 -8 7 -27 9
-45 5 -17 -3 -42 -3 -55 0 -23 6 -24 7 -7 20 16 13 15 14 -9 8 -23 -5 -29 -2
-37 17 -5 13 -6 29 -3 34 3 6 -1 4 -10 -3 -12 -10 -21 -9 -44 2 l-28 15 28 11
c37 14 39 13 32 -7 -5 -16 -4 -16 8 1 9 11 20 15 28 10 10 -6 9 -3 -1 10 -11
13 -16 14 -22 4 -7 -10 -9 -10 -9 0 0 19 28 26 47 11 9 -8 14 -9 10 -2 -4 6
-1 14 5 16 8 3 6 6 -4 6 -10 1 -18 6 -18 12 0 6 7 8 16 5 22 -8 40 4 23 15
-11 7 -11 9 2 9 9 0 22 6 29 14 6 8 18 12 26 9 8 -3 20 2 27 11 8 11 30 18 61
20 33 3 52 9 58 21 9 15 11 15 22 -1 17 -22 39 -9 30 18 -4 13 -2 18 5 14 5
-4 27 16 48 43 37 48 53 61 53 42z m-1826 -26 c3 -8 -1 -21 -9 -29 -15 -15
-11 -46 6 -46 5 0 9 -9 9 -20 0 -21 -19 -44 -57 -70 -13 -9 -25 -31 -28 -52
-6 -29 -3 -40 14 -57 15 -15 17 -21 7 -21 -8 0 -18 5 -22 11 -4 8 -9 7 -15 -2
-5 -9 4 -24 27 -46 20 -18 33 -37 29 -43 -3 -6 1 -7 9 -4 11 4 16 0 16 -14 0
-11 4 -22 10 -24 5 -1 7 -14 3 -26 -3 -15 -8 -19 -13 -12 -4 6 -13 -15 -20
-48 -15 -74 -25 -91 -41 -75 -9 9 -15 8 -26 -3 -8 -8 -24 -14 -36 -13 -21 0
-21 1 3 11 l25 10 -29 9 c-17 5 -30 7 -30 6 -1 -1 -7 -12 -13 -24 -7 -13 -13
-34 -13 -47 0 -33 -17 -76 -30 -76 -5 0 -10 5 -10 11 0 5 4 8 8 5 5 -3 9 14
10 37 1 39 39 222 98 467 21 89 31 110 59 137 18 18 35 29 39 26 3 -4 6 1 6
11 0 9 -4 14 -10 11 -5 -3 -10 -1 -10 4 0 16 27 13 34 -4z m234 -107 c6 18 22
15 22 -5 0 -10 23 -42 50 -71 27 -29 57 -66 67 -82 9 -17 21 -30 25 -30 4 0 8
-5 8 -12 0 -17 51 -68 67 -68 8 0 12 -4 8 -9 -3 -6 1 -13 9 -18 21 -12 76 -90
76 -108 0 -8 -6 -15 -13 -15 -20 0 -280 267 -272 280 4 6 -18 34 -48 64 -92
91 -115 135 -45 89 29 -19 43 -24 46 -15z m-2373 -378 c11 -25 22 -47 25 -50
3 -3 10 -12 15 -21 6 -9 18 -27 27 -40 16 -23 15 -69 -1 -69 -18 0 -130 120
-151 160 -21 41 -21 44 -5 56 13 10 23 10 37 3 18 -10 19 -8 13 13 -12 39 18
1 40 -52z m768 -74 c4 -10 1 -13 -9 -9 -9 3 -14 -1 -14 -13 0 -11 -3 -29 -6
-41 -4 -14 -2 -23 5 -23 6 0 12 15 12 33 2 29 2 29 6 5 2 -15 -3 -38 -12 -51
-8 -14 -18 -48 -22 -76 -6 -51 -6 -51 -42 -51 -20 0 -31 4 -26 8 14 10 18 62
5 62 -5 0 -10 -7 -10 -15 0 -8 -3 -15 -7 -16 -5 0 -24 -2 -43 -5 -31 -4 -33
-3 -15 10 11 7 25 12 32 9 17 -7 16 7 -2 31 -8 11 -15 14 -15 8 0 -7 -9 -12
-21 -12 -11 0 -17 5 -14 10 4 6 -5 10 -21 10 l-26 0 23 -19 c31 -25 19 -38
-15 -16 -20 14 -32 15 -55 7 -16 -6 -33 -7 -37 -4 -4 4 -4 -1 -1 -10 4 -12 2
-15 -8 -12 -8 3 -24 -1 -37 -10 -25 -18 -42 -21 -33 -6 3 6 -1 7 -9 4 -9 -3
-14 -10 -11 -14 3 -5 -17 -17 -45 -27 -47 -18 -48 -19 -28 -32 18 -11 20 -11
15 2 -5 13 0 13 29 5 19 -5 44 -6 55 -3 20 7 49 -9 49 -26 0 -5 -12 -9 -27 -9
-25 -1 -26 -2 -10 -11 18 -11 18 -12 -2 -30 -30 -28 -91 -60 -102 -54 -5 4 -9
0 -9 -7 0 -8 -16 -20 -36 -27 -33 -12 -40 -11 -80 10 -24 12 -44 25 -44 29 0
8 -39 23 -52 21 -4 0 -5 6 -2 14 5 11 2 13 -10 9 -9 -3 -16 -2 -16 3 0 13 98
74 155 96 27 11 100 43 160 72 61 30 153 70 205 90 51 20 112 46 135 58 22 12
49 25 60 28 11 4 21 7 21 8 1 1 4 -6 7 -13z m581 -343 c-7 -26 -6 -26 35 -20
42 5 56 -9 29 -30 -23 -18 -137 -53 -153 -47 -8 4 -15 1 -15 -6 0 -9 -12 -11
-42 -7 -27 4 -37 2 -27 -4 11 -7 9 -9 -8 -9 -12 0 -25 5 -29 11 -3 6 -16 9
-28 7 -19 -4 -22 0 -22 33 l-1 37 63 6 c35 4 85 16 111 27 25 11 52 18 60 15
7 -3 13 -1 13 4 0 6 5 10 10 10 6 0 8 -11 4 -27z m-819 -108 c-4 -32 -12 -56
-21 -59 -8 -3 -14 -12 -14 -21 0 -12 -6 -14 -27 -9 -16 4 -33 11 -40 16 -6 5
-14 5 -17 0 -7 -12 39 -36 53 -28 6 4 11 2 11 -3 0 -25 29 -6 128 82 29 27 56
47 58 44 2 -2 0 -17 -6 -33 -5 -16 -11 -42 -14 -59 -6 -42 -7 -42 -15 -21 -4
12 -7 0 -8 -34 -1 -72 -11 -79 -75 -49 -64 29 -138 77 -156 102 -7 9 -19 17
-25 17 -7 0 -23 10 -37 21 l-25 21 29 -17 c21 -13 31 -14 34 -7 2 7 16 12 30
13 15 0 21 3 15 6 -7 2 -13 8 -13 11 0 12 59 34 71 26 8 -5 10 -2 6 8 -4 12
-1 14 13 11 12 -3 23 3 32 16 17 28 22 11 13 -54z m2105 -309 c0 -7 11 -35 25
-62 14 -27 30 -65 36 -84 7 -19 25 -62 41 -95 16 -33 28 -69 27 -80 -1 -11 3
-31 8 -45 8 -20 7 -26 -4 -28 -22 -6 -42 17 -49 57 -4 20 -17 56 -29 81 -13
25 -28 72 -35 105 -6 33 -18 79 -26 103 -16 50 -18 76 -4 67 6 -3 10 -12 10
-19z"/>
<path d="M11854 8485 c23 -78 38 -149 43 -207 3 -38 10 -68 14 -68 16 0 9 -25
-11 -42 -26 -23 -37 -67 -19 -79 22 -13 107 -29 123 -23 8 3 17 12 20 21 4 11
2 13 -9 9 -8 -3 -23 -9 -32 -13 -10 -4 -4 6 14 23 32 29 32 29 22 94 -11 78
-37 132 -102 219 -63 83 -71 92 -63 66z"/>
<path d="M12017 8484 c-3 -4 8 -34 25 -68 48 -93 48 -93 48 -131 0 -19 3 -35
8 -35 4 0 7 -36 7 -80 0 -44 1 -80 2 -80 2 0 14 10 28 22 17 15 23 28 19 42
-4 17 -3 18 5 6 8 -12 13 -7 26 25 30 71 30 96 -4 143 -17 23 -35 42 -40 42
-13 0 -19 -68 -12 -153 4 -43 3 -83 -1 -90 -4 -7 -8 15 -8 48 -1 80 -13 136
-44 220 -27 71 -47 101 -59 89z"/>
<path d="M10944 8374 c9 -34 -2 -84 -18 -84 -7 0 -25 -13 -40 -29 -33 -35 -93
-49 -128 -31 -40 21 -88 81 -88 111 0 15 -4 31 -10 34 -5 3 -10 0 -10 -8 0 -8
-11 -23 -25 -33 -30 -23 -34 -81 -8 -120 15 -24 88 -62 107 -56 4 2 13 -4 20
-12 6 -7 28 -17 50 -21 31 -5 38 -4 33 8 -4 10 9 17 44 26 42 11 48 15 38 28
-11 12 -8 13 17 9 16 -4 23 -3 17 0 -18 8 -16 27 1 21 7 -3 24 2 36 10 21 15
22 21 16 82 -4 45 -11 70 -23 79 -26 19 -36 14 -29 -14z"/>
<path d="M11136 8178 c-8 -12 -12 -26 -9 -31 3 -6 1 -7 -4 -4 -10 6 -28 -19
-25 -35 2 -7 -38 -13 -146 -22 -35 -3 -69 -9 -75 -13 -7 -5 -55 -8 -107 -9
-52 0 -116 -4 -142 -8 -58 -10 -114 12 -129 51 -9 25 -10 25 -29 8 -12 -11
-20 -31 -20 -50 0 -38 9 -50 24 -30 10 14 18 12 63 -10 35 -18 50 -31 46 -41
-3 -8 1 -14 10 -14 10 0 13 -7 10 -19 -3 -14 12 -37 56 -81 34 -34 61 -65 61
-69 0 -8 215 -4 258 5 12 2 22 11 22 20 0 11 6 14 23 9 15 -4 18 -3 8 3 -9 7
-10 12 -2 16 16 11 13 26 -5 26 -14 0 -14 2 -3 16 7 9 14 21 15 28 1 6 6 22
12 36 5 14 10 29 10 34 0 5 7 13 16 18 9 5 16 14 16 20 0 14 61 83 73 83 21 0
31 33 19 59 -14 32 -26 33 -46 4z m-208 -200 c10 -10 15 -10 22 2 12 19 35 -1
27 -23 -9 -25 -94 -76 -106 -64 -7 7 -14 7 -23 0 -9 -7 -31 -8 -65 -3 -70 12
-81 19 -72 50 4 14 8 18 9 10 1 -11 3 -10 9 4 7 17 8 17 23 2 21 -21 48 -20
63 1 11 14 15 15 28 4 19 -15 57 -6 57 15 0 17 12 18 28 2z"/>
<path d="M6176 8466 c6 -26 -13 -46 -26 -26 -4 7 -10 8 -13 3 -8 -13 3 -53 14
-53 18 0 8 -39 -11 -45 -11 -4 -18 -10 -15 -15 3 -5 -2 -15 -10 -24 -9 -9 -11
-17 -5 -21 16 -10 11 -44 -10 -65 -16 -16 -17 -20 -4 -20 11 0 14 -6 9 -21 -6
-18 -4 -20 17 -14 l23 7 -22 -17 c-13 -9 -23 -21 -23 -28 0 -8 3 -8 12 1 18
18 34 14 46 -12 8 -18 8 -26 0 -28 -8 -3 -7 -10 1 -26 7 -12 9 -27 6 -33 -8
-12 13 -39 29 -39 6 0 3 7 -6 14 -23 17 -23 30 -1 22 10 -4 26 3 45 21 43 41
34 93 -14 85 -10 -2 -18 1 -18 7 0 15 39 34 55 27 20 -7 31 14 14 26 -11 7
-11 8 3 6 9 -2 18 2 19 7 3 15 32 34 52 35 35 0 20 49 -32 100 -40 41 -51 47
-64 37 -8 -7 -17 -21 -19 -31 -5 -29 -23 -30 -36 -2 -12 26 -7 36 18 36 10 0
20 14 27 40 11 42 0 53 -25 28 -9 -9 -12 -9 -12 -1 0 7 5 15 11 19 8 4 7 9 -2
15 -26 16 -40 10 -33 -15z"/>
<path d="M6079 6285 c-6 -5 -151 -19 -186 -18 -13 1 -23 -4 -23 -9 0 -6 -9 -8
-20 -5 -11 3 -34 -1 -50 -10 -16 -8 -34 -12 -40 -8 -12 7 -12 -2 0 -30 5 -11
9 -14 9 -7 1 17 21 15 21 -3 0 -8 5 -15 11 -15 6 0 9 -7 5 -15 -3 -9 1 -16 9
-16 18 -2 19 -2 70 -17 22 -7 58 -12 80 -11 37 0 38 1 15 10 -20 8 -22 12 -10
19 8 5 21 10 29 10 8 0 20 8 27 18 10 14 15 15 25 5 17 -17 29 -16 29 1 0 7
15 28 34 47 31 30 33 34 18 46 -17 13 -45 17 -53 8z"/>
<path d="M7964 5969 c3 -17 6 -35 6 -40 0 -5 7 -9 15 -9 11 0 15 -11 15 -40
l0 -40 50 0 c47 0 50 1 40 19 -5 11 -10 30 -10 42 0 20 4 21 49 17 41 -4 47
-3 36 9 -8 7 -18 13 -23 13 -5 0 -16 10 -25 23 -13 20 -17 21 -47 10 -33 -12
-70 -3 -70 17 0 6 -10 10 -21 10 -19 0 -21 -4 -15 -31z"/>
<path d="M8705 5921 c-3 -10 -3 -27 1 -37 5 -16 4 -16 -5 -4 -9 13 -14 10 -36
-15 -35 -43 -32 -55 15 -55 36 0 40 -2 40 -25 0 -16 -6 -25 -15 -25 -11 0 -15
-11 -15 -40 0 -36 -3 -40 -24 -40 -13 0 -27 6 -29 13 -4 9 -6 9 -6 -1 -1 -7 6
-15 14 -18 8 -4 13 -10 10 -14 -3 -4 12 -11 33 -15 58 -12 192 -15 192 -4 0 5
-6 9 -14 9 -8 0 -22 7 -31 16 -8 9 -21 14 -28 11 -9 -3 -12 22 -12 100 0 77
-4 106 -14 112 -7 5 -10 14 -7 20 10 15 -1 14 -29 -5 -25 -17 -30 -12 -26 24
3 19 -7 14 -14 -7z"/>
<path d="M7396 5678 c10 -13 22 -25 26 -28 12 -10 16 -169 4 -173 -6 -2 0 -6
12 -9 13 -4 28 0 36 8 21 20 31 17 44 -11 11 -23 9 -25 -23 -31 -20 -3 -41 -2
-48 4 -8 7 -18 7 -27 2 -8 -6 -11 -10 -7 -10 4 0 -2 -10 -13 -22 -15 -16 -17
-24 -8 -27 7 -2 -3 -10 -22 -17 l-35 -13 40 6 c22 3 45 13 51 21 6 9 18 13 28
9 9 -4 16 -2 16 4 0 7 -12 9 -29 7 -22 -3 -28 -1 -24 10 4 8 18 12 39 10 18
-1 36 1 40 5 14 14 24 7 43 -32 14 -29 16 -42 7 -51 -14 -14 26 -50 55 -50 29
0 29 39 -1 105 -10 22 -26 63 -35 90 -27 79 -37 95 -62 102 -14 3 -22 11 -19
18 5 14 -43 65 -61 65 -6 0 -13 7 -17 15 -3 8 -11 15 -17 15 -7 0 -4 -9 7 -22z"/>
<path d="M5544 5495 c-9 -14 -21 -22 -27 -18 -7 4 -8 -11 -2 -48 4 -30 13 -98
20 -153 9 -72 16 -101 28 -108 10 -5 17 -16 17 -25 0 -13 -3 -14 -12 -5 -17
17 -33 15 -19 -2 6 -7 9 -20 5 -29 -3 -8 -1 -18 5 -22 6 -3 11 -2 11 2 0 5 7
18 15 29 15 18 16 17 10 -13 -5 -27 -4 -32 9 -27 11 4 17 -2 22 -22 4 -15 18
-43 31 -62 12 -19 23 -40 23 -46 0 -8 -2 -8 -8 0 -4 6 -18 14 -32 18 -14 4
-20 4 -13 -1 25 -18 36 -93 13 -93 -4 0 -6 9 -3 20 3 11 -4 32 -17 50 -16 23
-20 38 -15 63 5 24 4 28 -4 17 -6 -8 -11 -26 -11 -38 0 -36 49 -143 68 -150
14 -4 24 28 13 42 -5 6 -5 20 0 31 7 20 8 20 8 -1 1 -12 12 -33 26 -48 32 -34
31 -40 -2 -32 -21 5 -24 4 -13 -4 8 -5 23 -10 33 -10 10 0 15 -4 12 -10 -3 -5
-1 -10 5 -10 11 0 103 -62 137 -92 13 -12 27 -17 34 -12 8 5 11 3 7 -7 -6 -16
47 -24 57 -9 9 14 79 12 94 -2 10 -11 12 -8 9 12 -3 22 -10 26 -53 32 -45 6
-56 14 -115 76 -82 87 -119 134 -120 150 0 6 -4 12 -8 12 -5 0 -9 6 -10 13 -7
74 -15 104 -34 124 -20 21 -20 25 -7 65 8 24 14 45 15 48 6 55 49 160 65 160
5 0 6 6 3 13 -2 7 2 27 11 43 l15 29 -36 3 c-65 6 -116 -71 -133 -201 l-7 -52
-13 59 c-16 71 -9 114 24 152 32 37 29 52 -15 75 -19 10 -41 23 -47 29 -10 8
-13 7 -13 -2 0 -9 -3 -9 -12 0 -17 17 -26 15 -44 -13z"/>
<path d="M8114 4645 c4 -12 2 -13 -12 -6 -10 5 -73 9 -140 9 l-122 -1 0 -66
c1 -62 2 -64 15 -41 l13 25 7 -25 c4 -14 23 -36 43 -48 20 -13 31 -18 25 -11
-16 16 -17 55 -3 64 6 4 8 11 5 16 -4 5 -2 9 4 9 6 0 7 -15 4 -35 -4 -23 -2
-35 6 -35 6 0 11 6 11 13 0 6 10 23 21 37 11 14 18 19 14 11 -4 -7 -11 -29
-15 -47 -9 -38 -13 -36 78 -39 34 -2 69 -8 77 -15 8 -7 15 -9 15 -5 0 4 -8 14
-17 21 -10 7 -15 16 -11 19 4 4 15 0 24 -10 14 -13 19 -14 25 -3 6 9 9 6 10
-12 1 -14 1 -30 0 -37 -1 -6 3 -14 9 -18 6 -4 10 9 10 33 0 21 3 73 6 114 6
70 5 75 -14 80 -12 3 -23 1 -25 -6 -3 -7 -11 -5 -24 7 -24 21 -47 22 -39 2z"/>
<path d="M6300 4395 c-13 -34 -13 -48 2 -63 18 -18 30 -14 23 8 -4 12 -2 20 6
20 8 0 9 -10 5 -31 -3 -17 -6 -38 -6 -47 0 -13 -2 -13 -18 1 -23 21 -32 21
-32 2 0 -9 7 -18 15 -21 8 -4 15 -17 15 -29 0 -13 5 -27 10 -30 6 -4 17 -22
25 -41 11 -26 20 -34 39 -34 21 0 26 6 32 38 4 20 10 42 14 47 8 9 -7 83 -25
128 -8 20 -59 50 -69 40 -3 -4 -6 1 -6 10 0 28 -20 29 -30 2z"/>
<path d="M10450 6934 c-69 -83 -68 -84 49 -84 61 0 101 4 101 10 0 6 -4 10 -9
10 -5 0 -12 8 -15 18 -3 9 -23 36 -43 59 l-38 41 -45 -54z"/>
<path d="M12120 10795 c0 -14 33 -54 40 -50 5 3 11 -3 14 -12 3 -10 26 -31 51
-48 24 -16 45 -33 45 -37 0 -5 7 -8 15 -8 9 0 18 -6 20 -12 7 -18 75 -22 75
-5 0 14 -83 91 -94 88 -4 -1 -24 18 -44 43 -33 41 -41 46 -79 46 -24 0 -43 -2
-43 -5z"/>
<path d="M13475 10170 c-3 -6 1 -7 9 -4 10 4 16 1 16 -9 0 -8 6 -18 13 -21 6
-3 -1 -4 -16 -1 -17 3 -33 0 -42 -8 -12 -12 -10 -18 15 -42 17 -16 32 -37 36
-47 3 -10 9 -16 12 -14 4 2 16 -3 27 -11 20 -15 19 -15 -3 -8 -22 6 -22 6 3
-21 14 -15 26 -32 26 -38 1 -6 3 -18 4 -26 9 -69 73 -122 76 -62 0 9 6 -1 14
-23 l13 -40 1 36 c1 19 -8 53 -19 75 l-19 39 -1 -37 c0 -20 -5 -40 -12 -44 -8
-5 -9 3 -5 28 3 22 0 43 -8 54 -7 11 -22 36 -34 57 -20 36 -20 37 -1 37 13 0
20 -7 20 -20 0 -11 4 -20 10 -20 16 0 -9 52 -33 69 -12 9 -26 15 -30 13 -5 -1
-6 2 -3 7 3 5 -2 24 -11 42 -22 46 -45 61 -58 39z"/>
<path d="M14679 8336 c-2 -3 -16 -7 -29 -9 -45 -9 -61 -19 -56 -34 3 -8 -1
-21 -9 -29 -8 -8 -11 -22 -8 -31 5 -13 2 -15 -11 -10 -22 9 -43 -2 -26 -13 7
-4 13 -20 13 -35 0 -23 1 -25 9 -11 5 9 6 21 2 28 -4 6 -3 8 3 5 9 -6 24 14
27 35 1 3 4 10 9 14 15 15 6 -16 -18 -64 -14 -28 -25 -54 -25 -60 0 -11 25
-10 36 1 4 4 12 7 18 7 6 0 5 -5 -2 -12 -14 -14 -16 -48 -3 -48 6 0 13 5 17
12 5 7 3 8 -6 3 -10 -6 -12 -4 -6 11 5 10 13 31 18 47 5 15 14 27 20 27 6 0 7
-7 4 -16 -3 -9 -9 -27 -12 -41 l-7 -26 31 28 c17 15 29 32 25 37 -3 6 -9 4
-14 -3 -5 -8 -9 -9 -9 -3 0 5 4 14 9 20 6 5 11 32 12 59 1 28 7 53 13 57 6 4
7 10 3 14 -4 4 -16 -1 -27 -11 -16 -14 -23 -16 -32 -7 -9 9 -8 16 7 30 18 16
18 16 6 -1 -8 -9 -11 -20 -7 -24 9 -9 43 24 43 42 0 14 -9 20 -18 11z"/>
<path d="M15441 7553 c0 -18 2 -33 7 -33 7 0 25 -32 53 -96 13 -29 18 -34 37
-34 4 0 1 -4 -6 -9 -12 -7 -12 -12 0 -32 7 -13 17 -27 23 -31 6 -5 5 -12 -3
-20 -6 -6 -12 -22 -12 -33 0 -18 5 -21 30 -17 18 3 30 0 30 -7 0 -6 -5 -11
-12 -11 -6 0 -8 -3 -4 -7 4 -5 14 1 22 12 14 19 16 18 59 -28 24 -26 47 -56
50 -67 4 -11 10 -20 15 -20 5 0 7 -6 4 -13 -3 -8 3 -20 12 -28 16 -12 17 -12
11 4 -4 11 -3 16 3 12 6 -3 10 -13 10 -21 0 -9 11 -14 36 -14 28 0 35 3 30 15
-3 8 -1 15 5 15 41 0 19 143 -35 225 -18 28 -39 65 -47 83 -8 18 -24 35 -36
38 -20 5 -21 8 -7 21 11 11 12 19 5 26 -8 8 -15 5 -26 -9 -13 -17 -14 -17 -15
-1 0 14 -5 16 -25 11 -21 -5 -25 -3 -26 17 0 21 -2 22 -11 8 -10 -15 -15 -15
-51 -1 -36 15 -40 15 -52 -1 -14 -20 -25 -22 -25 -4 0 7 -9 18 -19 24 -11 7
-21 23 -24 35 -3 17 -5 15 -6 -9z"/>
<path d="M14975 7122 c23 -16 47 -64 36 -72 -14 -8 -4 -91 12 -101 5 -4 5 -9
-2 -13 -6 -4 -11 -2 -11 3 0 6 -7 11 -15 11 -18 0 -20 -16 -2 -23 7 -3 -6 -23
-36 -52 -66 -64 -51 -70 18 -7 30 28 77 61 105 74 27 13 49 27 50 32 0 11
-147 156 -158 156 -4 0 -2 -4 3 -8z"/>
<path d="M14895 6732 c-16 -8 -31 -19 -33 -24 -2 -4 -9 -8 -16 -8 -7 0 -17 -5
-23 -11 -7 -7 -26 -13 -42 -14 l-31 -3 20 26 c24 30 25 42 5 42 -8 0 -15 -6
-15 -12 0 -9 -4 -8 -11 2 -6 9 -12 11 -15 5 -2 -6 -23 -9 -45 -7 -26 3 -39 1
-35 -6 3 -5 -9 -13 -29 -16 -19 -4 -35 -11 -35 -16 0 -21 51 -41 106 -43 33
-1 62 -6 65 -11 8 -11 115 -36 155 -36 18 0 38 8 49 20 10 11 14 20 9 20 -17
0 -46 67 -39 89 7 24 1 25 -40 3z"/>
</g>
</svg>
