<?xml version="1.0" standalone="no"?>
<!DOCTYPE svg PUBLIC "-//W3C//DTD SVG 20010904//EN"
 "http://www.w3.org/TR/2001/REC-SVG-20010904/DTD/svg10.dtd">
<svg version="1.0" xmlns="http://www.w3.org/2000/svg"
 width="1920.000000pt" height="1080.000000pt" viewBox="0 0 1920.000000 1080.000000"
 preserveAspectRatio="xMidYMid meet">
<metadata>
Created by potrace 1.16, written by Peter Selinger 2001-2019
</metadata>
<g transform="translate(0.000000,1080.000000) scale(0.100000,-0.100000)"
fill="#000000" stroke="none">
<path d="M0 6924 c0 -3686 1 -3875 18 -3870 9 3 54 10 99 17 73 10 84 9 99 -5
9 -9 13 -24 10 -33 -6 -14 -8 -14 -21 3 -19 27 -142 25 -162 -2 -7 -10 -13
-12 -13 -6 0 7 -7 12 -15 12 -13 0 -15 -176 -15 -1520 l0 -1520 9600 0 9600 0
0 5400 0 5400 -2700 0 c-2700 0 -2700 0 -2700 -20 0 -20 -5 -20 -297 -18 -256
3 -298 5 -298 18 0 23 -32 24 -38 0 -5 -20 -11 -20 -301 -20 -289 0 -296 0
-296 20 0 11 -7 20 -15 20 -8 0 -15 -9 -15 -20 0 -20 -7 -20 -300 -20 -165 0
-299 3 -299 8 3 20 -2 32 -16 32 -8 0 -15 -9 -15 -20 0 -20 -7 -20 -301 -20
-165 0 -298 4 -295 8 2 4 1 14 -4 21 -11 19 -41 6 -34 -14 5 -13 -28 -15 -295
-15 -294 0 -301 0 -301 20 0 20 -7 20 -1090 20 -1033 0 -1091 -1 -1088 -17 3
-17 -18 -18 -294 -21 -293 -2 -297 -2 -293 18 3 14 -1 20 -16 20 -17 0 -24
-11 -20 -33 1 -4 -133 -6 -296 -5 -257 3 -298 5 -298 18 0 8 -11 17 -24 18
-20 3 -23 0 -18 -17 l5 -21 -296 2 c-276 3 -297 4 -294 21 2 12 -4 17 -22 17
-19 0 -24 -4 -21 -20 4 -20 -2 -20 -297 -20 -295 0 -300 0 -295 20 5 19 -2 20
-714 20 -474 0 -719 -3 -719 -10 0 -5 6 -10 13 -10 8 0 7 -4 -3 -10 -13 -8
-13 -10 1 -10 17 0 33 -47 18 -55 -4 -3 -19 6 -32 19 -52 51 -101 67 -210 68
-56 0 -144 -3 -195 -7 -63 -6 -114 -4 -160 4 -37 7 -87 11 -112 9 -43 -3 -40
-4 60 -31 80 -21 128 -27 201 -27 l96 0 7 -42 c13 -80 27 -117 60 -161 20 -26
31 -49 26 -56 -5 -9 -34 -11 -96 -8 -49 2 -102 1 -119 -3 -28 -7 -28 -8 -5 -9
45 -2 52 -14 27 -48 -21 -29 -23 -30 -59 -17 -57 19 -90 45 -83 63 5 12 3 13
-6 4 -9 -9 -20 -6 -48 14 -51 38 -81 70 -73 78 4 4 3 5 -3 4 -5 -2 -28 13 -50
34 -44 40 -72 51 -37 14 12 -13 19 -27 15 -31 -5 -4 -3 -6 2 -4 6 2 37 -24 70
-57 33 -33 91 -79 129 -102 68 -41 69 -42 41 -49 -16 -4 -60 -7 -99 -8 -70 -1
-72 0 -151 54 -74 52 -81 59 -100 115 -12 33 -35 86 -52 117 -17 32 -26 56
-20 55 14 -3 57 -47 57 -59 0 -5 4 -7 9 -4 5 3 12 -6 15 -20 5 -20 10 -23 21
-14 9 8 15 8 20 0 7 -12 25 -4 25 11 0 6 -4 8 -9 4 -5 -3 -13 0 -17 6 -4 7 -3
9 4 5 6 -3 13 -2 17 4 3 5 16 8 28 6 12 -3 26 -5 30 -5 5 -1 5 -5 2 -11 -3 -5
1 -10 9 -10 9 0 16 -5 16 -11 0 -5 4 -8 9 -4 5 3 16 -3 23 -13 7 -11 23 -22
36 -26 12 -4 20 -12 17 -17 -6 -8 8 -13 28 -10 4 1 7 -7 5 -16 -2 -11 2 -17
11 -15 7 2 25 -7 39 -20 14 -13 22 -17 18 -10 -5 8 1 12 19 12 15 0 38 9 52
20 14 11 36 20 49 20 13 0 34 5 47 11 21 9 25 18 23 50 0 21 -4 39 -8 39 -5 0
-8 9 -8 19 0 38 -43 57 -154 71 -62 8 -103 17 -99 23 3 5 -3 6 -17 2 -17 -5
-21 -4 -15 6 6 9 3 11 -10 6 -9 -4 -23 -3 -29 1 -6 5 -23 12 -38 16 -19 4 -26
11 -22 21 5 13 -218 15 -1920 15 l-1926 0 0 -3876z m3010 3837 c7 -9 45 -11
175 -12 68 0 127 -5 155 -14 25 -8 68 -17 95 -21 39 -5 45 -8 30 -14 -17 -7
-16 -9 13 -15 18 -4 35 -12 38 -16 8 -14 50 -10 64 6 7 8 16 13 20 10 5 -3 11
1 13 7 3 7 6 4 6 -7 1 -12 5 -25 10 -30 9 -11 51 -129 51 -145 0 -14 -74 28
-176 100 -44 31 -93 61 -110 65 -16 5 -92 9 -169 9 -124 1 -145 4 -187 24 -27
12 -58 26 -71 31 -13 5 -24 17 -24 26 0 13 7 14 31 9 17 -4 33 -9 36 -13z
m-45 -47 c20 -20 39 -33 42 -30 4 3 0 6 -7 6 -7 0 -11 2 -9 5 8 7 133 -42 137
-54 2 -6 -7 -11 -20 -12 -19 -1 -17 -3 10 -12 28 -8 40 -7 78 13 40 20 54 21
120 15 68 -6 79 -11 146 -59 40 -29 120 -80 178 -115 58 -34 116 -70 129 -80
l25 -19 -30 4 c-16 2 -8 -2 17 -9 58 -15 75 -29 104 -86 21 -41 57 -78 190
-193 22 -19 75 -58 118 -87 71 -48 80 -58 116 -129 21 -42 75 -131 118 -197
76 -115 91 -131 299 -318 157 -141 230 -214 258 -257 21 -34 67 -98 102 -143
44 -56 59 -84 51 -89 -8 -5 -5 -8 8 -8 14 0 29 -18 54 -65 l33 -65 -12 -87
c-17 -131 -18 -132 -46 -139 -14 -4 -27 -4 -30 -2 -2 3 0 27 5 54 6 27 12 82
14 122 4 68 2 77 -27 125 -27 44 -113 166 -146 204 -5 7 -10 15 -10 19 0 7
-61 86 -74 95 -4 4 -5 13 -1 20 5 8 5 11 1 8 -8 -7 -73 53 -69 63 2 4 -1 9 -7
13 -5 3 -10 2 -10 -3 0 -5 -21 12 -47 37 -27 25 -47 50 -45 54 1 5 -2 6 -7 3
-5 -4 -24 11 -41 31 -18 21 -29 31 -24 23 8 -15 -42 26 -121 99 -64 60 -127
140 -119 153 4 6 3 8 -3 5 -6 -4 -16 7 -23 23 -7 17 -17 30 -23 30 -6 0 -7 3
-4 7 4 3 -1 12 -11 20 -9 8 -11 11 -4 8 11 -6 12 -3 3 14 -7 11 -16 21 -21 21
-16 0 -80 119 -74 138 5 13 4 14 -4 3 -8 -11 -11 -9 -18 10 -4 13 -8 28 -9 33
0 5 -7 11 -15 13 -13 4 -13 3 0 -6 8 -6 11 -11 6 -11 -8 0 -46 30 -105 83 -14
12 -21 15 -17 7 4 -8 -15 8 -42 35 -28 28 -69 64 -91 80 -22 17 -40 37 -41 45
0 13 -1 13 -10 0 -5 -8 -10 -10 -10 -5 0 6 -14 25 -30 44 -17 18 -30 37 -30
41 0 11 -70 80 -82 80 -5 0 -7 4 -4 9 3 4 -12 13 -34 20 -42 12 -93 54 -81 67
3 4 0 4 -7 0 -11 -7 -48 16 -93 59 -9 8 -23 15 -33 15 -9 0 -28 11 -42 25 -13
13 -27 24 -30 23 -12 -2 -43 26 -38 34 3 4 2 8 -3 9 -4 0 -17 3 -28 6 -41 12
-123 11 -175 -2 -30 -7 -49 -14 -41 -14 8 -1 12 -3 10 -5 -8 -8 -89 16 -84 24
3 5 -9 13 -26 19 -17 6 -28 15 -24 21 4 6 -1 7 -11 3 -12 -4 -15 -3 -10 5 4 7
1 12 -7 12 -13 0 -45 27 -75 64 -25 31 8 16 43 -20z m2739 0 c17 -7 22 -34 6
-34 -5 0 -10 -6 -10 -13 0 -16 -38 -40 -50 -32 -12 8 -13 -5 -1 -24 6 -9 18
-11 35 -7 15 4 24 11 21 16 -3 5 1 7 9 4 8 -3 16 2 19 13 3 10 5 4 6 -14 0
-18 -4 -33 -10 -33 -7 0 -9 -11 -6 -26 4 -20 -2 -33 -22 -50 -17 -16 -20 -22
-8 -18 17 6 17 5 0 -31 -10 -20 -19 -32 -21 -25 -2 6 2 17 8 26 11 12 10 13
-5 8 -13 -5 -16 -4 -11 4 5 8 -2 12 -21 12 -33 0 -73 25 -73 45 0 8 -9 22 -20
32 -19 19 -19 19 4 21 16 1 27 -7 37 -26 8 -15 20 -31 27 -35 7 -5 10 -12 7
-18 -13 -20 21 4 39 27 18 25 18 25 -2 13 -32 -20 -50 -6 -48 40 2 36 -1 41
-20 41 -25 0 -40 15 -24 25 5 3 10 15 10 25 0 16 4 18 23 11 15 -6 31 -3 52
10 17 10 31 18 32 18 1 1 8 -2 17 -5z m-1166 -61 c35 -4 41 -8 31 -19 -6 -8
-18 -14 -25 -14 -8 0 -23 -9 -34 -20 -28 -28 -26 -78 5 -114 13 -16 22 -32 19
-37 -3 -5 3 -6 12 -2 12 4 15 3 10 -5 -4 -7 -1 -12 7 -12 8 0 22 -9 31 -19 10
-11 37 -26 60 -35 76 -27 228 -97 260 -119 44 -30 107 -102 98 -111 -4 -4 -2
-6 4 -4 12 4 76 -66 68 -75 -3 -3 0 -8 7 -13 8 -5 10 -3 4 7 -7 12 -6 12 7 1
29 -24 71 -132 51 -132 -5 0 -9 -11 -9 -25 -1 -14 -5 -33 -9 -43 -3 -9 -8 -51
-10 -92 -3 -41 -10 -108 -16 -147 -10 -64 -10 -79 6 -119 15 -40 16 -54 6
-100 -7 -30 -16 -56 -21 -59 -19 -11 -22 51 -15 243 9 236 8 234 34 301 11 29
17 60 14 69 -3 10 -26 38 -52 63 -25 26 -68 74 -96 108 -65 81 -84 94 -216
146 -136 54 -126 32 22 -46 59 -31 108 -64 120 -81 12 -16 19 -31 17 -33 -2
-2 -32 10 -67 28 -64 33 -258 189 -343 278 -26 27 -55 49 -64 49 -14 0 -15 7
-8 48 5 26 9 71 9 100 0 49 2 52 20 46 11 -3 39 -9 63 -11z m-3748 -28 c0 -21
27 -30 44 -16 21 18 44 -14 28 -40 -16 -25 -15 -27 11 -31 30 -4 38 -48 8 -48
-25 0 -36 -17 -22 -34 16 -19 3 -49 -18 -41 -9 4 -21 9 -28 12 -7 3 -15 -6
-19 -21 -8 -31 -44 -37 -44 -7 0 27 -15 34 -39 19 -29 -18 -51 4 -33 33 15 24
8 39 -19 39 -30 0 -22 44 9 48 24 4 28 12 11 29 -7 7 -9 19 -5 28 4 13 13 15
37 10 25 -6 31 -4 36 14 6 24 43 29 43 6z m4035 -527 c118 -79 114 -75 71 -93
-76 -32 -132 -36 -189 -15 -81 31 -159 100 -191 170 -16 33 -31 60 -36 60 -4
0 -24 11 -45 25 -20 15 -39 25 -41 23 -1 -2 17 -24 41 -49 24 -25 47 -58 50
-72 11 -43 120 -142 203 -183 43 -21 44 -23 19 -23 -15 -1 -46 8 -68 20 -23
11 -43 18 -45 16 -8 -8 61 -47 95 -53 17 -4 31 -10 31 -15 0 -13 -21 -11 -83
10 -32 10 -57 17 -57 15 0 -7 140 -74 154 -74 8 0 21 9 29 20 12 17 16 18 33
6 18 -14 18 -15 -7 -25 -72 -27 -92 -25 -189 24 -50 25 -94 44 -97 42 -5 -5
106 -73 168 -102 36 -17 40 -17 115 3 52 14 93 19 121 15 48 -6 49 -9 59 -124
l7 -74 -24 20 c-44 37 -67 64 -60 71 3 4 0 4 -7 0 -9 -5 -24 1 -40 17 -15 14
-40 31 -57 37 l-30 11 35 -38 c19 -21 56 -60 82 -88 25 -27 54 -69 63 -92 15
-39 16 -46 1 -90 -8 -26 -18 -65 -22 -85 l-6 -37 -57 29 c-55 28 -124 92 -192
180 -52 66 -202 360 -181 354 9 -3 7 1 -5 7 -11 6 -43 54 -69 107 -65 130 -70
191 -24 297 48 109 51 108 218 -54 80 -78 174 -158 227 -193z m5465 281 c0
-13 4 -18 12 -13 8 5 10 -9 5 -52 -6 -68 8 -45 18 28 3 26 10 50 16 53 6 4 8
-41 5 -122 -4 -90 -3 -114 4 -83 5 25 9 63 10 85 2 39 2 39 16 -20 8 -33 19
-161 24 -285 6 -124 13 -249 16 -277 8 -66 -9 -71 -36 -10 -14 32 -21 88 -30
237 -6 107 -13 197 -16 199 -2 2 -4 -4 -5 -15 0 -10 -15 24 -33 76 -18 52 -36
104 -40 115 -6 16 -6 17 3 5 16 -22 13 2 -3 25 -10 16 -14 51 -7 73 1 1 10 2
21 2 14 0 20 -7 20 -21z m380 14 c0 -5 -9 -19 -19 -32 -13 -17 -17 -36 -14
-73 4 -48 34 -141 55 -165 5 -7 6 -18 2 -24 -4 -7 -3 -9 3 -6 11 7 45 -28 36
-37 -9 -9 30 -7 43 2 33 21 56 88 64 191 10 112 18 151 30 151 13 0 21 -193
11 -266 -12 -84 -21 -109 -53 -148 -23 -28 -25 -28 -54 -13 -58 31 -83 60 -87
100 -2 21 -14 52 -27 69 -13 17 -31 56 -41 87 l-18 56 6 -60 c3 -32 14 -73 24
-90 20 -32 25 -75 9 -75 -5 0 -25 8 -45 17 l-35 17 6 55 c6 55 29 151 44 181
4 8 13 27 21 43 11 24 39 39 39 20z m356 -10 c-3 -10 -13 -52 -21 -93 -34
-163 -64 -219 -65 -118 0 20 -7 71 -15 114 -8 43 -13 85 -10 94 3 11 21 16 61
18 50 3 55 1 50 -15z m122 0 c-6 -8 -13 -51 -15 -96 -3 -45 -7 -89 -10 -97 -9
-22 -9 -22 -17 -65 -4 -22 -11 -48 -17 -57 -6 -12 -6 -18 2 -18 8 0 8 -4 2
-12 -7 -9 -6 -22 1 -39 10 -24 16 -27 59 -25 60 2 74 17 93 97 18 79 39 126
71 161 14 15 31 37 37 50 6 13 18 23 26 23 10 0 14 8 12 25 -3 19 -1 22 8 13
16 -15 4 -70 -18 -83 -9 -5 -13 -10 -9 -10 5 0 0 -13 -9 -29 -10 -17 -22 -27
-27 -24 -6 3 -7 1 -3 -6 4 -6 1 -22 -7 -34 -7 -12 -21 -43 -30 -70 -14 -42
-14 -51 -1 -82 18 -44 19 -40 -19 -64 -26 -16 -59 -22 -137 -27 l-103 -7 6 34
c4 19 10 54 13 79 4 25 10 47 14 50 6 5 44 195 56 281 4 29 11 46 20 46 11 0
11 -4 2 -14z m-6973 -49 c21 -11 43 -14 74 -9 42 6 44 6 38 -17 -4 -13 -12
-60 -18 -105 -7 -46 -15 -83 -19 -83 -3 0 -5 -13 -2 -30 2 -16 1 -30 -2 -30
-39 0 -264 162 -295 212 -8 13 -20 32 -27 44 -14 20 -12 20 44 16 31 -2 75 1
97 6 58 14 76 14 110 -4z m1895 -100 c0 -14 16 -88 35 -165 20 -77 49 -215 64
-307 27 -150 36 -184 99 -337 38 -93 104 -244 147 -334 48 -103 80 -185 85
-220 23 -148 23 -137 0 -116 -25 23 -26 11 -1 -23 10 -15 21 -43 23 -62 5 -33
0 -30 -104 80 -61 65 -124 142 -144 178 -36 63 -51 79 -38 40 5 -17 -6 -11
-54 28 -34 27 -81 62 -107 77 -25 16 -50 37 -56 48 -9 18 -7 19 18 13 15 -4
35 -13 44 -20 8 -8 21 -14 28 -14 7 0 9 -5 5 -12 -5 -8 -2 -9 10 -5 11 5 15 3
10 -5 -5 -7 -2 -9 9 -5 12 4 14 2 10 -10 -4 -11 -2 -14 5 -9 13 8 42 -8 80
-41 14 -13 28 -23 33 -23 4 0 17 -17 30 -37 26 -44 68 -85 80 -78 4 3 11 0 15
-6 5 -8 3 -9 -6 -4 -9 5 -11 4 -6 -3 12 -20 32 -13 45 15 8 18 9 29 1 37 -5 5
-10 23 -10 38 0 15 -5 28 -12 28 -6 0 -9 3 -5 6 5 6 -12 47 -53 126 -11 20
-17 45 -14 55 5 15 4 16 -5 3 -8 -12 -11 -12 -11 -1 0 19 -43 111 -52 111 -4
0 -5 7 -2 15 4 8 1 15 -5 15 -6 0 -11 5 -11 11 0 5 5 7 11 4 5 -4 -4 18 -21
49 -18 31 -33 66 -35 78 -4 32 -16 58 -26 58 -5 0 -9 13 -9 28 0 15 -4 32 -9
38 -15 16 -30 77 -46 189 -9 61 -23 135 -30 165 -23 89 -43 182 -49 222 -3 21
-7 41 -8 45 -3 15 21 63 32 63 5 0 10 -11 10 -26z m110 -99 c0 -7 4 -15 9 -17
4 -1 16 -41 25 -88 33 -167 38 -184 60 -227 13 -23 27 -39 31 -35 5 4 5 2 2
-4 -6 -10 20 -53 43 -74 3 -3 11 -18 18 -33 7 -17 17 -25 24 -21 7 4 8 3 4 -5
-8 -13 20 -45 33 -37 5 3 15 -2 22 -12 13 -16 13 -16 -6 -2 -19 14 -19 14 -6
-3 8 -10 20 -16 27 -13 9 3 11 0 7 -11 -4 -10 -2 -14 5 -9 6 3 14 1 17 -4 4
-6 18 -16 32 -21 14 -5 23 -12 20 -16 -8 -8 59 -41 99 -49 23 -4 42 0 64 12
33 20 76 84 84 125 2 13 6 31 8 39 1 8 27 35 57 60 33 27 61 61 72 87 10 24
22 43 27 43 15 0 23 -124 9 -129 -7 -2 -31 -24 -54 -49 -36 -37 -45 -43 -58
-32 -17 14 -21 0 -5 -16 7 -7 2 -30 -13 -70 -13 -32 -27 -67 -30 -77 -5 -14
-11 -16 -26 -8 -16 9 -21 6 -29 -19 -7 -18 -7 -41 -2 -60 l9 -31 -67 37 c-146
81 -291 191 -337 255 -6 8 -33 46 -61 84 -67 92 -71 100 -78 165 -7 55 -34
186 -62 291 -8 30 -14 60 -14 65 1 14 40 -76 40 -91z m4522 -171 c35 -31 64
-59 66 -63 1 -3 -28 -44 -64 -90 -51 -64 -68 -81 -75 -69 -18 33 -69 234 -69
275 l0 43 40 -20 c21 -11 68 -45 102 -76z m-4412 -310 c29 -42 71 -93 94 -114
115 -106 228 -194 292 -227 l71 -37 -53 -43 c-29 -24 -75 -73 -100 -109 l-47
-66 -19 23 c-34 43 -169 273 -175 299 -3 14 -9 30 -14 35 -21 27 -106 271
-109 313 -1 10 15 -8 60 -74z m721 -242 c19 -13 38 -33 42 -45 14 -36 49 -68
69 -61 10 3 18 1 18 -5 0 -14 -39 -90 -62 -120 -16 -21 -18 -22 -19 -5 0 18
-1 18 -9 -1 -8 -18 -9 -18 -9 -2 -1 10 5 25 13 33 12 11 13 21 4 44 -5 17 -7
38 -3 47 3 10 3 14 -1 10 -4 -3 -22 15 -40 41 -38 53 -78 80 -111 74 -18 -3
-24 -15 -33 -61 -6 -31 -17 -69 -26 -86 l-15 -30 8 30 c4 17 7 55 8 85 1 45
24 140 42 172 2 4 23 -16 47 -45 23 -28 58 -62 77 -75z m-1844 -34 c3 -29 4
-63 4 -75 0 -13 4 -23 10 -23 5 0 8 -4 5 -8 -3 -5 10 -24 29 -42 19 -19 35
-40 35 -47 0 -7 4 -13 10 -13 5 0 24 -19 41 -42 17 -24 35 -42 40 -40 6 1 4
-8 -2 -20 -12 -22 -11 -22 6 -8 11 9 16 10 11 2 -4 -7 -1 -15 8 -18 9 -3 13
-10 10 -15 -3 -5 -1 -9 3 -9 13 0 45 -59 38 -70 -4 -6 -2 -9 5 -8 6 2 18 -10
28 -27 9 -16 19 -32 22 -35 18 -16 59 -122 63 -162 3 -25 10 -55 16 -67 6 -11
11 -28 11 -37 0 -10 8 -26 17 -36 16 -18 16 -19 -11 -14 -16 3 -31 8 -35 11
-3 4 -8 39 -12 79 -5 65 -12 84 -69 187 -71 128 -153 241 -247 342 -69 74 -71
82 -56 205 7 64 14 61 20 -10z m1643 -163 c-7 -8 -17 -12 -23 -8 -6 4 -8 0 -4
-11 4 -10 3 -15 -3 -11 -6 3 -10 0 -10 -8 0 -8 -7 -20 -15 -27 -8 -7 -12 -17
-8 -23 3 -5 1 -7 -5 -3 -9 6 -29 -47 -24 -66 1 -5 -4 -7 -10 -5 -9 1 -12 -8
-11 -28 2 -19 -1 -25 -6 -17 -12 20 -31 -64 -31 -135 1 -78 24 -124 103 -206
37 -38 67 -72 67 -77 0 -5 9 -7 20 -5 18 3 20 -2 20 -46 l0 -49 -36 15 c-20 8
-38 15 -40 15 -2 0 -12 20 -23 45 -11 24 -35 58 -55 75 -67 59 -79 90 -80 204
-1 84 3 111 21 152 12 27 30 71 40 98 18 50 107 156 119 143 4 -4 1 -13 -6
-22z m-742 -189 c51 -32 154 -150 304 -346 69 -91 135 -173 146 -184 12 -10
40 -48 64 -85 24 -36 69 -102 101 -146 54 -74 57 -81 40 -93 -10 -7 -27 -10
-38 -7 -50 15 -97 17 -105 6 -5 -10 -9 -9 -13 3 -5 12 0 16 21 17 22 1 23 3 6
6 -12 2 -38 -3 -57 -11 -33 -13 -37 -13 -58 5 -12 10 -25 19 -28 20 -29 3 -60
12 -83 21 l-26 12 24 23 c14 13 35 23 47 24 21 0 21 1 2 9 -20 8 -18 10 20 14
6 1 16 5 23 9 6 5 17 5 24 1 8 -5 9 2 4 27 -5 19 -8 40 -9 47 0 6 -5 12 -10
12 -5 0 -7 7 -3 15 3 9 -3 24 -13 34 -11 11 -17 21 -15 24 2 2 -9 18 -26 35
-16 18 -30 35 -30 40 0 4 -11 24 -25 45 -17 24 -21 37 -13 37 7 0 4 6 -7 12
-20 12 -59 56 -61 70 -1 5 -3 11 -4 16 -1 4 -2 11 -1 16 1 5 -6 3 -15 -5 -16
-13 -16 -12 -5 10 7 13 8 21 3 17 -6 -3 -13 3 -17 14 -3 11 -11 20 -16 20 -6
0 -7 4 -4 10 4 6 -1 7 -11 3 -14 -5 -16 -3 -11 11 4 10 3 15 -3 11 -6 -3 -15
6 -20 20 -7 18 -15 25 -26 21 -9 -4 -14 -1 -12 8 3 15 -87 116 -102 116 -5 0
-12 9 -15 20 -4 11 -11 18 -16 15 -5 -4 -9 13 -9 37 l1 43 20 -38 c11 -20 36
-48 57 -61z m-48 -622 c0 -8 5 -12 10 -9 6 3 10 -2 11 -12 0 -10 3 -13 6 -5 2
6 9 12 14 12 6 0 7 -5 3 -11 -3 -6 0 -15 7 -20 10 -6 5 -8 -15 -6 -16 1 -31
-3 -33 -10 -3 -7 3 -9 16 -6 17 4 21 1 21 -16 0 -12 -4 -19 -10 -16 -5 3 -10
1 -10 -4 0 -6 6 -11 13 -11 8 0 7 -4 -3 -10 -13 -9 -7 -14 13 -11 10 1 9 -17
-1 -23 -5 -3 -7 -19 -4 -35 2 -16 -3 -44 -12 -62 -9 -18 -16 -41 -16 -53 0
-15 -3 -17 -11 -9 -13 13 -39 6 -39 -9 0 -5 6 -16 14 -24 19 -18 9 -59 -10
-43 -8 6 -14 19 -14 28 0 9 -5 22 -10 27 -8 8 -3 35 15 90 15 43 30 111 33
150 7 67 6 71 -13 70 -16 -1 -21 -10 -27 -51 -3 -27 -20 -90 -37 -138 -17 -49
-40 -139 -51 -200 -12 -62 -26 -120 -31 -129 -5 -10 -9 -32 -9 -49 0 -22 -5
-32 -20 -36 -23 -6 -24 -10 -5 -43 12 -22 11 -27 -7 -47 -12 -13 -33 -23 -48
-23 -23 0 -31 9 -58 63 -17 34 -40 83 -50 109 -13 31 -35 57 -63 77 -48 35
-65 38 -97 15 -13 -9 -25 -14 -26 -13 -2 2 -28 57 -59 121 -54 114 -55 118
-36 129 27 14 49 5 49 -21 0 -14 4 -19 12 -14 7 5 9 2 5 -9 -3 -9 0 -18 9 -21
8 -3 14 -11 14 -18 0 -20 34 -45 78 -59 25 -7 52 -26 72 -50 17 -22 40 -39 51
-39 25 0 37 -25 40 -85 2 -30 10 -58 21 -69 9 -10 15 -23 12 -28 -8 -12 3 -10
18 5 7 7 24 18 38 25 l25 12 -25 -5 -25 -6 24 14 c16 9 20 17 12 21 -6 4 -8
12 -5 18 12 19 31 198 21 198 -5 0 -6 14 -2 33 3 17 7 50 8 72 2 34 6 41 25
43 22 3 23 4 5 18 -17 13 -17 15 -1 24 10 6 15 17 11 25 -3 9 0 21 6 29 6 7 8
16 4 19 -3 4 2 10 11 13 14 5 15 9 4 15 -10 7 -10 9 0 9 6 0 12 10 12 21 0 31
48 69 88 69 22 0 32 -5 32 -16z m-845 -34 c7 0 15 -10 18 -21 9 -35 -63 -139
-129 -184 -63 -44 -69 -54 -78 -145 l-7 -65 -76 -44 c-60 -35 -77 -41 -84 -30
-5 8 -9 19 -9 25 0 6 -7 17 -15 24 -13 11 -15 6 -13 -36 3 -42 0 -49 -17 -52
-31 -4 -138 139 -186 248 -21 49 -36 96 -33 104 3 8 1 17 -5 21 -7 4 -9 -1 -5
-12 5 -16 3 -15 -13 2 -21 24 -64 55 -75 55 -5 0 7 -22 25 -49 19 -27 48 -86
66 -132 39 -101 32 -88 109 -189 35 -45 62 -83 60 -84 -1 -2 -27 -16 -56 -30
-52 -27 -187 -51 -217 -40 -39 15 45 84 103 84 20 0 31 4 27 10 -3 6 1 13 9
16 14 5 14 9 1 35 -9 16 -16 32 -16 36 0 5 -6 15 -13 23 -15 17 -30 52 -28 63
1 4 -2 7 -8 7 -5 0 -10 7 -10 15 0 8 -5 15 -12 15 -9 0 -9 3 0 12 14 14 16 32
3 23 -5 -3 -15 12 -21 32 -7 21 -18 44 -24 52 -8 12 -8 13 2 7 7 -4 4 7 -8 26
-23 38 -26 52 -7 42 6 -4 3 3 -8 16 -11 13 -14 20 -7 16 14 -8 45 18 34 29 -4
5 -2 5 5 1 7 -4 10 -13 7 -21 -4 -9 0 -12 14 -9 25 7 74 -35 91 -80 8 -19 18
-33 22 -30 4 2 10 -9 14 -26 4 -17 10 -28 15 -25 4 3 6 -5 3 -17 -3 -16 -2
-19 4 -10 7 9 13 2 23 -23 7 -19 20 -37 27 -40 8 -2 12 -9 9 -14 -3 -4 4 -17
16 -27 12 -11 18 -14 15 -8 -10 17 9 21 80 18 58 -3 64 -1 86 26 13 15 27 46
30 67 9 51 41 99 97 141 61 47 90 89 90 130 0 33 1 34 31 28 17 -3 37 -6 44
-6z m4035 -144 c8 -2 20 -12 26 -24 6 -12 13 -20 15 -17 3 2 25 -13 49 -34 38
-33 43 -41 32 -54 -9 -10 -10 -17 -2 -22 6 -4 9 -1 8 6 -2 6 3 14 10 16 6 3
12 0 12 -6 0 -6 7 -11 16 -11 9 0 12 5 8 13 -4 6 2 4 14 -7 12 -10 19 -23 15
-29 -4 -6 0 -8 10 -4 9 3 21 -1 29 -11 12 -15 11 -16 -4 -3 -15 11 -18 11 -18
0 0 -18 47 -54 71 -55 21 -1 24 9 9 37 -7 13 -7 19 0 19 5 0 10 -6 10 -14 0
-8 8 -22 18 -32 9 -10 18 -25 19 -33 1 -9 4 -33 7 -54 4 -24 2 -36 -4 -32 -12
7 -14 -18 -2 -29 4 -4 8 -12 8 -17 1 -5 2 -12 3 -15 0 -3 8 2 17 10 13 13 14
22 5 48 -17 47 -13 56 10 23 18 -26 20 -27 14 -6 -5 17 -4 21 5 16 6 -4 10
-18 7 -31 -2 -13 0 -24 6 -24 6 0 7 -3 4 -7 -4 -3 -3 -11 2 -17 5 -6 5 -20 1
-31 -7 -19 -7 -18 -20 5 l-13 24 -8 -22 c-9 -24 -2 -52 12 -52 5 0 9 5 9 11 0
6 7 3 16 -5 8 -9 15 -28 14 -44 -3 -45 1 -59 10 -29 5 15 5 40 0 56 -13 47 14
75 50 51 13 -9 13 -11 0 -19 -12 -8 -10 -14 13 -35 15 -14 29 -21 33 -15 11
18 54 -32 54 -63 0 -21 -6 -31 -24 -38 -24 -9 -26 -15 -41 -105 -4 -22 -12
-46 -18 -54 -7 -7 -12 -21 -12 -30 0 -13 -9 -15 -50 -13 -27 2 -54 8 -59 13
-6 5 -15 9 -20 9 -6 0 -4 -5 4 -11 11 -8 7 -9 -17 -5 -19 3 -33 1 -33 -4 0 -6
-22 -10 -48 -10 -26 0 -74 -9 -105 -20 -32 -11 -62 -18 -68 -15 -5 4 -9 1 -9
-5 0 -6 -5 -8 -11 -5 -7 5 -4 14 7 26 16 18 16 19 0 19 -9 0 -14 5 -11 10 4 6
3 9 -2 8 -16 -4 -73 33 -73 47 0 8 -4 15 -9 15 -9 0 -10 3 -35 80 -13 36 -13
47 -2 60 22 26 4 123 -26 145 -42 29 -60 -2 -48 -81 4 -27 4 -56 -1 -64 -7
-13 -8 -12 -9 3 0 9 -4 17 -10 17 -5 0 -10 -7 -10 -15 0 -8 -7 -15 -15 -15 -9
0 -12 6 -9 15 3 8 -3 30 -15 48 -12 19 -21 41 -21 49 0 9 -6 21 -14 27 -14 12
-33 117 -24 127 3 2 18 -2 34 -10 29 -15 69 -29 69 -25 0 1 10 -3 23 -10 20
-11 22 -10 22 15 0 25 2 25 40 19 43 -7 49 0 29 38 -12 22 -138 147 -149 147
-4 0 -14 6 -24 13 -16 12 -16 14 4 35 12 12 26 19 32 16 8 -5 9 -1 4 11 -5 15
-4 16 9 5 8 -7 12 -16 9 -21 -3 -5 3 -6 13 -2 10 3 15 2 10 -2 -4 -5 11 -19
33 -32 22 -13 40 -28 40 -33 0 -4 9 -6 21 -3 13 4 27 -2 41 -16 27 -30 32 -22
12 20 -19 39 -53 79 -67 79 -6 0 -3 -8 6 -17 13 -15 13 -21 2 -36 -8 -11 -16
-14 -19 -8 -4 5 2 15 11 21 17 11 17 11 1 6 -10 -3 -18 -2 -18 2 0 4 -14 16
-30 26 -17 9 -28 21 -25 26 3 5 -5 16 -17 24 -12 9 -19 16 -14 16 4 0 19 -9
33 -20 14 -11 20 -20 12 -20 -8 0 -5 -6 7 -14 16 -13 21 -12 36 1 10 9 22 12
30 7 10 -6 11 -5 1 7 -10 12 -8 14 12 14 28 -2 57 -23 52 -39 -2 -6 4 -23 15
-38 11 -16 17 -32 14 -37 -3 -5 6 -21 19 -35 14 -15 25 -31 25 -36 0 -5 8 -6
17 -3 12 5 15 2 10 -9 -3 -9 1 -24 9 -35 14 -16 14 -16 3 7 -12 24 -11 25 8 8
11 -10 23 -18 26 -18 14 0 5 17 -33 60 -37 42 -52 68 -31 56 5 -3 12 1 15 10
3 8 2 12 -4 9 -5 -3 -19 -1 -30 5 -18 10 -19 14 -8 28 8 10 9 13 1 9 -7 -4
-14 0 -17 10 -7 21 -62 59 -79 55 -9 -3 -9 0 1 9 6 7 12 18 12 24 0 5 -4 5 -8
-2 -6 -9 -16 -5 -37 14 -21 18 -24 24 -10 19 11 -5 27 -9 35 -10z m1965 -66
c4 -11 10 -18 14 -15 12 7 44 -32 36 -44 -3 -7 2 -11 14 -11 11 0 23 5 26 10
10 16 25 11 25 -8 0 -11 -10 -24 -22 -30 -20 -10 -18 -10 15 -6 41 6 41 6 38
-88 0 -30 3 -48 10 -48 8 0 9 -4 0 -13 -6 -8 -8 -16 -5 -19 3 -4 -9 -9 -26
-13 -40 -9 -45 -4 -49 41 -1 9 -6 12 -13 8 -9 -5 -9 -2 1 9 7 9 9 17 3 17 -5
0 -8 9 -5 20 3 11 0 20 -6 20 -6 0 -11 4 -11 9 0 5 -16 33 -35 62 -19 30 -35
50 -35 46 0 -5 -7 -1 -16 7 -15 15 -13 26 11 53 15 18 23 16 30 -7z m-4721
-193 c7 -4 2 -14 -14 -26 -14 -11 -21 -23 -17 -27 4 -4 7 -2 7 4 0 7 5 12 11
12 6 0 9 -9 6 -20 -4 -17 -2 -18 15 -9 16 8 23 8 29 -2 7 -11 9 -10 9 4 0 15
3 16 20 7 11 -6 18 -15 15 -20 -3 -4 5 -6 17 -2 21 5 22 4 9 -12 -8 -9 -21
-14 -29 -11 -10 3 -12 0 -8 -10 3 -10 -1 -15 -12 -15 -11 0 -18 -8 -18 -20 0
-11 5 -20 10 -20 17 0 -28 -29 -45 -30 -9 0 -19 -9 -22 -21 -3 -12 -11 -19
-19 -16 -7 2 -25 -2 -40 -9 -28 -14 -46 -5 -32 18 5 8 2 9 -11 4 -15 -5 -16
-4 -5 8 10 13 9 19 -4 32 -20 19 -21 18 -30 -18 -5 -21 -2 -30 14 -38 11 -6
20 -14 20 -18 0 -15 -47 -7 -65 12 -18 18 -19 17 -37 -18 -10 -20 -24 -36 -31
-36 -8 0 -8 3 2 9 7 5 11 13 7 19 -3 5 1 15 9 22 17 14 20 50 5 50 -5 0 -7 -6
-4 -14 7 -18 -12 -30 -22 -15 -4 8 -3 9 4 5 8 -5 11 3 8 26 -2 18 0 43 5 56 6
16 6 29 -2 38 -6 8 -8 14 -4 14 4 0 1 7 -6 17 -12 14 -12 16 1 11 8 -3 14 -13
14 -22 -1 -9 2 -16 7 -16 5 0 9 -7 9 -17 0 -9 3 -14 6 -11 3 4 1 22 -4 42 -6
21 -7 36 -1 36 5 0 9 -7 9 -15 0 -12 4 -13 18 -6 13 7 18 20 17 40 -1 17 2 28
8 24 5 -3 6 3 2 16 -5 17 -2 21 14 21 14 0 21 -6 21 -20 0 -25 11 -25 44 1 14
11 30 18 35 14 5 -3 13 0 17 6 4 8 10 5 17 -7 6 -11 15 -22 21 -27z m-1334
-112 c20 -38 43 -81 52 -95 8 -14 18 -37 22 -51 3 -14 24 -46 46 -72 l41 -46
-30 -16 c-17 -8 -34 -15 -39 -15 -5 0 -42 66 -81 148 -40 81 -76 155 -82 164
-13 25 -11 82 3 96 9 9 14 6 22 -16 6 -15 27 -58 46 -97z m5215 98 c45 -29 60
-44 94 -93 14 -19 46 -60 73 -91 26 -30 48 -61 48 -67 0 -7 5 -12 12 -12 8 0
8 -4 -2 -14 -17 -16 -70 -10 -70 8 -1 6 -16 29 -36 51 l-34 40 5 -31 c3 -17
12 -44 20 -60 21 -40 19 -60 -7 -78 -30 -21 -16 -31 23 -17 39 13 82 14 74 2
-3 -5 -19 -12 -35 -16 -17 -4 -30 -12 -29 -18 3 -29 -4 -38 -46 -58 -34 -16
-54 -19 -82 -14 l-36 7 29 24 c16 13 41 31 56 39 l27 15 -23 47 c-17 32 -24
61 -23 95 1 26 -1 48 -5 48 -5 0 -7 3 -6 8 0 4 -2 16 -6 27 -17 43 -37 112
-40 136 -1 3 -9 13 -18 23 -36 36 -17 35 37 -1z m-430 -13 c8 7 15 9 15 4 0
-5 5 -2 11 6 9 13 10 12 5 -2 -3 -10 2 -24 10 -33 14 -13 13 -15 -9 -15 -13 0
-32 -9 -42 -20 -10 -11 -15 -20 -10 -20 4 0 3 -6 -2 -12 -6 -7 -9 -22 -7 -32
1 -11 -8 -33 -22 -49 -13 -15 -24 -25 -25 -20 -1 4 -4 -2 -7 -13 -7 -20 -8
-20 -24 12 -14 27 -14 32 -3 27 8 -3 12 -10 8 -17 -3 -6 0 -5 8 2 12 12 9 18
-21 43 -19 16 -29 29 -22 29 7 0 11 4 7 9 -3 5 4 12 15 16 21 7 28 35 9 35 -6
0 -9 9 -6 20 3 10 0 21 -7 24 -6 2 5 3 24 1 19 -1 27 0 18 2 -10 2 -18 8 -18
13 0 5 7 7 15 4 9 -4 15 -1 15 7 0 7 10 3 25 -11 20 -19 27 -21 40 -10z
m-5094 -190 c28 -17 71 -33 96 -37 40 -5 46 -10 68 -52 12 -25 39 -66 58 -91
20 -24 35 -46 33 -47 -2 -2 -39 -10 -82 -17 -69 -13 -81 -12 -96 1 -15 13 -16
13 -12 -4 4 -15 -14 -25 -103 -62 -175 -71 -169 -67 -208 -138 -19 -35 -54
-89 -76 -120 -40 -53 -109 -168 -109 -181 0 -3 12 5 27 19 21 19 25 20 20 6
-4 -10 -7 -31 -7 -47 0 -24 -9 -33 -67 -66 -81 -44 -190 -66 -268 -53 -27 4
-68 8 -90 7 -33 0 -27 -3 40 -19 61 -15 99 -18 163 -14 46 4 91 8 100 11 9 3
-3 -6 -28 -20 l-45 -25 40 6 c22 3 52 12 67 19 15 8 30 14 33 14 11 0 -25 -73
-54 -109 -28 -34 -32 -36 -93 -36 -34 -1 -72 -6 -83 -13 -17 -11 -11 -12 35
-7 61 6 93 -6 72 -27 -20 -20 -14 -33 7 -14 11 10 24 15 30 12 24 -15 247 70
329 124 l32 22 0 -24 c0 -38 -33 -80 -108 -137 -39 -30 -70 -56 -68 -58 2 -2
42 20 90 48 98 59 126 97 126 171 1 40 7 50 86 138 47 52 90 108 97 123 l12
28 43 -40 c46 -43 48 -46 30 -57 -7 -5 -8 -3 -3 7 8 12 6 12 -8 1 -9 -8 -20
-11 -25 -8 -5 3 -9 -1 -9 -9 0 -8 5 -11 10 -8 5 3 22 7 38 8 24 2 27 0 18 -11
-7 -8 -9 -17 -5 -21 3 -3 6 -1 6 6 0 23 23 6 27 -20 2 -19 1 -21 -7 -9 -7 11
-10 11 -10 2 0 -8 -5 -10 -12 -6 -10 6 -10 5 -1 -8 7 -8 11 -18 8 -22 -3 -3 1
-2 7 4 15 12 31 13 24 1 -4 -5 2 -8 11 -7 10 2 22 -2 26 -8 6 -7 7 -6 4 4 -2
8 -10 15 -17 15 -7 0 -15 11 -17 24 l-3 24 19 -24 c16 -20 21 -21 35 -10 19
16 22 1 4 -18 -11 -10 -10 -12 2 -9 8 2 18 8 22 13 4 6 8 2 8 -9 0 -26 -41
-66 -67 -66 -13 0 -23 -4 -23 -10 0 -5 5 -10 10 -10 24 0 -33 -40 -57 -41 -16
0 -37 -4 -48 -8 -17 -7 -16 -9 12 -15 29 -7 31 -9 18 -22 -8 -9 -15 -21 -15
-29 0 -7 -6 -15 -14 -18 -12 -5 -14 -24 -10 -98 3 -68 1 -95 -8 -101 -20 -12
-40 -10 -32 5 4 6 3 9 -1 4 -5 -4 -22 5 -39 20 l-29 28 21 -32 c30 -42 28 -48
-15 -61 -29 -9 -39 -9 -45 1 -6 9 -8 9 -8 0 0 -7 -10 -12 -22 -12 -17 1 -19 2
-5 6 9 2 17 8 17 13 0 5 3 17 6 27 5 17 5 17 -6 1 -6 -10 -17 -18 -24 -18 -7
0 -25 -9 -40 -21 -14 -11 -26 -18 -26 -14 0 3 -5 3 -12 -1 -7 -5 -4 -10 11
-16 12 -4 19 -12 16 -18 -4 -6 -11 -8 -16 -4 -6 3 -20 -2 -31 -13 -12 -10 -18
-12 -13 -4 6 11 4 13 -10 7 -15 -5 -16 -4 -5 9 11 13 10 14 -5 9 -14 -6 -16
-4 -10 6 5 9 4 11 -4 6 -6 -4 -9 -10 -7 -14 2 -4 -8 -7 -22 -8 -15 -1 -49 -6
-77 -13 -27 -7 -59 -12 -69 -12 -10 0 -28 -7 -40 -16 -21 -15 -21 -15 4 -10
l25 6 -28 -25 c-15 -13 -35 -24 -43 -24 -25 0 -16 -37 11 -44 13 -3 29 -15 35
-26 6 -11 15 -20 21 -20 6 0 7 5 4 10 -12 20 6 30 23 14 15 -16 17 -15 22 7 4
14 9 -8 13 -56 3 -44 11 -94 17 -110 9 -28 15 -31 60 -33 28 -1 50 2 50 7 0 5
7 12 16 15 8 3 12 2 9 -4 -8 -13 48 -46 113 -67 45 -14 51 -19 46 -37 -6 -19
-4 -18 16 4 l23 25 -6 -25 c-6 -24 -6 -24 9 -5 11 14 15 15 14 5 -5 -36 0 -41
40 -37 22 2 43 6 46 10 13 12 -6 57 -25 57 -14 0 -18 8 -18 35 0 38 8 43 30
20 8 -8 17 -12 19 -9 3 2 18 0 33 -6 30 -11 60 3 48 23 -3 5 -1 7 5 3 6 -3 13
-2 16 2 9 14 56 1 56 -15 0 -10 5 -11 18 -5 27 14 75 9 79 -8 3 -9 1 -11 -4
-5 -15 20 -73 3 -73 -21 0 -13 -30 -34 -49 -34 -6 0 -11 6 -11 14 0 25 -18 27
-57 6 -27 -15 -39 -17 -44 -8 -5 7 -11 9 -15 5 -4 -3 5 -25 19 -46 21 -32 23
-39 9 -34 -15 6 -16 5 -2 -13 8 -10 23 -29 34 -41 11 -13 15 -23 10 -23 -5 0
-87 20 -182 44 -168 43 -176 46 -267 108 -52 34 -94 70 -95 79 0 22 -11 31
-25 19 -13 -11 -164 78 -270 158 -92 70 -94 70 -35 8 31 -33 126 -104 220
-168 140 -94 178 -125 255 -210 127 -140 127 -139 128 -206 l2 -58 -102 58
c-88 51 -103 63 -109 90 -6 30 -107 148 -126 148 -4 0 1 -17 12 -37 11 -20 18
-39 15 -41 -2 -3 -45 34 -96 82 -86 82 -202 156 -244 156 -27 0 -143 57 -234
115 -48 30 -90 55 -95 55 -22 0 46 -67 120 -117 105 -71 97 -67 163 -93 96
-39 183 -105 310 -234 113 -116 132 -131 236 -186 124 -67 144 -82 126 -103
-6 -8 -7 -18 -3 -22 4 -5 1 -5 -5 -1 -8 4 -13 1 -13 -9 0 -9 -5 -13 -10 -10
-6 4 -8 10 -6 14 3 4 -14 8 -37 10 -23 1 -44 6 -45 12 -2 5 -21 12 -43 15 -23
4 -39 12 -39 20 0 8 -4 14 -10 14 -5 0 -10 -7 -10 -15 0 -8 -4 -15 -10 -15 -5
0 -10 6 -10 14 0 13 -27 31 -42 28 -4 -1 -12 7 -18 18 -11 21 -60 50 -83 50
-18 0 -34 -73 -18 -78 6 -2 11 -12 11 -23 0 -10 4 -19 9 -19 5 0 11 -14 15
-30 5 -27 8 -29 25 -21 15 8 20 7 25 -5 3 -9 3 -21 -1 -27 -4 -7 -8 -37 -9
-67 -3 -95 -1 -90 -34 -83 -32 6 -41 -12 -18 -35 9 -9 9 -12 -1 -12 -11 0 -12
-13 -8 -54 5 -49 3 -55 -22 -77 -16 -13 -37 -26 -47 -27 -10 -2 -26 -10 -35
-18 -8 -8 -25 -14 -37 -14 -12 0 -26 -9 -32 -20 -6 -11 -17 -20 -25 -20 -8 0
-14 -6 -13 -12 2 -8 -10 -14 -27 -16 -16 -2 -36 -8 -42 -14 -9 -8 -13 -7 -13
3 0 9 -3 10 -8 3 -18 -27 -64 -41 -103 -31 -31 7 -41 6 -55 -8 -16 -16 -35
-15 -80 2 -12 4 -15 3 -10 -5 4 -7 16 -12 26 -12 28 0 14 -27 -22 -42 -21 -9
-37 -28 -54 -65 -14 -29 -31 -53 -39 -53 -8 0 -15 -5 -15 -11 0 -8 -5 -7 -15
1 -15 13 -15 21 2 23 12 1 39 38 48 65 7 23 6 23 -17 8 -14 -9 -27 -14 -30
-10 -9 8 -58 -42 -58 -60 0 -24 -27 -19 -34 7 l-6 22 -19 -22 c-11 -13 -26
-23 -35 -23 -20 0 -21 36 -1 44 26 9 17 33 -14 38 -17 2 -28 1 -26 -2 3 -4
-13 -15 -35 -25 -22 -10 -42 -26 -45 -36 -4 -11 -13 -19 -21 -19 -8 0 -14 -7
-14 -15 0 -8 -4 -15 -10 -15 -5 0 -10 10 -10 23 0 23 -17 47 -32 47 -4 0 -8
-7 -8 -16 0 -11 -6 -15 -20 -11 -11 3 -23 1 -26 -4 -3 -5 5 -9 18 -10 23 -1
23 -1 -2 -8 -19 -6 -27 -3 -32 11 -4 10 -10 18 -13 18 -4 0 -4 -4 0 -10 3 -5
-3 -18 -15 -30 -11 -11 -20 -27 -20 -36 0 -8 -7 -22 -15 -30 -8 -9 -14 -23
-14 -32 1 -15 2 -15 6 1 6 21 17 21 76 1 52 -18 56 -24 27 -42 -12 -7 -25 -24
-31 -38 -7 -21 -14 -25 -32 -19 -19 6 -47 12 -69 14 -4 1 -11 16 -16 34 -6 22
-15 33 -31 35 -12 2 -31 10 -40 19 -19 16 -109 24 -117 11 -8 -13 -27 -9 -21
5 3 7 -3 13 -13 13 -10 0 -16 -4 -14 -8 13 -21 -17 -5 -36 20 -12 15 -19 21
-15 15 7 -15 4 -16 -20 -7 -13 6 -14 9 -3 16 10 7 8 8 -7 7 -42 -3 -66 1 -60
11 4 6 -15 9 -52 8 l-58 -1 50 -7 50 -6 -75 -7 c-101 -8 -109 -10 -104 -19 3
-4 0 -8 -5 -8 -17 0 -24 -2 -50 -12 -21 -8 -22 -7 -11 7 8 9 22 14 32 12 15
-4 16 -2 8 14 -8 14 -6 23 10 39 20 20 20 20 0 20 -11 0 -20 -7 -20 -15 0 -18
-12 -19 -28 -3 -6 6 -27 11 -47 10 -38 -1 -46 11 -18 27 28 15 9 22 -26 10
-26 -9 -35 -9 -41 1 -10 16 -1 80 13 98 8 10 7 16 -1 21 -8 5 -2 18 19 44 16
20 29 40 27 44 -2 4 8 9 22 11 14 2 31 11 37 19 7 9 29 24 50 33 l38 17 -45
-2 c-25 -1 -35 -1 -22 2 35 7 30 48 -9 65 -25 11 -59 60 -59 85 0 7 49 -2 73
-12 10 -4 17 -3 17 4 0 6 -10 11 -22 11 -20 0 -20 1 -5 18 10 10 17 22 17 25
0 14 -43 6 -56 -10 -12 -16 -13 -16 -14 -2 0 21 45 69 65 69 8 0 15 5 15 11 0
6 9 8 20 4 24 -8 25 3 5 51 -16 38 -13 54 11 54 8 0 14 10 14 24 0 13 7 29 15
36 8 7 15 20 16 29 0 10 2 11 6 4 2 -7 9 -13 15 -13 6 0 7 7 4 16 -5 12 -2 15
13 11 14 -3 17 0 14 13 -3 10 4 24 16 32 12 8 18 17 15 20 -11 12 50 48 82 48
18 0 35 4 39 9 3 5 19 12 35 16 16 4 29 10 29 13 -3 20 3 32 15 32 19 0 31 39
17 53 -8 8 -11 6 -11 -6 0 -9 -9 -21 -20 -27 -11 -6 -20 -21 -21 -33 0 -12 -3
-16 -6 -9 -2 6 -13 12 -23 12 -10 0 -20 -6 -23 -12 -3 -10 -7 -10 -17 -1 -7 6
-18 9 -25 7 -7 -3 -16 -1 -19 5 -5 7 -19 5 -42 -6 -28 -14 -39 -15 -54 -5 -11
7 -31 12 -44 12 -14 0 -28 5 -32 11 -3 6 -19 9 -35 5 -19 -3 -34 0 -44 10 -9
9 -25 14 -35 11 -17 -4 -20 0 -20 28 0 19 -4 37 -10 40 -5 3 -10 16 -10 27 0
27 11 16 27 -25 l13 -32 -6 33 c-5 29 -3 32 17 30 12 -2 24 3 26 10 3 7 -4 12
-16 12 -27 0 -27 15 -1 33 13 9 18 20 14 31 -7 19 16 22 34 4 8 -8 15 -8 28 3
13 11 18 11 21 2 7 -19 36 -16 54 5 9 9 24 22 35 28 15 9 19 23 19 65 0 46 3
54 20 57 60 9 65 12 65 43 0 27 2 29 21 19 24 -13 41 -4 19 11 -11 7 -6 8 14
3 27 -6 28 -5 22 19 -6 27 1 57 14 57 5 0 7 -22 6 -50 -2 -27 1 -50 6 -50 4 0
8 5 8 10 0 6 5 10 10 10 6 0 10 -7 10 -15 0 -18 11 -19 29 -2 12 10 13 9 7 -7
-4 -12 0 -23 11 -32 25 -19 35 -17 29 4 -4 10 1 22 12 28 16 11 86 27 121 28
8 1 16 7 18 14 6 16 -118 17 -135 0 -9 -9 -15 -9 -24 0 -7 7 -22 12 -35 12
-13 0 -24 5 -24 10 -1 6 -2 15 -3 20 0 6 -7 14 -14 19 -9 5 -6 13 13 31 23 22
25 22 25 4 0 -15 5 -12 23 13 12 18 27 33 32 33 13 0 45 36 45 50 0 6 -7 10
-15 10 -8 0 -15 5 -15 10 0 6 5 10 10 10 6 0 16 12 22 26 7 16 18 24 27 21 9
-3 23 -7 31 -9 8 -3 12 -3 8 -1 -5 3 -8 12 -8 20 0 12 7 14 37 8 21 -4 41 -11
44 -16 4 -6 22 -6 50 0 44 10 68 1 91 -35 6 -9 23 -6 63 9 30 11 54 22 52 24
-2 2 -23 -4 -47 -12 -42 -15 -68 -12 -41 4 7 5 11 13 7 19 -3 5 1 12 9 16 25
9 17 33 -15 46 -19 8 -52 11 -85 7 -58 -6 -68 0 -35 21 12 7 24 23 29 35 21
57 22 67 7 73 -18 7 -46 -17 -46 -39 0 -25 -27 -40 -57 -32 -16 4 -54 6 -85 5
-60 -1 -79 13 -30 23 19 4 33 16 44 39 15 33 18 34 79 38 35 2 79 3 97 3 20 0
32 6 32 14 0 7 -8 13 -19 13 -10 0 -21 8 -23 18 -4 15 4 17 64 18 38 1 71 4
74 7 3 3 6 22 6 42 0 30 3 35 16 30 32 -12 37 -10 40 23 3 30 22 47 22 19 0
-11 39 -37 55 -37 2 0 -3 14 -11 30 -9 17 -20 30 -25 30 -5 0 -9 5 -9 11 0 5
4 8 9 5 5 -3 20 3 32 15 17 14 20 22 12 25 -22 9 -14 27 8 21 21 -6 89 37 89
56 0 11 -48 9 -55 -3 -4 -6 -11 -8 -16 -4 -6 3 2 13 18 21 21 11 33 12 51 4
31 -15 67 -14 80 2 7 8 40 12 95 12 75 0 84 2 73 15 -8 8 -13 22 -13 32 0 22
27 11 27 -11 0 -9 5 -22 12 -29 14 -14 48 -16 48 -3 0 5 21 19 48 32 26 12 49
26 52 30 3 4 12 4 20 -1 8 -6 20 -10 26 -10 15 0 34 45 34 80 0 36 26 41 53
10 9 -11 12 -20 7 -20 -6 0 -10 -6 -10 -14 0 -30 21 -26 54 9 19 20 37 32 40
27 3 -6 0 -12 -8 -15 -11 -4 -31 -68 -27 -87 1 -3 13 -8 27 -12 22 -6 25 -4
21 11 -3 14 0 17 13 14 13 -4 19 2 22 18 2 14 12 25 25 29 24 5 73 45 73 58 0
4 23 25 50 46 l50 38 -25 24 c-14 13 -25 30 -25 38 0 21 39 46 72 46 17 0 31
7 38 19 5 11 23 22 40 26 16 4 30 10 30 14 0 9 63 36 118 51 25 6 42 17 42 26
0 8 11 19 25 26 13 6 22 14 20 18 -2 4 7 12 20 18 34 16 31 28 -10 42 -19 6
-35 18 -35 25 0 20 -31 23 -57 7 -12 -8 -28 -12 -35 -9 -7 2 -21 -2 -30 -11
-28 -24 -109 -27 -162 -7 -25 10 -43 21 -40 26 3 5 -3 9 -13 10 -16 0 -16 1 2
9 11 5 52 6 91 3 66 -5 75 -3 140 31 38 19 72 35 76 36 4 0 30 -14 59 -30z
m1149 -272 c0 -5 5 -8 11 -8 6 0 8 9 4 23 -5 17 -4 19 4 7 10 -13 11 -13 11 0
1 11 6 8 20 -9 11 -13 20 -28 19 -35 0 -6 -3 -5 -6 3 -5 11 -7 11 -15 0 -6
-10 -7 -7 -3 9 4 13 2 22 -4 22 -6 0 -10 -3 -10 -7 4 -23 -2 -43 -11 -38 -5 3
-10 -1 -10 -9 0 -8 -7 -19 -17 -24 -17 -10 -12 -42 7 -42 6 0 8 5 5 10 -3 6
-2 10 4 10 11 0 25 -19 27 -35 0 -5 -9 -20 -20 -32 -16 -20 -17 -23 -3 -23 8
0 23 7 31 16 12 12 16 12 17 2 1 -7 5 1 9 17 l8 30 1 -27 c1 -32 37 -69 58
-61 8 3 26 -8 44 -28 17 -19 27 -27 23 -19 -6 12 -5 13 7 2 12 -11 12 -14 0
-21 -9 -6 -5 -8 13 -8 20 0 24 2 16 12 -9 11 -7 12 9 8 12 -3 18 -10 14 -16
-3 -6 -1 -7 6 -3 13 9 41 -10 41 -28 0 -6 -5 -4 -10 4 -8 13 -10 12 -10 -2 0
-10 4 -18 9 -18 6 0 9 -9 8 -19 0 -11 -5 -17 -11 -14 -5 4 -7 -1 -3 -10 4 -11
2 -14 -9 -10 -7 3 -14 0 -14 -7 0 -7 -6 -10 -14 -7 -8 3 -16 1 -18 -5 -2 -5
-25 -12 -51 -15 -53 -6 -61 -19 -19 -30 44 -11 142 -5 142 10 0 4 5 7 11 7 5
0 7 -4 4 -10 -3 -5 0 -7 8 -4 8 3 18 15 21 27 9 34 7 135 -3 141 -5 3 -7 15
-4 26 4 15 2 19 -10 15 -17 -7 -87 20 -87 33 0 5 -12 14 -26 20 -15 7 -22 17
-18 24 4 7 3 8 -4 4 -16 -9 -4 -34 20 -42 11 -3 18 -8 15 -10 -10 -10 -39 10
-53 37 -14 28 -14 29 8 29 24 0 50 -13 49 -23 0 -4 11 -19 26 -34 27 -28 23
-13 -5 20 -13 15 -13 17 1 17 10 0 13 6 10 21 -5 18 -3 20 14 15 17 -6 22 0
31 36 21 83 21 87 3 81 -10 -3 -7 3 8 17 17 14 27 18 35 10 15 -15 23 -12 29
10 3 12 14 20 26 20 14 0 19 -5 15 -15 -5 -11 1 -15 21 -15 l27 0 -31 -25
c-16 -14 -32 -34 -35 -43 -2 -9 -8 -28 -11 -41 -6 -20 -4 -23 9 -18 13 5 18
-1 23 -24 4 -20 10 -28 20 -25 8 3 11 1 8 -4 -3 -6 -1 -10 6 -10 6 0 -1 -16
-15 -35 -22 -29 -26 -41 -20 -70 5 -31 9 -35 28 -29 11 3 28 13 37 20 21 18
29 18 45 -3 12 -17 15 -16 45 12 28 26 31 27 27 9 -6 -22 17 -29 38 -12 8 6
10 -4 7 -34 -5 -48 -41 -241 -72 -391 -25 -116 -26 -141 -8 -131 6 4 9 4 5 -1
-4 -4 -3 -14 4 -22 6 -7 8 -16 5 -20 -4 -3 -2 -13 4 -22 6 -9 -17 13 -51 49
-56 59 -60 65 -44 77 16 12 15 13 -9 13 -19 0 -46 17 -86 53 -32 28 -89 70
-126 92 -94 55 -142 100 -172 159 -14 28 -39 68 -55 88 -15 20 -44 70 -62 110
-30 66 -34 87 -40 194 l-7 119 25 -30 c14 -16 26 -33 26 -37z m4140 -127 c0
-5 23 -9 52 -8 30 1 53 -3 55 -10 2 -6 14 -8 26 -5 21 5 21 5 5 -12 -25 -24
-22 -31 5 -13 23 15 77 12 77 -4 0 -5 7 -6 15 -3 18 7 19 0 4 -27 -10 -19 -9
-20 11 -9 12 6 24 9 28 6 3 -3 0 -6 -7 -6 -6 0 -11 -6 -9 -13 3 -15 -49 -67
-66 -67 -8 0 -8 2 0 8 6 4 15 18 19 31 l7 24 -35 -27 c-34 -26 -37 -27 -64
-12 -15 8 -21 15 -13 16 23 1 37 13 45 40 l7 25 -25 -24 c-24 -22 -55 -21 -41
1 5 7 -2 9 -20 4 -18 -4 -25 -3 -21 4 3 5 -1 10 -9 10 -9 0 -16 7 -16 15 0 11
-11 15 -36 15 -29 0 -35 3 -30 16 3 9 6 20 6 25 0 5 7 9 15 9 8 0 15 -4 15 -9z
m-4830 -259 c11 -21 35 -57 54 -82 30 -39 32 -46 18 -51 -15 -6 -15 -8 3 -15
33 -13 60 -44 125 -144 34 -52 60 -90 58 -85 -17 43 -44 94 -78 146 -22 34
-39 64 -37 65 2 2 50 10 106 19 115 17 124 15 179 -44 27 -29 112 -157 112
-169 0 -4 -45 -52 -100 -107 -54 -54 -98 -100 -97 -102 7 -6 108 30 164 59 61
32 62 32 97 16 20 -10 47 -36 62 -60 15 -24 51 -69 80 -100 38 -40 52 -62 47
-73 -5 -14 -2 -16 15 -10 16 5 22 2 22 -10 0 -9 5 -13 10 -10 6 4 6 -4 -1 -18
-6 -14 -21 -30 -33 -36 -19 -9 -18 -10 6 -5 23 5 29 2 37 -17 10 -28 4 -40 -9
-19 -14 22 -12 4 4 -35 8 -19 11 -35 5 -35 -5 0 -9 4 -9 10 0 5 -18 9 -41 8
-22 -1 -44 3 -47 9 -8 12 -42 13 -42 1 0 -4 7 -8 16 -8 8 0 12 -4 9 -10 -3 -5
0 -7 8 -4 10 3 14 -1 14 -12 -1 -9 4 -19 12 -22 8 -3 11 0 7 6 -3 6 -2 13 3
16 11 7 9 -13 -3 -33 -5 -8 -4 -16 3 -20 7 -5 9 -15 5 -26 -5 -11 -4 -16 3
-12 6 4 11 -13 12 -43 1 -28 -1 -50 -4 -50 -7 0 -42 71 -69 143 -13 35 -39 84
-58 108 -18 25 -41 56 -50 69 l-18 25 10 -27 c5 -15 20 -48 33 -75 13 -26 34
-86 47 -132 13 -46 34 -99 47 -118 13 -20 22 -37 20 -39 -6 -6 -110 74 -140
109 -49 57 -104 141 -116 179 -8 25 -31 52 -74 87 -34 28 -63 47 -65 41 -6
-16 -24 -12 -50 13 -17 15 -23 18 -22 7 2 -8 -3 -29 -9 -47 -11 -26 -18 -32
-52 -35 -22 -2 -42 -1 -44 2 -2 3 18 29 43 57 63 69 83 106 75 143 -8 45 -19
44 -32 -1 -8 -26 -39 -68 -94 -127 l-82 -87 118 -3 117 -3 0 -39 0 -40 -168 1
c-93 0 -173 -1 -178 -2 -35 -6 -44 2 -44 41 l0 40 73 0 c71 1 71 1 40 15 -37
16 -43 43 -18 85 8 14 18 33 21 43 3 9 13 17 20 17 8 0 14 4 14 9 0 5 7 17 16
26 26 25 64 84 64 98 0 7 14 21 30 30 17 10 30 27 30 37 0 23 -26 50 -48 50
-27 0 -62 29 -62 50 0 10 -13 27 -30 37 -16 9 -30 20 -30 24 0 4 -13 9 -29 12
-26 5 -29 10 -25 34 l4 28 -14 -25 c-8 -14 -12 -28 -10 -32 3 -4 -2 -5 -10 -2
-14 5 -14 8 -1 21 8 8 15 18 15 23 0 15 -41 39 -57 33 -7 -3 -13 -2 -12 3 4
21 -2 35 -12 28 -7 -4 -6 2 2 17 11 22 11 23 -4 11 -14 -12 -16 -11 -12 7 2
12 0 21 -6 21 -5 0 -9 -6 -9 -12 0 -7 -8 -1 -17 12 -9 14 -19 27 -22 30 -3 3
-13 14 -21 25 -15 19 -14 19 10 2 35 -24 45 -21 26 8 -9 14 -14 25 -11 25 2 0
20 -22 38 -50 19 -27 36 -47 39 -45 3 3 8 -1 11 -10 4 -8 2 -15 -3 -15 -6 0
-10 -5 -10 -11 0 -6 7 -9 15 -6 8 4 17 2 20 -3 3 -4 -1 -11 -7 -13 -10 -4 -10
-6 0 -6 20 -1 26 28 9 47 -8 9 -21 37 -28 62 -7 25 -22 54 -32 65 -22 23 -40
55 -32 55 3 0 19 -10 35 -22 37 -27 46 -19 26 20 -8 16 -13 32 -9 35 11 11 63
-34 83 -71z m-552 33 c9 -20 8 -26 -6 -34 -26 -16 5 -13 53 4 21 8 41 12 44
10 24 -25 -142 -247 -231 -308 -73 -50 -278 -138 -278 -118 0 4 18 25 40 46
22 21 40 45 40 52 0 7 5 13 11 13 5 0 7 6 3 13 -4 6 -4 9 1 5 17 -15 73 44 96
100 34 86 68 134 90 127 14 -5 20 0 24 22 11 54 29 78 58 76 15 -1 27 2 27 8
0 18 17 9 28 -16z m462 -896 l0 -38 -305 0 c-167 -1 -308 -1 -312 -2 -26 -4
-33 4 -33 41 l0 40 313 2 c171 2 318 1 325 -1 7 -2 12 -19 12 -42z m561 -206
c12 -43 19 -94 17 -125 l-3 -53 -23 25 c-13 14 -30 37 -38 52 -13 24 -12 27 1
22 20 -8 19 -1 -10 56 -21 42 -25 62 -24 137 l0 88 30 -65 c17 -36 39 -98 50
-137z m-457 10 c25 -27 52 -66 59 -88 8 -22 28 -62 46 -89 17 -28 31 -54 31
-59 0 -4 -17 -7 -37 -5 -29 2 -38 7 -37 21 2 14 -1 15 -11 7 -11 -9 -12 -6 -8
12 4 19 3 20 -6 8 -9 -12 -11 -10 -6 10 3 16 -2 34 -15 50 -16 20 -20 22 -20
8 0 -10 -5 -18 -10 -18 -6 0 -4 -10 4 -22 7 -13 16 -37 19 -55 l6 -32 -134 5
c-127 5 -134 5 -144 -15 -9 -16 -8 -22 8 -31 13 -7 22 -7 26 0 8 13 75 13 75
-1 0 -5 3 -8 8 -6 4 3 8 -6 9 -20 1 -18 -2 -22 -7 -12 -5 7 -12 10 -16 6 -4
-4 1 -16 11 -27 17 -19 17 -20 0 -20 -10 0 -26 7 -35 15 -14 13 -26 14 -61 6
-62 -13 -93 -8 -97 15 -3 15 -1 17 9 7 19 -19 32 -16 26 7 -4 14 0 20 11 21
10 1 1 4 -18 8 -21 4 -36 13 -38 22 -2 13 11 19 62 30 37 7 66 16 66 20 0 3
-12 12 -27 18 -27 12 -40 25 -77 83 l-18 28 25 -2 c14 -1 23 -6 21 -10 -3 -4
-1 -8 5 -8 5 0 12 4 16 9 3 5 21 7 41 5 22 -3 33 -1 29 6 -3 5 -2 10 4 10 5 0
13 9 16 20 3 11 11 20 17 20 5 0 7 -7 4 -16 -5 -12 -1 -14 15 -9 12 4 19 3 16
-2 -3 -5 11 -8 33 -6 32 2 40 -1 45 -18 5 -16 9 -18 15 -9 4 7 13 9 20 5 21
-13 -17 49 -49 79 -29 28 -30 31 -14 48 24 27 37 23 87 -29z m572 -100 c26 -6
74 -101 74 -146 -1 -17 -6 -42 -13 -54 -12 -21 -13 -20 -58 21 -45 41 -46 42
-52 119 -5 71 -4 78 11 72 9 -4 26 -10 38 -12z m488 -97 c-3 -7 2 -16 10 -19
10 -4 16 -18 16 -37 0 -16 4 -30 8 -30 9 0 27 -47 37 -98 4 -18 17 -42 28 -54
15 -14 18 -22 10 -25 -10 -4 -10 -7 0 -18 7 -7 15 -11 19 -9 4 2 10 -1 14 -7
4 -7 3 -9 -4 -5 -6 3 -13 2 -17 -4 -3 -5 -2 -10 3 -10 8 0 45 -66 47 -85 0 -5
9 -9 19 -8 12 1 15 -2 8 -9 -12 -12 -4 -41 8 -33 5 3 6 -3 3 -13 -2 -10 13
-43 36 -77 23 -33 41 -66 41 -72 0 -7 5 -13 10 -13 6 0 10 -6 10 -13 0 -7 10
-21 22 -31 l22 -19 -24 -9 c-13 -5 -29 -7 -37 -4 -7 3 -15 1 -18 -4 -9 -15
-35 -12 -35 5 0 7 7 18 15 23 13 7 9 18 -24 70 -56 86 -72 119 -65 135 3 8 1
18 -5 22 -7 4 -8 0 -4 -11 4 -12 3 -15 -6 -10 -6 4 -9 15 -7 24 6 18 -49 122
-64 122 -5 0 -9 12 -8 28 2 60 -16 131 -54 206 -30 61 -36 81 -27 92 15 18 20
18 13 0z m-45 -121 c34 -78 40 -103 45 -184 4 -74 1 -101 -11 -124 l-15 -31
-14 26 c-7 14 -83 74 -168 133 -101 71 -152 113 -149 122 3 8 13 11 23 8 12
-4 24 2 33 16 17 24 37 18 37 -11 0 -27 21 -70 35 -70 6 0 20 -7 31 -16 10 -8
13 -12 5 -8 -8 4 -12 3 -8 -3 8 -12 113 -1 128 14 16 16 2 100 -16 107 -8 3
-15 1 -15 -4 0 -20 -18 -9 -24 13 -7 30 -48 50 -66 34 -10 -9 -11 -9 -4 3 5 8
9 20 9 25 0 6 7 9 16 7 9 -1 16 5 16 13 0 10 -7 13 -22 9 -15 -4 -22 -1 -22
10 0 8 4 13 8 10 4 -2 10 -1 13 4 3 5 25 4 50 -2 45 -10 45 -11 85 -101z
m-3968 -95 c5 0 9 5 9 10 0 6 7 10 15 10 8 0 15 -4 15 -10 0 -5 -6 -10 -14
-10 -22 0 -27 -29 -11 -61 9 -16 13 -34 10 -39 -3 -5 6 -12 20 -16 36 -9 31
-17 -17 -35 -47 -17 -78 -15 -78 5 0 18 -24 66 -32 66 -5 0 -8 -5 -8 -10 0 -6
-7 -6 -19 1 -14 10 -23 9 -41 -4 -12 -8 -29 -13 -36 -10 -20 8 -17 46 5 60 28
17 91 27 91 14 0 -6 7 -8 16 -4 11 4 12 8 4 13 -7 5 0 14 22 27 25 15 34 16
36 6 2 -7 8 -13 13 -13z m2820 -39 c-7 -5 -12 -12 -11 -17 1 -4 -8 -11 -19
-16 -12 -4 -21 -5 -21 -2 0 3 -7 -2 -16 -10 -8 -9 -21 -16 -28 -16 -23 0 -66
-51 -64 -76 1 -13 7 -24 12 -24 5 0 7 -3 4 -6 -4 -3 -17 0 -30 7 -12 7 -25 14
-28 14 -3 0 -40 16 -83 35 -58 25 -74 36 -62 43 8 4 13 12 10 17 -11 17 41 6
65 -14 l25 -21 -22 26 c-24 27 -30 49 -12 49 5 0 8 3 6 8 -3 4 5 7 17 7 18 0
22 -5 20 -24 -2 -22 31 -80 42 -74 2 2 18 10 34 18 23 12 30 22 30 46 0 26 2
28 18 20 13 -7 23 -6 31 2 8 8 14 8 19 1 4 -5 18 -11 31 -11 22 -2 23 -1 5 13
-11 9 -14 13 -9 10 6 -2 17 -1 25 4 8 5 17 7 19 4 3 -3 0 -9 -8 -13z m590
-108 c37 -60 72 -126 79 -148 12 -39 53 -145 83 -215 l15 -35 -64 3 c-65 4
-73 9 -52 30 8 8 8 15 -2 27 -10 12 -10 15 1 15 9 0 10 3 4 8 -6 4 -12 18 -12
31 -2 29 -23 83 -36 92 -5 4 -5 21 1 42 9 31 8 35 -6 29 -15 -5 -15 -4 -3 11
11 14 11 17 0 19 -30 3 -35 4 -56 16 -15 8 -23 9 -23 2 0 -5 -5 -10 -10 -10
-6 0 -3 11 5 24 12 18 13 26 4 32 -7 4 -10 3 -7 -2 3 -5 0 -15 -8 -22 -19 -18
-18 -8 7 39 12 24 17 45 12 52 -12 16 -16 67 -6 67 4 0 38 -48 74 -107z
m-3221 76 c-7 -11 -21 -30 -32 -41 -14 -14 -18 -28 -14 -46 3 -15 3 -21 0 -14
-9 19 -47 16 -40 -4 5 -13 2 -15 -14 -11 -11 3 -20 1 -20 -4 0 -5 -13 -9 -29
-9 -30 0 -50 -28 -36 -50 9 -14 89 -12 103 2 10 10 15 10 22 -2 5 -8 6 -18 4
-22 -3 -4 0 -8 5 -8 6 0 11 -4 11 -10 0 -6 -18 -7 -45 -3 -25 3 -50 1 -57 -4
-7 -6 -26 -13 -41 -17 -16 -4 -38 -16 -50 -26 -11 -11 -27 -20 -34 -20 -7 0
-13 -5 -13 -12 0 -6 -3 -9 -6 -6 -3 4 0 17 7 30 12 22 16 47 18 126 1 29 3 32
26 26 16 -4 34 1 54 15 16 12 34 21 40 21 11 0 53 33 79 62 9 9 19 15 23 12 5
-2 13 5 19 16 6 11 15 20 21 20 6 0 6 -8 -1 -21z m2368 -233 c342 -334 405
-400 428 -454 11 -28 105 -113 137 -125 17 -6 24 7 9 17 -4 3 -30 33 -56 68
l-48 63 79 -82 c43 -45 85 -84 93 -85 8 -2 33 -15 55 -29 22 -15 86 -50 143
-78 82 -41 240 -142 285 -181 5 -4 3 -17 -5 -29 -11 -19 -11 -24 4 -35 22 -17
11 -29 -13 -15 -14 7 -17 16 -13 33 6 27 -14 46 -27 25 -7 -11 -9 -11 -9 -1 0
7 -4 10 -10 7 -5 -3 -10 -2 -10 4 0 5 -8 12 -17 15 -10 3 -31 17 -47 31 -16
14 -33 25 -38 25 -5 0 -6 5 -3 10 3 6 -1 10 -9 10 -9 0 -16 6 -16 13 0 11 -82
52 -106 52 -6 0 -18 5 -25 12 -8 6 -17 12 -21 13 -37 9 -48 14 -48 21 0 5 -8
9 -17 9 -10 0 -33 9 -50 20 -18 11 -39 17 -48 14 -8 -4 -15 -1 -15 6 0 6 -5 8
-11 4 -6 -3 -15 -1 -19 5 -4 7 -23 18 -42 24 -20 7 -53 28 -74 48 -48 43 -105
119 -98 130 3 5 -2 6 -10 3 -15 -6 -17 11 -3 33 6 9 3 11 -8 7 -16 -6 -85 52
-85 71 1 6 5 2 11 -7 5 -10 15 -18 21 -18 6 0 -2 11 -18 25 -16 13 -37 31 -47
40 -9 8 -20 14 -25 13 -4 -2 -8 1 -9 5 0 5 -12 21 -25 35 -14 15 -32 38 -42
52 -9 14 -19 23 -22 21 -3 -2 -30 18 -59 43 -30 25 -57 46 -62 46 -11 0 -39
32 -38 45 0 6 -10 14 -22 20 -19 8 -22 16 -19 55 2 26 -1 48 -8 52 -8 5 -7 8
2 8 8 0 66 -51 130 -114z m97 -26 c31 -25 40 -28 53 -18 13 11 14 11 8 -1 -7
-10 -3 -12 15 -6 16 4 20 3 10 -3 -9 -7 6 -18 59 -43 66 -30 76 -39 121 -106
27 -40 52 -79 55 -87 7 -17 -27 -14 -96 9 -39 13 -57 26 -80 60 -16 24 -42 53
-57 65 -15 11 -35 35 -46 53 -11 18 -25 35 -33 40 -13 8 -59 67 -51 67 2 0 21
-14 42 -30z m436 -41 c32 -29 59 -59 60 -68 0 -14 1 -14 7 0 5 12 13 14 30 8
12 -5 22 -14 22 -21 0 -9 -3 -9 -11 2 -8 11 -9 9 -3 -10 4 -14 12 -28 18 -32
6 -5 7 -8 1 -8 -19 -1 60 -39 82 -40 12 0 35 -12 52 -26 17 -14 35 -23 40 -20
5 3 11 -1 14 -8 7 -17 45 -18 43 -1 -1 14 5 15 68 15 49 0 55 -2 53 -20 -1
-11 -5 -20 -10 -20 -4 0 -6 -4 -3 -9 4 -5 -2 -7 -12 -4 -13 3 -28 -6 -46 -27
-32 -39 -44 -38 -174 18 -118 51 -188 111 -246 210 -76 130 -74 138 15 61z
m1214 -438 c27 -41 44 -75 39 -82 -4 -7 -3 -9 4 -5 6 3 21 -8 33 -26 l23 -33
-27 24 c-30 27 -37 19 -10 -11 16 -18 16 -18 -1 -12 -15 6 -15 3 3 -29 11 -19
17 -37 15 -40 -6 -5 43 -57 54 -57 4 0 15 -11 24 -24 17 -23 17 -24 -15 -30
-26 -6 -35 -3 -47 16 -52 78 -108 142 -146 169 -24 16 -44 32 -44 35 0 3 7 18
15 34 15 29 25 34 52 31 14 -2 -1 50 -24 84 -15 22 -17 39 -4 31 4 -3 30 -37
56 -75z m8942 -132 c1 -19 2 -43 2 -54 2 -36 16 -48 40 -36 17 10 20 9 15 -4
-4 -9 -20 -23 -36 -31 -38 -20 -67 -78 -50 -102 37 -51 17 -72 -48 -50 -68 23
-91 28 -102 22 -6 -4 -31 -6 -55 -5 -28 1 -42 -3 -38 -9 8 -12 -25 -13 -44 -1
-10 7 -12 20 -7 50 5 32 3 43 -9 47 -8 4 -15 10 -15 15 0 4 7 6 15 3 9 -4 15
0 15 10 0 14 22 21 51 18 3 -1 6 9 6 21 1 12 1 27 2 32 1 15 61 18 77 4 19
-16 44 5 37 31 -4 16 -1 18 17 15 12 -2 32 2 44 10 11 8 34 16 51 16 16 1 22
3 13 6 -10 2 -15 10 -11 19 10 25 28 9 30 -27z m-13155 -48 c3 8 5 -1 4 -19
-1 -18 -5 -32 -9 -31 -10 0 -47 -40 -47 -52 0 -4 -3 -16 -6 -26 -5 -17 -5 -17
6 0 18 28 29 20 23 -18 -4 -28 -1 -40 15 -55 11 -10 23 -16 26 -12 4 3 -4 12
-16 20 -13 7 -15 11 -5 8 9 -3 17 -1 17 4 0 6 4 10 10 10 5 0 7 -7 4 -15 -4
-9 -1 -15 7 -15 8 0 4 -8 -9 -20 -13 -13 -19 -27 -15 -38 3 -9 3 -14 -2 -10
-4 4 -8 17 -9 29 0 12 -8 24 -16 26 -9 3 -11 1 -5 -4 6 -4 11 -23 12 -41 2
-24 -1 -30 -10 -22 -7 6 -21 17 -32 25 -17 13 -18 16 -5 26 12 9 11 10 -7 6
-15 -3 -23 0 -23 8 0 7 -7 15 -15 19 -8 3 -15 15 -15 26 0 11 -5 20 -10 20
-25 0 -58 31 -53 50 3 11 9 17 15 14 5 -3 4 -12 -3 -21 -11 -12 -7 -14 27 -11
21 2 39 8 39 15 0 6 3 15 8 19 4 4 7 -2 7 -14 0 -21 1 -21 19 -5 11 9 18 20
15 25 -3 5 6 18 21 29 19 15 24 27 20 43 -5 15 -4 17 3 7 8 -11 10 -11 14 0z
m3693 -291 c-8 -9 -15 -23 -15 -31 0 -9 -11 -25 -25 -37 -47 -41 -87 -162 -87
-268 0 -83 17 -153 52 -209 28 -45 117 -126 140 -128 11 -1 22 -7 24 -13 9
-24 117 -46 228 -46 107 1 145 -10 91 -25 -50 -14 -234 -7 -280 10 -24 9 -43
13 -43 9 0 -4 -4 -2 -8 3 -4 6 -33 27 -65 49 -62 42 -114 105 -149 182 -18 41
-22 67 -22 159 -1 98 2 117 27 175 15 36 30 74 32 85 3 11 12 25 20 31 8 6 15
14 15 17 0 14 56 62 68 59 10 -4 9 -8 -3 -22z m-2095 -42 c0 -12 19 -39 45
-64 28 -26 40 -44 33 -47 -7 -2 -22 4 -33 14 -20 18 -21 18 -53 -16 -31 -34
-29 -51 2 -19 22 22 39 9 24 -19 -16 -29 -18 -60 -4 -69 8 -6 8 -8 -1 -8 -6 0
-19 7 -28 16 -12 13 -19 14 -28 5 -8 -8 -7 -11 5 -11 9 0 21 -13 27 -30 5 -16
14 -30 19 -30 11 0 23 -51 15 -63 -3 -4 -11 -3 -18 3 -9 7 -21 7 -40 0 -21 -8
-26 -15 -22 -31 7 -27 -25 -59 -51 -52 -25 6 -38 -13 -21 -33 6 -8 10 -15 8
-17 -2 -1 -13 -7 -23 -13 -11 -5 -26 -21 -35 -34 l-15 -23 39 7 40 8 -33 -31
c-33 -32 -42 -61 -19 -61 18 -1 -35 -29 -56 -30 -10 0 -22 11 -27 25 -10 26
-24 32 -35 15 -3 -5 -23 -10 -43 -10 -26 -1 -33 -3 -22 -9 8 -5 19 -9 23 -9 4
0 19 -8 33 -17 13 -9 29 -13 34 -10 5 3 17 -3 27 -15 19 -22 53 -27 53 -8 0 9
3 9 13 -1 10 -11 8 -15 -7 -25 -40 -23 -86 -74 -86 -95 0 -13 -6 -21 -16 -21
-11 0 -15 -6 -11 -20 3 -11 2 -22 -2 -25 -4 -2 -6 -17 -3 -34 4 -28 1 -30 -39
-42 -48 -13 -92 -47 -86 -64 3 -5 -6 -10 -18 -10 -13 0 -23 4 -22 9 1 6 -6 12
-16 14 -9 2 -37 24 -62 50 -39 40 -45 43 -45 24 0 -12 5 -22 10 -22 6 0 10 -9
10 -19 0 -11 5 -23 10 -26 6 -3 10 -11 10 -18 0 -8 -3 -8 -12 1 -14 14 -48 16
-48 4 0 -13 -52 -34 -59 -25 -9 12 -109 14 -116 3 -11 -17 -23 -11 -27 13 -2
14 -9 21 -19 19 -9 -1 -22 5 -29 13 -7 8 -20 15 -30 15 -10 0 -23 7 -30 15
-14 17 -50 20 -50 5 0 -6 -12 -15 -26 -20 -19 -8 -24 -15 -19 -30 8 -26 -7
-26 -30 0 -15 17 -16 22 -4 36 10 13 11 18 2 21 -9 3 -8 15 2 50 14 48 11 73
-10 73 -7 0 -15 9 -18 20 -3 11 -1 20 4 20 5 0 9 5 9 11 0 5 -4 8 -9 5 -5 -4
-12 0 -14 6 -4 10 -8 9 -16 -2 -15 -22 -25 11 -17 56 7 33 9 35 38 29 21 -5
33 -3 39 6 6 11 13 11 26 3 14 -9 23 -4 49 24 19 21 36 32 43 27 8 -4 12 -2
10 6 -4 34 0 40 22 27 17 -11 22 -10 33 5 17 21 26 22 26 0 0 -15 1 -15 18 0
21 19 48 22 57 7 3 -5 23 -10 44 -10 30 0 40 5 44 19 8 34 -5 41 -48 27 -22
-8 -42 -11 -45 -8 -3 4 -9 8 -15 8 -5 1 -20 5 -32 9 -14 4 -23 2 -23 -4 0 -6
-12 -10 -27 -10 -23 1 -24 2 -6 6 24 5 39 35 27 54 -4 7 -3 9 3 6 6 -4 24 -1
42 6 23 8 31 18 31 37 0 17 3 21 9 12 7 -11 16 -10 49 7 37 19 42 19 71 5 36
-18 71 -5 71 27 0 19 0 19 23 -1 l22 -21 3 25 c2 14 7 26 12 26 5 0 7 -7 4
-15 -4 -11 0 -15 16 -15 17 0 21 4 15 18 -15 37 -23 71 -17 76 3 3 16 6 29 6
24 0 32 -15 11 -23 -10 -4 -10 -7 0 -18 10 -11 12 -10 12 3 0 8 23 37 51 63
28 26 47 50 43 54 -4 3 -9 0 -11 -6 -3 -7 -16 -13 -29 -13 -13 0 -33 -6 -44
-12 -17 -11 -22 -10 -29 1 -7 11 -14 9 -35 -12 -27 -27 -76 -46 -76 -30 0 5 7
18 15 29 8 10 15 29 15 41 0 12 5 25 10 28 6 3 10 2 10 -3 0 -17 40 -1 56 22
11 14 18 17 21 9 8 -21 25 -14 18 7 -3 11 -2 28 4 37 6 10 11 14 11 9 0 -5 7
-3 15 4 8 6 18 9 24 6 5 -3 22 -1 37 5 21 7 25 12 15 18 -7 5 -11 17 -9 27 2
14 13 19 38 20 19 1 43 4 52 8 13 6 19 1 24 -20 5 -18 3 -29 -5 -32 -14 -5
-37 -27 -45 -44 -5 -10 -7 -10 -12 1 -5 11 -10 10 -23 -6 -9 -12 -26 -24 -38
-28 -19 -5 -23 -2 -24 17 -1 18 -3 16 -10 -10 -6 -18 -16 -35 -24 -39 -20 -7
-19 -43 0 -43 8 0 20 9 27 20 7 11 19 20 26 20 7 0 15 7 18 15 4 8 18 15 34
15 16 0 30 7 34 15 3 8 12 15 21 15 8 0 15 5 15 11 0 6 7 18 16 27 18 18 18
21 -1 -45 -4 -15 -2 -23 5 -23 8 0 10 -8 7 -21 -4 -15 -2 -19 9 -15 8 3 14 1
14 -4 0 -6 5 -9 12 -7 7 1 12 -5 13 -13 0 -17 45 -27 45 -11 0 6 -3 11 -8 11
-4 0 -13 15 -20 33 -7 17 -18 40 -23 50 -10 19 -4 57 10 57 4 0 13 -6 19 -12
10 -10 14 -8 18 10 4 12 11 22 16 22 6 0 8 -7 5 -15 -8 -18 13 -32 23 -15 4 7
13 9 19 6 6 -4 11 -3 11 2 0 6 -7 12 -15 16 -8 3 -15 17 -15 31 0 15 4 24 10
20 6 -3 10 -1 10 4 0 6 5 11 10 11 6 0 10 -10 10 -22z m-1523 -882 c-18 -14
-24 -46 -7 -46 5 0 7 7 4 15 -4 8 -1 15 5 15 6 0 11 -4 11 -10 0 -5 13 -10 29
-10 17 0 31 -6 35 -16 4 -10 2 -13 -7 -8 -8 5 -7 2 2 -9 11 -14 11 -17 0 -17
-10 -1 -9 -3 3 -10 18 -11 68 -10 68 1 0 4 -6 10 -12 12 -8 3 -6 6 5 6 10 1
17 -6 18 -16 0 -15 2 -15 9 2 8 19 9 19 9 1 1 -16 4 -17 13 -8 7 7 20 12 30
12 16 0 17 -3 7 -22 -11 -21 -11 -22 4 -9 20 16 23 1 5 -18 -11 -11 -10 -12 2
-5 8 4 29 9 45 10 17 0 38 4 48 8 9 5 29 6 43 3 18 -3 27 0 32 12 11 30 62 45
62 18 0 -22 -36 -49 -62 -47 -46 4 -55 1 -35 -14 9 -7 17 -18 17 -25 0 -6 -8
-11 -17 -11 -10 -1 -29 -8 -43 -16 -14 -8 -17 -13 -7 -10 11 3 15 2 12 -4 -3
-6 -13 -10 -21 -10 -8 0 -12 -4 -9 -10 3 -5 -1 -10 -10 -10 -12 0 -15 6 -10
19 7 23 -19 41 -58 41 -14 0 -31 7 -38 16 -10 13 -24 15 -64 9 -27 -3 -61 -13
-74 -22 -17 -11 -26 -12 -35 -3 -8 8 -6 15 8 25 11 8 16 21 13 30 -9 21 -22
19 -35 -7 -6 -13 -11 -17 -11 -10 -1 6 -8 12 -16 12 -9 0 -15 6 -13 14 2 8 -6
21 -16 29 -13 10 -17 20 -12 33 7 19 8 19 22 0 8 -11 15 -17 15 -13 1 4 3 12
4 17 1 6 3 19 4 29 1 22 30 55 40 46 3 -4 -2 -12 -12 -19z m9198 -195 c3 -10
1 -30 -5 -45 -15 -41 -12 -54 15 -72 23 -15 26 -15 48 3 13 10 22 23 20 30 -2
6 1 15 8 19 8 5 9 3 4 -5 -4 -8 4 -23 24 -39 30 -26 30 -28 19 -69 -11 -37
-16 -43 -39 -43 -16 0 -31 5 -34 10 -9 15 -25 12 -25 -5 0 -18 -5 -18 -31 -4
-15 7 -24 7 -35 -2 -11 -9 -14 -8 -14 5 0 9 -4 16 -9 16 -5 0 -12 13 -16 30
-4 16 -14 34 -22 39 -10 5 -12 11 -5 15 6 4 9 13 5 21 -3 8 0 15 6 15 7 0 11
6 10 13 -5 37 2 56 17 50 10 -4 17 1 21 16 7 26 30 28 38 2z m1439 -980 c3 -5
-3 -11 -14 -14 -27 -7 -25 -25 3 -32 12 -4 33 -24 46 -45 20 -31 28 -37 38
-28 10 8 17 8 26 -1 9 -10 8 -15 -5 -25 -10 -7 -18 -18 -18 -24 0 -6 -15 -26
-33 -45 -28 -27 -33 -40 -33 -75 1 -46 0 -48 -28 -27 -10 8 -23 12 -29 8 -6
-4 -8 2 -5 15 8 28 -2 28 -38 -3 l-28 -24 29 2 c23 1 29 -2 26 -13 -3 -8 -5
-27 -4 -41 0 -25 -2 -26 -28 -17 -19 6 -34 6 -48 -2 -15 -8 -21 -8 -21 0 0 6
-7 19 -16 27 -12 12 -18 13 -23 4 -4 -6 -15 -9 -24 -5 -9 3 -14 10 -11 15 3 6
1 16 -5 23 -6 7 -9 22 -6 34 4 23 -10 31 -18 10 -4 -8 -6 -7 -6 4 -1 9 4 18
11 20 6 2 12 14 13 26 2 34 61 112 84 112 11 0 23 5 27 11 3 6 17 9 31 6 34
-6 55 17 43 48 -15 40 -1 59 47 64 6 0 14 -3 17 -8z m-4998 -313 c3 -10 9 -16
14 -13 11 7 41 -5 35 -15 -2 -4 7 -13 21 -21 25 -13 72 -69 58 -69 -3 0 -1 -7
6 -15 7 -8 15 -13 19 -10 4 2 22 -11 40 -30 18 -20 51 -40 74 -47 23 -6 52
-18 65 -26 12 -8 22 -11 22 -7 0 4 12 0 26 -10 15 -9 24 -13 20 -7 -3 5 4 10
17 10 34 0 48 6 102 40 28 17 58 32 68 32 9 0 17 4 17 8 0 5 7 9 15 9 26 0 18
-46 -9 -57 -13 -5 -28 -15 -33 -23 -8 -14 -112 -67 -160 -81 -17 -5 -31 2 -62
29 -36 33 -44 36 -83 30 -50 -7 -56 -3 -86 49 -43 74 -121 153 -167 171 -25 9
-45 20 -45 23 0 4 -3 16 -6 28 -7 27 23 29 32 2z m-66 -6 c0 -10 4 -22 9 -27
12 -12 61 -200 61 -233 0 -13 -9 -35 -20 -49 -22 -29 -26 -83 -8 -116 10 -20
13 -116 3 -125 -2 -3 -25 8 -50 22 -25 15 -69 34 -98 43 -83 24 -147 54 -140
66 3 5 2 7 -4 4 -5 -4 -48 9 -94 27 -103 41 -141 61 -132 69 3 4 12 2 20 -5 7
-6 16 -8 19 -5 3 3 21 -1 40 -9 19 -8 39 -12 44 -9 6 4 10 1 10 -4 0 -6 5 -11
11 -11 6 0 33 -11 59 -24 27 -13 51 -22 54 -19 3 4 6 1 6 -6 0 -7 5 -9 11 -5
6 3 14 3 18 -2 3 -5 37 -17 74 -26 108 -28 118 -15 121 145 1 63 -4 114 -17
162 -23 87 -28 125 -17 125 5 0 7 7 4 15 -4 8 -1 15 5 15 6 0 11 -8 11 -18z
m161 -145 c21 -34 39 -68 39 -74 0 -7 4 -13 8 -13 5 0 17 -17 27 -37 11 -21
21 -41 23 -44 1 -3 -4 -6 -12 -6 -8 0 -18 7 -21 15 -3 8 -12 12 -20 9 -10 -4
-12 -1 -8 10 4 11 2 14 -5 9 -7 -4 -12 -2 -12 5 0 7 -7 4 -16 -7 -8 -10 -12
-13 -9 -6 6 11 3 12 -13 3 -31 -16 -32 -15 -32 39 0 31 -10 75 -25 112 -32 78
-31 82 6 63 17 -9 47 -43 70 -78z m4549 -381 c0 -49 -3 -57 -29 -75 -16 -12
-32 -21 -36 -21 -4 0 -20 9 -36 21 -26 18 -29 26 -29 75 l0 54 65 0 65 0 0
-54z m-12053 -23 l46 -27 -44 -37 c-53 -46 -89 -50 -118 -13 -25 32 -26 52 -5
82 21 30 64 28 121 -5z m12591 -225 c-2 -6 -20 -19 -38 -30 -19 -10 -31 -18
-26 -18 5 0 -3 -11 -18 -25 -30 -28 -70 -110 -61 -125 3 -5 0 -7 -8 -4 -16 6
-33 -13 -22 -24 3 -3 10 -1 14 7 5 7 11 12 15 12 3 -1 7 2 7 7 1 4 9 12 19 19
10 7 25 28 34 48 10 21 22 33 28 29 6 -4 8 -3 4 4 -7 11 30 42 51 42 6 0 18
-7 27 -15 13 -13 10 -22 -27 -79 -43 -67 -87 -102 -113 -92 -8 3 -12 10 -9 16
4 6 -1 7 -10 3 -14 -5 -14 -8 -3 -15 9 -7 4 -8 -15 -3 -21 4 -27 3 -21 -6 4
-8 3 -9 -4 -5 -15 9 -16 56 -1 56 5 0 21 24 34 54 13 29 36 64 52 76 27 22 27
23 4 17 -28 -7 -21 0 34 37 43 28 59 33 53 14z m-4723 -8 c-133 -6 -135 -6
-42 -8 105 -2 113 -5 152 -67 25 -38 28 -162 5 -190 -11 -14 -11 -17 -2 -11
11 7 12 4 3 -13 -7 -12 -9 -26 -6 -31 4 -6 3 -9 -2 -8 -5 2 -22 -9 -38 -24
-16 -15 -32 -25 -36 -22 -4 2 -10 0 -14 -6 -11 -18 -27 -11 -22 10 4 15 0 20
-13 20 -10 0 -22 9 -25 20 -3 11 -11 20 -16 20 -5 0 -9 11 -9 25 0 25 1 25 30
10 16 -8 35 -15 42 -15 22 0 41 17 34 29 -5 8 -12 7 -22 -4 -9 -8 -19 -15 -23
-15 -19 0 -40 29 -45 63 -5 29 -3 37 10 37 10 0 15 -8 14 -22 -3 -38 -1 -50
10 -43 6 3 10 22 10 41 0 22 6 37 15 40 8 4 15 10 15 16 0 5 -4 7 -9 4 -12 -8
-42 4 -36 14 7 11 -22 33 -33 26 -6 -3 -12 3 -15 14 -3 11 -10 20 -16 20 -11
0 -44 -62 -39 -76 5 -16 -64 -75 -93 -81 -32 -6 -45 -18 -30 -27 8 -5 48 10
96 36 18 10 19 10 2 -15 -18 -28 -16 -31 26 -60 17 -12 17 -13 -1 -32 -10 -11
-17 -25 -15 -30 1 -6 -9 -23 -23 -40 -19 -22 -24 -25 -19 -10 5 16 4 17 -6 8
-9 -9 -16 -10 -26 -2 -8 7 -13 8 -13 1 0 -5 7 -12 14 -15 8 -3 22 -19 30 -36
14 -26 14 -30 0 -35 -20 -8 -43 5 -79 46 -62 68 -65 78 -65 201 0 125 7 143
52 132 39 -10 73 52 53 98 -7 16 5 17 176 15 l184 -2 -140 -6z m3053 -38 c-2
-9 -14 -19 -28 -23 -25 -7 -25 -7 3 -8 18 -1 27 -6 24 -13 -2 -7 -17 -12 -33
-11 -36 3 -90 -17 -74 -27 7 -5 -6 -16 -34 -30 -26 -12 -46 -29 -47 -38 0 -14
-2 -13 -9 3 -8 19 -9 19 -9 -2 -1 -14 -7 -23 -16 -23 -17 0 -20 -25 -5 -35 6
-3 10 -12 10 -18 0 -7 -4 -6 -10 3 -8 12 -10 11 -10 -6 0 -11 7 -21 15 -22 35
-4 40 -4 50 -2 6 1 19 2 30 1 18 -1 19 -2 2 -12 -9 -5 -22 -7 -29 -3 -6 4 -8
3 -4 -4 3 -6 -1 -12 -9 -14 -14 -3 -14 -5 0 -23 9 -11 14 -14 10 -7 -4 8 1 12
14 12 12 0 21 5 21 12 0 6 3 8 7 5 3 -4 -1 -15 -10 -25 -10 -10 -14 -21 -11
-25 4 -3 -6 -12 -22 -19 -16 -7 -32 -17 -36 -23 -4 -5 -8 0 -9 13 -2 35 -3 40
-11 48 -5 4 -8 14 -8 22 0 12 3 12 15 2 9 -7 15 -8 15 -2 0 12 -21 21 -37 15
-7 -3 -13 -11 -13 -19 0 -8 -4 -14 -10 -14 -5 0 -10 4 -10 9 0 5 -9 11 -20 14
-11 3 -20 11 -19 19 0 10 2 10 6 1 9 -25 19 -13 15 18 -5 31 -4 31 20 15 23
-15 25 -15 25 1 -1 82 4 105 28 129 14 14 25 30 25 36 0 5 7 8 15 4 10 -4 15
1 15 15 0 11 4 18 10 14 5 -3 7 -12 4 -20 -4 -10 0 -12 15 -8 12 3 21 9 21 13
0 5 8 11 18 14 9 4 27 22 40 41 19 31 25 34 43 25 11 -6 19 -19 17 -28z m-986
-26 c4 3 8 1 8 -4 0 -4 16 -14 35 -22 19 -8 35 -19 35 -26 0 -7 13 -17 29 -22
20 -7 29 -16 26 -29 -3 -19 -25 -19 -37 0 -4 7 -8 8 -9 2 -5 -40 -2 -59 11
-62 12 -4 12 -3 1 5 -11 8 -11 11 0 18 8 5 21 9 29 11 12 1 11 -1 -2 -11 -10
-7 -15 -15 -13 -18 7 -7 -16 -25 -35 -30 -8 -2 -17 -6 -20 -10 -9 -11 -72 -20
-66 -9 3 5 -3 7 -13 4 -15 -4 -18 -11 -14 -34 2 -16 0 -29 -6 -29 -6 0 -8 7
-5 15 7 17 -21 21 -31 5 -4 -6 -11 -8 -16 -4 -12 7 -7 -19 5 -27 4 -4 3 -16
-3 -28 -10 -17 -15 -19 -32 -11 -11 6 -24 22 -29 36 -5 13 -12 24 -15 24 -4 0
-3 -6 1 -12 4 -7 3 -9 -1 -5 -19 17 -13 37 11 35 13 -1 24 -6 24 -11 0 -4 5
-5 11 -2 5 4 9 21 7 38 -3 28 0 32 21 31 22 -1 22 0 7 12 -10 7 -13 15 -8 18
6 3 8 15 5 26 -3 12 2 29 12 40 15 17 16 23 2 68 l-14 50 40 -18 c23 -10 45
-16 49 -14z m-2691 -6 c-9 -6 -51 -97 -50 -107 4 -21 -2 -33 -13 -27 -7 4 -8
3 -4 -4 4 -6 4 -23 0 -38 -7 -26 -8 -26 -22 -8 -9 12 -13 13 -9 4 2 -9 0 -42
-5 -74 l-10 -58 -37 5 c-20 4 -45 8 -56 11 -11 2 -29 5 -40 6 -20 1 -20 1 0 9
22 9 37 35 55 94 14 45 36 48 45 6 9 -41 -11 -89 -39 -89 -20 -1 -20 -1 -2
-12 25 -14 66 -19 66 -8 0 5 -4 10 -10 12 -6 2 -3 21 6 48 9 25 17 63 19 85 2
21 8 41 14 43 6 2 9 8 5 13 -3 5 -1 9 5 9 5 0 25 25 43 55 20 34 35 50 40 42
4 -6 4 -14 -1 -17z m4163 6 c-11 -8 -31 -38 -44 -68 -14 -29 -30 -57 -37 -61
-7 -4 -13 -13 -13 -19 0 -6 7 -5 17 3 9 8 19 13 22 12 3 -2 6 1 6 7 0 5 10 17
23 25 12 9 22 21 22 26 0 5 5 15 10 22 6 7 19 24 31 40 22 30 39 33 68 15 19
-12 19 -13 -2 -51 -12 -22 -41 -59 -64 -84 -40 -42 -44 -44 -92 -41 -58 3 -72
21 -40 51 11 11 29 38 39 61 19 46 45 76 63 76 6 0 2 -6 -9 -14z m550 0 c-11
-8 -31 -38 -44 -68 -14 -29 -31 -58 -39 -64 -14 -11 -10 -16 21 -27 12 -4 15
-2 11 8 -3 8 4 25 16 37 11 13 35 46 53 73 36 54 65 67 92 39 15 -15 15 -18 1
-33 -8 -10 -15 -22 -15 -28 0 -5 -13 -24 -29 -41 -16 -16 -27 -33 -24 -35 13
-13 -62 -39 -99 -34 -27 4 -36 2 -32 -6 3 -7 -1 -4 -10 6 -15 19 -12 47 6 47
5 0 18 21 30 48 22 50 55 92 72 92 6 0 1 -6 -10 -14z m-3475 -97 c-5 -3 0 -14
11 -24 18 -16 23 -17 30 -5 7 11 10 8 10 -14 l0 -29 -44 44 -43 44 1 -48 c1
-29 8 -54 18 -64 15 -15 19 -15 41 0 l25 16 6 -62 c4 -35 11 -69 17 -77 6 -10
8 -3 5 25 -11 87 -14 149 -8 130 6 -18 16 -22 40 -16 4 2 -2 7 -13 12 -15 7
-11 8 15 3 26 -4 31 -3 20 5 -12 9 -11 11 6 11 12 0 24 -7 28 -15 4 -11 -2
-15 -20 -15 -14 0 -23 -4 -20 -9 3 -4 -5 -7 -19 -6 -17 2 -22 -1 -18 -12 5
-12 7 -12 14 -1 5 7 9 9 9 3 0 -6 34 -10 82 -10 52 0 83 -4 85 -11 3 -8 -16
-10 -64 -7 -62 5 -66 4 -48 -10 11 -8 23 -13 27 -11 5 3 8 0 8 -5 0 -6 -4 -11
-10 -11 -5 0 -14 -9 -19 -19 -8 -14 -7 -20 5 -25 8 -3 13 -2 11 2 -3 4 9 8 26
8 l31 1 -23 -18 c-20 -17 -52 -23 -98 -22 -7 1 -13 -3 -13 -8 0 -5 -6 -8 -12
-6 -9 1 -12 -8 -10 -26 2 -16 -1 -26 -6 -23 -6 3 -13 -2 -16 -11 -6 -15 -8
-15 -16 -3 -8 12 -14 12 -45 -3 -35 -17 -64 -13 -64 8 0 5 -5 11 -11 13 -7 3
-9 -5 -4 -22 5 -20 2 -26 -10 -26 -25 0 -21 61 6 96 37 47 61 64 76 52 8 -8 8
-3 -2 17 -8 15 -27 33 -43 42 -18 9 -24 10 -15 2 17 -18 15 -29 -5 -29 -14 0
-15 -2 -5 -9 19 -11 12 -30 -26 -67 -18 -18 -35 -46 -38 -63 -6 -28 -20 -49
-28 -40 -2 2 -7 15 -11 28 -5 16 -4 21 4 17 7 -5 8 -1 4 10 -5 14 -8 13 -19
-7 -8 -15 -13 -18 -14 -9 0 13 -1 13 -10 0 -15 -24 -12 -2 6 31 13 26 17 29
32 17 11 -9 14 -10 8 0 -4 7 -2 12 5 12 7 0 9 -9 6 -22 -5 -16 7 -8 38 27 45
49 45 49 25 69 -19 21 -19 21 4 41 13 12 27 20 33 18 8 -3 10 78 3 112 -1 6
-2 18 -1 27 1 16 3 16 30 0 16 -9 25 -19 20 -23z m1648 -15 c13 24 33 12 33
-20 0 -17 5 -24 20 -24 19 0 20 -6 17 -134 -1 -74 -6 -138 -10 -143 -17 -16
-161 -16 -201 1 -21 9 -48 16 -60 16 -11 0 -34 7 -49 15 -15 8 -34 12 -41 9
-15 -6 -33 32 -22 44 12 11 40 11 48 -1 4 -7 17 -12 30 -12 14 0 27 -9 34 -23
7 -14 14 -19 18 -13 4 6 20 8 38 4 22 -4 29 -3 24 5 -4 7 -2 12 4 12 6 0 13
-7 16 -15 8 -19 48 -19 64 0 6 8 9 23 5 35 -5 16 0 23 27 35 24 10 28 14 13
15 -19 1 -19 2 3 12 24 12 30 28 10 28 -7 0 -2 9 12 20 21 17 23 21 10 30 -8
5 -10 10 -5 10 6 0 2 5 -8 11 -9 6 -27 8 -40 5 -12 -3 -16 -3 -9 0 19 9 14 32
-8 39 -15 5 -20 15 -20 39 0 46 13 53 26 14 9 -29 12 -30 21 -14z m-4301 -54
c-10 -75 -27 -110 -53 -110 -13 0 -23 -4 -23 -9 0 -23 13 -71 20 -71 13 0 60
53 75 84 8 17 24 37 35 44 19 12 20 10 20 -55 l0 -68 -71 -32 c-66 -30 -107
-35 -92 -10 3 6 1 7 -6 3 -6 -4 -36 4 -65 17 -30 14 -57 23 -60 19 -3 -3 -6 0
-6 6 0 7 -6 12 -14 12 -19 0 -15 102 5 126 7 9 12 33 12 55 -2 43 11 59 25 33
7 -12 21 -17 48 -16 33 1 41 -2 52 -25 6 -15 12 -34 12 -42 0 -11 4 -10 14 5
9 11 11 25 6 34 -9 16 5 48 29 67 26 20 44 -13 37 -67z m-338 54 c19 -6 14
-19 -22 -60 -22 -25 -38 -35 -50 -31 -9 4 -16 1 -16 -4 0 -6 -9 -9 -19 -6 -10
2 -24 1 -31 -3 -7 -5 -30 -2 -52 6 -21 7 -38 10 -38 7 0 -4 -5 -2 -12 5 -7 7
-27 12 -45 12 -26 0 -33 4 -33 19 0 11 5 23 12 27 7 5 9 1 6 -13 -5 -19 -4
-19 23 -6 18 9 26 19 22 29 -3 9 0 12 9 9 8 -3 27 -1 42 4 21 9 28 8 32 -4 4
-8 10 -15 16 -15 5 0 6 6 2 13 -6 9 -3 8 8 -1 14 -11 19 -10 35 6 14 16 27 19
58 15 22 -3 46 -6 53 -9z m-3687 -96 c72 -40 102 -143 65 -221 -10 -21 -28
-43 -40 -49 -20 -10 -20 -10 -4 8 48 55 57 137 22 192 -12 18 -18 21 -29 12
-11 -9 -11 -15 1 -38 16 -32 18 -71 4 -92 -8 -11 -9 -8 -4 12 6 28 -12 98 -26
98 -15 0 -32 -28 -20 -35 5 -3 9 -18 9 -33 -1 -20 -2 -22 -6 -7 -10 44 -12 46
-33 35 -11 -6 -18 -14 -16 -18 8 -13 -11 -35 -23 -28 -15 10 -14 33 3 39 7 3
27 30 44 61 33 62 30 66 -40 66 -81 0 -142 -55 -152 -135 -5 -47 22 -117 53
-137 12 -7 21 -16 21 -21 0 -18 -61 39 -77 72 -46 97 6 207 115 242 36 11 89
2 133 -23z m3743 -31 c-2 -12 -10 -27 -19 -33 -11 -8 -12 -13 -3 -22 8 -8 8
-12 1 -12 -6 0 -9 -15 -6 -40 3 -26 1 -40 -7 -40 -6 0 -9 -4 -6 -9 10 -15 -84
-44 -148 -45 -16 -1 -31 -6 -33 -12 -5 -16 44 -27 67 -14 24 13 50 13 50 0 0
-5 -3 -9 -7 -9 -5 1 -17 0 -28 -1 -16 -1 -15 -3 8 -12 30 -11 32 -16 14 -39
-19 -25 -45 -15 -93 35 -42 44 -55 64 -34 51 6 -3 7 1 4 10 -4 8 -13 14 -22
13 -20 -4 -28 57 -10 80 11 13 11 15 -5 9 -26 -10 -61 7 -77 38 -12 23 -12 27
0 35 10 6 21 3 36 -11 17 -16 32 -19 78 -17 43 2 56 7 55 18 -3 33 2 40 31 40
20 0 30 -5 30 -15 0 -12 9 -15 33 -12 35 4 69 19 68 30 -1 4 -1 15 -1 25 1 16
2 16 15 -1 7 -11 12 -29 9 -40z m7046 -127 c0 -6 -16 -18 -35 -27 -19 -9 -32
-20 -29 -24 2 -4 -5 -13 -16 -19 -26 -14 -63 -87 -55 -108 3 -9 3 -13 -1 -10
-3 4 -15 -2 -27 -12 -11 -11 -17 -23 -14 -27 4 -3 7 -1 7 5 0 7 5 12 11 12 5
0 7 -6 3 -12 -3 -7 9 3 28 23 19 20 42 53 52 73 9 20 28 43 41 52 27 17 65 11
65 -11 0 -22 -42 -87 -83 -129 -35 -36 -40 -38 -83 -33 -27 4 -42 2 -39 -3 4
-6 4 -10 1 -10 -3 0 -10 9 -17 21 -9 18 -7 25 14 48 14 14 32 42 40 62 8 20
26 45 41 56 16 13 22 23 14 25 -7 3 6 16 27 31 43 29 55 33 55 17z m-1076 -75
c14 -15 12 -45 -3 -45 -4 0 -13 -11 -19 -24 -6 -14 -27 -42 -46 -64 -31 -34
-41 -39 -78 -38 -24 1 -42 4 -40 9 1 4 2 12 2 18 0 5 5 7 10 4 6 -3 10 -2 10
2 0 5 15 26 34 48 19 22 33 42 30 44 -7 7 55 61 70 61 8 0 21 -7 30 -15z m540
9 c20 -8 21 -38 1 -54 -8 -7 -15 -20 -15 -29 0 -24 -67 -90 -98 -97 -15 -3
-32 -7 -38 -9 -6 -2 -16 1 -22 7 -8 8 -3 19 16 37 39 39 64 72 58 78 -6 6 60
73 73 73 5 0 16 -3 25 -6z m-7071 -103 c3 9 6 6 6 -8 1 -12 -3 -25 -9 -28 -14
-9 -13 -62 2 -71 7 -5 8 -3 3 6 -4 7 -2 16 6 21 24 15 30 10 23 -18 -4 -22 -3
-25 5 -13 7 10 11 11 11 3 0 -7 19 -25 43 -40 23 -16 51 -36 61 -46 11 -9 39
-26 62 -38 38 -18 48 -19 86 -8 63 17 71 17 96 6 24 -11 45 -1 24 12 -8 5 0
12 23 21 19 8 35 17 35 22 0 4 4 8 9 8 4 0 7 -10 6 -22 -1 -13 -3 -33 -4 -45
-1 -17 -7 -23 -26 -23 -14 0 -25 -4 -25 -10 0 -5 8 -10 17 -10 13 0 14 -3 6
-11 -7 -7 -30 -12 -52 -12 -31 0 -38 -3 -33 -15 4 -12 0 -14 -16 -10 -22 6
-30 -6 -12 -17 6 -3 10 -12 10 -18 0 -8 -2 -9 -8 -1 -7 11 -46 34 -57 34 -3 0
7 -12 22 -26 18 -16 24 -27 16 -30 -7 -3 -9 -12 -6 -21 6 -14 0 -15 -40 -10
-26 4 -59 10 -74 13 -25 7 -26 6 -19 -27 3 -18 15 -43 26 -54 35 -37 25 -43
-65 -43 -49 0 -83 3 -80 9 4 5 -4 10 -17 10 -20 2 -20 2 -3 6 40 8 84 56 90
98 4 22 3 35 -2 28 -10 -13 -105 -19 -145 -8 -19 5 -27 13 -25 26 4 25 9 29
54 44 l38 13 -27 7 c-16 4 -28 13 -28 21 0 8 -5 14 -12 14 -6 0 -8 3 -4 7 3 4
-12 14 -35 22 -22 9 -40 20 -39 26 1 5 -7 12 -17 16 -14 6 -11 8 12 9 l30 2
-28 8 c-45 14 -57 29 -57 74 0 42 13 61 60 86 18 9 24 9 30 0 12 -19 32 -1 25
23 -5 20 -4 20 8 -2 11 -18 16 -20 20 -10z m-3197 -106 c64 -32 94 -81 94
-155 0 -28 -5 -61 -11 -73 -20 -39 -61 -76 -77 -70 -11 5 -13 3 -7 -7 6 -9 4
-11 -5 -5 -10 6 -9 11 5 22 11 7 21 13 24 13 3 0 16 15 29 33 29 43 30 119 2
165 -80 132 -280 74 -280 -81 0 -44 27 -104 51 -115 3 -1 14 -9 24 -16 14 -10
15 -15 5 -21 -9 -6 -11 -4 -5 5 6 10 4 12 -7 7 -16 -6 -51 27 -75 70 -21 37
-16 120 9 164 24 43 101 89 148 89 14 0 49 -11 76 -25z m15192 -15 c34 -15 47
-29 64 -66 18 -41 19 -52 8 -87 -15 -51 -48 -83 -100 -97 -37 -10 -47 -9 -88
12 -38 19 -50 32 -66 71 -19 47 -19 47 0 95 15 38 28 51 64 70 54 27 63 27
118 2z m-9898 -23 c14 -2 90 -5 170 -6 80 -2 139 -5 132 -8 -6 -2 -10 -9 -7
-14 4 -5 -1 -6 -9 -3 -9 3 -16 1 -16 -5 0 -17 -60 -13 -66 4 -5 13 -8 12 -22
-1 -13 -13 -13 -17 -1 -24 24 -15 -15 -23 -58 -11 -21 6 -43 11 -49 11 -13 0
-15 -31 -2 -47 5 -6 5 -13 1 -15 -4 -2 -89 -3 -188 -3 l-180 0 -3 54 c-5 87
-10 84 141 77 72 -3 143 -7 157 -9z m2033 -17 c4 0 6 4 3 8 -3 5 1 9 8 9 8 0
11 -8 8 -19 -2 -10 1 -18 7 -18 6 0 11 7 11 16 0 8 5 12 10 9 6 -4 18 -1 26 6
8 7 14 8 13 3 -2 -5 1 -19 5 -32 18 -53 -18 -93 -53 -59 -11 10 -14 10 -18 0
-6 -16 -39 -17 -49 -2 -4 8 -9 8 -17 0 -18 -18 -55 -13 -62 9 -9 29 23 79 47
72 17 -4 17 -5 2 -17 -16 -11 -16 -12 0 -18 9 -4 15 -3 12 2 -3 5 1 12 10 15
10 4 14 12 9 24 -5 14 -4 15 6 5 7 -7 17 -13 22 -13z m-294 -35 c2 -50 -16
-68 -50 -46 -15 8 -24 8 -38 -1 -15 -9 -23 -9 -34 1 -10 8 -17 9 -22 1 -11
-17 -53 -12 -60 9 -10 31 15 71 44 71 23 0 24 -1 7 -13 -17 -12 -17 -14 -3
-20 11 -4 21 1 27 13 11 21 45 27 55 10 4 -7 11 -8 18 -2 7 6 21 12 32 15 11
2 20 5 21 6 0 0 1 -19 3 -44z m9455 25 c20 -7 26 -16 25 -37 0 -16 -3 -22 -6
-16 -3 10 -10 10 -25 2 -11 -6 -28 -9 -37 -6 -13 3 -16 -3 -15 -30 1 -18 -2
-30 -7 -27 -5 3 -7 9 -5 13 3 4 -8 5 -24 3 -40 -6 -80 5 -80 23 0 7 -9 17 -20
20 -11 3 -20 13 -20 21 0 22 49 37 86 26 22 -7 36 -5 49 4 22 16 44 18 79 4z
m-16593 -17 c1 -17 2 -17 6 0 2 9 13 17 24 17 11 0 19 -7 20 -17 1 -17 2 -17
6 0 2 9 11 17 19 17 16 0 20 -55 4 -65 -5 -3 -10 -21 -10 -40 0 -19 5 -37 10
-40 13 -8 13 -35 -1 -35 -5 0 -8 4 -5 9 3 4 -17 4 -45 -1 -58 -10 -69 -6 -51
22 15 24 16 76 2 85 -16 10 -12 65 5 65 8 0 16 -8 16 -17z m5279 -135 c0 -4 7
-8 16 -8 8 0 12 -5 9 -11 -4 -6 2 -13 14 -16 23 -6 27 -18 11 -28 -6 -4 -8
-15 -5 -25 5 -16 1 -19 -25 -18 -17 1 -36 -4 -42 -10 -15 -15 -138 -16 -138
-1 0 5 -4 7 -10 4 -5 -3 -10 -1 -10 4 0 6 8 11 18 11 16 1 16 1 0 11 -22 12
-24 59 -3 59 8 0 15 5 15 10 0 6 7 10 15 10 8 0 15 5 15 10 0 6 24 10 60 8 33
-1 60 -6 60 -10z m1716 -19 c4 -8 9 -8 17 0 18 18 48 13 54 -9 l6 -21 14 21
c8 11 24 20 36 20 20 -1 21 -1 4 -11 -17 -10 -17 -12 -2 -23 10 -7 16 -21 13
-32 -4 -23 -47 -32 -60 -12 -7 10 -11 10 -15 1 -7 -18 -40 -16 -51 3 -8 15
-10 15 -15 0 -7 -19 -56 -22 -58 -3 -2 20 3 61 8 70 7 11 41 8 49 -4z m2791
-12 c-8 -29 2 -43 40 -59 l32 -14 -19 -41 c-19 -43 -61 -76 -68 -55 -2 8 -10
9 -20 3 -21 -10 -78 -8 -89 3 -5 5 -2 6 6 1 10 -5 12 -4 7 3 -5 9 -13 9 -28 1
-15 -8 -23 -8 -32 1 -8 8 -6 9 7 4 14 -5 18 -2 15 12 -2 16 2 19 30 16 17 -1
32 2 32 8 0 5 6 10 14 10 16 0 31 34 21 50 -12 19 24 10 45 -12 15 -16 23 -19
31 -11 9 9 3 15 -23 26 -45 19 -57 37 -29 44 12 3 21 12 21 19 0 8 3 14 6 14
3 0 4 -10 1 -23z"/>
<path d="M4442 10351 c-17 -10 -11 -59 10 -78 10 -9 18 -12 18 -8 0 5 9 -1 20
-13 11 -12 20 -26 20 -32 0 -6 5 -8 12 -4 6 4 8 3 4 -4 -3 -6 -2 -13 4 -17 5
-3 10 -12 10 -18 0 -7 -4 -6 -10 3 -5 8 -10 10 -10 4 0 -18 13 -24 27 -12 11
8 12 7 7 -6 -8 -20 12 -41 74 -77 23 -14 40 -28 38 -30 -5 -5 22 -9 63 -9 13
0 30 5 38 12 12 10 12 13 -2 20 -8 5 -13 13 -10 18 3 4 -2 11 -11 14 -10 4
-13 2 -8 -7 4 -6 4 -10 1 -7 -90 79 -155 146 -150 154 4 6 -2 4 -12 -4 -10 -8
-16 -10 -12 -4 4 6 -7 22 -23 34 -17 13 -30 31 -30 41 0 10 -4 21 -10 24 -6 4
-7 -1 -3 -12 5 -15 2 -14 -18 4 -14 13 -29 19 -37 14z"/>
<path d="M4597 9803 c-7 -11 5 -58 23 -94 28 -55 84 -128 93 -122 6 3 7 1 3
-5 -7 -12 102 -102 125 -102 20 0 40 46 35 80 -6 45 -49 124 -61 112 -4 -4 -5
1 -2 11 4 11 3 16 -3 12 -11 -7 -51 55 -44 67 3 5 2 8 -3 7 -20 -3 -34 2 -28
11 4 6 -1 7 -11 3 -10 -3 -15 -2 -12 3 4 5 -4 10 -15 10 -12 1 -38 5 -58 9
-21 4 -39 3 -42 -2z"/>
<path d="M4043 10304 c-24 -11 -13 -41 32 -82 46 -42 90 -62 104 -46 14 15 27
68 23 91 -2 12 -10 24 -19 27 -24 10 -126 17 -140 10z"/>
<path d="M6372 9465 c-10 -12 -10 -20 3 -46 9 -17 14 -38 10 -47 -3 -9 -3 -13
1 -9 5 4 22 -17 39 -48 18 -30 35 -52 39 -48 4 4 4 0 1 -9 -4 -11 5 -27 26
-47 17 -17 35 -31 39 -31 4 0 22 15 42 33 38 35 68 90 44 81 -8 -3 -17 0 -22
7 -5 8 -3 10 7 4 38 -23 -20 31 -71 65 -30 21 -71 54 -90 74 -38 39 -49 42
-68 21z"/>
<path d="M2907 6026 c-3 -8 -24 -17 -46 -21 -23 -4 -41 -11 -41 -16 0 -12 -97
-12 -105 1 -3 6 -22 10 -41 10 -31 0 -34 -3 -33 -27 0 -16 3 -22 6 -15 10 24
25 12 18 -15 -5 -22 -4 -24 7 -15 11 9 22 2 53 -33 29 -34 41 -42 51 -34 7 6
10 17 7 25 -6 17 13 19 20 2 4 -8 8 -4 12 10 8 25 35 30 35 7 0 -8 7 -15 15
-15 8 0 15 5 15 11 0 21 63 109 79 109 11 1 7 6 -9 15 -32 18 -37 18 -43 1z"/>
<path d="M17605 410 c-57 -23 -86 -95 -61 -153 19 -47 59 -72 113 -71 61 1
113 55 113 116 0 74 -96 137 -165 108z m25 -72 c0 6 9 12 20 12 11 0 20 -6 20
-12 1 -7 9 -3 20 10 19 23 19 23 30 2 9 -16 8 -22 -4 -26 -12 -5 -13 -10 -5
-26 7 -12 7 -23 2 -27 -5 -3 -12 -14 -16 -24 -15 -39 -80 -38 -94 1 -4 9 -11
20 -16 23 -5 4 -5 15 2 27 8 16 7 21 -5 26 -12 5 -13 10 -3 27 l11 22 19 -24
c10 -13 19 -18 19 -11z"/>
</g>
</svg>
