<?xml version="1.0" standalone="no"?>
<!DOCTYPE svg PUBLIC "-//W3C//DTD SVG 20010904//EN"
 "http://www.w3.org/TR/2001/REC-SVG-20010904/DTD/svg10.dtd">
<svg version="1.0" xmlns="http://www.w3.org/2000/svg"
 width="1920.000000pt" height="1080.000000pt" viewBox="0 0 1920.000000 1080.000000"
 preserveAspectRatio="xMidYMid meet">
<metadata>
Created by potrace 1.16, written by Peter Selinger 2001-2019
</metadata>
<g transform="translate(0.000000,1080.000000) scale(0.100000,-0.100000)"
fill="#000000" stroke="none">
<path d="M0 5400 l0 -5400 9600 0 9600 0 0 5400 0 5400 -5491 0 c-4880 0
-5490 -2 -5479 -15 11 -13 4 -15 -50 -15 -63 0 -63 0 -42 -19 12 -10 22 -23
22 -30 0 -15 12 -14 46 4 39 20 49 19 62 -9 9 -20 7 -25 -14 -36 -13 -8 -24
-17 -24 -21 0 -3 -12 -15 -27 -24 -20 -14 -44 -17 -100 -16 -58 2 -73 -1 -73
-12 0 -10 -17 -17 -55 -22 -30 -3 -55 -11 -55 -16 0 -5 5 -9 10 -9 6 0 10 -4
10 -9 0 -6 -10 -8 -22 -5 -44 8 -111 -8 -135 -34 -12 -13 -28 -22 -35 -20 -7
3 -22 2 -33 -3 -17 -6 -17 -8 -2 -8 22 -1 22 -14 -1 -34 -25 -23 -39 -21 -53
4 -12 23 2 63 31 86 13 10 13 12 -2 18 -25 10 -49 -1 -42 -20 3 -8 1 -15 -5
-15 -6 0 -11 6 -11 14 0 8 -7 17 -16 20 -13 5 -14 9 -4 21 7 8 13 38 15 67 1
29 7 64 12 78 11 27 7 50 -9 50 -6 0 -5 6 2 15 11 13 -413 15 -3809 15 l-3821
0 0 -5400z m7932 4983 c2 -22 8 -27 24 -25 27 4 55 -37 47 -67 -5 -18 -10 -21
-32 -16 -14 4 -33 13 -42 21 -23 20 -25 18 -26 -23 -1 -50 19 -87 57 -103 16
-7 30 -17 30 -22 0 -5 4 -7 9 -4 10 6 31 -37 31 -63 0 -10 7 -24 15 -31 8 -7
12 -18 7 -25 -4 -8 -5 -58 -2 -112 5 -85 3 -102 -13 -124 -10 -14 -22 -55 -27
-90 -13 -106 -34 -179 -51 -179 -5 0 -9 -6 -9 -14 0 -15 -27 -29 -40 -21 -5 3
-11 1 -15 -5 -11 -18 -47 -11 -52 10 -7 27 -23 25 -49 -7 -20 -26 -22 -26 -55
-12 -19 7 -38 14 -44 14 -14 0 -19 55 -6 68 14 14 14 47 1 47 -5 0 -10 6 -10
13 0 9 -12 13 -37 11 -71 -5 -103 -16 -124 -43 -20 -25 -21 -25 -35 -7 -8 11
-14 23 -14 28 0 4 -6 8 -12 8 -7 0 -29 16 -48 35 -40 41 -54 43 -75 11 -11
-17 -14 -38 -10 -76 4 -41 2 -50 -8 -42 -6 5 -23 12 -36 14 -25 3 -29 9 -56
68 -12 29 -21 36 -42 35 -23 0 -30 6 -38 33 -17 51 -27 56 -79 43 -57 -14 -56
-14 -57 7 0 12 -3 11 -10 -7 -8 -20 -11 -21 -25 -10 -10 8 -12 15 -5 17 6 2
11 10 11 18 0 11 8 14 28 11 15 -3 45 -2 66 2 l39 6 -2 75 c-2 82 -15 103 -61
98 -20 -3 -26 -12 -40 -63 -21 -82 -28 -92 -47 -65 -17 24 -11 50 11 50 16 0
23 18 25 64 0 16 7 41 15 57 12 24 11 29 -2 43 -15 15 -15 16 0 16 8 0 22 7
29 16 11 14 10 18 -5 29 -10 8 -24 11 -32 8 -8 -3 -14 0 -14 6 0 6 -10 15 -23
20 -19 8 -23 17 -25 65 -2 59 13 87 57 101 17 5 21 2 21 -15 0 -19 4 -21 28
-14 15 4 37 7 50 7 12 -1 22 2 22 6 0 4 12 13 26 20 23 10 30 9 48 -7 52 -46
109 -67 105 -39 -2 17 12 57 20 57 4 0 16 17 26 38 14 27 20 32 22 20 4 -17
34 -24 84 -19 20 2 34 -30 18 -39 -8 -6 -8 -9 0 -14 6 -4 11 -16 11 -26 0 -10
8 -24 18 -29 15 -10 16 -12 1 -24 -23 -18 -34 -57 -16 -57 8 0 17 -11 19 -24
4 -19 0 -26 -17 -30 -23 -6 -43 -36 -24 -36 5 0 14 -11 19 -25 9 -24 30 -35
30 -15 0 6 3 9 8 8 22 -4 42 17 42 45 0 29 1 30 19 13 11 -10 24 -15 30 -12 5
3 24 -6 41 -21 31 -26 33 -26 58 -9 15 9 35 20 45 23 27 8 20 30 -23 75 -21
23 -37 45 -34 50 3 4 -8 16 -25 26 -17 9 -31 20 -31 25 0 4 -9 7 -20 7 -11 0
-20 6 -20 14 0 7 -9 16 -20 19 -13 3 -20 13 -20 29 1 20 2 21 13 7 7 -9 22
-21 35 -28 20 -11 27 -10 42 4 12 11 20 13 25 6 12 -20 24 -11 31 24 6 31 9
34 36 31 16 -1 33 -8 37 -14 5 -8 20 -5 51 10 25 12 47 25 50 28 5 7 29 18 42
19 4 1 8 -11 10 -26z m942 -525 c-7 -13 -65 -93 -114 -158 -40 -53 -56 -85
-101 -200 -49 -123 -119 -328 -119 -347 0 -23 -41 -123 -51 -123 -20 0 -11 41
61 279 43 144 103 291 147 364 45 73 213 249 177 185z m2391 -1429 c-67 -164
-108 -249 -156 -319 -60 -88 -67 -177 -11 -142 21 14 101 133 113 169 8 26 8
37 -1 48 -17 20 6 79 27 71 8 -3 11 -1 8 4 -12 19 5 30 26 17 18 -10 23 -8 40
16 23 31 41 35 38 10 -5 -39 12 -73 37 -73 30 0 48 -40 39 -86 -4 -23 -1 -33
10 -38 8 -3 15 -12 15 -21 0 -8 4 -15 8 -15 5 0 24 -21 42 -47 18 -27 35 -50
37 -53 3 -3 9 3 14 13 6 9 16 17 24 17 20 0 75 62 95 107 20 46 69 105 80 98
4 -3 11 6 14 19 7 28 36 42 48 24 4 -7 8 -28 8 -46 l0 -33 29 20 c16 12 31 21
34 21 13 0 26 -66 21 -101 -6 -35 -4 -39 20 -45 14 -3 32 -18 39 -33 9 -18 19
-25 34 -23 28 4 53 -33 53 -80 0 -20 4 -39 9 -43 15 -9 11 -84 -6 -138 -8 -27
-13 -50 -11 -53 3 -2 22 9 43 26 21 17 40 29 42 26 3 -3 -15 -78 -44 -178 -3
-11 0 -18 7 -18 7 0 19 -8 26 -17 11 -17 13 -15 24 12 6 17 15 63 20 103 4 40
10 76 13 79 12 11 26 -10 42 -62 8 -30 19 -55 24 -55 15 0 25 155 23 375 0
116 3 217 8 225 7 11 10 11 10 2 0 -7 11 -78 25 -158 27 -157 31 -209 15 -199
-6 4 -10 -6 -9 -22 1 -35 17 -86 18 -60 1 9 10 34 21 54 11 21 20 45 20 54 0
22 86 178 112 204 l20 20 -12 -25 c-7 -14 -18 -32 -26 -40 -32 -38 -84 -217
-115 -404 -5 -27 -12 -52 -17 -55 -5 -3 -13 -17 -17 -30 -5 -17 -4 -22 6 -19
8 3 15 15 17 27 2 12 9 20 15 18 21 -7 13 -24 -33 -78 -70 -82 -102 -129 -87
-129 7 0 19 6 27 13 7 6 3 -2 -9 -20 -21 -32 -77 -83 -89 -83 -4 0 -23 -20
-42 -45 -19 -24 -39 -44 -44 -45 -6 0 -5 5 2 12 14 14 16 28 3 28 -5 0 -14
-15 -20 -32 -13 -40 -56 -75 -136 -114 -33 -15 -75 -41 -94 -57 -37 -31 -49
-30 -31 3 11 21 11 22 -15 16 -25 -6 -74 -51 -75 -68 0 -5 -4 -8 -10 -8 -5 0
4 32 21 70 29 69 29 72 23 193 -4 67 -10 128 -14 136 -5 9 -32 -15 -90 -80
-46 -52 -109 -111 -139 -133 -31 -21 -78 -59 -104 -85 -47 -44 -97 -130 -97
-164 0 -35 -19 -15 -36 38 -18 59 -12 91 7 36 6 -17 16 -30 21 -29 5 2 21 32
35 68 15 35 36 72 47 81 12 10 18 21 14 25 -5 4 -17 -1 -28 -11 -20 -18 -20
-17 -20 7 0 42 -54 148 -75 148 -14 0 -45 -86 -45 -122 0 -16 -4 -28 -10 -28
-6 0 -10 30 -10 69 0 75 -4 82 -63 101 -32 10 -41 9 -63 -5 l-26 -17 6 29 c6
31 9 75 7 113 -1 14 -17 51 -36 82 -35 56 -36 56 -63 42 -15 -7 -33 -14 -39
-14 -20 0 -15 18 7 25 17 5 20 15 19 63 -1 72 -11 107 -29 107 -16 0 -17 12
-6 62 6 25 4 32 -11 36 -16 4 -16 6 3 12 24 8 40 36 50 92 3 21 14 47 24 58 9
11 27 38 40 60 13 22 50 77 83 122 34 48 75 123 99 180 22 53 48 109 59 124
10 15 19 29 19 32 0 15 21 59 26 54 3 -2 -16 -56 -41 -118z m-2841 -156 c21
-160 61 -340 80 -363 7 -8 26 -50 41 -93 16 -43 40 -94 54 -112 66 -86 89
-114 135 -162 26 -29 54 -60 62 -71 7 -10 33 -35 57 -55 l44 -36 -4 72 c-3 43
2 110 12 167 9 52 19 112 22 133 3 20 9 40 14 43 5 3 9 2 8 -3 -5 -27 1 -35
16 -23 9 7 18 10 22 7 3 -4 10 -46 14 -94 11 -123 25 -188 55 -252 15 -31 30
-69 33 -86 6 -25 12 -30 34 -28 34 2 34 -2 -4 -39 l-30 -31 -40 33 c-43 35
-58 35 -39 0 16 -29 7 -35 -31 -20 -59 25 -270 228 -360 347 -38 51 -74 95
-79 98 -34 21 -77 151 -105 315 -9 52 -20 120 -25 150 -16 89 -24 240 -13 240
5 0 17 -62 27 -137z m2223 -245 c-73 -166 -121 -351 -132 -511 -4 -51 -11
-105 -16 -122 -11 -40 -13 -87 -4 -163 7 -52 5 -65 -8 -75 -12 -8 -17 -30 -19
-72 l-2 -60 -43 -1 c-31 -1 -70 -15 -133 -48 -56 -29 -102 -46 -124 -46 -19 0
-38 -4 -41 -10 -3 -5 -17 -10 -30 -10 -13 0 -37 -11 -53 -25 -17 -14 -37 -25
-45 -25 -9 0 -19 -4 -22 -10 -11 -18 -23 -11 -30 18 -7 34 -121 193 -160 223
-22 18 -29 20 -36 8 -7 -11 -10 -11 -21 4 -12 16 -19 16 -73 5 -33 -6 -127
-12 -210 -12 -135 -1 -154 2 -195 22 -44 21 -44 22 -10 15 52 -9 131 -6 143 6
6 6 21 11 34 11 28 0 29 10 4 58 -30 57 -91 254 -91 292 l0 34 18 -23 c9 -14
33 -56 52 -95 51 -103 122 -146 177 -108 91 62 111 72 146 72 28 0 40 6 53 25
9 14 24 25 34 25 10 0 23 7 30 15 7 9 18 14 23 12 6 -2 19 5 28 14 10 10 36
23 59 29 29 8 44 18 50 36 10 25 34 31 59 15 10 -6 26 -2 51 14 21 13 53 30
72 38 19 8 49 28 65 44 17 16 52 36 79 43 63 18 98 55 119 127 27 96 53 143
80 143 12 0 28 7 35 15 7 8 18 15 24 15 6 0 20 11 30 25 19 26 42 35 33 13z
m224 -1210 c76 -115 91 -162 67 -213 -14 -31 -25 -31 -76 -4 -34 18 -44 32
-67 91 -23 60 -27 79 -21 130 11 105 26 104 97 -4z m-273 -118 c-1 -14 3 -39
9 -55 6 -17 14 -54 17 -83 6 -66 33 -124 63 -137 27 -11 33 -32 33 -112 0 -68
11 -84 40 -58 30 28 50 4 50 -59 0 -44 9 -95 25 -144 6 -18 112 38 159 84 43
42 49 42 41 3 -5 -21 -3 -34 6 -39 14 -9 123 29 174 60 18 11 35 20 39 20 12
0 6 -24 -11 -42 -16 -18 -15 -19 24 -12 26 4 43 2 47 -5 16 -25 84 -3 136 43
56 50 91 62 160 56 69 -6 67 -10 -17 -34 -29 -8 -91 -35 -139 -60 -48 -25 -92
-46 -98 -46 -19 0 -56 -44 -56 -66 0 -13 -5 -26 -11 -29 -5 -4 -14 -17 -19
-30 -8 -20 -56 -43 -67 -31 -3 2 1 14 7 26 9 17 9 25 1 33 -9 9 -19 3 -39 -23
-14 -19 -42 -50 -62 -68 -19 -18 -45 -42 -56 -53 l-21 -19 8 42 c16 82 13 84
-53 23 -35 -31 -85 -72 -113 -91 -81 -55 -84 -59 -79 -82 5 -17 -8 -69 -34
-139 -2 -8 5 -13 22 -13 25 0 26 -3 26 -53 0 -48 20 -100 33 -87 3 3 23 39 45
80 38 71 42 74 76 76 20 0 39 -3 43 -8 3 -6 -12 -27 -33 -49 -42 -43 -42 -52
2 -40 23 6 28 12 26 30 -3 18 0 22 15 17 26 -8 44 6 67 56 12 23 24 41 27 38
9 -7 39 20 39 36 0 17 42 82 58 88 8 4 12 -7 12 -37 0 -48 9 -87 19 -87 4 0
15 15 24 33 21 40 27 50 101 162 71 108 104 145 128 145 10 0 18 7 18 15 0 8
-5 15 -10 15 -7 0 -7 6 -1 19 6 10 8 21 4 24 -3 4 3 10 13 13 30 11 54 36 54
56 0 24 8 23 31 -4 21 -27 24 -41 7 -35 -20 6 -48 -49 -48 -96 0 -24 4 -37 8
-30 12 19 92 113 130 151 19 21 38 32 47 28 8 -3 15 -1 15 4 0 13 83 129 93
129 4 1 7 -8 7 -19 0 -11 -7 -20 -15 -20 -8 0 -19 -16 -25 -38 -5 -21 -26 -56
-46 -78 -34 -38 -35 -38 -29 -11 3 15 1 27 -5 27 -14 0 -37 -40 -45 -80 -4
-19 -14 -45 -22 -58 -8 -13 -12 -31 -10 -40 3 -13 6 -11 17 10 13 27 38 44 48
33 3 -3 0 -22 -7 -42 -12 -32 -12 -38 3 -48 23 -17 20 -36 -13 -81 -33 -45
-48 -84 -31 -84 15 0 61 30 83 55 18 20 19 20 12 -10 -4 -17 -17 -38 -29 -48
-11 -10 -29 -25 -38 -32 -10 -8 -18 -26 -18 -40 0 -28 -27 -46 -57 -39 -26 7
-94 -34 -92 -55 5 -34 -28 -87 -62 -100 -19 -7 -46 -19 -60 -26 -14 -8 -34
-12 -45 -9 -13 3 -36 -10 -72 -40 -56 -48 -95 -60 -91 -28 3 31 -1 35 -18 21
-12 -10 -15 -10 -9 -1 9 15 -2 52 -16 52 -22 0 -88 -78 -88 -104 0 -33 7 -32
50 4 40 35 50 37 50 12 0 -20 -132 -162 -151 -162 -15 0 -49 30 -49 43 0 5 8
16 17 23 20 14 17 21 -12 26 -13 2 -19 -2 -17 -11 3 -14 -40 23 -142 122 -58
56 -335 267 -350 267 -16 0 -29 -59 -20 -85 4 -10 1 -21 -7 -26 -22 -14 -31
-10 -24 10 3 11 1 22 -5 26 -10 6 -40 69 -40 84 0 3 12 12 28 18 90 40 105 44
115 34 21 -21 35 -11 49 32 10 28 24 46 41 55 26 13 27 15 27 108 0 52 5 115
11 140 6 25 9 48 5 51 -4 4 -20 -1 -36 -11 l-30 -17 -2 38 c-2 54 -2 53 6 111
6 50 6 53 -13 43 -14 -8 -22 -7 -31 4 -10 12 -8 23 9 55 27 53 28 85 3 142
-12 26 -18 47 -14 47 19 -3 20 4 7 42 -18 49 -18 49 -5 49 5 0 12 -11 16 -25
3 -14 10 -25 14 -25 12 0 22 51 12 63 -9 11 -25 76 -27 104 0 6 -4 15 -8 19
-4 4 -7 14 -7 21 0 11 6 10 25 -4 17 -12 24 -26 23 -43z m-303 -10 c-8 -36 0
-38 26 -7 23 27 26 5 4 -33 -20 -35 -20 -57 0 -40 39 32 25 -30 -21 -91 -26
-35 -35 -107 -11 -92 6 4 20 6 31 4 10 -1 15 2 12 7 -4 6 -2 13 4 17 5 3 10 1
10 -6 0 -8 4 -8 15 1 25 21 26 8 5 -66 -18 -65 -41 -97 -85 -121 -18 -11 -9
-53 12 -53 9 0 13 -6 10 -14 -8 -20 26 -49 40 -35 6 6 17 9 25 7 9 -3 2 -15
-21 -38 -18 -19 -29 -36 -22 -38 14 -5 15 -49 1 -57 -11 -7 -7 -96 5 -115 3
-5 14 -10 24 -10 9 0 30 -13 46 -30 16 -16 35 -30 42 -30 22 0 15 -26 -22 -76
-20 -27 -38 -57 -42 -67 -8 -24 -14 -20 -58 32 -27 33 -35 51 -32 70 3 14 -2
36 -11 49 -12 19 -13 25 -3 32 17 10 5 66 -16 74 -11 4 -14 2 -9 -9 6 -17 -29
-22 -39 -5 -3 6 -1 10 6 10 7 0 2 12 -12 26 -37 39 -63 158 -63 279 1 131 12
220 27 217 10 -1 16 13 20 50 6 60 43 157 66 176 28 22 43 15 36 -18z m2001
-78 c-8 -63 -47 -171 -83 -225 -15 -24 -43 -67 -62 -95 -19 -29 -40 -52 -47
-52 -8 0 -20 -13 -29 -30 -12 -23 -22 -30 -45 -30 -50 0 -80 -69 -45 -104 18
-18 20 -49 3 -44 -23 8 -41 61 -39 113 1 27 -3 64 -7 80 -13 41 -68 99 -88 91
-9 -3 -20 -3 -26 0 -6 4 14 19 43 34 106 54 135 68 174 86 24 10 80 59 139
121 55 57 104 103 109 103 5 0 6 -22 3 -48z m-661 -131 c0 -38 -3 -45 -22 -46
-12 -1 -40 -14 -63 -30 -36 -25 -49 -28 -116 -27 -65 0 -80 4 -100 23 -30 28
-30 40 -1 66 50 46 105 60 227 59 l75 -1 0 -44z m-3133 7 c13 -19 24 -23 73
-23 42 0 61 -4 68 -16 13 -20 1 -69 -17 -69 -7 0 -34 -21 -60 -46 l-48 -46
-16 23 c-10 13 -27 57 -39 97 -18 58 -20 76 -10 87 17 20 33 18 49 -7z m1218
-16 c0 -15 -9 -60 -20 -100 -11 -39 -20 -74 -20 -78 0 -3 9 -2 20 1 14 5 20 2
20 -9 0 -9 -4 -16 -10 -16 -5 0 -10 -7 -10 -15 0 -14 -26 -28 -95 -56 -32 -12
-95 -22 -162 -25 -38 -2 -76 -10 -100 -23 -89 -48 -96 -63 -94 -217 2 -118 -4
-174 -18 -174 -3 0 -5 54 -4 120 2 103 0 118 -13 113 -10 -4 -15 -1 -13 8 6
30 -14 136 -32 171 -11 21 -32 52 -48 70 -26 30 -61 89 -61 103 0 3 7 5 15 5
8 0 15 5 15 11 0 6 8 8 19 4 14 -4 20 1 25 20 8 32 26 32 66 -1 24 -20 28 -29
19 -40 -6 -7 -9 -19 -6 -26 2 -7 -2 -20 -10 -29 -12 -14 -12 -19 2 -32 8 -9
15 -20 15 -26 0 -6 8 -7 19 -3 11 4 19 11 18 15 -3 14 27 26 99 41 41 9 76 11
89 6 22 -8 35 0 118 78 16 15 20 15 30 2 7 -8 23 -15 37 -15 22 0 26 6 33 49
13 76 57 130 57 68z m729 -1279 c22 -27 38 -53 35 -55 -8 -9 85 -82 106 -83
27 -2 70 -33 79 -58 15 -38 92 -119 109 -112 16 6 27 -6 73 -74 32 -50 37 -71
14 -71 -8 0 -15 5 -15 10 0 17 -17 11 -49 -17 -34 -30 -38 -54 -19 -118 l12
-40 7 45 c3 25 5 57 3 72 -3 25 19 47 30 30 2 -4 6 -63 7 -132 4 -120 3 -125
-17 -128 -14 -2 -24 5 -31 21 -6 14 -24 40 -40 58 -43 51 -84 134 -82 166 3
37 -27 147 -53 198 -21 40 -30 51 -131 155 -29 31 -58 71 -66 90 -11 30 -34
84 -50 114 -11 23 42 -25 78 -71z m-4669 -27 c0 -22 6 -36 16 -40 13 -5 15
-22 11 -108 -3 -57 -10 -115 -17 -130 -11 -24 -10 -37 5 -88 10 -33 15 -63 12
-66 -4 -4 -18 1 -32 10 -14 9 -33 15 -42 14 -9 -2 -18 3 -21 10 -2 9 3 12 14
10 15 -2 20 6 26 47 7 49 3 69 -10 49 -4 -6 -27 -14 -52 -17 -39 -6 -43 -5
-27 7 20 15 22 38 6 68 -13 24 -5 35 14 20 17 -15 27 -6 27 25 0 31 18 65 30
58 10 -6 22 47 19 80 -4 41 1 85 11 85 6 0 10 -15 10 -34z m5785 -63 c-30 -45
-31 -56 -5 -48 24 8 25 -1 5 -48 -19 -47 -20 -98 -2 -91 12 4 107 171 115 201
5 17 42 27 54 15 8 -8 4 -27 -11 -62 -23 -54 -22 -80 4 -80 11 0 3 -17 -26
-60 -50 -74 -143 -170 -164 -170 -23 0 -18 8 14 24 17 9 35 31 45 56 24 59 19
71 -9 24 -20 -33 -39 -49 -95 -75 -55 -26 -76 -41 -95 -73 -32 -53 -60 -86
-74 -86 -14 0 -14 6 0 50 6 19 12 51 13 70 4 42 59 160 87 185 12 12 19 31 19
55 0 41 51 120 78 120 10 1 28 7 42 15 14 8 26 14 28 15 1 0 -9 -17 -23 -37z
m-2541 -623 c34 -52 88 -144 120 -205 57 -108 205 -365 216 -375 3 -3 18 -30
34 -60 16 -30 48 -91 72 -135 24 -44 44 -83 44 -87 0 -17 -29 -7 -35 12 -3 11
-21 41 -39 67 -48 71 -136 238 -136 259 0 11 -27 62 -60 114 -32 52 -77 131
-100 175 -76 146 -163 285 -211 338 -26 29 -44 56 -41 61 8 14 65 -55 136
-164z m1187 25 c26 -19 72 -45 103 -60 39 -18 56 -32 56 -45 0 -11 9 -24 19
-30 28 -15 33 -12 19 10 -10 15 -10 22 0 32 6 6 12 36 12 65 0 48 3 54 26 63
18 7 32 6 47 -2 12 -7 26 -11 30 -10 5 1 6 -2 3 -7 -3 -5 1 -12 10 -15 9 -4
14 -15 12 -30 -1 -13 2 -34 9 -47 6 -13 17 -38 24 -56 11 -25 17 -30 31 -22
13 7 21 4 32 -13 27 -38 20 -56 -39 -89 -30 -17 -57 -35 -61 -40 -3 -5 -40
-25 -82 -44 -129 -60 -182 -89 -182 -101 0 -12 126 -11 254 3 72 8 79 7 84 -9
2 -10 9 -18 14 -18 6 0 8 7 4 15 -3 9 0 15 8 15 9 0 12 -9 8 -26 -3 -15 -10
-23 -18 -20 -7 3 -23 -6 -36 -19 -13 -14 -34 -25 -48 -25 -14 0 -38 -9 -55
-20 -33 -22 -139 -28 -151 -9 -3 6 -17 8 -29 5 -13 -3 -26 -2 -30 4 -3 5 -28
12 -54 16 -38 5 -48 10 -45 23 2 9 0 39 -4 66 -10 60 14 169 35 160 43 -17 46
-17 23 2 -21 18 -25 30 -26 78 -1 52 -3 59 -35 83 -59 46 -75 82 -47 110 9 9
9 18 0 37 -11 25 -11 25 11 14 12 -6 43 -26 68 -44z m-2567 -17 c-3 -12 -1
-24 6 -28 9 -5 9 -17 2 -44 -6 -20 -7 -36 -2 -36 4 0 11 12 14 26 4 15 10 24
13 20 3 -3 12 -1 20 5 8 7 13 8 13 1 0 -20 34 -23 49 -5 13 17 13 17 8 1 -4
-11 -1 -18 6 -18 24 0 147 -145 147 -172 0 -11 -116 -68 -138 -68 -18 0 -21 4
-71 80 -16 25 -39 55 -50 67 -12 12 -21 27 -21 33 0 38 -78 -39 -105 -104 -8
-19 -19 -38 -25 -41 -6 -4 -8 -11 -5 -16 8 -12 -38 -29 -80 -29 -66 0 -137
-32 -196 -88 -52 -50 -75 -88 -109 -179 -9 -23 -19 -33 -33 -33 -34 0 -87 -47
-88 -78 0 -25 -17 -77 -18 -58 -1 5 -8 3 -16 -4 -22 -18 -26 -10 -35 63 -4 36
-11 70 -15 76 -3 6 -6 30 -7 54 0 23 -5 50 -10 60 -14 27 5 43 52 45 28 1 49
10 67 27 15 13 41 30 57 36 17 7 60 31 96 54 36 23 81 47 100 55 19 7 43 22
54 34 23 26 221 240 258 279 23 24 31 26 48 17 15 -8 19 -17 14 -32z m3766
-220 c0 -20 4 -29 13 -25 9 3 12 -13 12 -62 0 -70 11 -90 75 -133 25 -17 25
-17 3 -17 -15 -1 -28 -12 -38 -31 -8 -16 -27 -33 -40 -36 -16 -4 -25 -13 -25
-25 0 -16 -5 -18 -27 -13 -16 4 -32 11 -37 15 -6 5 -25 9 -42 9 -31 0 -49 20
-42 46 1 5 -1 23 -6 40 -5 22 0 50 19 101 14 39 25 77 25 86 0 9 4 19 10 22 5
3 8 0 5 -7 -3 -7 0 -20 5 -28 9 -13 11 -13 20 0 5 8 10 25 10 37 0 24 38 66
52 57 4 -3 8 -19 8 -36z m-2680 -148 c0 -11 12 -26 30 -35 30 -15 41 -30 72
-99 16 -34 16 -37 2 -32 -27 10 65 -93 111 -124 42 -29 237 -231 230 -238 -4
-4 -81 53 -100 74 -25 27 -123 104 -132 104 -5 0 -30 19 -54 41 -55 52 -98 79
-124 79 -27 0 -46 45 -50 117 -4 53 -9 98 -21 168 l-5 30 20 -33 c12 -18 21
-41 21 -52z m-4231 36 c50 -52 65 -132 30 -167 -20 -20 -21 -20 -41 -2 -32 28
-58 88 -58 132 0 80 18 89 69 37z m3992 -196 c148 -173 321 -421 305 -437 -10
-10 -36 19 -86 92 -26 38 -64 86 -84 104 -20 19 -36 45 -36 57 0 12 -17 39
-38 60 -21 22 -49 57 -62 79 -13 22 -38 63 -57 92 -33 52 -46 89 -15 43 9 -13
42 -54 73 -90z m1567 -380 c41 -85 88 -171 103 -191 34 -44 35 -49 8 -49 -11
0 -17 -4 -14 -10 3 -5 3 -10 -2 -10 -26 0 -143 221 -183 347 -7 21 -16 43 -20
48 -9 12 -50 142 -50 159 0 17 73 -119 158 -294z m717 200 c4 -6 11 -7 17 -4
8 5 9 1 4 -12 -4 -10 -11 -59 -15 -109 -7 -77 -13 -100 -45 -156 -20 -36 -36
-73 -36 -81 0 -9 -7 -21 -16 -29 -8 -7 -24 -29 -34 -50 -20 -37 -70 -71 -126
-83 -25 -6 -37 0 -86 44 -63 56 -103 119 -143 225 -35 94 -32 113 25 132 25 8
52 21 60 28 42 36 122 63 265 89 90 17 122 19 130 6z m553 -137 l50 -47 -32
-40 c-18 -23 -49 -70 -68 -106 -19 -36 -60 -109 -91 -163 -75 -129 -76 -159
-5 -118 18 11 50 23 71 27 38 6 39 6 35 -22 -3 -25 -7 -29 -30 -26 -15 2 -48
-6 -73 -17 -43 -19 -47 -19 -75 -3 -16 9 -30 22 -30 28 0 6 -23 34 -51 62 -47
47 -51 55 -45 84 3 18 19 50 34 70 44 61 72 112 72 130 0 9 11 38 25 64 14 26
25 53 25 60 0 7 12 25 27 39 21 18 39 25 69 25 35 0 49 -7 92 -47z m-2302
-281 c122 -84 144 -101 122 -102 -12 0 -15 -5 -11 -17 6 -16 4 -16 -22 2 -17
10 -91 57 -165 103 l-135 84 61 -5 c55 -4 71 -11 150 -65z m-692 -17 c3 -8 19
-23 36 -34 17 -10 45 -42 63 -71 27 -45 46 -61 122 -104 50 -28 110 -60 135
-71 25 -10 52 -24 60 -31 8 -6 31 -17 51 -23 28 -9 40 -21 55 -54 10 -23 29
-47 42 -53 36 -18 38 -25 6 -19 -18 3 -37 -1 -49 -10 -16 -13 -18 -19 -7 -35
25 -40 16 -51 -35 -47 -27 3 -56 8 -66 12 -10 4 -20 5 -23 2 -6 -6 -19 3 -62
42 -14 13 -39 25 -55 25 -23 1 -30 6 -34 29 -3 15 -11 27 -19 27 -15 0 -27 31
-29 77 -2 24 -17 48 -58 93 -31 33 -58 69 -62 80 -3 11 -10 20 -14 20 -9 0
-40 65 -46 99 -2 13 -12 32 -21 42 -10 11 -12 19 -7 19 6 0 13 -7 17 -15z
m2007 -183 c25 -43 30 -59 24 -90 -5 -31 -16 -44 -67 -81 l-61 -43 74 -74 c41
-40 81 -76 90 -79 26 -9 71 13 107 51 48 51 125 72 150 42 5 -7 12 -78 14
-158 2 -80 8 -151 12 -158 6 -10 13 -10 33 3 15 10 34 14 48 11 19 -5 40 8
105 64 45 38 85 70 89 70 5 0 25 31 45 70 20 38 47 75 59 82 12 6 27 18 33 27
10 13 14 13 28 2 9 -7 16 -21 16 -31 0 -17 4 -17 48 -5 26 7 60 18 75 24 57
22 60 9 5 -20 -32 -16 -58 -36 -58 -43 0 -10 -23 -18 -72 -27 -67 -11 -77 -16
-119 -60 -26 -27 -51 -65 -58 -88 -6 -23 -16 -41 -20 -41 -8 0 -99 -128 -110
-154 -2 -5 4 -6 13 -3 25 10 19 -9 -10 -32 -25 -20 -26 -21 -5 -21 18 0 20 -4
15 -25 -9 -34 10 -32 38 5 22 30 42 38 53 20 3 -5 -9 -31 -28 -57 -38 -56
-125 -202 -192 -323 -25 -47 -52 -91 -60 -99 -20 -21 -35 -4 -28 32 6 31 4 30
-56 -32 -34 -35 -64 -62 -67 -59 -2 3 17 46 44 95 27 50 52 100 55 112 6 25
-9 78 -29 102 -20 23 -18 59 3 59 15 0 15 3 -4 21 -23 24 -66 19 -56 -7 3 -7
0 -14 -7 -14 -6 0 -8 -4 -5 -10 4 -6 -2 -7 -18 -1 -13 5 -38 6 -57 2 -26 -5
-38 -16 -59 -57 -14 -27 -30 -61 -36 -74 -5 -14 -19 -29 -31 -34 -11 -5 -28
-22 -37 -38 -9 -16 -30 -36 -46 -45 -19 -12 -33 -31 -41 -57 -7 -22 -27 -54
-46 -71 -21 -19 -37 -46 -42 -70 l-9 -40 -12 28 c-6 16 -11 37 -11 47 0 10 -9
28 -20 41 l-19 24 -1 -30 c0 -23 -3 -27 -10 -15 -5 8 -10 26 -10 40 0 14 -7
36 -16 48 -16 23 -35 34 -187 108 -46 22 -87 50 -99 66 -11 16 -49 47 -85 70
-44 28 -61 44 -54 51 7 7 18 7 36 -1 14 -7 33 -12 41 -12 12 0 12 3 -2 25 -8
13 -13 32 -10 42 5 17 -4 69 -18 103 -4 10 3 19 21 28 25 11 29 10 50 -15 34
-42 28 -17 -17 67 -22 41 -61 120 -88 175 -27 55 -70 126 -95 157 -27 32 -47
67 -47 80 0 14 -14 38 -35 58 -19 18 -32 37 -29 42 3 4 1 8 -3 8 -11 0 -49 62
-45 74 2 4 -9 23 -23 42 -18 24 -22 34 -12 34 17 0 263 -231 259 -243 -1 -5 1
-6 6 -3 4 2 28 0 52 -5 29 -7 53 -6 73 1 17 5 62 13 101 16 80 7 127 31 143
75 14 37 70 46 153 25 76 -20 75 -20 59 1 -13 15 -12 16 6 8 35 -14 69 -8 91
18 12 14 31 30 43 36 25 14 21 45 -7 71 -20 18 -52 84 -52 107 0 9 8 21 17 28
14 11 15 15 4 29 -10 12 -18 13 -35 5 -17 -10 -19 -9 -8 2 17 18 15 29 -5 29
-15 0 -16 2 -3 10 12 8 28 -4 72 -53 32 -34 72 -86 89 -115z m-5922 141 c0 -5
-4 -17 -8 -28 -7 -15 0 -32 26 -68 28 -40 32 -51 22 -63 -7 -8 -22 -14 -33
-13 -37 2 -41 0 -79 -51 -35 -47 -109 -110 -129 -110 -14 0 -9 27 6 33 19 7
131 156 123 163 -3 3 -22 -6 -42 -21 -44 -34 -56 -28 -16 8 16 14 41 46 56 71
15 25 34 46 42 46 9 0 13 6 10 14 -3 8 -3 17 0 20 9 8 23 7 22 -1z m-209 -263
c0 -11 -6 -35 -14 -53 -7 -18 -17 -64 -21 -102 -9 -86 -22 -114 -72 -148 -43
-30 -66 -33 -101 -13 -24 13 -24 13 27 50 57 40 116 116 117 149 2 59 17 118
32 127 25 14 32 12 32 -10z m11370 -74 c0 -2 -39 -16 -87 -31 -114 -34 -170
-62 -268 -134 -85 -62 -251 -228 -334 -334 l-49 -63 -59 -2 c-50 -2 -55 0 -37
11 71 41 124 86 163 138 25 32 48 59 52 59 3 0 24 26 47 58 54 76 88 108 169
154 104 58 249 127 291 137 39 9 112 14 112 7z m-9457 -46 c-10 -10 -21 -13
-24 -8 -3 5 -9 2 -12 -6 -4 -9 -18 -21 -32 -26 -22 -8 -25 -15 -25 -57 0 -27
-3 -58 -6 -69 -4 -16 7 -36 43 -77 68 -79 91 -111 122 -166 14 -27 52 -76 84
-110 31 -34 57 -66 57 -71 0 -5 31 -42 69 -83 41 -45 72 -87 76 -106 8 -38 18
-39 33 -6 6 14 16 25 22 25 15 0 12 -36 -10 -120 -11 -41 -24 -108 -29 -148
-6 -51 -14 -77 -26 -86 -15 -11 -17 -29 -16 -121 1 -117 -5 -136 -14 -39 -10
107 -14 474 -5 474 4 0 6 9 3 20 -3 11 -14 20 -24 20 -11 0 -19 4 -19 9 0 4
-28 39 -61 77 -64 72 -171 205 -202 252 -109 163 -177 291 -177 333 0 26 72
96 104 102 11 2 36 4 54 4 30 0 31 -1 15 -17z m11610 -262 c-48 -92 -71 -125
-138 -191 -44 -43 -114 -102 -155 -129 -84 -57 -193 -118 -211 -118 -7 0 -20
-6 -28 -14 -9 -7 -44 -17 -78 -20 -51 -6 -63 -4 -63 7 0 24 62 64 110 71 25 4
77 23 117 42 80 38 110 44 74 13 -13 -11 -21 -22 -18 -26 9 -9 106 77 244 217
65 65 109 123 176 233 10 15 20 27 23 27 3 0 -21 -50 -53 -112z m-1835 -17
c30 -60 124 -223 170 -296 28 -43 29 -61 15 -187 -8 -76 -23 -117 -23 -65 0
15 -4 27 -10 27 -5 0 -10 -4 -10 -10 0 -5 -7 -10 -15 -10 -10 0 -6 8 10 25 29
28 31 60 11 139 -14 54 -32 88 -93 182 -18 27 -35 65 -38 84 -4 19 -17 65 -30
103 -13 37 -22 67 -20 67 2 0 17 -27 33 -59z m-517 -314 c24 -18 89 -63 144
-100 l101 -67 79 -1 c44 0 105 -4 135 -9 30 -5 76 -12 103 -16 32 -5 47 -12
47 -21 0 -12 -7 -13 -27 -8 -16 4 -95 9 -177 10 -127 1 -150 4 -158 18 -5 9
-20 17 -33 17 -14 0 -33 8 -43 18 -10 10 -54 40 -98 67 -88 54 -134 92 -134
112 0 20 13 16 61 -20z m1239 -174 c-1 -5 -14 -24 -30 -42 -25 -30 -38 -36
-85 -41 -52 -6 -69 0 -44 16 20 12 -12 23 -58 19 -44 -2 -81 14 -70 32 3 5 41
10 83 11 43 2 80 5 83 7 7 8 121 6 121 -2z m208 -113 c44 -73 48 -93 32 -150
-15 -53 -150 -173 -150 -134 0 4 15 23 33 44 17 21 47 57 66 80 l35 43 -41 76
c-36 68 -45 111 -24 111 4 0 27 -31 49 -70z m-7057 -622 c43 -54 79 -100 79
-104 0 -3 -11 -4 -25 -2 -28 6 -31 1 -12 -27 8 -11 17 -28 20 -38 6 -15 4 -16
-14 -7 -11 6 -23 18 -25 25 -3 8 -15 17 -25 20 -11 4 -28 23 -38 43 -10 20
-28 46 -40 56 -12 11 -21 25 -21 32 0 7 -3 14 -7 16 -8 3 -71 94 -106 151 -10
16 -15 37 -12 47 3 9 -1 23 -10 30 -8 7 -15 18 -15 24 0 15 156 -149 251 -266z"/>
<path d="M12063 7460 c4 -17 -11 -92 -39 -187 -8 -27 2 -29 28 -6 14 13 21 14
27 5 5 -8 15 -4 34 14 27 25 35 44 17 44 -6 0 -6 9 0 26 15 38 13 48 -15 78
-14 15 -25 31 -25 37 0 5 -7 9 -16 9 -11 0 -15 -6 -11 -20z"/>
<path d="M10042 2918 c-7 -7 -12 -20 -12 -29 0 -10 -10 -25 -22 -33 l-22 -16
21 -22 c27 -30 43 -62 43 -87 0 -23 29 -56 79 -91 19 -13 62 -48 94 -77 61
-54 86 -62 144 -47 18 5 23 13 21 38 0 17 2 56 7 86 l7 55 -68 31 c-38 18 -96
42 -129 54 -63 24 -89 40 -65 40 8 0 3 12 -15 30 -16 17 -25 30 -21 30 17 0
66 -35 66 -47 0 -12 13 -18 34 -14 5 1 13 -4 17 -11 6 -8 9 -2 9 18 0 22 -8
36 -30 52 -35 26 -48 29 -29 6 12 -15 11 -16 -11 -9 -14 4 -30 12 -35 19 -12
13 -51 36 -63 36 -4 0 -13 -5 -20 -12z"/>
<path d="M9825 2785 c-5 -2 -22 -6 -37 -9 -32 -7 -36 -23 -11 -42 26 -18 8
-29 -19 -12 -23 14 -168 25 -168 12 0 -3 13 -32 29 -63 16 -31 34 -67 40 -81
11 -26 29 -58 68 -120 11 -19 27 -55 33 -80 14 -54 43 -96 80 -119 56 -34 190
-168 190 -190 0 -12 7 -35 16 -52 22 -44 43 -35 151 62 72 64 84 91 109 241 5
29 1 46 -19 80 -28 48 -78 98 -118 119 -48 26 -150 104 -223 170 -74 68 -104
88 -121 84z"/>
</g>
</svg>
