<?xml version="1.0" standalone="no"?>
<!DOCTYPE svg PUBLIC "-//W3C//DTD SVG 20010904//EN"
 "http://www.w3.org/TR/2001/REC-SVG-20010904/DTD/svg10.dtd">
<svg version="1.0" xmlns="http://www.w3.org/2000/svg"
 width="1920.000000pt" height="1080.000000pt" viewBox="0 0 1920.000000 1080.000000"
 preserveAspectRatio="xMidYMid meet">
<metadata>
Created by potrace 1.16, written by Peter Selinger 2001-2019
</metadata>
<g transform="translate(0.000000,1080.000000) scale(0.100000,-0.100000)"
fill="#000000" stroke="none">
<path d="M0 5400 l0 -5400 9600 0 9600 0 0 5400 0 5400 -9600 0 -9600 0 0
-5400z m9720 5325 c125 -16 240 -33 280 -42 45 -10 233 -11 305 -2 156 20 728
49 782 40 21 -3 54 -5 73 -4 133 6 392 1 421 -9 19 -6 86 -11 150 -12 70 -1
121 -6 130 -12 8 -7 59 -12 124 -13 61 -1 162 -9 225 -17 98 -14 132 -14 245
-3 149 15 239 15 304 -1 37 -9 55 -8 91 5 42 15 100 12 100 -4 0 -4 11 -14 25
-21 18 -10 22 -16 13 -22 -10 -6 -9 -8 2 -8 19 0 109 -43 110 -52 0 -4 -12 -3
-27 3 -19 7 -25 7 -18 0 10 -10 463 -166 590 -203 39 -11 178 -61 310 -110
186 -70 318 -129 586 -263 195 -97 368 -189 394 -210 76 -63 375 -421 375
-449 0 -5 -73 66 -161 158 -212 219 -279 273 -464 377 -55 30 -144 81 -197
112 -114 67 -236 126 -345 166 -43 16 -98 38 -122 49 -29 13 -56 18 -77 15
-26 -4 -46 2 -91 28 -81 48 -241 117 -299 129 -27 5 -116 19 -199 30 -82 12
-195 32 -249 46 -55 14 -138 28 -185 31 -51 4 -105 14 -131 26 -52 22 -192 47
-267 47 -30 0 -84 -11 -125 -25 -101 -34 -113 -36 -285 -40 -84 -2 -162 -9
-173 -15 -11 -6 -20 -8 -20 -5 0 3 -15 -1 -32 -8 -40 -16 -78 -13 -178 11 -14
4 -47 5 -75 3 -98 -7 -141 -5 -230 11 -63 12 -145 17 -275 17 -259 0 -450 -23
-579 -70 -31 -12 -92 -32 -136 -45 -44 -13 -102 -34 -130 -48 -66 -32 -170
-57 -275 -66 -85 -7 -102 -13 -245 -88 -22 -12 -87 -44 -145 -71 -113 -54
-158 -78 -236 -128 -27 -18 -73 -37 -101 -43 -58 -13 -67 -19 -116 -80 -43
-55 -123 -99 -266 -146 -110 -36 -167 -59 -189 -77 -8 -6 -21 -12 -30 -13 -31
-3 -44 -9 -74 -36 -17 -16 -38 -28 -47 -28 -16 0 -73 -41 -154 -112 -20 -18
-45 -37 -55 -42 -9 -5 -26 -20 -37 -33 -11 -13 -26 -23 -32 -23 -6 0 -31 -20
-55 -44 -34 -34 -48 -60 -68 -122 -32 -101 -32 -113 -4 -126 31 -14 30 -22 -5
-47 -22 -16 -27 -26 -23 -46 2 -14 0 -25 -6 -25 -5 0 -44 -22 -86 -50 -42 -27
-81 -50 -86 -50 -6 0 -10 -6 -10 -14 0 -7 -19 -26 -42 -42 -24 -16 -52 -38
-64 -49 -42 -40 -84 -75 -84 -70 0 7 -59 -45 -79 -69 -21 -25 -52 -57 -77 -77
-10 -8 -37 -37 -59 -63 -22 -27 -46 -54 -52 -62 -7 -7 -13 -15 -13 -18 0 -15
-176 -196 -190 -196 -6 0 -10 -4 -10 -10 0 -5 -17 -26 -38 -47 -20 -21 -51
-56 -67 -77 -32 -41 -57 -72 -90 -109 -11 -13 -29 -36 -40 -51 -11 -15 -28
-37 -37 -48 -10 -12 -18 -26 -18 -33 0 -7 -9 -20 -20 -30 -11 -10 -20 -24 -20
-31 0 -7 -6 -19 -14 -26 -7 -8 -31 -45 -51 -84 -21 -38 -41 -71 -44 -74 -19
-16 -70 -155 -77 -210 -2 -19 -7 -44 -11 -55 -3 -11 -7 -83 -8 -160 -2 -123
-5 -149 -29 -220 -15 -44 -42 -105 -59 -135 -18 -30 -52 -96 -77 -145 -25 -50
-51 -94 -57 -98 -7 -4 -13 -14 -13 -22 0 -7 -6 -20 -12 -27 -12 -13 -19 -24
-50 -80 -7 -13 -15 -25 -18 -28 -10 -10 -42 -66 -56 -100 -8 -19 -26 -58 -39
-85 -14 -28 -25 -54 -25 -58 0 -5 -12 -24 -26 -42 -14 -19 -23 -38 -20 -44 3
-5 3 -11 -1 -13 -23 -10 -103 -153 -103 -183 0 -12 -3 -25 -7 -29 -5 -4 -9
-26 -9 -49 -1 -23 -2 -50 -3 -59 -1 -10 -12 -20 -26 -24 -25 -6 -25 -7 -8 -26
10 -11 35 -29 56 -39 21 -11 67 -44 102 -74 51 -44 72 -55 99 -55 19 0 36 -6
39 -12 3 -10 9 -10 28 -1 53 25 64 24 61 -8 -1 -3 20 -4 46 -2 38 4 45 2 35
-8 -17 -17 -116 -30 -102 -13 8 9 5 11 -11 7 -11 -3 -19 -12 -18 -21 2 -10 -5
-18 -17 -20 -36 -7 -105 -65 -99 -84 6 -20 -8 -23 -37 -8 -47 26 -129 18 -129
-11 0 -6 11 -25 24 -42 13 -18 30 -52 37 -76 7 -23 19 -45 27 -48 11 -5 11 -7
0 -14 -10 -7 -9 -9 3 -9 18 0 32 -37 18 -46 -5 -3 -7 -10 -4 -15 4 -5 1 -9 -5
-9 -8 0 -10 -9 -6 -25 4 -16 2 -25 -5 -25 -6 0 -9 -6 -6 -14 3 -7 0 -19 -6
-26 -9 -10 -8 -12 4 -7 13 4 16 -1 13 -28 -2 -29 2 -35 24 -44 l27 -9 -30 -2
c-16 -1 -41 -3 -54 -3 -18 -2 -24 -9 -27 -29 -1 -17 2 -28 9 -28 8 0 9 -3 2
-8 -6 -4 -12 -18 -12 -31 -1 -13 -7 -27 -14 -31 -6 -5 -8 -16 -4 -29 3 -12 2
-21 -4 -21 -5 0 -10 -8 -10 -17 1 -46 -14 -159 -21 -167 -5 -5 -6 -15 -3 -22
3 -8 -2 -25 -11 -39 -17 -25 -22 -59 -8 -53 18 7 210 216 241 261 17 26 35 47
39 47 22 0 83 183 118 347 2 13 11 23 19 23 9 0 24 5 34 12 15 9 23 9 35 -1 9
-8 16 -18 16 -24 0 -22 56 -127 67 -127 7 0 13 -4 13 -9 0 -5 14 -20 31 -32
28 -20 35 -21 66 -10 31 12 37 11 57 -8 19 -18 35 -21 107 -21 90 -1 128 -17
130 -57 1 -17 2 -17 6 0 7 27 21 11 15 -18 -5 -31 -16 -32 -36 -3 -14 19 -16
20 -16 5 0 -10 7 -26 16 -34 8 -9 14 -24 11 -33 -2 -9 4 -22 14 -28 16 -10 20
-8 25 15 9 35 42 62 76 63 27 0 60 -26 92 -71 13 -19 18 -20 31 -9 8 7 15 25
15 41 0 23 6 32 28 40 15 6 39 18 55 26 26 13 27 13 27 -9 0 -13 -11 -44 -25
-70 -33 -62 -99 -272 -120 -379 -17 -94 -39 -371 -38 -494 0 -62 8 -101 32
-173 17 -52 31 -97 31 -102 0 -4 -35 -8 -77 -8 -69 0 -80 3 -99 23 -12 13 -21
25 -20 27 0 2 -5 -3 -11 -11 -7 -8 -13 -18 -13 -23 0 -4 -4 -8 -10 -8 -6 0 -7
31 -3 82 6 75 5 81 -12 75 -12 -5 -16 -3 -12 7 7 19 -3 28 -18 16 -14 -12 -55
15 -55 36 0 8 -7 28 -15 44 -9 17 -11 30 -6 30 5 0 7 9 4 20 -3 12 -2 20 3 19
38 -7 43 0 30 38 -7 21 -19 38 -27 38 -15 0 -15 60 0 157 5 27 5 51 1 53 -7 5
-70 -77 -70 -92 -1 -13 -37 -53 -48 -53 -12 0 -28 -47 -37 -110 -9 -64 -55
-230 -72 -264 -8 -16 -29 -43 -46 -60 -18 -18 -39 -45 -47 -62 -8 -16 -21 -34
-28 -39 -7 -6 -15 -28 -19 -50 -6 -39 -36 -113 -67 -165 -8 -14 -23 -45 -34
-70 -11 -25 -41 -69 -67 -98 -26 -28 -48 -58 -49 -65 -1 -7 -12 -29 -24 -48
-12 -20 -22 -39 -22 -43 0 -3 -20 -50 -44 -105 -54 -118 -186 -326 -307 -481
-10 -13 -19 -28 -19 -33 0 -13 146 -3 235 17 44 10 113 29 153 43 40 13 78 23
85 20 13 -4 -79 -67 -99 -67 -7 0 -14 -4 -16 -8 -10 -25 -263 -92 -348 -92
-63 0 -88 -12 -127 -63 -61 -79 -228 -245 -354 -351 -31 -26 -237 -153 -299
-183 -130 -65 -288 -89 -381 -58 -74 25 -118 50 -160 93 -19 21 -51 48 -70 61
-19 13 -65 60 -104 103 -38 44 -77 87 -85 96 -16 18 -29 36 -82 115 -18 26
-36 47 -40 47 -5 0 -8 7 -8 15 0 8 -3 15 -8 15 -4 0 -14 15 -22 33 -7 17 -22
40 -31 50 -49 53 -106 197 -134 337 -9 47 -18 92 -20 100 -3 8 -13 49 -24 90
-11 41 -22 100 -25 130 -4 30 -13 87 -21 125 -28 130 -37 224 -27 281 5 30 7
66 4 80 -6 32 -80 84 -120 84 -34 0 -52 30 -52 88 0 31 -5 41 -31 56 -22 13
-29 24 -26 37 6 23 -2 29 -27 19 -26 -9 -73 15 -81 41 -4 11 -4 31 -1 45 5 19
0 28 -32 47 -20 14 -43 32 -51 41 -16 19 -31 12 -31 -15 0 -15 -7 -19 -37 -19
-51 -1 -81 -26 -84 -72 -2 -20 0 -40 4 -44 4 -4 7 -16 7 -26 0 -11 4 -16 10
-13 11 7 6 -9 -21 -62 -10 -20 -19 -42 -19 -48 0 -6 -10 -17 -22 -25 -46 -31
-84 -83 -106 -144 -26 -71 -45 -96 -110 -137 -34 -21 -58 -29 -93 -29 -52 0
-60 -7 -78 -68 -6 -23 -24 -57 -40 -75 -15 -17 -34 -54 -41 -80 -8 -30 -22
-55 -38 -65 -48 -33 -71 -60 -83 -100 -10 -33 -9 -44 1 -57 11 -14 15 -12 31
15 11 17 29 34 42 39 13 5 43 22 68 38 44 29 102 53 130 53 8 0 32 14 53 30
22 17 43 30 48 30 5 0 20 11 34 25 14 14 36 33 50 42 23 14 26 14 44 -2 18
-16 18 -20 4 -47 -8 -16 -47 -63 -86 -103 -63 -67 -70 -78 -63 -102 19 -69 7
-135 -42 -232 -43 -84 -53 -97 -98 -122 -97 -55 -183 -81 -272 -82 -90 -1
-110 8 -133 64 -14 34 2 110 28 131 8 7 25 30 38 50 14 21 31 38 39 38 20 0
36 33 24 51 -7 11 -17 5 -50 -31 -22 -25 -47 -52 -55 -61 -8 -9 -32 -19 -53
-23 -21 -3 -55 -19 -76 -36 -21 -17 -45 -28 -52 -25 -8 2 -61 14 -119 26 -177
35 -175 33 -245 207 -27 66 -29 83 -29 195 0 122 0 122 55 282 133 391 172
502 184 524 12 22 59 87 124 175 12 16 44 47 71 68 56 45 135 111 216 183 102
90 169 142 215 165 6 3 36 23 69 45 135 92 135 92 396 155 321 78 316 77 353
57 56 -31 162 -123 159 -139 -1 -8 5 -21 13 -28 8 -7 15 -19 15 -28 0 -8 3
-12 6 -9 4 4 20 -5 37 -19 34 -28 108 -68 105 -57 0 5 3 16 7 27 5 10 4 24 -1
31 -44 60 -44 59 -33 116 l11 54 -53 56 c-30 30 -62 58 -72 62 -21 8 -47 65
-47 102 0 32 -18 68 -29 60 -5 -2 -17 8 -27 23 -9 15 -25 32 -33 39 -21 16
-93 16 -134 0 -39 -15 -143 -15 -159 1 -7 7 -23 12 -36 12 -15 0 -21 4 -16 12
5 8 2 9 -12 3 -10 -4 -43 -10 -71 -13 -29 -2 -50 -8 -47 -13 17 -28 -103 9
-176 54 -36 22 -83 51 -105 64 -22 13 -62 40 -90 59 -41 30 -56 35 -85 30 -19
-3 -62 -10 -95 -15 -153 -24 -372 -7 -505 41 -47 16 -124 42 -171 58 -47 15
-110 45 -140 66 -184 128 -224 165 -282 253 -39 61 -42 70 -45 146 l-4 81 80
76 c44 41 97 83 117 92 43 21 178 60 255 75 82 15 453 32 725 33 268 0 272 0
610 -82 116 -28 239 -55 275 -61 36 -6 79 -13 95 -15 49 -9 109 -4 118 9 5 8
7 5 5 -8 -2 -14 2 -19 15 -17 9 2 20 -4 23 -12 3 -9 10 -14 14 -11 5 3 17 -3
27 -13 25 -27 42 -34 173 -80 63 -22 153 -54 200 -72 234 -86 273 -94 265 -55
-2 11 -9 43 -14 70 -6 28 -13 72 -16 98 -2 26 -7 52 -11 58 -4 6 -1 15 6 19
21 13 -9 45 -106 115 -108 77 -101 69 -177 184 -63 96 -73 106 -117 115 -26 5
-237 160 -280 205 -141 149 -269 327 -296 415 -9 28 -19 90 -21 137 -5 86 -5
87 36 165 92 177 203 263 341 263 67 1 91 -5 245 -59 135 -47 158 -58 287
-136 51 -31 109 -65 128 -76 19 -11 52 -33 73 -50 32 -25 42 -29 60 -20 55 27
66 25 113 -20 24 -24 70 -58 102 -76 51 -30 63 -32 120 -29 34 3 65 1 68 -4 3
-5 23 -7 45 -4 75 9 138 57 168 128 20 46 33 66 59 90 7 7 23 23 35 36 12 13
32 27 43 31 12 5 41 42 65 83 24 42 47 73 51 71 5 -3 8 1 8 8 0 16 19 41 72
99 20 22 47 53 60 70 12 17 37 48 53 68 17 20 33 40 37 46 4 5 26 32 50 60 24
27 46 54 50 60 4 5 20 26 36 45 69 84 109 179 132 315 5 28 20 75 34 105 13
30 35 80 48 111 13 31 33 69 46 85 13 16 49 65 81 110 49 70 125 168 141 184
3 3 29 35 58 71 29 36 74 84 99 105 25 21 53 46 63 54 10 8 32 26 50 40 18 14
39 31 46 38 7 6 17 12 23 12 6 0 11 4 11 9 0 5 12 14 28 20 50 19 125 66 233
143 37 27 70 48 73 48 4 0 12 5 19 10 29 25 136 87 174 103 23 9 73 23 111 31
108 23 208 75 299 158 24 21 49 38 58 38 8 0 69 54 134 120 65 65 120 118 122
116 2 -3 15 12 29 32 61 87 154 168 240 209 47 22 105 45 130 51 123 29 155
41 287 104 175 84 256 130 308 177 32 28 40 32 43 19 4 -23 71 28 176 134 80
80 149 132 160 121 3 -4 6 -2 6 4 0 14 21 22 90 38 73 17 68 17 200 0z m1682
-1316 c49 -11 104 -26 122 -33 69 -29 307 -183 425 -275 126 -98 361 -331 361
-357 0 -8 24 -41 54 -73 31 -34 59 -75 65 -96 11 -42 129 -201 174 -236 46
-36 151 -148 159 -170 4 -10 1 -38 -8 -61 -19 -56 -10 -102 19 -94 23 6 117
-21 117 -34 0 -4 -7 -13 -15 -20 -12 -10 -26 -9 -74 9 -32 11 -69 21 -82 20
-13 0 -36 3 -51 6 -26 7 -128 -24 -155 -47 -19 -15 -16 2 4 24 9 10 40 25 69
34 75 21 106 48 102 88 -2 25 -8 31 -28 32 -14 0 -44 7 -67 14 -34 10 -51 11
-82 2 -51 -16 -71 -15 -71 2 0 13 -27 31 -42 28 -4 -1 -58 25 -121 58 -63 33
-116 57 -119 55 -3 -3 -5 9 -4 27 1 31 -2 33 -31 33 -17 0 -29 -3 -26 -7 2 -5
-1 -8 -6 -8 -6 0 -11 6 -11 13 0 6 -5 4 -11 -6 -6 -10 -8 -25 -5 -33 7 -19
-14 -18 -76 6 -29 11 -61 20 -71 20 -10 0 -22 11 -27 25 -5 14 -16 25 -25 25
-8 0 -15 5 -15 10 0 6 -6 10 -14 10 -7 0 -30 11 -50 25 -21 14 -35 21 -31 15
10 -16 -4 -12 -43 15 -20 14 -43 25 -51 25 -40 0 -232 70 -396 146 -16 7 -48
18 -70 23 -22 5 -58 16 -80 25 -22 8 -49 15 -59 16 -18 0 -18 1 -4 13 9 6 18
24 22 39 5 23 3 27 -21 30 -14 2 -29 9 -31 17 -3 9 0 12 10 8 12 -4 14 1 12
26 -5 37 -3 36 -43 40 -17 2 -36 8 -42 14 -18 18 -21 163 -4 196 19 38 19 47
0 47 -8 0 -15 -4 -15 -10 0 -22 -19 -7 -65 50 -42 53 -55 62 -106 76 -33 9
-59 20 -59 25 0 15 65 58 136 90 81 37 239 79 298 79 22 0 59 7 81 14 35 13
43 13 63 0 13 -8 64 -24 114 -35z m3556 -458 c93 -32 123 -79 104 -163 -7 -28
-12 -134 -12 -250 0 -197 0 -200 -20 -195 -20 5 -20 3 -13 -56 9 -71 9 -151 0
-222 -3 -27 -6 -52 -7 -55 0 -2 -7 6 -16 18 -9 13 -26 22 -42 22 -28 0 -92 33
-92 48 0 13 -68 42 -85 36 -23 -9 -18 -64 9 -118 27 -53 26 -65 -6 -85 -17
-11 -22 -11 -29 0 -6 11 -9 11 -12 -1 -2 -8 -14 -44 -25 -80 -12 -36 -26 -84
-32 -107 -6 -24 -33 -73 -61 -110 -70 -95 -78 -103 -88 -103 -17 0 -22 19 -7
27 10 6 12 13 6 23 -11 17 -109 16 -153 -2 -24 -9 -32 -8 -55 9 -17 13 -27 29
-26 44 2 50 50 273 88 409 17 60 20 91 9 88 -9 -1 -50 15 -109 43 -51 24 -71
24 -79 -1 -3 -11 -13 -20 -21 -20 -8 0 -19 -12 -24 -27 -18 -49 -45 -103 -51
-103 -4 0 -10 -11 -13 -25 -3 -13 -15 -29 -26 -35 -25 -13 -65 -83 -80 -138
-7 -27 -29 -63 -59 -96 -26 -29 -51 -65 -55 -79 l-6 -27 -118 0 c-100 0 -122
3 -151 21 -31 19 -34 19 -46 3 -9 -13 -14 -14 -20 -5 -4 7 -2 18 4 24 15 15
14 47 -2 47 -8 0 -20 -19 -27 -42 -8 -24 -19 -46 -25 -50 -7 -5 -6 -14 2 -27
11 -17 10 -19 -1 -15 -8 3 -17 1 -20 -5 -4 -6 -13 -8 -21 -4 -20 7 -19 -11 1
-31 14 -15 14 -16 -5 -16 -12 0 -21 -4 -21 -8 0 -9 -8 -10 -100 -15 -36 -2
-71 -6 -77 -10 -8 -5 -16 7 -24 35 -6 24 -26 68 -45 98 -19 31 -34 62 -34 70
0 36 109 209 175 278 63 65 74 73 115 77 25 2 69 9 99 15 29 5 73 10 96 10 41
0 43 2 69 53 15 29 43 69 62 90 59 62 94 74 249 86 155 11 191 7 262 -34 26
-15 71 -40 99 -55 l52 -28 16 40 15 41 46 -6 c24 -4 87 -10 138 -13 l94 -7 5
54 c4 35 -1 81 -14 134 -30 125 -22 249 26 390 50 148 55 155 114 155 26 -1
71 -9 100 -19z m-3426 -557 c57 -20 141 -47 186 -60 l84 -23 24 24 c32 32 39
31 66 -5 12 -16 27 -30 32 -30 6 0 38 -14 71 -30 33 -17 69 -30 80 -31 11 0 2
-6 -20 -13 l-39 -11 59 -30 c61 -29 80 -46 89 -78 4 -15 2 -16 -10 -6 -11 9
-14 7 -14 -10 0 -26 -1 -26 -53 -2 -59 27 -137 40 -244 43 -73 2 -94 0 -98
-11 -3 -8 0 -18 7 -23 11 -8 10 -11 -1 -15 -11 -5 -11 -7 0 -14 26 -16 -74 -9
-155 11 -43 11 -81 20 -83 20 -3 0 -3 7 0 14 4 9 -2 17 -13 21 -11 4 -17 13
-15 24 3 15 -7 20 -48 29 -123 26 -179 32 -241 26 -64 -7 -65 -6 -78 21 -11
25 -10 29 11 46 23 19 23 19 2 19 -12 0 -21 4 -21 9 0 18 17 20 36 6 25 -19
31 -19 37 5 3 13 10 18 21 14 9 -3 16 -1 16 5 0 6 -4 11 -9 11 -5 0 -12 7 -15
16 -6 15 3 16 81 12 49 -3 82 -3 76 -1 -20 7 -15 23 7 23 11 0 23 7 26 15 9
22 33 19 146 -21z m3938 -936 c19 -5 63 -25 97 -44 34 -19 68 -34 76 -34 8 0
22 -11 32 -24 11 -14 38 -32 62 -41 37 -14 46 -24 75 -83 18 -37 35 -69 38
-72 3 -3 6 -11 8 -18 5 -27 -50 19 -146 122 -24 25 -48 46 -53 46 -13 0 -11
-24 4 -40 6 -8 -10 3 -36 24 -52 41 -137 90 -144 82 -3 -2 4 -24 15 -48 l19
-45 -46 -28 c-25 -16 -59 -40 -75 -54 l-29 -26 20 30 c29 45 42 84 45 138 2
42 -2 51 -26 71 -25 20 -27 25 -17 45 9 16 18 20 29 16 9 -4 33 -12 52 -17z
m-3755 -98 l27 -10 -6 -83 c-4 -45 -12 -104 -19 -130 l-11 -49 -41 7 c-40 7
-69 11 -92 14 -9 1 -9 13 2 49 8 26 15 81 15 123 0 42 3 79 7 82 10 11 88 8
118 -3z m-1398 -66 c-3 -3 -19 -13 -35 -22 -16 -10 -56 -35 -88 -56 -175 -115
-193 -126 -221 -126 -36 0 -46 9 -32 27 9 11 1 13 -45 13 -31 0 -56 4 -56 9 0
5 20 6 44 4 38 -5 44 -3 49 16 4 18 1 21 -31 22 -35 0 -91 17 -64 18 17 1 15
21 -2 21 -8 0 -16 5 -18 10 -2 7 -19 5 -47 -5 -24 -8 -51 -15 -61 -15 -10 0
-20 -6 -23 -14 -6 -14 -50 -16 -63 -4 -9 10 159 58 225 64 34 4 61 10 61 14 0
4 18 7 40 7 22 -1 40 -2 40 -4 0 -1 -10 -11 -22 -23 -16 -15 -19 -23 -11 -31
9 -9 28 -8 77 5 36 9 78 16 93 16 15 0 57 14 93 30 58 26 113 40 97 24z m1948
-52 c66 -12 194 -33 285 -47 185 -29 450 -85 450 -95 0 -14 -300 33 -475 75
-76 19 -141 32 -144 30 -4 -5 -2 -5 62 -25 53 -16 41 -22 -24 -11 -30 5 -92
14 -139 21 -70 10 -196 33 -307 57 -13 3 -23 9 -23 14 0 15 183 3 315 -19z
m-280 -162 c33 -5 80 -12 105 -15 158 -19 532 -103 552 -123 11 -11 -5 -9
-162 25 -179 38 -261 53 -310 59 -25 3 -52 8 -60 11 -8 3 -35 7 -60 9 -119 10
-246 28 -254 35 -13 12 114 11 189 -1z m-683 -187 c31 -28 22 -56 -31 -101
-26 -23 -69 -51 -95 -63 -25 -13 -46 -27 -46 -32 0 -13 48 -57 63 -57 7 0 23
-9 37 -20 23 -17 23 -19 7 -26 -10 -4 -22 -17 -27 -29 -10 -26 -45 -34 -116
-26 -38 5 -50 10 -52 26 -4 18 -18 38 -109 155 -32 42 -34 43 61 -44 41 -37
78 -77 81 -87 8 -23 25 -15 25 12 0 10 4 19 9 19 10 0 -16 58 -33 75 -6 6 -30
25 -54 44 -55 43 -69 68 -49 88 13 14 16 13 26 -6 12 -22 45 -28 57 -10 9 15
184 97 208 98 11 1 28 -6 38 -16z m1006 -41 c44 -52 57 -64 100 -83 23 -11 72
-23 107 -26 76 -7 87 -17 110 -95 9 -31 22 -62 30 -68 26 -21 19 -41 -10 -30
-31 12 -52 4 -60 -21 -4 -10 -15 -19 -26 -19 -10 0 -29 -10 -41 -22 -20 -20
-20 -22 -3 -35 11 -7 29 -13 42 -13 22 0 179 -72 197 -90 21 -21 49 -8 96 41
44 46 51 50 65 36 14 -14 13 -17 -7 -32 -20 -13 -21 -17 -8 -25 18 -12 77 -13
83 -2 2 4 2 0 0 -7 -2 -8 -8 -61 -13 -116 -10 -101 -10 -102 20 -168 16 -37
30 -76 30 -87 0 -44 -89 -44 -152 1 -32 23 -57 24 -64 4 -4 -9 -14 -13 -23
-11 -34 11 -67 -38 -52 -77 8 -20 5 -29 -13 -46 -31 -29 -34 -27 -26 22 6 31
5 44 -5 50 -21 11 -55 72 -55 97 0 12 -9 33 -20 47 -11 14 -20 32 -20 39 0 8
-13 26 -29 41 -22 22 -29 40 -35 88 -4 33 -11 64 -16 69 -8 8 -1005 11 -1070
2 -19 -3 -66 -8 -105 -11 -38 -4 -113 -18 -165 -30 -52 -13 -108 -26 -125 -28
-16 -3 -50 -10 -75 -16 -92 -23 -297 -51 -367 -51 -74 0 -106 -7 -98 -20 3 -4
-17 -11 -43 -15 -26 -4 -57 -16 -69 -27 l-22 -20 -29 21 c-17 12 -40 41 -52
65 l-21 45 54 83 c54 84 54 84 133 115 160 62 259 83 402 83 64 0 81 -3 86
-16 11 -28 7 -33 -34 -45 -21 -7 -37 -15 -35 -19 18 -30 -88 -43 -146 -19 -28
11 -150 -7 -219 -33 -90 -34 -177 -104 -166 -133 11 -29 239 -16 426 24 89 19
174 31 220 31 42 0 81 5 87 11 6 6 35 19 65 29 37 12 53 22 53 34 0 23 19 32
88 41 54 6 57 5 57 -16 0 -21 3 -22 61 -15 34 3 78 6 97 6 26 0 33 3 28 15 -4
11 2 15 24 15 16 0 32 5 35 10 3 6 0 10 -8 10 -10 0 -13 7 -10 20 3 12 0 20
-7 20 -16 0 -7 89 14 150 7 22 10 40 5 40 -21 0 -7 57 23 89 l31 34 94 -18
c100 -18 174 -16 218 7 170 91 224 110 295 102 33 -4 51 -12 68 -32z m3966
-70 c8 -15 25 -39 38 -55 13 -15 38 -51 55 -80 16 -28 49 -84 72 -123 45 -77
86 -182 75 -193 -4 -3 -9 0 -11 7 -3 6 -8 10 -12 7 -9 -5 -111 179 -159 287
-16 36 -40 71 -51 78 -12 6 -19 15 -16 19 2 5 -9 25 -25 46 -16 21 -27 41 -24
46 8 14 42 -9 58 -39z m-8554 -1302 c52 -12 113 -26 135 -31 48 -12 72 -15
195 -23 52 -4 115 -8 140 -11 133 -12 188 -17 215 -21 51 -8 165 -9 165 -3 0
18 324 31 386 16 18 -4 69 -24 115 -45 46 -21 111 -49 144 -61 134 -51 156
-61 190 -88 20 -15 50 -50 67 -76 32 -50 54 -67 85 -67 11 0 43 -23 73 -50 50
-46 55 -49 62 -30 9 26 30 26 54 -1 16 -17 16 -22 4 -30 -8 -5 -21 -7 -27 -4
-33 12 -8 -39 51 -107 13 -14 13 -23 0 -70 -7 -29 -14 -83 -14 -120 0 -63 -3
-72 -40 -125 -29 -41 -40 -68 -40 -94 0 -32 -9 -44 -85 -115 -55 -50 -119 -97
-179 -130 -52 -28 -122 -74 -157 -102 -49 -40 -73 -53 -108 -57 -67 -8 -96
-19 -96 -34 0 -15 -105 -75 -114 -65 -3 3 1 10 9 15 11 8 12 12 2 16 -6 2 -10
9 -6 14 10 17 -49 9 -69 -8 -14 -13 -33 -17 -71 -16 -41 2 -48 0 -36 -10 24
-19 21 -63 -6 -88 -21 -20 -63 -21 -50 -1 5 9 -79 32 -116 32 -18 0 -20 -4
-14 -40 7 -42 1 -46 -55 -41 -9 1 -38 -13 -65 -32 -50 -34 -115 -67 -131 -67
-5 0 -10 7 -10 15 0 8 5 15 10 15 6 0 2 8 -9 19 -10 10 -22 17 -26 14 -5 -2
-8 3 -8 11 0 13 -4 14 -27 4 -16 -7 -35 -18 -44 -25 -9 -7 -18 -10 -21 -7 -4
3 -20 -2 -37 -10 -16 -9 -54 -21 -83 -27 -29 -6 -71 -19 -93 -29 -88 -39 -106
-43 -118 -31 -6 6 -22 11 -35 11 -22 0 -24 4 -20 35 l4 35 -66 0 c-80 0 -207
-37 -216 -62 -9 -28 -33 -21 -52 14 -23 42 -93 118 -111 118 -8 0 -11 6 -7 16
3 8 2 12 -4 9 -6 -3 -10 3 -10 14 0 24 -16 36 -26 20 -12 -20 -22 11 -23 77 0
35 4 66 9 69 6 4 10 59 10 128 1 171 24 272 96 412 31 61 69 129 85 153 16 24
29 53 29 66 0 13 8 30 18 39 10 9 19 28 20 44 1 15 7 32 13 38 5 5 49 10 97 9
68 0 98 -5 137 -23 48 -21 57 -22 215 -16 105 4 181 3 210 -4 41 -9 52 -7 135
26 92 38 139 63 117 63 -7 0 -42 28 -78 62 -62 60 -140 118 -157 118 -5 0 -23
11 -41 25 -18 14 -38 25 -44 25 -7 0 -12 5 -12 10 0 6 -6 10 -13 10 -8 0 -34
14 -58 32 -57 41 -202 98 -249 98 -22 0 -51 9 -71 23 -44 30 -96 53 -136 62
-17 3 -34 13 -37 20 -3 8 -12 12 -21 9 -8 -3 -15 -2 -15 4 0 5 -15 12 -32 16
-25 5 -29 9 -19 16 10 5 27 3 49 -6 44 -18 45 -18 32 6 -9 17 -8 20 12 20 13
0 66 -9 118 -20z m3747 -42 c36 -4 61 -13 82 -30 17 -15 52 -34 78 -44 26 -10
62 -30 80 -45 47 -40 329 -175 458 -219 190 -65 309 -100 340 -101 17 0 62 -9
100 -20 100 -28 295 -68 330 -69 29 0 29 1 -12 22 -24 12 -43 26 -43 31 0 8
98 5 270 -9 l65 -5 -35 31 c-19 17 -50 37 -67 45 -39 17 -43 46 -10 67 19 13
28 13 61 1 22 -7 48 -11 58 -7 11 3 46 -8 86 -29 37 -19 87 -37 112 -41 25 -4
65 -20 90 -36 25 -16 70 -40 101 -53 59 -27 73 -37 182 -140 40 -37 81 -70 93
-73 11 -3 41 -25 66 -50 59 -57 112 -79 223 -94 116 -14 245 -47 268 -67 12
-12 17 -31 17 -68 0 -29 5 -67 12 -86 14 -44 59 -109 75 -109 7 0 35 17 63 38
45 33 50 40 46 65 -4 19 7 69 30 140 20 61 40 142 44 180 8 73 25 96 68 97 28
0 37 21 22 49 -14 27 -8 26 50 -5 44 -24 49 -31 64 -84 9 -32 24 -64 33 -71 9
-8 22 -29 30 -48 22 -53 27 -28 14 64 -8 48 -10 89 -7 93 7 7 144 -36 161 -50
5 -4 14 -8 20 -8 5 0 1 7 -9 15 -11 8 -18 17 -15 19 5 5 139 -58 148 -70 6 -9
96 -54 107 -54 4 0 3 11 0 25 -8 32 10 33 58 4 35 -21 48 -49 24 -49 -7 -1 1
-7 17 -15 129 -62 443 -338 520 -458 l19 -30 13 31 c7 18 15 32 17 32 22 0 37
-19 47 -61 8 -31 21 -55 36 -64 25 -17 32 -62 12 -82 -8 -8 -8 -17 0 -32 12
-21 31 -29 31 -11 0 15 42 51 73 62 15 6 27 14 27 18 0 13 133 33 186 28 38
-4 62 -14 104 -46 30 -23 60 -42 67 -42 18 0 134 -118 122 -126 -6 -3 -8 -12
-5 -20 7 -17 -10 -64 -23 -64 -10 0 -39 41 -43 62 -4 19 -25 38 -40 38 -8 0
-34 15 -58 32 -47 35 -46 27 7 -38 48 -59 41 -66 -14 -13 -27 25 -57 52 -67
60 -18 13 -19 12 -13 -4 4 -10 1 -27 -6 -38 -10 -16 -8 -26 11 -59 12 -21 22
-41 22 -45 0 -3 -25 15 -56 40 -88 72 -131 95 -202 111 -84 17 -110 18 -95 3
14 -14 7 -34 -51 -149 -51 -99 -98 -248 -94 -293 l3 -32 133 -7 c96 -5 136
-11 147 -22 8 -8 23 -17 33 -20 12 -4 25 -28 36 -66 17 -56 17 -60 1 -77 -16
-15 -17 -31 -11 -135 6 -95 5 -117 -6 -114 -7 3 -84 7 -171 10 -86 3 -166 10
-176 16 -20 10 -28 48 -52 250 -11 93 -15 108 -38 127 -17 15 -22 25 -15 30
11 8 44 66 44 79 0 3 -7 0 -16 -7 -15 -12 -24 -6 -79 54 -68 75 -88 86 -50 30
24 -38 41 -70 64 -127 13 -31 5 -51 -9 -25 -17 31 -49 64 -50 52 0 -7 -7 -13
-15 -13 -18 0 -18 -4 -5 -162 5 -68 14 -188 20 -268 6 -80 15 -174 20 -210 31
-219 43 -298 61 -412 23 -143 22 -183 -3 -128 -27 60 -37 92 -58 190 -35 155
-40 190 -60 392 -11 106 -28 256 -39 333 -11 77 -27 189 -35 249 -8 59 -17
111 -20 114 -10 9 -85 -20 -137 -55 -28 -18 -57 -33 -64 -33 -7 0 -15 -14 -19
-30 -7 -37 -54 -61 -68 -35 -18 30 -35 15 -48 -42 -7 -32 -21 -69 -31 -82 -11
-13 -19 -28 -19 -33 0 -5 -11 -33 -23 -61 -20 -43 -55 -141 -74 -207 -6 -20
-30 9 -79 98 -32 57 -108 171 -215 323 -13 18 -43 58 -67 88 -45 56 -48 70
-13 51 25 -13 26 -4 6 37 -18 35 -194 198 -328 303 -11 8 -31 25 -46 37 l-26
22 52 1 c56 0 77 18 67 56 -3 11 3 29 13 41 11 12 28 38 38 57 16 30 17 40 7
56 -6 10 -9 26 -6 34 5 14 -22 36 -45 36 -18 0 -12 -33 11 -57 12 -13 19 -26
15 -29 -3 -3 -15 5 -27 18 -20 23 -23 24 -68 13 -40 -10 -52 -10 -82 4 -19 9
-36 19 -38 23 -2 5 -13 1 -25 -7 -24 -16 -77 -20 -77 -6 0 5 -8 12 -17 14 -12
3 -8 5 9 6 37 1 58 11 58 26 0 8 8 15 18 17 10 3 5 6 -14 9 -28 5 -30 3 -26
-19 4 -18 1 -23 -9 -20 -8 3 -14 11 -14 19 -1 23 -27 79 -37 79 -6 0 -7 -7 -4
-16 5 -14 4 -15 -9 -4 -10 8 -13 21 -9 34 4 12 3 18 -1 14 -10 -9 -37 11 -30
22 2 4 -10 24 -28 45 -22 26 -42 38 -66 41 -18 2 -59 17 -90 33 -109 56 -286
75 -518 56 -117 -9 -194 4 -344 60 -137 51 -194 79 -344 170 -134 81 -242 133
-358 174 -49 17 -108 42 -132 57 -34 19 -55 24 -92 22 -48 -3 -48 -3 -45 -37
2 -24 -4 -41 -19 -58 -27 -27 -51 -29 -79 -5 -11 9 -28 18 -38 19 -22 2 -66
11 -117 24 -22 6 -74 18 -115 28 -41 10 -88 24 -105 31 -16 6 -37 13 -45 15
-127 26 -315 81 -390 114 -52 23 -138 56 -190 72 -52 17 -102 37 -110 44 -19
17 -156 63 -225 77 -41 7 -149 21 -235 29 -37 3 -71 -2 -66 -10 4 -5 30 -12
59 -16 28 -4 77 -18 108 -31 30 -12 108 -31 172 -40 64 -10 117 -21 117 -26 0
-23 -210 3 -365 45 -49 14 -120 31 -157 38 -52 10 -68 17 -68 30 0 30 -13 30
-240 11 -150 -12 -219 -49 -190 -101 5 -10 7 -20 5 -23 -6 -5 10 -57 31 -105
18 -41 2 -81 -35 -89 -14 -3 -43 -9 -64 -14 -41 -9 -107 10 -107 31 0 12 61
39 90 39 11 0 23 6 26 14 8 20 -45 96 -67 96 -28 0 -43 35 -30 72 6 17 11 43
11 57 0 14 9 41 20 59 18 30 23 32 76 32 30 0 64 -4 74 -10 19 -10 124 -20
254 -24 60 -2 72 1 98 22 16 13 32 21 36 18 3 -4 0 -11 -7 -15 -27 -17 10 -21
151 -18 228 7 372 -6 533 -47 135 -35 168 -48 285 -114 56 -31 292 -111 480
-162 58 -15 140 -38 183 -51 42 -12 80 -19 84 -16 4 4 -5 20 -19 35 -14 15
-39 48 -57 75 -36 54 -70 73 -236 137 -293 112 -292 112 -592 140 -116 11
-143 16 -143 30 0 15 57 22 215 26 88 2 163 4 166 4 4 0 9 10 12 22 6 20 8 21
24 6 10 -8 41 -18 70 -20z m706 -63 c54 -19 117 -45 140 -57 l42 -23 -45 -3
c-108 -8 -270 55 -270 105 0 20 27 16 133 -22z m745 -25 c12 -18 22 -48 22
-66 0 -36 0 -36 -80 -48 -19 -3 -52 -9 -72 -12 -34 -6 -38 -4 -44 21 -8 31 9
48 39 41 17 -4 74 14 89 29 3 3 -10 22 -30 40 l-37 34 25 9 c31 12 56 -2 88
-48z m1877 -20 c92 -26 178 -59 251 -96 118 -59 226 -125 219 -132 -5 -5 -242
93 -395 163 -52 24 -126 57 -165 74 -38 17 -65 30 -60 31 6 0 73 -18 150 -40z
m-4687 -396 c91 -25 114 -35 177 -80 34 -23 77 -49 96 -57 29 -12 99 -82 99
-99 0 -7 -64 3 -75 12 -24 18 -212 113 -257 130 -46 17 -56 18 -112 5 -116
-26 -218 -26 -216 0 0 6 27 20 59 31 33 12 72 31 88 42 15 11 39 22 53 25 14
2 27 5 28 6 2 0 29 -6 60 -15z m5642 -316 c23 -24 50 -63 61 -88 11 -25 33
-58 48 -75 74 -81 96 -138 46 -119 -64 25 -225 235 -225 294 0 42 20 38 70
-12z m-5743 16 c42 -8 62 -23 69 -51 10 -39 44 -74 66 -67 18 5 126 -60 178
-108 14 -13 57 -48 97 -77 67 -50 166 -161 143 -161 -5 0 -10 -7 -10 -15 0 -9
6 -12 15 -9 15 6 20 -12 15 -63 -1 -15 4 -23 14 -23 10 0 13 -6 10 -15 -4 -8
-1 -15 6 -15 7 0 10 -7 7 -15 -4 -8 -2 -17 3 -20 19 -12 9 -25 -19 -25 -22 0
-35 9 -55 38 -14 21 -43 54 -63 73 -20 18 -31 26 -24 17 10 -14 9 -18 -8 -27
-11 -6 -28 -11 -39 -11 -11 0 -25 -6 -31 -14 -7 -8 -30 -17 -51 -21 -45 -8
-69 7 -62 41 4 24 -25 41 -42 24 -15 -15 -47 -12 -68 7 -17 15 -18 14 -18 -19
0 -44 -26 -197 -40 -233 -6 -15 -14 -25 -18 -21 -3 4 -10 91 -13 194 -7 194
-23 296 -74 482 -36 129 -40 155 -26 146 6 -4 23 -10 38 -12z m7057 -1045 c14
-11 26 -25 26 -30 0 -11 126 -166 140 -171 4 -2 10 -10 12 -18 2 -8 7 -18 12
-21 9 -7 2 -45 -12 -67 -13 -19 -34 -6 -64 41 -46 70 -82 116 -97 122 -16 6
-51 -22 -51 -42 0 -7 -7 -13 -15 -13 -19 0 -19 30 0 58 14 19 14 24 0 51 -8
17 -15 48 -15 71 0 32 4 40 19 40 10 0 30 -9 45 -21z m-268 -232 c19 -39 34
-80 34 -90 0 -61 132 -323 185 -367 28 -23 75 -127 75 -166 0 -41 2 -41 -95 0
-33 14 -70 26 -83 26 -48 0 -312 154 -404 236 -17 15 -28 34 -28 50 0 29 4 27
57 -19 17 -15 25 -17 42 -8 20 11 20 13 4 46 -24 51 -10 86 40 98 43 10 52 23
61 88 5 33 16 56 41 82 31 33 33 39 24 69 -11 41 -11 41 2 32 6 -3 26 -38 45
-77z m192 -154 c20 -27 179 -187 294 -294 76 -71 148 -196 148 -257 0 -35 -3
-43 -15 -38 -8 3 -15 4 -15 3 0 -14 32 -153 44 -189 8 -27 12 -48 8 -48 -10 0
-45 56 -73 115 -34 73 -148 277 -165 296 -7 8 -19 31 -26 50 -6 19 -21 50 -33
69 -12 19 -35 60 -50 90 -15 30 -53 89 -85 130 -68 91 -74 100 -61 100 5 0 19
-12 29 -27z m466 -257 c9 -19 16 -37 16 -41 0 -4 16 -39 36 -78 41 -81 74
-179 74 -218 0 -22 -4 -27 -25 -25 -14 0 -25 5 -25 10 0 17 -82 177 -105 204
-26 31 -86 144 -80 151 9 8 38 -24 66 -74 31 -53 39 -42 14 18 -31 75 -5 124
29 53z m-946 -245 c9 -5 40 -17 67 -26 54 -18 181 -80 205 -100 17 -14 100
-38 180 -53 30 -5 82 -23 115 -38 l60 -29 -49 -6 c-79 -9 -177 11 -283 57 -17
8 -47 14 -66 14 -27 0 -49 11 -94 47 -32 26 -64 53 -71 60 -7 6 -30 22 -52 34
-22 13 -40 29 -40 36 0 15 4 16 28 4z m-1495 -358 c8 -16 17 -48 21 -73 4 -28
27 -82 58 -135 119 -207 158 -305 124 -305 -20 0 -77 50 -107 95 -28 40 -35
43 -44 15 -3 -11 -15 -25 -26 -31 -27 -14 -49 5 -49 43 0 18 -4 27 -11 23 -12
-8 -34 14 -66 65 l-22 35 36 31 36 30 -17 52 c-10 29 -15 59 -12 67 3 8 1 15
-4 15 -6 0 -10 -4 -10 -10 0 -18 -19 -10 -25 11 -12 38 23 71 102 98 1 1 9
-11 16 -26z m1587 -479 c0 -21 -10 -41 -32 -64 -28 -30 -37 -33 -82 -32 -28 1
-74 -6 -102 -14 -52 -15 -104 -7 -104 15 0 17 29 39 67 51 21 6 47 15 58 20
11 4 48 16 82 25 35 10 70 26 80 37 20 23 33 9 33 -38z m-2335 -201 c21 -101
48 -200 59 -213 8 -8 17 -26 21 -40 4 -14 32 -74 62 -135 l55 -110 -38 36
c-57 53 -126 96 -148 91 -16 -3 -18 -11 -13 -55 3 -29 9 -68 13 -87 l7 -35
-21 26 c-11 14 -39 65 -62 115 -105 221 -113 245 -89 260 6 3 9 15 6 25 -4 13
0 19 13 19 23 0 36 -17 45 -57 4 -19 13 -33 21 -33 12 0 13 16 8 94 -5 73 -4
97 7 110 22 25 48 19 54 -11z m-827 -322 c14 -9 19 -83 7 -123 -5 -18 -4 -20
4 -8 6 8 11 27 11 43 0 29 31 67 55 67 8 0 15 5 15 11 0 5 4 8 9 5 5 -3 12
-30 15 -60 6 -41 0 -89 -24 -206 -25 -120 -30 -167 -26 -223 l6 -72 -17 55
c-9 30 -27 63 -40 73 -13 10 -23 25 -23 33 0 20 -16 18 -32 -4 -7 -11 -23 -24
-35 -30 -12 -7 -25 -21 -28 -33 -11 -34 -20 -11 -26 69 -6 82 13 186 50 267
11 22 21 57 24 78 6 37 22 67 36 67 3 0 12 -4 19 -9z m-760 -197 c3 -29 -36
-190 -58 -239 -5 -11 -11 -49 -14 -85 -4 -36 -9 -86 -12 -112 l-6 -48 -24 33
c-29 39 -39 61 -51 107 l-9 35 -16 -55 c-9 -30 -19 -74 -23 -97 -4 -24 -10
-43 -15 -43 -4 0 -14 33 -21 73 -13 80 -5 166 33 330 27 120 42 134 140 133
l73 -1 3 -31z"/>
<path d="M8370 5295 c0 -2 26 -23 58 -45 49 -35 97 -71 162 -123 8 -7 33 -23
55 -36 22 -12 45 -31 52 -41 14 -19 36 -16 188 25 28 8 69 17 93 21 23 4 45
11 48 15 7 12 -43 11 -90 -2 -77 -21 -136 -14 -136 17 0 17 37 19 42 3 5 -14
98 -3 98 11 0 5 -17 10 -37 12 -30 3 -34 6 -20 12 18 8 89 -8 112 -25 6 -4 17
-4 25 1 8 5 18 6 22 4 13 -9 9 4 -8 20 -8 9 -28 16 -44 16 -16 0 -31 4 -34 9
-3 5 -23 12 -43 16 -21 4 -51 13 -68 20 -63 29 -137 55 -156 55 -11 0 -22 -7
-25 -15 -4 -8 -13 -15 -21 -15 -8 0 -11 -4 -8 -10 3 -5 0 -7 -8 -4 -8 3 -13
13 -10 23 3 13 -2 20 -19 24 -40 11 -98 8 -98 -5 0 -9 -3 -9 -12 0 -7 7 -21
12 -32 12 -18 0 -17 -1 4 -20 29 -25 16 -26 -16 -1 -13 10 -20 21 -17 25 3 3
-8 6 -25 6 -18 0 -32 -2 -32 -5z"/>
<path d="M12702 4904 c30 -16 203 -87 338 -139 47 -18 105 -41 130 -52 25 -11
58 -25 73 -32 50 -20 170 -49 236 -56 35 -4 79 -14 97 -21 38 -16 124 -19 124
-5 0 14 31 18 64 9 16 -4 31 -6 34 -4 2 2 -27 29 -65 59 -91 72 -123 82 -508
157 -82 15 -177 31 -210 35 -33 4 -121 20 -194 36 -154 33 -155 33 -119 13z"/>
</g>
</svg>
